<svg xmlns="http://www.w3.org/2000/svg" width="16" height="17" viewBox="0 0 16 17">
  <path fill="#005157" d="M21.0238095,12 C21.2692694,12 21.4734179,12.1431847 21.5157539,12.3320054 L21.5238095,12.4047619 L21.523,13.619 L23.3571429,13.6190476 C24.4240566,13.6190476 25.2981433,14.4446382 25.3754013,15.4918179 L25.3809524,15.6428571 L25.3809524,26.9761905 C25.3809524,28.0939096 24.474862,29 23.3571429,29 L23.3571429,29 L12.0238095,29 C10.9060904,29 10,28.0939096 10,26.9761905 L10,26.9761905 L10,15.6428571 C10,14.525138 10.9060904,13.6190476 12.0238095,13.6190476 L12.0238095,13.6190476 L14.047,13.619 L14.047619,12.4047619 C14.047619,12.1812181 14.2714767,12 14.547619,12 C14.7930789,12 14.9972274,12.1431847 15.0395634,12.3320054 L15.047619,12.4047619 L15.047,13.619 L20.523,13.619 L20.5238095,12.4047619 C20.5238095,12.1812181 20.7476671,12 21.0238095,12 Z M24.571,19.476 L10.809,19.476 L10.8095238,26.9761905 C10.8095238,27.6049075 11.2873449,28.1220234 11.8996559,28.184207 L12.0238095,28.1904762 L23.3571429,28.1904762 C24.0277743,28.1904762 24.5714286,27.646822 24.5714286,26.9761905 L24.5714286,26.9761905 L24.571,19.476 Z M14.047,14.428 L12.0238095,14.4285714 C11.353178,14.4285714 10.8095238,14.9722257 10.8095238,15.6428571 L10.8095238,15.6428571 L10.809,18.476 L24.571,18.476 L24.5714286,15.6428571 C24.5714286,15.0141401 24.0936075,14.4970242 23.4812965,14.4348406 L23.3571429,14.4285714 L21.523,14.428 L21.5238095,15.6428571 C21.5238095,15.866401 21.2999519,16.047619 21.0238095,16.047619 C20.7783496,16.047619 20.5742012,15.9044344 20.5318652,15.7156136 L20.5238095,15.6428571 L20.523,14.428 L15.047,14.428 L15.047619,15.6428571 C15.047619,15.866401 14.8237614,16.047619 14.547619,16.047619 C14.3021592,16.047619 14.0980107,15.9044344 14.0556747,15.7156136 L14.047619,15.6428571 L14.047,14.428 Z" transform="translate(-10 -12)"/>
</svg>
