<svg xmlns="http://www.w3.org/2000/svg" width="300" height="53" viewBox="0 0 300 53">
  <path fill="#400500" d="M1175.82472,45.1794534 C1175.82472,39.9511299 1178.79124,37.541609 1182.58371,37.541609 C1186.68995,37.541609 1188.43489,40.4365279 1188.43489,44.4045635 L1188.25134,46.1664711 C1186.97768,46.1664711 1185.0988,46.2750305 1184.06821,46.2750305 L1179.67425,46.2750305 L1179.67425,46.3286863 C1179.81563,48.3950596 1180.87722,49.7189859 1182.95825,49.7189859 C1184.04384,49.7151715 1185.11834,49.499034 1186.12195,49.0826028 L1187.0062,51.7030036 C1185.65178,52.4247275 1184.14826,52.8174487 1182.61596,52.8497409 C1178.537,52.8397585 1175.82472,50.5138408 1175.82472,45.1794534 Z M1179.70401,43.5972304 L1185.06904,43.5972304 C1185.01075,41.7891539 1184.27036,40.727263 1182.64076,40.727263 C1180.90947,40.724772 1179.96445,41.7317546 1179.70649,43.5959826 L1179.70401,43.5972304 Z M1112.31997,45.1794534 C1112.31997,39.9511299 1115.28524,37.541609 1119.08144,37.541609 C1123.18644,37.541609 1124.9289,40.4365279 1124.9289,44.4045635 L1124.74659,46.1664711 C1123.46796,46.1664711 1121.59405,46.2750305 1120.56346,46.2750305 L1116.17197,46.2750305 L1116.17197,46.3286863 C1116.31583,48.3950596 1117.37247,49.7189859 1119.45473,49.7189859 C1120.5411,49.7148927 1121.61636,49.498772 1122.62092,49.0826028 L1123.50641,51.7030036 C1122.15016,52.4246137 1120.64507,52.8173034 1119.1112,52.8497409 C1115.02976,52.8397585 1112.32741,50.5138408 1112.32741,45.1794534 L1112.31997,45.1794534 Z M1116.2005,43.5972304 L1121.56304,43.5972304 C1121.50599,41.7891539 1120.76437,40.727263 1119.13849,40.727263 C1117.39975,40.724772 1116.45597,41.7317546 1116.20298,43.5959826 L1116.2005,43.5972304 Z M1208.28028,47.6426302 L1208.28028,40.7260198 L1205.88549,40.7260198 L1205.88549,38.3876241 L1208.28028,38.3164989 L1208.28028,34.0652105 L1211.44771,34.0652105 L1211.78876,38.1131059 L1215.98429,38.0557066 L1215.98429,40.724772 L1212.01571,40.724772 L1212.01571,47.1572321 C1212.01571,49.1063112 1212.61348,49.7352074 1214.15502,49.7352074 C1214.81835,49.7113358 1215.47805,49.6257031 1216.12567,49.4794064 L1216.74576,52.3219173 C1215.74973,52.6470419 1214.71093,52.8203277 1213.66391,52.8360166 C1211.53576,52.8372628 1208.28276,52.1210199 1208.28276,47.6413824 L1208.28028,47.6426302 Z M1140.60604,47.6426302 L1140.60604,40.7260198 L1138.21124,40.7260198 L1138.21124,38.3876241 L1140.60604,38.3164989 L1140.60604,34.0652105 L1143.77098,34.0652105 L1144.11451,38.1131059 L1148.30757,38.0557066 L1148.30757,40.724772 L1144.33898,40.724772 L1144.33898,47.1572321 C1144.33898,49.1063112 1144.93799,49.7352074 1146.4783,49.7352074 C1147.14082,49.7115115 1147.79971,49.6258757 1148.44647,49.4794064 L1149.07648,52.3219173 C1148.08004,52.6471465 1147.04082,52.8204333 1145.99339,52.8360166 C1143.86275,52.8372628 1140.60356,52.1210199 1140.60356,47.6413824 L1140.60604,47.6426302 Z M1126.87474,52.0099649 L1127.27408,49.1125503 C1128.43246,49.6982318 1129.7145,49.9932048 1131.01075,49.9722913 C1132.46672,49.9722913 1133.57916,49.429494 1133.57916,48.2815089 C1133.57916,47.8797141 1133.40554,47.5016277 1132.57958,47.046177 C1131.30301,46.5638253 1130.05644,46.0046279 1128.84663,45.3716161 C1127.71044,44.6238343 1127.05049,43.3285441 1127.11038,41.9638473 C1127.11038,39.2361348 1129.37123,37.5428568 1132.19512,37.5428568 C1133.53612,37.5676245 1134.8644,37.8094669 1136.12898,38.2590997 L1135.78917,40.9007132 C1134.81686,40.6103499 1133.8095,40.4558391 1132.79537,40.4415192 C1131.51426,40.4415192 1130.73419,40.9094479 1130.73419,41.7941451 C1130.73419,42.5078924 1131.27615,42.7524631 1132.99256,43.4861754 C1134.03088,43.8577451 1135.023,44.3489024 1135.94915,44.9498564 C1136.93706,45.6117156 1137.51051,46.7439288 1137.46217,47.9371133 C1137.46217,51.7254642 1133.8086,52.8422541 1131.24142,52.8422541 C1129.74453,52.8778656 1128.25724,52.5924464 1126.87846,52.0049736 L1126.87474,52.0099649 Z M1052.6573,48.2665351 C1052.6573,44.8225798 1055.70938,43.5435746 1060.50145,43.3414294 L1060.50145,43.2578262 C1060.46548,41.217657 1059.77098,40.613717 1057.95163,40.613717 C1056.68176,40.7017838 1055.42377,40.9170565 1054.19636,41.2563391 L1053.39272,38.4088368 C1055.18511,37.919389 1057.02531,37.6285852 1058.88053,37.541609 C1061.39562,37.541609 1064.15626,38.1730008 1064.15626,42.6576296 L1064.15626,49.3433951 C1064.15626,50.3491299 1064.11906,51.4946194 1064.11906,52.3855556 L1061.29516,52.4242378 C1061.20835,52.1746758 1061.17115,52.0498948 1061.10045,51.7853591 C1060.01406,52.3638012 1058.79846,52.6524923 1057.56966,52.6238873 C1054.49401,52.6151527 1052.66102,50.7858633 1052.66102,48.2627917 L1052.6573,48.2665351 Z M1056.24142,48.0806115 C1056.18861,48.639587 1056.38516,49.1933062 1056.77797,49.5921469 C1057.17078,49.9909876 1057.7193,50.1937836 1058.27532,50.1457369 C1059.09275,50.1366862 1059.88174,49.8425257 1060.50765,49.3134476 L1060.50765,45.838297 C1058.33237,45.9194047 1056.24514,46.3249429 1056.24514,48.076868 L1056.24142,48.0806115 Z M980.714345,48.2665351 C980.714345,44.8225798 983.766432,43.5435746 988.557255,43.3414294 L988.557255,43.2578262 C988.52129,41.217657 987.826788,40.613717 986.006201,40.613717 C984.736324,40.7017838 983.478342,40.9170565 982.25093,41.2563391 L981.446052,38.4088368 C983.239677,37.9192565 985.081127,37.6284528 986.937578,37.541609 C989.451426,37.541609 992.213311,38.1730008 992.213311,42.6576296 L992.213311,49.3433951 C992.213311,50.3491299 992.176106,51.4946194 992.176106,52.3855556 L989.349731,52.4242378 C989.262919,52.1746758 989.225713,52.0498948 989.155023,51.7853591 C988.069501,52.3637528 986.854717,52.6524542 985.626705,52.6238873 C982.547334,52.6151527 980.716825,50.7858633 980.716825,48.2627917 L980.714345,48.2665351 Z M984.29847,48.0806115 C984.244858,48.6393364 984.440797,49.1931385 984.833244,49.5920974 C985.225691,49.9910563 985.774055,50.1939075 986.329888,50.1457369 C987.147207,50.1360682 987.93599,49.8419823 988.562216,49.3134476 L988.562216,45.838297 C986.385697,45.9194047 984.300951,46.3249429 984.300951,48.076868 L984.29847,48.0806115 Z M1102.27077,52.5552578 L1096.64655,38.0606979 L1100.75527,38.0606979 L1104.17817,47.9371133 L1107.51922,38.0606979 L1111.45928,38.0606979 L1105.70112,52.5552578 L1102.27077,52.5552578 Z M1200.46093,52.4142553 L1200.46093,45.1220542 C1200.46093,42.5977347 1200.06284,41.0167596 1197.57751,41.0167596 C1196.67833,41.0235379 1195.78104,41.1007192 1194.89376,41.2476044 L1194.89376,52.4080162 L1191.18809,52.4080162 L1191.18809,38.4325452 C1193.42792,37.8714398 1195.72466,37.5724805 1198.03266,37.541609 C1202.25796,37.541609 1204.1666,39.8101274 1204.1666,43.7132768 L1204.1666,52.4080162 L1200.46093,52.4142553 Z M1169.35097,52.4142553 L1169.35097,45.1220542 C1169.35097,42.5665395 1168.97892,41.0167596 1166.55436,41.0167596 C1165.56786,41.03815 1164.60048,41.2947394 1163.73171,41.7654455 C1163.88652,42.403292 1163.96233,43.0579537 1163.95742,43.7145246 L1163.95742,52.4080162 L1160.25176,52.4080162 L1160.25176,45.1158151 C1160.25176,42.5914957 1159.8797,41.0105205 1157.45515,41.0105205 C1156.58516,41.0172275 1155.71712,41.0944254 1154.85945,41.2413653 L1154.85945,52.4080162 L1151.15006,52.4080162 L1151.15006,38.4325452 C1153.35217,37.8724084 1155.61184,37.5733973 1157.88301,37.541609 C1159.30457,37.4682418 1160.70997,37.873007 1161.87764,38.6920897 C1163.46913,37.920297 1165.21558,37.5266805 1166.98222,37.541609 C1171.15048,37.541609 1173.05912,39.7814277 1173.05912,43.7132768 L1173.05912,52.4080162 L1169.35097,52.4142553 Z M1091.64986,52.4142553 L1091.64986,45.1220542 C1091.64986,42.5977347 1091.25176,41.0180074 1088.77015,41.0180074 C1087.87182,41.0243106 1086.97535,41.1010756 1086.08888,41.2476044 L1086.08888,52.4080162 L1082.37702,52.4080162 L1082.37702,38.4325452 C1084.61752,37.8705897 1086.91518,37.571619 1089.22406,37.541609 C1093.44812,37.541609 1095.35924,39.8101274 1095.35924,43.7132768 L1095.35924,52.4080162 L1091.64986,52.4142553 Z M1075.13311,52.4142553 L1075.13311,38.0644413 L1078.84126,38.0644413 L1078.84126,52.4080162 L1075.13311,52.4142553 Z M1046.42538,52.4142553 L1046.42538,45.1220542 C1046.42538,42.5665395 1046.05333,41.0180074 1043.62877,41.0180074 C1042.64334,41.0386083 1041.67699,41.2952637 1040.80984,41.7666933 C1040.8396,41.8914743 1040.85573,42.0399637 1040.87805,42.1697359 C1040.88921,42.234622 1040.90533,42.2945169 1040.91649,42.3544118 C1040.99508,42.8052398 1041.03656,43.2618236 1041.04051,43.7195158 L1041.04051,52.4080162 L1037.32865,52.4080162 L1037.32865,45.1158151 C1037.32865,42.5914957 1036.95659,41.0117683 1034.53328,41.0117683 C1033.66291,41.0180285 1032.79445,41.0948091 1031.93634,41.2413653 L1031.93634,52.4080162 L1028.22695,52.4080162 L1028.22695,38.4325452 C1030.42262,37.8762054 1032.67487,37.5772403 1034.93882,37.541609 C1036.37008,37.4787681 1037.78364,37.8793806 1038.97189,38.6846028 C1040.56157,37.9288636 1042.29844,37.5384338 1044.05663,37.541609 C1048.22365,37.541609 1050.13353,39.7814277 1050.13353,43.7170202 L1050.13353,52.4080162 L1046.42538,52.4142553 Z M1021.09343,52.4142553 L1021.09343,45.1220542 C1021.09343,42.5977347 1020.69657,41.0180074 1018.21496,41.0180074 C1017.31664,41.0243208 1016.42016,41.1010857 1015.53369,41.2476044 L1015.53369,52.4080162 L1011.82307,52.4080162 L1011.82307,38.4325452 C1014.06399,37.8705713 1016.36206,37.571601 1018.67135,37.541609 C1022.88797,37.541609 1024.80529,39.8101274 1024.80529,43.7170202 L1024.80529,52.4080162 L1021.09343,52.4142553 Z M1004.57544,52.4142553 L1004.57544,38.0644413 L1008.28483,38.0644413 L1008.28483,52.4080162 L1004.57544,52.4142553 Z M999.810666,52.4142553 C998.074411,52.4142553 995.734188,51.9463266 995.734188,47.6376389 L995.734188,31.7904531 L999.442332,31.7904531 L999.442332,47.492893 C999.442332,49.127524 1000.16784,49.5417969 1001.08061,49.5417969 L1002.16329,49.5417969 L1002.16329,52.4117597 L999.810666,52.4142553 Z M1229.17859,52.4142553 L1229.17859,1.42499892 L1280,1.42499892 L1280,52.4080162 L1229.17859,52.4142553 Z M1248.15337,10.1883679 L1248.15337,47.5265839 L1260.6048,43.317721 L1260.6048,6.23904955 L1248.15337,10.1883679 Z M1075.00785,34.0976536 C1075.00785,33.56815 1075.21691,33.0603334 1075.58904,32.6859178 C1075.96117,32.3115022 1076.46588,32.1011577 1076.99215,32.1011577 C1078.08663,32.104583 1078.97303,32.9964413 1078.97644,34.0976536 C1078.97644,35.2002878 1078.08804,36.0941499 1076.99215,36.0941499 C1076.46459,36.0944838 1075.95861,35.8834295 1075.58604,35.5076273 C1075.21347,35.1318251 1075.00497,34.6222146 1075.0066,34.0914146 L1075.00785,34.0976536 Z M1004.45267,34.0976536 C1004.45267,32.9950194 1005.34106,32.1011577 1006.43696,32.1011577 C1007.53285,32.1011577 1008.42125,32.9950194 1008.42125,34.0976536 C1008.42125,35.2002878 1007.53285,36.0941499 1006.43696,36.0941499 C1005.9094,36.0944838 1005.40343,35.8834295 1005.03085,35.5076273 C1004.65828,35.1318251 1004.44978,34.6222146 1004.45142,34.0914146 L1004.45267,34.0976536 Z M1196.44895,27.4218706 L1196.84704,26.0630056 L1197.31707,26.0630056 C1197.16708,25.7694501 1197.08725,25.4447279 1197.08392,25.1146701 C1197.08392,23.8144521 1198.4878,23.2192319 1199.64365,23.2192319 C1199.99277,23.2183661 1200.34091,23.2564492 1200.68169,23.3327975 L1200.26126,24.7490618 C1200.15671,24.7252708 1200.04973,24.7139625 1199.94254,24.7153709 C1199.37453,24.7153709 1198.8735,24.9487113 1198.8735,25.4066576 C1198.8735,25.810948 1199.24556,26.0630056 1199.8148,26.0630056 L1200.86771,26.0630056 L1200.46714,27.4218706 L1196.44895,27.4218706 Z M980,24.3510104 C981.339443,24.3706059 982.626348,23.8273809 983.550952,22.8520914 C984.475555,21.8768018 984.954113,20.557784 984.871434,19.2125292 L984.871434,8.85570693 L988.888384,8.85570693 L988.888384,18.7283789 C988.888384,25.3417715 984.495659,27.4181272 980.864407,27.4181272 L980,24.3510104 Z M1174.9938,20.1745906 C1174.85366,20.0310925 1174.62174,19.8002477 1174.62174,19.8002477 C1173.86444,21.1707294 1172.35411,21.939189 1170.80819,21.7405921 L1149.99545,21.7405921 C1147.01902,21.7156359 1145.65482,20.1334129 1145.65482,16.6108455 L1145.65482,1.42749454 L1149.67301,1.42749454 L1149.67301,16.4972948 C1149.67301,18.2704327 1150.44316,18.7208921 1151.43282,18.7208921 L1169.4229,18.7208921 C1170.41505,18.7208921 1171.18396,18.2704327 1171.18396,16.4972948 L1171.18396,13.9567538 L1171.18396,13.9567538 C1171.21248,10.1671551 1173.0988,7.96726628 1177.22613,7.96726628 C1179.50145,7.99428682 1181.76593,8.28741077 1183.97396,8.84073321 L1183.97396,15.4017177 C1183.97396,17.9684627 1185.18933,18.7134052 1186.63787,18.7134052 C1187.81604,18.7134052 1188.79454,18.2629458 1188.79454,16.489808 L1188.79454,8.84073321 L1192.81521,8.84073321 L1192.81521,16.6033587 C1192.81521,21.2676721 1190.22819,21.734353 1187.58165,21.734353 C1185.80489,21.952062 1184.01202,21.4858213 1182.56263,20.4291438 C1181.58388,21.4523451 1180.2149,22.0023937 1178.80488,21.9389938 C1177.35372,21.8764046 1175.98508,21.2427665 1174.9938,20.1745906 Z M1175.20711,15.8234775 L1175.20711,16.1354299 C1175.20711,16.1354299 1175.31005,16.3176102 1175.47995,16.5659244 C1176.44729,17.9984101 1177.52005,18.9280285 1178.48739,18.9280285 C1179.55767,18.9280285 1179.96693,18.1431561 1179.96693,16.3612835 L1179.96693,11.8828938 C1179.28632,11.7932438 1178.60083,11.7461526 1177.91443,11.7418913 C1175.50723,11.7418913 1175.21703,13.2479978 1175.20463,15.8234775 L1175.20711,15.8234775 Z M1005.55023,20.1745906 L1005.17817,19.8002477 C1004.41959,21.1713353 1002.9079,21.9397364 1001.36089,21.7405921 L997.238528,21.7405921 C994.262092,21.7156359 992.897892,20.1334129 992.897892,16.6108455 L992.897892,1.42749454 L996.919802,1.42749454 L996.919802,16.4972948 C996.919802,18.2704327 997.688714,18.7208921 998.677139,18.7208921 L999.97933,18.7208921 C1000.97148,18.7208921 1001.73915,18.2704327 1001.73915,16.4972948 L1001.73915,13.9567538 L1001.73915,13.9567538 C1001.77015,10.1671551 1003.65399,7.96726628 1007.78131,7.96726628 C1010.05664,7.99420786 1012.32113,8.28733298 1014.52914,8.84073321 L1014.52914,15.4017177 C1014.52914,17.9684627 1015.74824,18.7134052 1017.19305,18.7134052 L1035.71765,18.7134052 C1036.89458,18.7134052 1037.87805,18.2629458 1037.87805,16.489808 L1037.87805,8.84073321 L1041.89624,8.84073321 L1041.89624,15.4017177 C1041.89624,17.9684627 1043.11658,18.7134052 1044.56015,18.7134052 L1052.04713,18.7134052 C1053.22406,18.7134052 1054.2038,18.2629458 1054.2038,16.489808 L1054.2038,8.84073321 L1058.22447,8.84073321 L1058.22447,15.4017177 C1058.22447,17.9684627 1059.44233,18.7134052 1060.88838,18.7134052 L1077.66432,18.7134052 C1078.8425,18.7134052 1079.821,18.2629458 1079.821,16.489808 L1079.821,10.1259774 L1083.84043,8.84447664 L1083.84043,15.4054612 C1083.84043,17.9722061 1084.98884,18.7171487 1086.10128,18.7171487 C1086.99297,18.7171487 1087.85986,18.1219433 1087.85986,16.4935514 L1087.85986,10.1297209 L1091.87805,8.84822007 L1091.87805,15.4092046 C1091.87805,17.9759496 1093.0277,18.7208921 1094.14014,18.7208921 C1095.03059,18.7208921 1095.89748,18.1256868 1095.89748,16.4972948 L1095.89748,8.84822007 L1099.91567,8.84822007 L1099.91567,16.6108455 C1099.91567,20.9781802 1097.55932,21.7418399 1095.07896,21.7418399 C1093.50928,21.9090265 1091.93326,21.4902822 1090.65027,20.5651551 C1089.65429,21.4319992 1088.35207,21.8564413 1087.0401,21.7418399 C1085.47334,21.9084624 1083.90026,21.491129 1082.61885,20.5688986 C1081.48888,21.482233 1080.04354,21.9044022 1078.60314,21.7418399 L1061.8272,21.7418399 C1060.13183,21.9438252 1058.42066,21.5276783 1057.00413,20.5688986 C1055.87251,21.4818263 1054.4262,21.9038843 1052.9847,21.7418399 L1045.49773,21.7418399 C1043.80235,21.9439375 1042.09114,21.5277812 1040.67466,20.5688986 C1039.54367,21.4821279 1038.09762,21.9042434 1036.65647,21.7418399 L1018.12939,21.7418399 C1016.35267,21.9590471 1014.55998,21.4928532 1013.11038,20.4366307 C1012.13172,21.4599696 1010.76268,22.0100441 1009.35263,21.9464807 C1007.9026,21.8801876 1006.53635,21.243942 1005.54775,20.1745906 L1005.55023,20.1745906 Z M1005.76726,15.8234775 L1005.76726,16.1354299 C1005.76726,16.1354299 1005.86895,16.3176102 1006.0339,16.5659244 C1007,17.9984101 1008.074,18.9280285 1009.04258,18.9280285 C1010.1141,18.9280285 1010.52088,18.1431561 1010.52088,16.3612835 L1010.52088,11.8828938 C1009.8407,11.7930196 1009.15562,11.7459273 1008.46962,11.7418913 C1006.06614,11.7418913 1005.7747,13.2479978 1005.76726,15.8234775 Z M1212.73625,21.7468311 L1212.73625,1.4349814 L1216.75816,1.4349814 L1216.75816,21.7468311 L1212.73625,21.7468311 Z M1195.23357,21.7468311 L1196.11782,18.7258833 L1197.68045,18.7258833 L1197.68045,1.43248578 L1200.67921,1.43248578 L1200.67921,18.7258833 L1202.94006,18.7258833 C1203.9322,18.7258833 1204.69988,18.2754239 1204.69988,16.5022861 L1204.69988,1.43248578 L1208.71931,1.43248578 L1208.71931,16.6158368 C1208.71931,20.2519548 1207.35511,21.7468311 1204.31542,21.7468311 L1195.23357,21.7468311 Z M1132.93427,21.7468311 L1133.81976,18.7258833 L1135.18396,18.7258833 C1134.84703,18.0754587 1134.6673,17.3542535 1134.65936,16.620828 C1134.65936,13.7371393 1137.7809,12.4156275 1140.34808,12.4156275 C1141.12544,12.4126465 1141.90075,12.4963455 1142.65978,12.6652706 L1141.71972,15.8097516 C1141.486,15.7642689 1141.24838,15.7421168 1141.01033,15.7436176 C1139.74907,15.7436176 1138.63787,16.2652022 1138.63787,17.2759282 C1138.63787,18.1706079 1139.46259,18.7283789 1140.72881,18.7283789 L1143.06656,18.7283789 L1142.18355,21.7493267 L1132.93427,21.7468311 Z M1114.30922,20.6238022 C1113.4309,21.4456256 1112.2472,21.8538044 1111.0525,21.7468311 L1101.96569,21.7468311 L1102.85242,18.7258833 L1104.40885,18.7258833 L1104.40885,1.43248578 L1107.41629,1.43248578 L1107.41629,18.7258833 L1109.6759,18.7258833 C1110.66804,18.7258833 1111.43572,18.2754239 1111.43572,16.5022861 L1111.43572,1.43248578 L1115.45515,1.43248578 L1115.45515,15.4466389 C1115.46383,17.9834364 1116.60356,18.7258833 1117.71476,18.7258833 C1118.60273,18.7258833 1119.47086,18.130678 1119.47086,16.5022861 L1119.47086,1.43248578 L1123.49277,1.43248578 L1123.49277,16.6158368 C1123.49277,20.9831714 1121.13642,21.7468311 1118.65606,21.7468311 C1117.12083,21.9102826 1115.57849,21.5115817 1114.3117,20.6238022 L1114.30922,20.6238022 Z M1048.4878,6.69200455 C1048.4919,5.49796316 1049.45401,4.53160276 1050.64076,4.52954997 C1051.82642,4.53229694 1052.78671,5.49905438 1052.78876,6.69200455 C1052.78807,7.88532083 1051.82678,8.85252293 1050.64076,8.85321131 C1049.45365,8.85321131 1048.49054,7.88641301 1048.4878,6.69200455 L1048.4878,6.69200455 Z M1043.33361,6.69200455 C1043.33565,5.49905438 1044.29595,4.53229694 1045.4816,4.52954997 C1046.66851,4.53023748 1047.63071,5.4977973 1047.63208,6.69200455 C1047.63208,7.26562488 1047.40543,7.81571481 1047.00207,8.22109152 C1046.59871,8.62646822 1046.05172,8.85387369 1045.4816,8.85321276 C1044.29558,8.85252293 1043.33429,7.88532083 1043.33361,6.69200455 L1043.33361,6.69200455 Z M1032.08888,6.69200455 C1032.09093,5.49808216 1033.05273,4.53092368 1034.23936,4.52954997 C1035.42558,4.53092638 1036.38667,5.49848585 1036.38735,6.69200455 C1036.38768,7.26529372 1036.16148,7.81519762 1035.75858,8.22057434 C1035.35568,8.62595107 1034.80914,8.8535426 1034.23936,8.85321275 C1033.66913,8.85387354 1033.12201,8.62650782 1032.71845,8.22116702 C1032.31489,7.81582622 1032.08797,7.26573958 1032.08764,6.69200455 L1032.08888,6.69200455 Z M1026.93096,6.69200455 C1026.93301,5.49808216 1027.89481,4.53092368 1029.08144,4.52954997 C1030.26718,4.53161385 1031.22751,5.49897225 1031.22819,6.69200455 C1031.22852,7.26507745 1031.00249,7.81479208 1030.59986,8.22013288 C1030.19723,8.62547368 1029.65101,8.85321167 1029.08144,8.85321167 C1028.51143,8.85354235 1027.96463,8.62603038 1027.56134,8.22072547 C1027.15804,7.81542056 1026.93129,7.26552319 1026.93096,6.69200455 L1026.93096,6.69200455 Z M1188.66184,3.59743597 C1188.66253,2.40302538 1189.62397,1.43454965 1190.81108,1.43248578 C1191.99762,1.43591854 1192.95827,2.40359312 1192.96031,3.59743597 C1192.95895,4.79115654 1191.9975,5.75851529 1190.81108,5.75989055 C1189.62409,5.75989055 1188.66184,4.79172665 1188.66184,3.59743597 L1188.66184,3.59743597 Z M1029.5093,2.16245457 C1029.51067,0.968734004 1030.47211,0.00137525548 1031.65854,-5.68434189e-14 C1032.84488,0.00205839543 1033.80628,0.96881665 1033.80901,2.16245457 C1033.80628,3.3560925 1032.84488,4.32285075 1031.65854,4.32490915 C1030.47211,4.32353389 1029.51067,3.35617514 1029.5093,2.16245457 L1029.5093,2.16245457 Z" transform="translate(-980)"/>
</svg>
