<svg xmlns="http://www.w3.org/2000/svg" width="23" height="19" viewBox="0 0 23 19">
  <path fill="#005157" d="M1010.5,26.9979283 C1010.77614,26.9979283 1011,27.2217859 1011,27.4979283 C1011,27.7433882 1010.82312,27.9475367 1010.58988,27.9898727 L1010.5,27.9979283 L1005.761,27.997 L1009.49364,31.5044635 C1011.55684,33.5686926 1014.5348,34.4300707 1017.38137,33.7859974 C1020.22795,33.1419241 1022.54503,31.0824748 1023.51864,28.3311302 C1023.61076,28.0708064 1023.89647,27.9344502 1024.1568,28.0265703 C1024.41712,28.1186904 1024.55348,28.4044026 1024.46136,28.6647264 C1023.37321,31.7397586 1020.78352,34.0414961 1017.60206,34.7613427 C1014.52322,35.4579685 1011.30686,34.5788325 1009.02286,32.4403402 L1008.79761,32.2223049 L1005,28.654 L1005,33.4979283 C1005,33.7433882 1004.82312,33.9475367 1004.58988,33.9898727 L1004.5,33.9979283 C1004.25454,33.9979283 1004.05039,33.8210532 1004.00806,33.587804 L1004,33.4979283 L1004,27.4979283 C1004.00042,27.4678149 1004.0022,27.4459694 1004.00541,27.4242856 L1004,27.4979283 C1004,27.464719 1004.00324,27.4322659 1004.00941,27.4008675 C1004.01318,27.3818096 1004.01814,27.362615 1004.02426,27.343704 C1004.02711,27.3348196 1004.03027,27.3259575 1004.03366,27.3172146 C1004.04068,27.2991193 1004.04862,27.2816776 1004.05762,27.2646362 C1004.06213,27.2561454 1004.06696,27.2476171 1004.07203,27.2392495 C1004.08025,27.2256368 1004.08909,27.2124887 1004.09863,27.1996845 C1004.10784,27.1873345 1004.11759,27.1754202 1004.12787,27.1639821 C1004.13034,27.1612316 1004.13296,27.1583744 1004.13562,27.15554 L1004.15151,27.1393838 C1004.16466,27.1265943 1004.17852,27.1145226 1004.19302,27.1032319 L1004.13562,27.15554 C1004.16316,27.1262304 1004.19341,27.1009807 1004.2256,27.0798143 C1004.23631,27.0728456 1004.24711,27.066318 1004.25817,27.0601971 C1004.27405,27.0513638 1004.29042,27.0434638 1004.3071,27.0365028 C1004.31807,27.0318988 1004.32944,27.0276162 1004.34099,27.0237439 C1004.35389,27.0194688 1004.36695,27.0156894 1004.38012,27.0124505 C1004.38965,27.0100345 1004.39983,27.0078518 1004.41012,27.005984 L1004.43069,27.0027375 C1004.44197,27.0011663 1004.45329,26.9999795 1004.46464,26.9991778 L1004.5,26.9979283 L1010.5,26.9979283 Z M1020.5,23.9979283 C1020.22386,23.9979283 1020,23.7740707 1020,23.4979283 C1020,23.2524684 1020.17688,23.04832 1020.41012,23.005984 L1020.5,22.9979283 L1025.237,22.997 L1021.50636,19.4913931 C1019.44316,17.4271641 1016.4652,16.5657859 1013.61863,17.2098592 C1010.77205,17.8539326 1008.45497,19.9133819 1007.48136,22.6647264 C1007.38924,22.9250503 1007.10353,23.0614064 1006.8432,22.9692863 C1006.58288,22.8771663 1006.44652,22.5914541 1006.53864,22.3311302 C1007.62679,19.2560981 1010.21648,16.9543606 1013.39794,16.2345139 C1016.37415,15.561109 1019.47887,16.3601659 1021.74567,18.3458768 L1021.97714,18.5555164 L1022.20239,18.7735518 L1026,22.342 L1026,17.4979283 C1026,17.2524684 1026.17688,17.04832 1026.41012,17.005984 L1026.5,16.9979283 C1026.74546,16.9979283 1026.94961,17.1748035 1026.99194,17.4080527 L1027,17.4979283 L1027,23.4979283 L1026.9998,23.5121376 C1026.99928,23.5306526 1026.99774,23.5491503 1026.99517,23.5675387 L1027,23.4979283 C1027,23.5311376 1026.99676,23.5635907 1026.99059,23.5949892 C1026.98682,23.6140471 1026.98186,23.6332417 1026.97574,23.6521526 C1026.97289,23.6610371 1026.96973,23.6698991 1026.96634,23.6786421 C1026.95932,23.6967373 1026.95138,23.714179 1026.94238,23.7312205 C1026.93787,23.7397113 1026.93304,23.7482395 1026.92797,23.7566072 C1026.91975,23.7702198 1026.91091,23.7833679 1026.90137,23.7961721 C1026.89216,23.8085221 1026.88241,23.8204364 1026.87213,23.8318746 C1026.86966,23.834625 1026.86704,23.8374823 1026.86438,23.8403166 L1026.84849,23.8564729 C1026.83534,23.8692624 1026.82148,23.8813341 1026.80698,23.8926247 L1026.86438,23.8403166 C1026.83684,23.8696263 1026.80659,23.894876 1026.7744,23.9160423 C1026.76369,23.9230111 1026.75289,23.9295386 1026.74183,23.9356596 C1026.72595,23.9444928 1026.70958,23.9523928 1026.6929,23.9593539 C1026.68224,23.9638265 1026.6712,23.9679997 1026.65998,23.9717856 C1026.64384,23.9771834 1026.62742,23.9817872 1026.61084,23.98554 C1026.60423,23.9871035 1026.59708,23.9885652 1026.58988,23.9898727 L1026.57745,23.9919163 C1026.55792,23.9949641 1026.53824,23.9968548 1026.51852,23.9975852 L1026.5,23.9979283 L1020.5,23.9979283 Z" transform="translate(-1004 -16)"/>
</svg>
