<svg xmlns="http://www.w3.org/2000/svg" width="16" height="16" viewBox="0 0 16 16">
  <path fill="#CC3947" d="M16.4736842,7 C16.7062252,7 16.8947368,7.18851168 16.8947368,7.42105263 C16.8947368,7.6277557 16.7457893,7.79967021 16.549369,7.83532154 L16.4736842,7.84210526 L13.1052632,7.84210526 C12.448677,7.84210526 11.9090958,8.34306365 11.8478876,8.98361262 L11.8421053,9.10526316 L11.8421053,20.8947368 C11.8421053,21.551323 12.3430636,22.0909042 12.9836126,22.1521124 L13.1052632,22.1578947 L16.4736842,22.1578947 C16.7062252,22.1578947 16.8947368,22.3464064 16.8947368,22.5789474 C16.8947368,22.7856504 16.7457893,22.9575649 16.549369,22.9932163 L16.4736842,23 L13.1052632,23 C11.9890666,23 11.0757569,22.1313382 11.004478,21.0331585 L11,20.8947368 L11,9.10526316 C11,7.98906661 11.8686618,7.07575691 12.9668415,7.00447805 L13.1052632,7 L16.4736842,7 Z M22.6078362,10.4430241 L22.6661502,10.4917445 L26.8766765,14.7022708 C26.9707662,14.7963605 27.0110165,14.9239015 26.9974277,15.0466113 C26.9989,15.0676052 27,15.0897802 27,15.1122807 C27,15.3741046 26.8510525,15.591863 26.6546321,15.6370213 L26.5789474,15.645614 L26.528,15.645 L22.6661502,19.5082555 C22.5017189,19.6726868 22.2351232,19.6726868 22.0706919,19.5082555 C21.9245307,19.3620943 21.9082906,19.1352106 22.0219715,18.9711112 L22.0706919,18.9127971 L25.337,15.645 L16.4736842,15.645614 C16.2411433,15.645614 16.0526316,15.4068326 16.0526316,15.1122807 C16.0526316,14.8504568 16.2015791,14.6326984 16.3979995,14.5875401 L16.4736842,14.5789474 L25.562,14.578 L22.0706919,11.0872029 C21.9245307,10.9410417 21.9082906,10.714158 22.0219715,10.5500585 L22.0706919,10.4917445 C22.216853,10.3455834 22.4437367,10.3293432 22.6078362,10.4430241 Z" transform="matrix(-1 0 0 1 27 -7)"/>
</svg>
