<svg xmlns="http://www.w3.org/2000/svg" width="22" height="22" viewBox="0 0 22 22">
  <path fill="#005157" d="M1242.47706,11.9528583 C1242.98153,12.1776381 1243.20827,12.7688139 1242.98349,13.2732864 C1242.75871,13.7777589 1242.16753,14.0044946 1241.66306,13.7797148 C1238.0223,12.1574876 1233.74818,13.1231696 1231.15851,16.1530797 C1228.56884,19.1829899 1228.28053,23.5553533 1230.44992,26.8990745 C1232.61932,30.2427957 1236.72963,31.7613449 1240.55188,30.6312257 C1244.28726,29.526791 1246.87791,26.1498291 1246.99586,22.2772484 L1247.00006,22.0062866 L1247.00006,21.0862866 C1247.00006,20.5340018 1247.44778,20.0862866 1248.00006,20.0862866 C1248.5129,20.0862866 1248.93557,20.4723268 1248.99333,20.9696654 L1249.00006,21.0862866 L1249.00006,22.0068583 C1248.99728,26.8784128 1245.79059,31.1678926 1241.11895,32.5491494 C1236.44731,33.9304062 1231.4236,32.0744017 1228.77211,27.9876313 C1226.12063,23.9008609 1226.47301,18.5568612 1229.63816,14.8536377 C1232.80332,11.1504142 1238.02725,9.97013615 1242.47706,11.9528583 Z M1248.70682,13.2988265 C1249.06748,13.6591303 1249.09549,14.2263474 1248.79066,14.618791 L1248.70752,14.7130399 L1238.70752,24.7230399 C1238.34709,25.0838314 1237.77963,25.1117195 1237.3872,24.8066086 L1237.29296,24.7233934 L1234.29296,21.7233934 C1233.90243,21.3328691 1233.90243,20.6997041 1234.29296,20.3091798 C1234.65344,19.9486958 1235.22067,19.9209663 1235.61296,20.2259912 L1235.70717,20.3091798 L1238.00006,22.6012866 L1247.2926,13.2995333 C1247.68293,12.9088138 1248.3161,12.9084974 1248.70682,13.2988265 Z" transform="translate(-1227 -11)"/>
</svg>
