<svg xmlns="http://www.w3.org/2000/svg" width="18" height="20" viewBox="0 0 18 20">
  <path fill="#005157" d="M13,12 C15.6887547,12 17.8818181,14.1223067 17.9953805,16.7831104 L18,17 L18,19 C18,19.5522847 17.5522847,20 17,20 C16.4871642,20 16.0644928,19.6139598 16.0067277,19.1166211 L16,19 L16,17 C16,15.4023191 14.75108,14.0963391 13.1762728,14.0050927 L13,14 L5,14 C3.40231912,14 2.09633912,15.24892 2.00509269,16.8237272 L2,17 L2,19 C2,19.5522847 1.55228475,20 1,20 C0.487164161,20 0.0644928393,19.6139598 0.00672773133,19.1166211 L0,19 L0,17 C0,14.3112453 2.12230671,12.1181819 4.78311038,12.0046195 L5,12 L13,12 Z M9,0 C11.7614237,0 14,2.23857625 14,5 C14,7.76142375 11.7614237,10 9,10 C6.23857625,10 4,7.76142375 4,5 C4,2.23857625 6.23857625,0 9,0 Z M9,2 C7.34314575,2 6,3.34314575 6,5 C6,6.65685425 7.34314575,8 9,8 C10.6568542,8 12,6.65685425 12,5 C12,3.34314575 10.6568542,2 9,2 Z"/>
</svg>
