<?xml version="1.0" standalone="no"?>
<!DOCTYPE svg PUBLIC "-//W3C//DTD SVG 1.1//EN" "http://www.w3.org/Graphics/SVG/1.1/DTD/svg11.dtd" >
<svg>
<metadata>
Created by FontForge 20090914 at Thu Aug 27 14:38:20 2015
 By www-data
Copyright (c) 2008 by Luc(as) de Groot. All rights reserved.
</metadata>
<defs>
<font id="AlinmaTheSans-Bold" horiz-adv-x="550" >
  <font-face 
    font-family="Alinma TheSans"
    font-weight="700"
    font-stretch="normal"
    units-per-em="1000"
    panose-1="2 11 8 3 4 3 2 2 2 3"
    ascent="750"
    descent="-250"
    x-height="497"
    cap-height="675"
    bbox="-152.002 -320.002 2985 980.001"
    underline-thickness="41"
    underline-position="-191"
    unicode-range="U+0020-U+FEFC"
  />
<missing-glyph 
d="M150 150v250h50v-200h100v-50h-150zM50 50v450h450v-450h-450zM250 350v50h150v-250h-50v100h-100v50h100v50h-100zM450 100v350h-350v-350h350z" />
    <glyph glyph-name="lam_alef_madda.isol" unicode="&#xfedf;&#xfe82;" horiz-adv-x="597" arabic-form="isolated" 
d="M308 179h-134l-143 515l131 18zM72 0v104h309v601h132v-705h-441zM-21 830l105.002 77.999c3.33301 -3.33301 8.16602 -7.16602 14.499 -11.499s13.666 -8.5 21.999 -12.5s17.5 -7.5 27.5 -10.5s20 -4.5 30 -4.5c12 0 23.333 1.5 34 4.5s20.5 6.66699 29.5 11
s17 8.83301 24 13.5s12.5 8.66699 16.5 12v-96c-8 -6.66699 -21.333 -14.667 -40 -24s-42 -14 -70 -14c-23.333 0 -42.5 4 -57.5 12s-25.5 14.667 -31.5 20l-58 -41z" />
    <glyph glyph-name="lam_alef_madda.fina" unicode="&#xfee0;&#xfe82;" horiz-adv-x="597" arabic-form="final" 
d="M72 104h309v601h132v-601h100v-104h-541v104zM308 179h-134l-143 515l131 18zM-21 830l105.002 77.999c3.33301 -3.33301 8.16602 -7.16602 14.499 -11.499s13.666 -8.5 21.999 -12.5s17.5 -7.5 27.5 -10.5s20 -4.5 30 -4.5c12 0 23.333 1.5 34 4.5s20.5 6.66699 29.5 11
s17 8.83301 24 13.5s12.5 8.66699 16.5 12v-96c-8 -6.66699 -21.333 -14.667 -40 -24s-42 -14 -70 -14c-23.333 0 -42.5 4 -57.5 12s-25.5 14.667 -31.5 20l-58 -41z" />
    <glyph glyph-name="lam_alef_hamza_above.isol" unicode="&#xfedf;&#xfe84;" horiz-adv-x="597" arabic-form="isolated" 
d="M308 179h-134l-143 498l131 18zM72 0v104h309v584h132v-688h-441zM-20 819c12 0 23.167 -0.333008 33.5 -1s18.833 -1.66699 25.5 -3c-5.33301 3.33301 -9.66602 8.83301 -12.999 16.5s-5 15.167 -5 22.5c0 14 2.5 27.333 7.5 40s13 24 24 34s25.5 17.833 43.5 23.5
s40 8.5 66 8.5c13.333 0 25.666 -0.5 36.999 -1.5s18.666 -2.16699 21.999 -3.5l-12 -69c-2.66699 0.666992 -8.66699 1.66699 -18 3s-19.666 2 -30.999 2c-16 0 -28.167 -3.16699 -36.5 -9.5s-12.5 -14.5 -12.5 -24.5c0 -11.333 5.16699 -20.5 15.5 -27.5
s28.5 -10.5 54.5 -10.5h57v-69h-258v69z" />
    <glyph glyph-name="lam_alef_hamza_above.fina" unicode="&#xfee0;&#xfe84;" horiz-adv-x="597" arabic-form="final" 
d="M72 0v104h309v584h132v-584h100v-104h-541zM308 179h-134l-143 498l131 18zM-20 819c12 0 23.167 -0.333008 33.5 -1s18.833 -1.66699 25.5 -3c-5.33301 3.33301 -9.66602 8.83301 -12.999 16.5s-5 15.167 -5 22.5c0 14 2.5 27.333 7.5 40s13 24 24 34
s25.5 17.833 43.5 23.5s40 8.5 66 8.5c13.333 0 25.666 -0.5 36.999 -1.5s18.666 -2.16699 21.999 -3.5l-12 -69c-2.66699 0.666992 -8.66699 1.66699 -18 3s-19.666 2 -30.999 2c-16 0 -28.167 -3.16699 -36.5 -9.5s-12.5 -14.5 -12.5 -24.5
c0 -11.333 5.16699 -20.5 15.5 -27.5s28.5 -10.5 54.5 -10.5h57v-69h-258v69z" />
    <glyph glyph-name="lam_alef_hamza_below.isol" unicode="&#xfedf;&#xfe88;" horiz-adv-x="597" arabic-form="isolated" 
d="M308 179h-134l-143 515l131 18zM72 0v104h309v601h132v-705h-441zM82 -195c9.33301 0 18.1709 -0.333008 26.5039 -1s15.833 -1.66699 22.5 -3c-3.33301 3.33301 -6.33301 7.83301 -9 13.5s-4 12.167 -4 19.5c0 13.333 2.66699 26.166 8 38.499s13.666 23.333 24.999 33
s25.833 17.334 43.5 23.001s38.5 8.5 62.5 8.5c13.333 0 25.666 -0.5 36.999 -1.5s18.666 -2.16699 21.999 -3.5l-12 -72c-3.33301 0.666992 -9.5 1.66699 -18.5 3s-18.833 2 -29.5 2c-14 0 -24.833 -2.66699 -32.5 -8s-11.5 -12.333 -11.5 -21
c0 -10 4.66699 -17.667 14 -23s25.666 -8 48.999 -8h59v-73h-252v73z" />
    <glyph glyph-name="lam_alef_hamza_below.fina" unicode="&#xfee0;&#xfe88;" horiz-adv-x="597" arabic-form="final" 
d="M72 104h309v601h132v-601h100v-104h-541v104zM308 179h-134l-143 515l131 18zM82 -195c9.33301 0 18.1709 -0.333008 26.5039 -1s15.833 -1.66699 22.5 -3c-3.33301 3.33301 -6.33301 7.83301 -9 13.5s-4 12.167 -4 19.5c0 13.333 2.66699 26.166 8 38.499
s13.666 23.333 24.999 33s25.833 17.334 43.5 23.001s38.5 8.5 62.5 8.5c13.333 0 25.666 -0.5 36.999 -1.5s18.666 -2.16699 21.999 -3.5l-12 -72c-3.33301 0.666992 -9.5 1.66699 -18.5 3s-18.833 2 -29.5 2c-14 0 -24.833 -2.66699 -32.5 -8s-11.5 -12.333 -11.5 -21
c0 -10 4.66699 -17.667 14 -23s25.666 -8 48.999 -8h59v-73h-252v73z" />
    <glyph glyph-name="lam_alef.isol" unicode="&#xfedf;&#xfe8e;" horiz-adv-x="597" arabic-form="isolated" 
d="M308 179h-134l-143 515l131 18zM72 0v104h309v601h132v-705h-441z" />
    <glyph glyph-name="lam_alef.fina" unicode="&#xfee0;&#xfe8e;" horiz-adv-x="597" arabic-form="final" 
d="M72 0v104h309v601h132v-601h100v-104h-541zM308 179h-134l-143 515l131 18z" />
    <glyph glyph-name="hamza.isol" unicode="&#x621;" horiz-adv-x="492" arabic-form="isolated" 
d="M42 103c17.333 0 34.1709 -0.49707 50.5039 -1.49707s30.166 -2.5 41.499 -4.5c-11.333 5.33301 -20 14.166 -26 26.499s-9 26.166 -9 41.499c0 20.667 4 41.167 12 61.5s20.667 38.166 38 53.499s39.666 27.833 66.999 37.5s60.666 14.5 99.999 14.5
c20 0 38.667 -0.833008 56 -2.5s28.666 -3.16699 33.999 -4.5l-16 -104c-4.66699 1.33301 -14.667 3 -30 5s-32 3 -50 3c-26 0 -45.667 -5.5 -59 -16.5s-20 -25.167 -20 -42.5c0 -19.333 8.5 -35.333 25.5 -48s46.5 -19 88.5 -19h89v-103h-392v103z" />
    <glyph glyph-name="alef_madda.isol" unicode="&#x622;" horiz-adv-x="302" arabic-form="isolated" 
d="M85 705h132v-705h-132v705zM-20 830l105.002 77.999c3.33301 -3.33301 8.16602 -7.16602 14.499 -11.499s13.666 -8.5 21.999 -12.5s17.5 -7.5 27.5 -10.5s20 -4.5 30 -4.5c12 0 23.333 1.5 34 4.5s20.5 6.66699 29.5 11s17 8.83301 24 13.5s12.5 8.66699 16.5 12v-96
c-8 -6.66699 -21.333 -14.667 -40 -24s-42 -14 -70 -14c-23.333 0 -42.5 4 -57.5 12s-25.5 14.667 -31.5 20l-58 -41z" />
    <glyph glyph-name="alef_hamza_above.isol" unicode="&#x623;" horiz-adv-x="302" arabic-form="isolated" 
d="M15 819c12 0 23.167 -0.333008 33.5 -1s18.833 -1.66699 25.5 -3c-5.33301 3.33301 -9.66602 8.83301 -12.999 16.5s-5 15.167 -5 22.5c0 14 2.5 27.333 7.5 40s13 24 24 34s25.5 17.833 43.5 23.5s40 8.5 66 8.5c13.333 0 25.666 -0.5 36.999 -1.5
s18.666 -2.16699 21.999 -3.5l-12 -69c-2.66699 0.666992 -8.66699 1.66699 -18 3s-19.666 2 -30.999 2c-16 0 -28.167 -3.16699 -36.5 -9.5s-12.5 -14.5 -12.5 -24.5c0 -11.333 5.16699 -20.5 15.5 -27.5s28.5 -10.5 54.5 -10.5h57v-69h-258v69zM85 688h132v-688h-132v688z
" />
    <glyph glyph-name="waw_hamza.isol" unicode="&#x624;" horiz-adv-x="586" arabic-form="isolated" 
d="M199 -252c-19.333 0 -37.832 0.668945 -55.499 2.00195s-33.834 2.66602 -48.501 3.99902c-17.333 2 -33.333 4.33301 -48 7l8 108c15.333 -3.33301 31.666 -6.33301 48.999 -9c14.667 -2 31.334 -3.83301 50.001 -5.5s37.667 -2.5 57 -2.5c52 0 93.833 10.333 125.5 31
s47.5 54.667 47.5 102v15h-78c-48.667 0 -90 5.5 -124 16.5s-61.667 26.5 -83 46.5s-36.833 44.333 -46.5 73s-14.5 60.667 -14.5 96c0 32.667 5.16699 64.167 15.5 94.5s26.333 57 48 80s49.167 41.5 82.5 55.5s73 21 119 21c30 0 57.5 -1.83301 82.5 -5.5
s47.167 -7.83398 66.5 -12.501c22 -5.33301 42 -11 60 -17v-450c0 -34.667 -5.83301 -67.167 -17.5 -97.5s-30 -56.833 -55 -79.5s-57.333 -40.5 -97 -53.5s-87.5 -19.5 -143.5 -19.5zM384.001 361.002c-7.33301 3.33301 -16 6.33203 -26 8.99902
c-8.66699 2 -18.834 4 -30.501 6s-24.5 3 -38.5 3c-38 0 -67.333 -12.667 -88 -38s-31 -57.666 -31 -96.999c0 -46 11.833 -80.833 35.5 -104.5s61.834 -35.5 114.501 -35.5h64v257zM159.001 629.001c10.667 0 20.8369 -0.333008 30.5039 -1s18.167 -1.66699 25.5 -3
c-6 3.33301 -10.667 8.83301 -14 16.5s-5 15.167 -5 22.5c0 14 2.66699 27.667 8 41s13.666 25.333 24.999 36s26.333 19.167 45 25.5s41 9.5 67 9.5c13.333 0 25.666 -0.666992 36.999 -2s18.666 -2.33301 21.999 -3l-12 -75c-2.66699 0.666992 -8.83398 1.66699 -18.501 3
s-20.167 2 -31.5 2c-15.333 0 -27.166 -3.16699 -35.499 -9.5s-12.5 -14.5 -12.5 -24.5c0 -11.333 5.16699 -20.5 15.5 -27.5s28.166 -10.5 53.499 -10.5h57v-75h-257v75z" />
    <glyph glyph-name="alef_hamza_below.isol" unicode="&#x625;" horiz-adv-x="302" arabic-form="isolated" 
d="M85 705h132v-705h-132v705zM5 -195c9.33301 0 18.1709 -0.333008 26.5039 -1s15.833 -1.66699 22.5 -3c-3.33301 3.33301 -6.33301 7.83301 -9 13.5s-4 12.167 -4 19.5c0 13.333 2.66699 26.166 8 38.499s13.666 23.333 24.999 33s25.833 17.334 43.5 23.001
s38.5 8.5 62.5 8.5c13.333 0 25.666 -0.5 36.999 -1.5s18.666 -2.16699 21.999 -3.5l-12 -72c-3.33301 0.666992 -9.5 1.66699 -18.5 3s-18.833 2 -29.5 2c-14 0 -24.833 -2.66699 -32.5 -8s-11.5 -12.333 -11.5 -21c0 -10 4.66699 -17.667 14 -23s25.666 -8 48.999 -8h59
v-73h-252v73z" />
    <glyph glyph-name="yeh_hamza_above.isol" unicode="&#x626;" horiz-adv-x="1000" arabic-form="isolated" 
d="M417 0c-68 0 -125.335 6.83398 -172.002 20.501s-84.5 33.334 -113.5 59.001s-49.833 56.667 -62.5 93s-19 77.5 -19 123.5c0 27.333 2.5 55.166 7.5 83.499s11.167 52.833 18.5 73.5l141 23c-10.667 -23.333 -19 -50 -25 -80s-9 -58.333 -9 -85
c0 -35.333 4.16699 -66 12.5 -92s22.166 -47.5 41.499 -64.5s44.833 -29.667 76.5 -38s70.834 -12.5 117.501 -12.5h68v360c18 3.33301 38 6.33301 60 9c18.667 2.66699 40 5 64 7s49.667 3 77 3c44 0 80.833 -5.16699 110.5 -15.5s53.334 -25 71.001 -44
s30.334 -42.167 38.001 -69.5s11.5 -58 11.5 -92v-126h-128v112c0 48 -8.16699 81.833 -24.5 101.5s-45.166 29.5 -86.499 29.5c-8.66699 0 -16.834 -0.333008 -24.501 -1s-14.5 -1.33398 -20.5 -2.00098c-7.33301 -1.33301 -14.333 -2.33301 -21 -3v-373h-209z
M43.998 629.001c10.667 0 20.8369 -0.333008 30.5039 -1s18.167 -1.66699 25.5 -3c-6 3.33301 -10.667 8.83301 -14 16.5s-5 15.167 -5 22.5c0 14 2.66699 27.667 8 41s13.666 25.333 24.999 36s26.333 19.167 45 25.5s41 9.5 67 9.5c13.333 0 25.666 -0.666992 36.999 -2
s18.666 -2.33301 21.999 -3l-12 -75c-2.66699 0.666992 -8.83398 1.66699 -18.501 3s-20.167 2 -31.5 2c-15.333 0 -27.166 -3.16699 -35.499 -9.5s-12.5 -14.5 -12.5 -24.5c0 -11.333 5.16699 -20.5 15.5 -27.5s28.166 -10.5 53.499 -10.5h57v-75h-257v75z" />
    <glyph glyph-name="alef.isol" unicode="&#x627;" horiz-adv-x="302" arabic-form="isolated" 
d="M85 705h132v-705h-132v705z" />
    <glyph glyph-name="beh.isol" unicode="&#x628;" horiz-adv-x="773" arabic-form="isolated" 
d="M417 0c-68 0 -125.333 6.83301 -172 20.5s-84.5 33.334 -113.5 59.001s-49.833 56.667 -62.5 93s-19 77.5 -19 123.5c0 27.333 2.5 55.166 7.5 83.499s11.167 52.833 18.5 73.5l141 23c-10.667 -23.333 -19 -50 -25 -80s-9 -58.333 -9 -85
c0 -35.333 4.16699 -66 12.5 -92s22.166 -47.5 41.499 -64.5s44.833 -29.667 76.5 -38s70.834 -12.5 117.501 -12.5h136v366h132v-470h-282zM395 -219c-19.333 0 -35.666 6.66699 -48.999 20s-20 29.666 -20 48.999s6.66699 35.666 20 48.999s29.666 20 48.999 20
s35.666 -6.66699 48.999 -20s20 -29.666 20 -48.999s-6.66699 -35.666 -20 -48.999s-29.666 -20 -48.999 -20z" />
    <glyph glyph-name="tehmarbuta.isol" unicode="&#x629;" horiz-adv-x="594" arabic-form="isolated" 
d="M306 0c-48.667 0 -90.001 5.50098 -124.001 16.501s-61.667 26.5 -83 46.5s-36.833 44.167 -46.5 72.5s-14.5 60.166 -14.5 95.499c0 34 5.5 66.167 16.5 96.5s27.333 57 49 80s48.834 41.333 81.501 55s70.667 20.5 114 20.5c78 0 135.167 -20.833 171.5 -62.5
s54.5 -97.5 54.5 -167.5v-253h-219zM395.999 237.001c0 50 -9.33301 86.166 -28 108.499s-45 33.5 -79 33.5c-38 0 -67.333 -12.667 -88 -38s-31 -57.666 -31 -96.999c0 -47.333 12 -82.5 36 -105.5s62 -34.5 114 -34.5h76v133zM372.999 546
c-18.667 0 -34.334 6.5 -47.001 19.5s-19 29.167 -19 48.5c0 18.667 6.33301 34.667 19 48s28.334 20 47.001 20s34.334 -6.5 47.001 -19.5s19 -29.167 19 -48.5c0 -18.667 -6.33301 -34.667 -19 -48s-28.334 -20 -47.001 -20zM206.999 546
c-18.667 0 -34.334 6.5 -47.001 19.5s-19 29.167 -19 48.5c0 18.667 6.33301 34.667 19 48s28.334 20 47.001 20c19.333 0 35.333 -6.5 48 -19.5s19 -29.167 19 -48.5c0 -18.667 -6.33301 -34.667 -19 -48s-28.667 -20 -48 -20z" />
    <glyph glyph-name="teh.isol" unicode="&#x62a;" horiz-adv-x="773" arabic-form="isolated" 
d="M417 0c-68 0 -125.333 6.83301 -172 20.5s-84.5 33.334 -113.5 59.001s-49.833 56.667 -62.5 93s-19 77.5 -19 123.5c0 27.333 2.5 55.166 7.5 83.499s11.167 52.833 18.5 73.5l141 23c-10.667 -23.333 -19 -50 -25 -80s-9 -58.333 -9 -85
c0 -35.333 4.16699 -66 12.5 -92s22.166 -47.5 41.499 -64.5s44.833 -29.667 76.5 -38s70.834 -12.5 117.501 -12.5h136v366h132v-470h-282zM485 546c-18.667 0 -34.334 6.5 -47.001 19.5s-19 29.167 -19 48.5c0 18.667 6.33301 34.667 19 48s28.334 20 47.001 20
s34.334 -6.5 47.001 -19.5s19 -29.167 19 -48.5c0 -18.667 -6.33301 -34.667 -19 -48s-28.334 -20 -47.001 -20zM319 546c-18.667 0 -34.334 6.5 -47.001 19.5s-19 29.167 -19 48.5c0 18.667 6.33301 34.667 19 48s28.334 20 47.001 20c19.333 0 35.333 -6.5 48 -19.5
s19 -29.167 19 -48.5c0 -18.667 -6.33301 -34.667 -19 -48s-28.667 -20 -48 -20z" />
    <glyph glyph-name="theh.isol" unicode="&#x62b;" horiz-adv-x="773" arabic-form="isolated" 
d="M417 0c-68 0 -125.333 6.83301 -172 20.5s-84.5 33.334 -113.5 59.001s-49.833 56.667 -62.5 93s-19 77.5 -19 123.5c0 27.333 2.5 55.166 7.5 83.499s11.167 52.833 18.5 73.5l141 23c-10.667 -23.333 -19 -50 -25 -80s-9 -58.333 -9 -85
c0 -35.333 4.16699 -66 12.5 -92s22.166 -47.5 41.499 -64.5s44.833 -29.667 76.5 -38s70.834 -12.5 117.501 -12.5h136v366h132v-470h-282zM401 688c-17.333 0 -31.833 6.16699 -43.5 18.5s-17.5 27.166 -17.5 44.499s5.83301 32.166 17.5 44.499s26.167 18.5 43.5 18.5
s32 -6.16699 44 -18.5s18 -27.166 18 -44.499s-6 -32.166 -18 -44.499s-26.667 -18.5 -44 -18.5zM485 546c-19.333 0 -35.333 6.5 -48 19.5s-19 29.167 -19 48.5c0 18.667 6.33301 34.667 19 48s28.667 20 48 20c18.667 0 34.334 -6.5 47.001 -19.5s19 -29.167 19 -48.5
c0 -18.667 -6.33301 -34.667 -19 -48s-28.334 -20 -47.001 -20zM319 546c-18.667 0 -34.334 6.5 -47.001 19.5s-19 29.167 -19 48.5c0 18.667 6.33301 34.667 19 48s28.334 20 47.001 20s34.334 -6.5 47.001 -19.5s19 -29.167 19 -48.5c0 -18.667 -6.33301 -34.667 -19 -48
s-28.334 -20 -47.001 -20z" />
    <glyph glyph-name="jeem.isol" unicode="&#x62c;" horiz-adv-x="600" arabic-form="isolated" 
d="M396 -219c-19.333 0 -35.666 6.66699 -48.999 20s-20 29.666 -20 48.999s6.66699 35.666 20 48.999s29.666 20 48.999 20s35.666 -6.66699 48.999 -20s20 -29.666 20 -48.999s-6.66699 -35.666 -20 -48.999s-29.666 -20 -48.999 -20zM326 0
c-37.333 0 -68.168 -2.83496 -92.501 -8.50195s-43.666 -13.5 -57.999 -23.5s-24.333 -21.667 -30 -35s-8.5 -27.666 -8.5 -42.999c0 -14 3.16699 -27.333 9.5 -40s16.333 -23.834 30 -33.501s30.834 -17.5 51.501 -23.5s45.667 -9 75 -9l-9 -104c-49.333 0 -92 5 -128 15
s-65.833 24 -89.5 42s-41.334 39.333 -53.001 64s-17.5 51.667 -17.5 81c0 31.333 6.16699 60.5 18.5 87.5s31.666 50.5 57.999 70.5s59.833 35.667 100.5 47s89.667 17 147 17h68c1.33301 12 2.5 24.5 3.5 37.5s1.5 25.833 1.5 38.5c0 63.333 -14.667 111.166 -44 143.499
s-79.666 48.5 -150.999 48.5c-21.333 0 -41.333 -0.666992 -60 -2s-37 -3.33301 -55 -6v103c19.333 2.66699 40 4.83398 62 6.50098s44 2.5 66 2.5c56 0 103.833 -6.16699 143.5 -18.5s72 -30.666 97 -54.999s43.333 -54.666 55 -90.999s17.5 -78.5 17.5 -126.5
c0 -25.333 -1.33301 -53.5 -4 -84.5s-7 -64.5 -13 -100.5h-191z" />
    <glyph glyph-name="hah.isol" unicode="&#x62d;" horiz-adv-x="588" arabic-form="isolated" 
d="M304 -320c-49.333 0 -91.9961 4.83105 -127.996 14.498s-65.833 23.5 -89.5 41.5s-41.334 39.5 -53.001 64.5s-17.5 52.5 -17.5 82.5c0 31.333 6.16699 60.5 18.5 87.5s31.666 50.333 57.999 70s59.833 35.167 100.5 46.5s89.667 17 147 17h57
c1.33301 12 2.5 24.5 3.5 37.5s1.5 25.833 1.5 38.5c0 63.333 -14.667 111.166 -44 143.499s-80 48.5 -152 48.5c-20.667 0 -40.334 -0.666992 -59.001 -2s-37.334 -3.33301 -56.001 -6v103c19.333 2.66699 40.166 4.83398 62.499 6.50098s44.166 2.5 65.499 2.5
c56 0 104 -6.16699 144 -18.5s72.5 -30.666 97.5 -54.999s43.333 -54.666 55 -90.999s17.5 -78.5 17.5 -126.5c0 -25.333 -1.33301 -53.5 -4 -84.5s-7 -64.5 -13 -100.5h-180c-37.333 0 -68.166 -2.83301 -92.499 -8.5s-43.666 -13.5 -57.999 -23.5s-24.333 -21.5 -30 -34.5
s-8.5 -26.833 -8.5 -41.5c0 -30 13.333 -55.5 40 -76.5s70 -31.5 130 -31.5c27.333 0 54.833 1.5 82.5 4.5s57.167 7.5 88.5 13.5l9 -102c-32 -6 -64.167 -10.833 -96.5 -14.5s-64.5 -5.5 -96.5 -5.5z" />
    <glyph glyph-name="khah.isol" unicode="&#x62e;" horiz-adv-x="588" arabic-form="isolated" 
d="M304 -320c-49.333 0 -91.9961 4.83105 -127.996 14.498s-65.833 23.5 -89.5 41.5s-41.334 39.5 -53.001 64.5s-17.5 52.5 -17.5 82.5c0 31.333 6.16699 60.5 18.5 87.5s31.666 50.333 57.999 70s59.833 35.167 100.5 46.5s89.667 17 147 17h57
c1.33301 12 2.5 24.5 3.5 37.5s1.5 25.833 1.5 38.5c0 63.333 -14.667 111.166 -44 143.499s-80 48.5 -152 48.5c-20.667 0 -40.334 -0.666992 -59.001 -2s-37.334 -3.33301 -56.001 -6v103c19.333 2.66699 40.166 4.83398 62.499 6.50098s44.166 2.5 65.499 2.5
c56 0 104 -6.16699 144 -18.5s72.5 -30.666 97.5 -54.999s43.333 -54.666 55 -90.999s17.5 -78.5 17.5 -126.5c0 -25.333 -1.33301 -53.5 -4 -84.5s-7 -64.5 -13 -100.5h-180c-37.333 0 -68.166 -2.83301 -92.499 -8.5s-43.666 -13.5 -57.999 -23.5s-24.333 -21.5 -30 -34.5
s-8.5 -26.833 -8.5 -41.5c0 -30 13.333 -55.5 40 -76.5s70 -31.5 130 -31.5c27.333 0 54.833 1.5 82.5 4.5s57.167 7.5 88.5 13.5l9 -102c-32 -6 -64.167 -10.833 -96.5 -14.5s-64.5 -5.5 -96.5 -5.5zM247.004 553.998c-19.333 0 -35.666 6.66699 -48.999 20
s-20 29.666 -20 48.999s6.66699 35.666 20 48.999s29.666 20 48.999 20s35.666 -6.66699 48.999 -20s20 -29.666 20 -48.999s-6.66699 -35.666 -20 -48.999s-29.666 -20 -48.999 -20z" />
    <glyph glyph-name="dal.isol" unicode="&#x62f;" horiz-adv-x="521" arabic-form="isolated" 
d="M46 104l297.001 -0.000976562c-3.33301 74.667 -23.833 135 -61.5 181s-95.834 79 -174.501 99l32 110c54 -14 101.833 -32.667 143.5 -56s76.5 -52.166 104.5 -86.499s49.167 -75 63.5 -122s21.5 -101.5 21.5 -163.5v-66h-426v104z" />
    <glyph glyph-name="thal.isol" unicode="&#x630;" horiz-adv-x="521" arabic-form="isolated" 
d="M46 104l297.001 -0.000976562c-3.33301 74.667 -23.833 135 -61.5 181s-95.834 79 -174.501 99l32 110c54 -14 101.833 -32.667 143.5 -56s76.5 -52.166 104.5 -86.499s49.167 -75 63.5 -122s21.5 -101.5 21.5 -163.5v-66h-426v104zM198.001 553.999
c-19.333 0 -35.666 6.66699 -48.999 20s-20 29.666 -20 48.999s6.66699 35.666 20 48.999s29.666 20 48.999 20s35.666 -6.66699 48.999 -20s20 -29.666 20 -48.999s-6.66699 -35.666 -20 -48.999s-29.666 -20 -48.999 -20z" />
    <glyph glyph-name="reh.isol" unicode="&#x631;" horiz-adv-x="396" arabic-form="isolated" 
d="M75 -254c-15.333 0 -29.999 0.832031 -43.999 2.49902s-27.333 4.16699 -40 7.5l11 105c11.333 -3.33301 23.666 -6.16602 36.999 -8.49902s28 -3.5 44 -3.5c16.667 0 31.667 2.16699 45 6.5s24.5 12 33.5 23s16 25.333 21 43s7.5 40.167 7.5 67.5v481h132v-474
c0 -32 -3.33301 -63 -10 -93s-19 -56.667 -37 -80s-43.167 -42 -75.5 -56s-73.833 -21 -124.5 -21z" />
    <glyph glyph-name="zain.isol" unicode="&#x632;" horiz-adv-x="396" arabic-form="isolated" 
d="M75 -254c-15.333 0 -29.999 0.832031 -43.999 2.49902s-27.333 4.16699 -40 7.5l11 105c11.333 -3.33301 23.666 -6.16602 36.999 -8.49902s28 -3.5 44 -3.5c16.667 0 31.667 2.16699 45 6.5s24.5 12 33.5 23s16 25.333 21 43s7.5 40.167 7.5 67.5v481h132v-474
c0 -32 -3.33301 -63 -10 -93s-19 -56.667 -37 -80s-43.167 -42 -75.5 -56s-73.833 -21 -124.5 -21zM256.001 553.999c-19.333 0 -35.666 6.66699 -48.999 20s-20 29.666 -20 48.999s6.66699 35.666 20 48.999s29.666 20 48.999 20s35.666 -6.66699 48.999 -20
s20 -29.666 20 -48.999s-6.66699 -35.666 -20 -48.999s-29.666 -20 -48.999 -20z" />
    <glyph glyph-name="seen.isol" unicode="&#x633;" horiz-adv-x="1222" arabic-form="isolated" 
d="M311 -230c-40 0 -76.3311 5.33984 -108.998 16.0068s-60.5 27.5 -83.5 50.5s-40.667 52.5 -53 88.5s-18.5 79 -18.5 129c0 29.333 2 59.166 6 89.499s10 60.166 18 89.499l136 25c-9.33301 -32 -16.333 -64.333 -21 -97s-7 -64.334 -7 -95.001
c0 -38 4.16699 -69.5 12.5 -94.5s19.166 -44.833 32.499 -59.5s28.5 -24.834 45.5 -30.501s34.167 -8.5 51.5 -8.5c22 0 41.667 3.16699 59 9.5s32 16.833 44 31.5s21.167 34 27.5 58s9.5 54 9.5 90v348h132v-197c0 -37.333 5.16699 -66 15.5 -86s30.5 -30 60.5 -30
c29.333 0 49 10.167 59 30.5s15 48.5 15 84.5v238h126v-235c0 -20.667 1.66699 -38.167 5 -52.5s9 -25.833 17 -34.5s19.167 -14.834 33.5 -18.501s32.5 -5.5 54.5 -5.5h35c2 20 3.66699 41.167 5 63.5s2 41.166 2 56.499c0 50 -2.66699 97.667 -8 143s-12.333 87 -21 125
l129 18c9.33301 -40 17 -83.667 23 -131s9 -96 9 -146c0 -36.667 -1.33301 -75.667 -4 -117s-6.33398 -80 -11.001 -116h-186c-44 0 -79.167 5.5 -105.5 16.5s-45.166 30.167 -56.499 57.5c-8 -26 -22.833 -46.167 -44.5 -60.5s-46.5 -21.5 -74.5 -21.5
c-22 0 -40.333 3.66699 -55 11s-26.334 17.333 -35.001 30c1.33301 -3.33301 2.33301 -7 3 -11s1 -8.33301 1 -13c0 -12 -1.16699 -26.167 -3.5 -42.5s-7 -33.333 -14 -51s-16.833 -35.167 -29.5 -52.5s-29.167 -32.833 -49.5 -46.5s-45 -24.834 -74 -33.501
s-63.5 -13 -103.5 -13z" />
    <glyph glyph-name="sheen.isol" unicode="&#x634;" horiz-adv-x="1222" arabic-form="isolated" 
d="M311 -230c-40 0 -76.3311 5.33984 -108.998 16.0068s-60.5 27.5 -83.5 50.5s-40.667 52.5 -53 88.5s-18.5 79 -18.5 129c0 29.333 2 59.166 6 89.499s10 60.166 18 89.499l136 25c-9.33301 -32 -16.333 -64.333 -21 -97s-7 -64.334 -7 -95.001
c0 -38 4.16699 -69.5 12.5 -94.5s19.166 -44.833 32.499 -59.5s28.5 -24.834 45.5 -30.501s34.167 -8.5 51.5 -8.5c22 0 41.667 3.16699 59 9.5s32 16.833 44 31.5s21.167 34 27.5 58s9.5 54 9.5 90v348h132v-197c0 -37.333 5.16699 -66 15.5 -86s30.5 -30 60.5 -30
c29.333 0 49 10.167 59 30.5s15 48.5 15 84.5v238h126v-235c0 -20.667 1.66699 -38.167 5 -52.5s9 -25.833 17 -34.5s19.167 -14.834 33.5 -18.501s32.5 -5.5 54.5 -5.5h35c2 20 3.66699 41.167 5 63.5s2 41.166 2 56.499c0 50 -2.66699 97.667 -8 143s-12.333 87 -21 125
l129 18c9.33301 -40 17 -83.667 23 -131s9 -96 9 -146c0 -36.667 -1.33301 -75.667 -4 -117s-6.33398 -80 -11.001 -116h-186c-44 0 -79.167 5.5 -105.5 16.5s-45.166 30.167 -56.499 57.5c-8 -26 -22.833 -46.167 -44.5 -60.5s-46.5 -21.5 -74.5 -21.5
c-22 0 -40.333 3.66699 -55 11s-26.334 17.333 -35.001 30c1.33301 -3.33301 2.33301 -7 3 -11s1 -8.33301 1 -13c0 -12 -1.16699 -26.167 -3.5 -42.5s-7 -33.333 -14 -51s-16.833 -35.167 -29.5 -52.5s-29.167 -32.833 -49.5 -46.5s-45 -24.834 -74 -33.501
s-63.5 -13 -103.5 -13zM800.002 688.007c-17.333 0 -31.833 6.16699 -43.5 18.5s-17.5 27.166 -17.5 44.499s5.83301 32.166 17.5 44.499s26.167 18.5 43.5 18.5s32 -6.16699 44 -18.5s18 -27.166 18 -44.499s-6 -32.166 -18 -44.499s-26.667 -18.5 -44 -18.5z
M884.002 546.007c-19.333 0 -35.333 6.5 -48 19.5s-19 29.167 -19 48.5c0 18.667 6.33301 34.667 19 48s28.667 20 48 20c18.667 0 34.334 -6.5 47.001 -19.5s19 -29.167 19 -48.5c0 -18.667 -6.33301 -34.667 -19 -48s-28.334 -20 -47.001 -20zM718.002 546.007
c-18.667 0 -34.334 6.5 -47.001 19.5s-19 29.167 -19 48.5c0 18.667 6.33301 34.667 19 48s28.334 20 47.001 20s34.334 -6.5 47.001 -19.5s19 -29.167 19 -48.5c0 -18.667 -6.33301 -34.667 -19 -48s-28.334 -20 -47.001 -20z" />
    <glyph glyph-name="sad.isol" unicode="&#x635;" horiz-adv-x="1107" arabic-form="isolated" 
d="M311 -230c-40 0 -76.332 5.33789 -108.999 16.0049s-60.5 27.5 -83.5 50.5s-40.667 52.5 -53 88.5s-18.5 79 -18.5 129c0 29.333 2 59.166 6 89.499s10 60.166 18 89.499l136 25c-9.33301 -32 -16.333 -64.333 -21 -97s-7 -64.334 -7 -95.001
c0 -38 4.16699 -69.5 12.5 -94.5s19.166 -44.833 32.499 -59.5s28.5 -24.834 45.5 -30.501s34.167 -8.5 51.5 -8.5c22 0 41.667 3.16699 59 9.5s32 16.833 44 31.5s21.167 34 27.5 58s9.5 54 9.5 90v408h132v-25c0 -22 -0.833008 -46.167 -2.5 -72.5s-4.5 -51.5 -8.5 -75.5
h1c12 29.333 27.167 55.5 45.5 78.5s38.666 42.5 60.999 58.5s46.333 28.167 72 36.5s51.834 12.5 78.501 12.5c69.333 0 120.5 -21.5 153.5 -64.5s49.5 -102.167 49.5 -177.5c0 -40 -1 -80.5 -3 -121.5s-5.66699 -80.833 -11 -119.5h-442
c-4 -40.667 -13.5 -75.5 -28.5 -104.5s-34.5 -52.833 -58.5 -71.5s-52 -32.334 -84 -41.001s-67 -13 -105 -13zM903.001 104.005c1.33301 20 2.5 40.8301 3.5 62.4971s1.5 41.834 1.5 60.501c0 46.667 -7 83.334 -21 110.001s-38.667 40 -74 40
c-26.667 0 -52 -7.66699 -76 -23s-45.667 -35.666 -65 -60.999s-36 -54.5 -50 -87.5s-24 -66.833 -30 -101.5h311z" />
    <glyph glyph-name="dad.isol" unicode="&#x636;" horiz-adv-x="1107" arabic-form="isolated" 
d="M311 -230c-40 0 -76.332 5.33789 -108.999 16.0049s-60.5 27.5 -83.5 50.5s-40.667 52.5 -53 88.5s-18.5 79 -18.5 129c0 29.333 2 59.166 6 89.499s10 60.166 18 89.499l136 25c-9.33301 -32 -16.333 -64.333 -21 -97s-7 -64.334 -7 -95.001
c0 -38 4.16699 -69.5 12.5 -94.5s19.166 -44.833 32.499 -59.5s28.5 -24.834 45.5 -30.501s34.167 -8.5 51.5 -8.5c22 0 41.667 3.16699 59 9.5s32 16.833 44 31.5s21.167 34 27.5 58s9.5 54 9.5 90v408h132v-25c0 -22 -0.833008 -46.167 -2.5 -72.5s-4.5 -51.5 -8.5 -75.5
h1c12 29.333 27.167 55.5 45.5 78.5s38.666 42.5 60.999 58.5s46.333 28.167 72 36.5s51.834 12.5 78.501 12.5c69.333 0 120.5 -21.5 153.5 -64.5s49.5 -102.167 49.5 -177.5c0 -40 -1 -80.5 -3 -121.5s-5.66699 -80.833 -11 -119.5h-442
c-4 -40.667 -13.5 -75.5 -28.5 -104.5s-34.5 -52.833 -58.5 -71.5s-52 -32.334 -84 -41.001s-67 -13 -105 -13zM903.001 104.005c1.33301 20 2.5 40.8301 3.5 62.4971s1.5 41.834 1.5 60.501c0 46.667 -7 83.334 -21 110.001s-38.667 40 -74 40
c-26.667 0 -52 -7.66699 -76 -23s-45.667 -35.666 -65 -60.999s-36 -54.5 -50 -87.5s-24 -66.833 -30 -101.5h311zM822.001 554.002c-19.333 0 -35.666 6.66699 -48.999 20s-20 29.666 -20 48.999s6.66699 35.666 20 48.999s29.666 20 48.999 20s35.666 -6.66699 48.999 -20
s20 -29.666 20 -48.999s-6.66699 -35.666 -20 -48.999s-29.666 -20 -48.999 -20z" />
    <glyph glyph-name="tah.isol" unicode="&#x637;" horiz-adv-x="768" arabic-form="isolated" 
d="M0 104h122v601h132v-260c0 -22 -0.833008 -46.167 -2.5 -72.5s-4.5 -51.5 -8.5 -75.5h1c12 29.333 27.167 55.5 45.5 78.5s38.666 42.5 60.999 58.5s46.333 28.167 72 36.5s51.834 12.5 78.501 12.5c69.333 0 120.5 -21.5 153.5 -64.5s49.5 -102.167 49.5 -177.5
c0 -40 -1 -80.5 -3 -121.5s-5.66699 -80.833 -11 -119.5h-690v104zM564 104c1.33301 20 2.5 40.832 3.5 62.499s1.5 41.5 1.5 59.5c0 46.667 -7 83.5 -21 110.5s-38.667 40.5 -74 40.5c-26.667 0 -52 -7.66699 -76 -23s-45.667 -35.666 -65 -60.999s-36 -54.5 -50 -87.5
s-24 -66.833 -30 -101.5h311z" />
    <glyph glyph-name="zah.isol" unicode="&#x638;" horiz-adv-x="768" arabic-form="isolated" 
d="M0 104h122v601h132v-260c0 -22 -0.833008 -46.167 -2.5 -72.5s-4.5 -51.5 -8.5 -75.5h1c12 29.333 27.167 55.5 45.5 78.5s38.666 42.5 60.999 58.5s46.333 28.167 72 36.5s51.834 12.5 78.501 12.5c69.333 0 120.5 -21.5 153.5 -64.5s49.5 -102.167 49.5 -177.5
c0 -40 -1 -80.5 -3 -121.5s-5.66699 -80.833 -11 -119.5h-690v104zM564 104c1.33301 20 2.5 40.832 3.5 62.499s1.5 41.5 1.5 59.5c0 46.667 -7 83.5 -21 110.5s-38.667 40.5 -74 40.5c-26.667 0 -52 -7.66699 -76 -23s-45.667 -35.666 -65 -60.999s-36 -54.5 -50 -87.5
s-24 -66.833 -30 -101.5h311zM484 553.999c-19.333 0 -35.666 6.66699 -48.999 20s-20 29.666 -20 48.999s6.66699 35.666 20 48.999s29.666 20 48.999 20s35.666 -6.66699 48.999 -20s20 -29.666 20 -48.999s-6.66699 -35.666 -20 -48.999s-29.666 -20 -48.999 -20z" />
    <glyph glyph-name="ain.isol" unicode="&#x639;" horiz-adv-x="494" arabic-form="isolated" 
d="M289 -320c-49.333 0 -91.498 5.16699 -126.498 15.5s-64 24.5 -87 42.5s-39.833 39.5 -50.5 64.5s-16 52.167 -16 81.5c0 45.333 13 83.833 39 115.5s64 53.5 114 65.5c-32 13.333 -58.833 35.333 -80.5 66s-32.5 68.667 -32.5 114c0 35.333 5.66699 67.5 17 96.5
s28.333 54 51 75s50.667 37.333 84 49s71.666 17.5 114.999 17.5c15.333 0 29.5 -0.833008 42.5 -2.5l35.5 -4.5c12 -2 23.333 -4 34 -6l-22 -104l-27 7l-29.5 4.5c-11 1.66699 -23.167 2.5 -36.5 2.5c-41.333 0 -73.333 -12 -96 -36s-34 -56 -34 -96
c0 -20 3.66699 -38.667 11 -56s18.833 -32.5 34.5 -45.5s35.5 -23.333 59.5 -31s53 -11.5 87 -11.5h70v-104h-123c-36 -0 -65.667 -3.16699 -89 -9.5s-41.5 -14.666 -54.5 -24.999s-22 -22.166 -27 -35.499s-7.5 -27 -7.5 -41c0 -30.667 13 -55.834 39 -75.501
s66.667 -29.5 122 -29.5c19.333 0 37.833 0.666992 55.5 2s33.5 3 47.5 5c16.667 2 32 4.33301 46 7l7 -102c-16 -2.66699 -33.333 -5.33398 -52 -8.00098c-16 -2 -34.333 -3.83301 -55 -5.5s-42.334 -2.5 -65.001 -2.5z" />
    <glyph glyph-name="ghain.isol" unicode="&#x63a;" horiz-adv-x="494" arabic-form="isolated" 
d="M289 -320c-49.333 0 -91.498 5.16699 -126.498 15.5s-64 24.5 -87 42.5s-39.833 39.5 -50.5 64.5s-16 52.167 -16 81.5c0 45.333 13 83.833 39 115.5s64 53.5 114 65.5c-32 13.333 -58.833 35.333 -80.5 66s-32.5 68.667 -32.5 114c0 35.333 5.66699 67.5 17 96.5
s28.333 54 51 75s50.667 37.333 84 49s71.666 17.5 114.999 17.5c15.333 0 29.5 -0.833008 42.5 -2.5l35.5 -4.5c12 -2 23.333 -4 34 -6l-22 -104l-27 7l-29.5 4.5c-11 1.66699 -23.167 2.5 -36.5 2.5c-41.333 0 -73.333 -12 -96 -36s-34 -56 -34 -96
c0 -20 3.66699 -38.667 11 -56s18.833 -32.5 34.5 -45.5s35.5 -23.333 59.5 -31s53 -11.5 87 -11.5h70v-104h-123c-36 -0 -65.667 -3.16699 -89 -9.5s-41.5 -14.666 -54.5 -24.999s-22 -22.166 -27 -35.499s-7.5 -27 -7.5 -41c0 -30.667 13 -55.834 39 -75.501
s66.667 -29.5 122 -29.5c19.333 0 37.833 0.666992 55.5 2s33.5 3 47.5 5c16.667 2 32 4.33301 46 7l7 -102c-16 -2.66699 -33.333 -5.33398 -52 -8.00098c-16 -2 -34.333 -3.83301 -55 -5.5s-42.334 -2.5 -65.001 -2.5zM274.002 560c-19.333 0 -35.666 6.66699 -48.999 20
s-20 29.666 -20 48.999s6.66699 35.666 20 48.999s29.666 20 48.999 20s35.666 -6.66699 48.999 -20s20 -29.666 20 -48.999s-6.66699 -35.666 -20 -48.999s-29.666 -20 -48.999 -20z" />
    <glyph glyph-name="feh.isol" unicode="&#x641;" horiz-adv-x="926" arabic-form="isolated" 
d="M643 558c-19.333 0 -35.666 6.66699 -48.999 20s-20 29.666 -20 48.999s6.66699 35.666 20 48.999s29.666 20 48.999 20s35.666 -6.66699 48.999 -20s20 -29.666 20 -48.999s-6.66699 -35.666 -20 -48.999s-29.666 -20 -48.999 -20zM885 250
c0 -36.667 -6.33398 -70.3311 -19.001 -100.998s-30.167 -57 -52.5 -79s-49.166 -39.167 -80.499 -51.5s-65.666 -18.5 -102.999 -18.5h-213c-68 0 -125.333 6.83301 -172 20.5s-84.5 33.334 -113.5 59.001s-49.833 56.667 -62.5 93s-19 77.5 -19 123.5
c0 27.333 2.5 55.166 7.5 83.499s11.167 52.833 18.5 73.5l141 23c-10.667 -23.333 -19 -50 -25 -80s-9 -58.333 -9 -85c0 -70.667 17.5 -122.834 52.5 -156.501s92.833 -50.5 173.5 -50.5h33c-14.667 13.333 -25.667 31.333 -33 54s-11 48 -11 76
c0 36 6.16699 69.167 18.5 99.5s29.666 56.666 51.999 78.999s49 39.666 80 51.999s65.5 18.5 103.5 18.5c35.333 0 67.333 -4.66699 96 -14s53.167 -23.666 73.5 -42.999s36 -43.5 47 -72.5s16.5 -63.5 16.5 -103.5zM751.999 243.003c0 44 -8.66602 77.667 -25.999 101
s-45 35 -83 35c-14 0 -27.833 -2.5 -41.5 -7.5s-25.834 -13 -36.501 -24s-19.167 -25 -25.5 -42s-9.5 -37.167 -9.5 -60.5c0 -94 37 -141 111 -141c32 0 58.5 11.5 79.5 34.5s31.5 57.833 31.5 104.5z" />
    <glyph glyph-name="qaf.isol" unicode="&#x642;" horiz-adv-x="884" arabic-form="isolated" 
d="M810 -239l-112.996 -5.99707c-32.667 -1.33301 -67.834 -2.5 -105.501 -3.5s-72.5 -1.5 -104.5 -1.5c-79.333 0 -146.833 6.16699 -202.5 18.5s-101 31.166 -136 56.499s-60.667 57.166 -77 95.499s-24.5 83.5 -24.5 135.5c0 28 2 57.167 6 87.5s10 60.166 18 89.499
l136 25c-9.33301 -32 -16.333 -64.167 -21 -96.5s-7 -63.166 -7 -92.499c0 -38.667 5.33301 -71.667 16 -99s28.667 -49.666 54 -66.999s59 -30 101 -38s94 -12 156 -12c22 0 43.333 0.166992 64 0.5s39.334 1.16602 56.001 2.49902
c19.333 0.666992 37.666 1.66699 54.999 3v141h-78c-48.667 0 -90 5.5 -124 16.5s-61.5 26.5 -82.5 46.5s-36.333 44.333 -46 73s-14.5 60.667 -14.5 96c0 32.667 5.16699 64.167 15.5 94.5s26.166 57 47.499 80s48.666 41.5 81.999 55.5s73 21 119 21
c30 0 57.667 -1.83301 83 -5.5s47.666 -7.83398 66.999 -12.501c22 -5.33301 42 -11 60 -17v-687zM681.004 361.003c-8 3.33301 -16.667 6.33203 -26 8.99902c-8.66699 2 -18.667 4 -30 6s-24 3 -38 3c-38 0 -67.5 -12.667 -88.5 -38s-31.5 -57.666 -31.5 -96.999
c0 -46 12 -80.833 36 -104.5s62 -35.5 114 -35.5h64v257zM671.004 546.002c-18.667 0 -34.334 6.5 -47.001 19.5s-19 29.167 -19 48.5c0 18.667 6.33301 34.667 19 48s28.334 20 47.001 20s34.334 -6.5 47.001 -19.5s19 -29.167 19 -48.5
c0 -18.667 -6.33301 -34.667 -19 -48s-28.334 -20 -47.001 -20zM505.004 546.002c-18.667 0 -34.334 6.5 -47.001 19.5s-19 29.167 -19 48.5c0 18.667 6.33301 34.667 19 48s28.334 20 47.001 20c19.333 0 35.333 -6.5 48 -19.5s19 -29.167 19 -48.5
c0 -18.667 -6.33301 -34.667 -19 -48s-28.667 -20 -48 -20z" />
    <glyph glyph-name="kaf.isol" unicode="&#x643;" horiz-adv-x="857" arabic-form="isolated" 
d="M417 0c-68 0 -125.333 6.83301 -172 20.5s-84.5 33.334 -113.5 59.001s-49.833 56.667 -62.5 93s-19 77.5 -19 123.5c0 27.333 2.5 55.166 7.5 83.499s11.167 52.833 18.5 73.5l141 23c-10.667 -23.333 -19 -50 -25 -80s-9 -58.333 -9 -85
c0 -35.333 4.16699 -66 12.5 -92s22.166 -47.5 41.499 -64.5s44.833 -29.667 76.5 -38s70.834 -12.5 117.501 -12.5h209v601h132v-705h-355zM302 487c10.667 0 20.8369 -0.333008 30.5039 -1s18.167 -1.66699 25.5 -3c-6 3.33301 -10.667 8.83301 -14 16.5
s-5 15.167 -5 22.5c0 14 2.66699 27.667 8 41s13.666 25.333 24.999 36s26.333 19.167 45 25.5s41 9.5 67 9.5c13.333 0 25.666 -0.666992 36.999 -2s18.666 -2.33301 21.999 -3l-12 -75c-2.66699 0.666992 -8.83398 1.66699 -18.501 3s-20.167 2 -31.5 2
c-15.333 0 -27.166 -3.16699 -35.499 -9.5s-12.5 -14.5 -12.5 -24.5c0 -11.333 5.16699 -20.5 15.5 -27.5s28.166 -10.5 53.499 -10.5h57v-75h-257v75z" />
    <glyph glyph-name="lam.isol" unicode="&#x644;" horiz-adv-x="652" arabic-form="isolated" 
d="M441 705l131.998 0.00195312v-629c0 -105.333 -23.5 -182.666 -70.5 -231.999s-112.833 -74 -197.5 -74c-40 0 -76 5.33301 -108 16s-59 27.5 -81 50.5s-39 52.5 -51 88.5s-18 79 -18 129c0 29.333 2 59.166 6 89.499s10 60.166 18 89.499l136 25
c-9.33301 -32 -16.333 -64.333 -21 -97s-7 -64.334 -7 -95.001c0 -38 3.83301 -69.5 11.5 -94.5s17.834 -44.833 30.501 -59.5s27.334 -24.834 44.001 -30.501s33.667 -8.5 51 -8.5c18 0 34.667 3.16699 50 9.5s28.5 17 39.5 32s19.667 34.833 26 59.5
s9.5 55.334 9.5 92.001v639z" />
    <glyph glyph-name="meem.isol" unicode="&#x645;" horiz-adv-x="806" arabic-form="isolated" 
d="M518 0c-44.667 0 -83.001 4.49902 -115.001 13.499s-58.833 21.833 -80.5 38.5s-38.167 37 -49.5 61s-18.666 51 -21.999 81h-20c-28.667 0 -47.5 -9.33301 -56.5 -28s-9.83301 -51.667 -2.5 -99l52 -327h-127l-51 317c-5.33301 35.333 -6 67.833 -2 97.5
s13.5 55.167 28.5 76.5s35.833 37.833 62.5 49.5s60 17.5 100 17.5h22c6 26 15.833 50.333 29.5 73s31.167 42.334 52.5 59.001s46.333 29.667 75 39s61 14 97 14c78 0 135.167 -20.833 171.5 -62.5s54.5 -97.5 54.5 -167.5v-253h-219zM607.999 236.999
c0 50 -9.33301 86.166 -28 108.499s-45 33.5 -79 33.5c-38 0 -67.333 -12.667 -88 -38s-31 -57.666 -31 -96.999c0 -47.333 12 -82.5 36 -105.5s62 -34.5 114 -34.5h76v133z" />
    <glyph glyph-name="noon.isol" unicode="&#x646;" horiz-adv-x="667" arabic-form="isolated" 
d="M593 71c0 -100.667 -22.999 -175.996 -68.999 -225.996s-117 -75 -213 -75c-40 0 -76.333 5.33301 -109 16s-60.5 27.5 -83.5 50.5s-40.667 52.5 -53 88.5s-18.5 79 -18.5 129c0 29.333 2 59.166 6 89.499s10 60.166 18 89.499l136 25
c-9.33301 -32 -16.333 -64.333 -21 -97s-7 -64.334 -7 -95.001c0 -38 4.16699 -69.5 12.5 -94.5s19.166 -44.833 32.499 -59.5s28.5 -24.834 45.5 -30.501s34.167 -8.5 51.5 -8.5c22 0 41.667 3.16699 59 9.5s32 16.833 44 31.5s21.167 34.167 27.5 58.5s9.5 54.5 9.5 90.5
v407h132v-399zM311.001 345.004c-19.333 0 -35.666 6.66699 -48.999 20s-20 29.666 -20 48.999s6.66699 35.666 20 48.999s29.666 20 48.999 20s35.666 -6.66699 48.999 -20s20 -29.666 20 -48.999s-6.66699 -35.666 -20 -48.999s-29.666 -20 -48.999 -20z" />
    <glyph glyph-name="heh.isol" unicode="&#x647;" horiz-adv-x="594" arabic-form="isolated" 
d="M306 0c-48.667 0 -90.001 5.50098 -124.001 16.501s-61.667 26.5 -83 46.5s-36.833 44.167 -46.5 72.5s-14.5 60.166 -14.5 95.499c0 34 5.5 66.167 16.5 96.5s27.333 57 49 80s48.834 41.333 81.501 55s70.667 20.5 114 20.5c78 0 135.167 -20.833 171.5 -62.5
s54.5 -97.5 54.5 -167.5v-253h-219zM395.999 237.001c0 50 -9.33301 86.166 -28 108.499s-45 33.5 -79 33.5c-38 0 -67.333 -12.667 -88 -38s-31 -57.666 -31 -96.999c0 -47.333 12 -82.5 36 -105.5s62 -34.5 114 -34.5h76v133z" />
    <glyph glyph-name="waw.isol" unicode="&#x648;" horiz-adv-x="586" arabic-form="isolated" 
d="M199 -252c-19.333 0 -37.832 0.668945 -55.499 2.00195s-33.834 2.66602 -48.501 3.99902c-17.333 2 -33.333 4.33301 -48 7l8 108c15.333 -3.33301 31.666 -6.33301 48.999 -9c14.667 -2 31.334 -3.83301 50.001 -5.5s37.667 -2.5 57 -2.5c52 0 93.833 10.333 125.5 31
s47.5 54.667 47.5 102v15h-78c-48.667 0 -90 5.5 -124 16.5s-61.667 26.5 -83 46.5s-36.833 44.333 -46.5 73s-14.5 60.667 -14.5 96c0 32.667 5.16699 64.167 15.5 94.5s26.333 57 48 80s49.167 41.5 82.5 55.5s73 21 119 21c30 0 57.5 -1.83301 82.5 -5.5
s47.167 -7.83398 66.5 -12.501c22 -5.33301 42 -11 60 -17v-450c0 -34.667 -5.83301 -67.167 -17.5 -97.5s-30 -56.833 -55 -79.5s-57.333 -40.5 -97 -53.5s-87.5 -19.5 -143.5 -19.5zM384.001 361.002c-7.33301 3.33301 -16 6.33203 -26 8.99902
c-8.66699 2 -18.834 4 -30.501 6s-24.5 3 -38.5 3c-38 0 -67.333 -12.667 -88 -38s-31 -57.666 -31 -96.999c0 -46 11.833 -80.833 35.5 -104.5s61.834 -35.5 114.501 -35.5h64v257z" />
    <glyph glyph-name="alefmaksura.isol" unicode="&#x649;" horiz-adv-x="1000" arabic-form="isolated" 
d="M417 0c-68 0 -125.335 6.83398 -172.002 20.501s-84.5 33.334 -113.5 59.001s-49.833 56.667 -62.5 93s-19 77.5 -19 123.5c0 27.333 2.5 55.166 7.5 83.499s11.167 52.833 18.5 73.5l141 23c-10.667 -23.333 -19 -50 -25 -80s-9 -58.333 -9 -85
c0 -35.333 4.16699 -66 12.5 -92s22.166 -47.5 41.499 -64.5s44.833 -29.667 76.5 -38s70.834 -12.5 117.501 -12.5h68v360c18 3.33301 38 6.33301 60 9c18.667 2.66699 40 5 64 7s49.667 3 77 3c44 0 80.833 -5.16699 110.5 -15.5s53.334 -25 71.001 -44
s30.334 -42.167 38.001 -69.5s11.5 -58 11.5 -92v-126h-128v112c0 48 -8.16699 81.833 -24.5 101.5s-45.166 29.5 -86.499 29.5c-8.66699 0 -16.834 -0.333008 -24.501 -1s-14.5 -1.33398 -20.5 -2.00098c-7.33301 -1.33301 -14.333 -2.33301 -21 -3v-373h-209z" />
    <glyph glyph-name="yeh.isol" unicode="&#x64a;" horiz-adv-x="1000" arabic-form="isolated" 
d="M417 0c-68 0 -125.335 6.83398 -172.002 20.501s-84.5 33.334 -113.5 59.001s-49.833 56.667 -62.5 93s-19 77.5 -19 123.5c0 27.333 2.5 55.166 7.5 83.499s11.167 52.833 18.5 73.5l141 23c-10.667 -23.333 -19 -50 -25 -80s-9 -58.333 -9 -85
c0 -35.333 4.16699 -66 12.5 -92s22.166 -47.5 41.499 -64.5s44.833 -29.667 76.5 -38s70.834 -12.5 117.501 -12.5h68v360c18 3.33301 38 6.33301 60 9c18.667 2.66699 40 5 64 7s49.667 3 77 3c44 0 80.833 -5.16699 110.5 -15.5s53.334 -25 71.001 -44
s30.334 -42.167 38.001 -69.5s11.5 -58 11.5 -92v-126h-128v112c0 48 -8.16699 81.833 -24.5 101.5s-45.166 29.5 -86.499 29.5c-8.66699 0 -16.834 -0.333008 -24.501 -1s-14.5 -1.33398 -20.5 -2.00098c-7.33301 -1.33301 -14.333 -2.33301 -21 -3v-373h-209z
M540.998 -149.999c0 -18.667 -6.33301 -34.667 -19 -48s-28.334 -20 -47.001 -20s-34.334 6.5 -47.001 19.5s-19 29.167 -19 48.5c0 18.667 6.33301 34.667 19 48s28.334 20 47.001 20s34.334 -6.5 47.001 -19.5s19 -29.167 19 -48.5zM375.998 -149.999
c0 -18.667 -6.33301 -34.667 -19 -48s-28.667 -20 -48 -20c-18.667 0 -34.334 6.5 -47.001 19.5s-19 29.167 -19 48.5c0 18.667 6.33301 34.667 19 48s28.334 20 47.001 20c19.333 0 35.333 -6.5 48 -19.5s19 -29.167 19 -48.5z" />
    <glyph glyph-name="fathatan" unicode="&#xfe70;" horiz-adv-x="0" arabic-form="isolated" 
d="M-112 64l224 32v-64l-224 -32v64zM-111 169l224 32v-64l-224 -32v64z" />
    <glyph glyph-name="dammatan" unicode="&#xfe72;" horiz-adv-x="0" arabic-form="isolated" 
d="M-150 147l57 12.9971l21 -95l45 10c-1.33301 4 -2.33301 8 -3 12c-2 6.66699 -3 15.334 -3 26.001c0 28 9.66699 51 29 69s43 27 71 27s49 -7.66699 63 -23s21 -33.666 21 -54.999c0 -25.333 -8.16699 -45.666 -24.5 -60.999s-37.833 -26 -64.5 -32l-181 -38zM57 92.9971
c10 1.33301 18.167 5.16699 24.5 11.5s9.5 14.166 9.5 23.499c0 7.33301 -2.33301 13.5 -7 18.5s-11.667 7.5 -21 7.5c-11.333 0 -20.5 -3.66699 -27.5 -11s-10.167 -16.666 -9.5 -27.999c0 -6 0.666992 -12.333 2 -19c0.666992 -2.66699 1.66699 -5.66699 3 -9z" />
    <glyph glyph-name="kasratan" unicode="&#xfe74;" horiz-adv-x="0" arabic-form="isolated" 
d="M-112 -137l224 32v-64l-224 -32v64zM-111 -32l224 32v-64l-224 -32v64z" />
    <glyph glyph-name="fatha" unicode="&#xfe76;" horiz-adv-x="0" arabic-form="isolated" 
d="M-112 71l224 32v-71l-224 -32v71z" />
    <glyph glyph-name="damma" unicode="&#xfe78;" horiz-adv-x="0" arabic-form="isolated" 
d="M-127 52l77 16.9971c-1.33301 4 -2.33301 8 -3 12c-2 6.66699 -3 15.334 -3 26.001c0 28 9.66699 51 29 69s43 27 71 27s49 -7.66699 63 -23s21 -33.666 21 -54.999c0 -25.333 -8.16699 -45.666 -24.5 -60.999s-37.833 -26 -64.5 -32l-154 -32zM34 86.9971
c10 1.33301 18.167 5.16699 24.5 11.5s9.5 14.166 9.5 23.499c0 7.33301 -2.33301 13.5 -7 18.5s-11.667 7.5 -21 7.5c-11.333 0 -20.5 -3.66699 -27.5 -11s-10.167 -16.666 -9.5 -27.999c0 -6 0.666992 -12.333 2 -19c0.666992 -2.66699 1.66699 -5.66699 3 -9z" />
    <glyph glyph-name="kasra" unicode="&#xfe7a;" horiz-adv-x="0" arabic-form="isolated" 
d="M-112 -135l224 32v-71l-224 -32v71z" />
    <glyph glyph-name="shadda" unicode="&#xfe7c;" horiz-adv-x="0" arabic-form="isolated" 
d="M2 39c-6.66699 -11.333 -16.5 -20.668 -29.5 -28.001s-26.5 -11 -40.5 -11c-16 0 -30.167 5.33301 -42.5 16s-20.166 28.334 -23.499 53.001l-8 56l60 10l8 -56c2.66699 -16 10 -24 22 -24c8.66699 0 15.167 3 19.5 9s5.83301 13.667 4.5 23l-9 56l60 10l9 -57
c1.33301 -8 4.16602 -14.5 8.49902 -19.5s9.83301 -7.5 16.5 -7.5c10.667 0 17.667 3.5 21 10.5s4.33301 16.167 3 27.5l-9 60l60 8l9 -56c4.66699 -29.333 -0.833008 -53.833 -16.5 -73.5s-39.5 -29.5 -71.5 -29.5c-9.33301 0 -18.833 2 -28.5 6s-17.167 9.66699 -22.5 17z
" />
    <glyph glyph-name="sukun" unicode="&#xfe7e;" horiz-adv-x="0" arabic-form="isolated" 
d="M-33 84c0 -10 3 -18 9 -24s14 -9 24 -9c10.667 0 18.667 3.16699 24 9.5s8 14.5 8 24.5s-2.83301 18.333 -8.5 25s-13.5 10 -23.5 10s-18 -3.5 -24 -10.5s-9 -15.5 -9 -25.5zM-95 84c0 12.667 2.5 24.332 7.5 34.999s11.833 19.834 20.5 27.501s18.834 13.5 30.501 17.5
s23.834 6 36.501 6c28 0 50.833 -7 68.5 -21s26.5 -35 26.5 -63c0 -12.667 -2.5 -24.334 -7.5 -35.001s-11.833 -19.667 -20.5 -27s-18.834 -13.166 -30.501 -17.499s-23.834 -6.5 -36.501 -6.5c-28 0 -50.833 7 -68.5 21s-26.5 35 -26.5 63z" />
    <glyph glyph-name="alef_wasla.isol" unicode="&#x671;" horiz-adv-x="302" arabic-form="isolated" 
d="M213 819l-0.00195312 13c0 22 -3 37.667 -9 47s-14.667 14 -26 14c-17.333 0 -31.666 -7.5 -42.999 -22.5s-19.666 -32.167 -24.999 -51.5h103zM-13.002 819l49 0.00195312c6.66699 20 14.667 38.667 24 56s20.333 32.166 33 44.499s27.167 22.166 43.5 29.499
s34.833 11 55.5 11c66.667 0 100 -42 100 -126v-84h-305v69zM84.998 688.002h132v-688h-132v688z" />
    <glyph glyph-name="tteh.isol" unicode="&#x679;" horiz-adv-x="773" arabic-form="isolated" 
d="M417 0c-68 0 -125.333 6.83301 -172 20.5s-84.5 33.334 -113.5 59.001s-49.833 56.667 -62.5 93s-19 77.5 -19 123.5c0 27.333 2.5 55.166 7.5 83.499s11.167 52.833 18.5 73.5l141 23c-10.667 -23.333 -19 -50 -25 -80s-9 -58.333 -9 -85
c0 -35.333 4.16699 -66 12.5 -92s22.166 -47.5 41.499 -64.5s44.833 -29.667 76.5 -38s70.834 -12.5 117.501 -12.5h136v366h132v-470h-282zM492 644c0 15.333 -3 27.167 -9 35.5s-15.667 12.5 -29 12.5c-11.333 0 -22.333 -3 -33 -9s-20.5 -14 -29.5 -24
s-16.833 -21.333 -23.5 -34s-11.667 -26 -15 -40h67c26 0 44.5 5.5 55.5 16.5s16.5 25.167 16.5 42.5zM354 737.001c0 -8 -0.668945 -17.001 -2.00195 -27.001s-3 -20.333 -5 -31h1c12.667 20.667 29.334 37.334 50.001 50.001s43.334 19 68.001 19
c32 0 56.667 -8.16699 74 -24.5s26 -40.5 26 -72.5c0 -37.333 -13.167 -67 -39.5 -89s-64.5 -33 -114.5 -33h-129v286h71v-78z" />
    <glyph glyph-name="peh.isol" unicode="&#x67e;" horiz-adv-x="773" arabic-form="isolated" 
d="M417 0c-68 0 -125.333 6.83301 -172 20.5s-84.5 33.334 -113.5 59.001s-49.833 56.667 -62.5 93s-19 77.5 -19 123.5c0 27.333 2.5 55.166 7.5 83.499s11.167 52.833 18.5 73.5l141 23c-10.667 -23.333 -19 -50 -25 -80s-9 -58.333 -9 -85
c0 -35.333 4.16699 -66 12.5 -92s22.166 -47.5 41.499 -64.5s44.833 -29.667 76.5 -38s70.834 -12.5 117.501 -12.5h136v366h132v-470h-282zM415 -291c-16.667 0 -30.5 5.5 -41.5 16.5s-16.5 24.833 -16.5 41.5c0 16 5.5 29.667 16.5 41s24.833 17 41.5 17
c16 0 29.667 -5.66699 41 -17s17 -25 17 -41c0 -16.667 -5.66699 -30.5 -17 -41.5s-25 -16.5 -41 -16.5zM495 -171c-17.333 0 -31.666 6 -42.999 18s-17 26.667 -17 44s5.66699 31.833 17 43.5s25.666 17.5 42.999 17.5s31.833 -5.83301 43.5 -17.5s17.5 -26.167 17.5 -43.5
s-5.83301 -32 -17.5 -44s-26.167 -18 -43.5 -18zM334 -171c-17.333 0 -31.833 6 -43.5 18s-17.5 26.667 -17.5 44s5.83301 31.833 17.5 43.5s26.167 17.5 43.5 17.5s31.833 -5.83301 43.5 -17.5s17.5 -26.167 17.5 -43.5s-5.83301 -32 -17.5 -44s-26.167 -18 -43.5 -18z" />
    <glyph glyph-name="tcheh.isol" unicode="&#x686;" horiz-adv-x="617" arabic-form="isolated" 
d="M336 0c-37.333 0 -68.165 -2.83594 -92.498 -8.50293s-43.666 -13.5 -57.999 -23.5s-24.333 -21.833 -30 -35.5s-8.5 -28.5 -8.5 -44.5c0 -25.333 8.66699 -46.833 26 -64.5s43.666 -29.5 78.999 -35.5l-29 -106c-62.667 10.667 -112.834 32.334 -150.501 65.001
s-56.5 77 -56.5 133c0 32 6.16699 61.667 18.5 89s31.666 51 57.999 71s59.833 35.667 100.5 47s89.667 17 147 17h85c2 12 3.33301 24.5 4 37.5s1 25.833 1 38.5c0 63.333 -14.5 111.166 -43.5 143.499s-79.5 48.5 -151.5 48.5c-20.667 0 -40.5 -0.666992 -59.5 -2
s-37.5 -3.33301 -55.5 -6v103c19.333 2.66699 40 4.83398 62 6.50098s44 2.5 66 2.5c56 0 103.833 -6.16699 143.5 -18.5s72 -30.666 97 -54.999s43.333 -54.666 55 -90.999s17.5 -78.5 17.5 -126.5c0 -25.333 -1.16699 -53.5 -3.5 -84.5s-6.5 -64.5 -12.5 -100.5h-209z
M409.001 -290.003c-16.667 0 -30.5 5.5 -41.5 16.5s-16.5 24.833 -16.5 41.5c0 16 5.5 29.667 16.5 41s24.833 17 41.5 17c16 0 29.667 -5.66699 41 -17s17 -25 17 -41c0 -16.667 -5.66699 -30.5 -17 -41.5s-25 -16.5 -41 -16.5zM489.001 -170.003
c-17.333 0 -31.666 6 -42.999 18s-17 26.667 -17 44s5.66699 31.833 17 43.5s25.666 17.5 42.999 17.5s31.833 -5.83301 43.5 -17.5s17.5 -26.167 17.5 -43.5s-5.83301 -32 -17.5 -44s-26.167 -18 -43.5 -18zM328.001 -170.003c-17.333 0 -31.833 6 -43.5 18
s-17.5 26.667 -17.5 44s5.83301 31.833 17.5 43.5s26.167 17.5 43.5 17.5s31.833 -5.83301 43.5 -17.5s17.5 -26.167 17.5 -43.5s-5.83301 -32 -17.5 -44s-26.167 -18 -43.5 -18z" />
    <glyph glyph-name="ddal.isol" unicode="&#x688;" horiz-adv-x="521" arabic-form="isolated" 
d="M46 104l297.001 -0.000976562c-3.33301 74.667 -23.833 135 -61.5 181s-95.834 79 -174.501 99l32 110c54 -14 101.833 -32.667 143.5 -56s76.5 -52.166 104.5 -86.499s49.167 -75 63.5 -122s21.5 -101.5 21.5 -163.5v-66h-426v104zM319.001 673.999
c0 15.333 -3 27.167 -9 35.5s-15.667 12.5 -29 12.5c-11.333 0 -22.333 -3 -33 -9s-20.5 -14 -29.5 -24s-16.833 -21.333 -23.5 -34s-11.667 -26 -15 -40h67c26 0 44.5 5.5 55.5 16.5s16.5 25.167 16.5 42.5zM181.001 767c0 -8 -0.668945 -17.001 -2.00195 -27.001
s-3 -20.333 -5 -31h1c12.667 20.667 29.334 37.334 50.001 50.001s43.334 19 68.001 19c32 0 56.667 -8.16699 74 -24.5s26 -40.5 26 -72.5c0 -37.333 -13.167 -67 -39.5 -89s-64.5 -33 -114.5 -33h-129v286h71v-78z" />
    <glyph glyph-name="uni0691" unicode="&#x691;" horiz-adv-x="396" arabic-form="isolated" 
d="M75 -254c-15.333 0 -29.999 0.832031 -43.999 2.49902s-27.333 4.16699 -40 7.5l11 105c11.333 -3.33301 23.666 -6.16602 36.999 -8.49902s28 -3.5 44 -3.5c16.667 0 31.667 2.16699 45 6.5s24.5 12 33.5 23s16 25.333 21 43s7.5 40.167 7.5 67.5v481h132v-474
c0 -32 -3.33301 -63 -10 -93s-19 -56.667 -37 -80s-43.167 -42 -75.5 -56s-73.833 -21 -124.5 -21zM324.001 673.999c0 15.333 -3 27.167 -9 35.5s-15.667 12.5 -29 12.5c-11.333 0 -22.333 -3 -33 -9s-20.5 -14 -29.5 -24s-16.833 -21.333 -23.5 -34s-11.667 -26 -15 -40
h67c26 0 44.5 5.5 55.5 16.5s16.5 25.167 16.5 42.5zM186.001 767c0 -8 -0.668945 -17.001 -2.00195 -27.001s-3 -20.333 -5 -31h1c12.667 20.667 29.334 37.334 50.001 50.001s43.334 19 68.001 19c32 0 56.667 -8.16699 74 -24.5s26 -40.5 26 -72.5
c0 -37.333 -13.167 -67 -39.5 -89s-64.5 -33 -114.5 -33h-129v286h71v-78z" />
    <glyph glyph-name="uni0698" unicode="&#x698;" horiz-adv-x="396" arabic-form="isolated" 
d="M75 -254c-15.333 0 -29.999 0.832031 -43.999 2.49902s-27.333 4.16699 -40 7.5l11 105c11.333 -3.33301 23.666 -6.16602 36.999 -8.49902s28 -3.5 44 -3.5c16.667 0 31.667 2.16699 45 6.5s24.5 12 33.5 23s16 25.333 21 43s7.5 40.167 7.5 67.5v481h132v-474
c0 -32 -3.33301 -63 -10 -93s-19 -56.667 -37 -80s-43.167 -42 -75.5 -56s-73.833 -21 -124.5 -21zM246.001 687.999c-17.333 0 -31.833 6.16699 -43.5 18.5s-17.5 27.166 -17.5 44.499s5.83301 32.166 17.5 44.499s26.167 18.5 43.5 18.5s32 -6.16699 44 -18.5
s18 -27.166 18 -44.499s-6 -32.166 -18 -44.499s-26.667 -18.5 -44 -18.5zM330.001 545.999c-19.333 0 -35.333 6.5 -48 19.5s-19 29.167 -19 48.5c0 18.667 6.33301 34.667 19 48s28.667 20 48 20c18.667 0 34.334 -6.5 47.001 -19.5s19 -29.167 19 -48.5
c0 -18.667 -6.33301 -34.667 -19 -48s-28.334 -20 -47.001 -20zM164.001 545.999c-18.667 0 -34.334 6.5 -47.001 19.5s-19 29.167 -19 48.5c0 18.667 6.33301 34.667 19 48s28.334 20 47.001 20s34.334 -6.5 47.001 -19.5s19 -29.167 19 -48.5
c0 -18.667 -6.33301 -34.667 -19 -48s-28.334 -20 -47.001 -20z" />
    <glyph glyph-name="veh.isol" unicode="&#x6a4;" horiz-adv-x="926" arabic-form="isolated" 
d="M643 688c-17.333 0 -31.833 6.16699 -43.5 18.5s-17.5 27.166 -17.5 44.499s5.83301 32.166 17.5 44.499s26.167 18.5 43.5 18.5s32 -6.16699 44 -18.5s18 -27.166 18 -44.499s-6 -32.166 -18 -44.499s-26.667 -18.5 -44 -18.5zM727 546c-19.333 0 -35.333 6.5 -48 19.5
s-19 29.167 -19 48.5c0 18.667 6.33301 34.667 19 48s28.667 20 48 20c18.667 0 34.334 -6.5 47.001 -19.5s19 -29.167 19 -48.5c0 -18.667 -6.33301 -34.667 -19 -48s-28.334 -20 -47.001 -20zM561 546c-18.667 0 -34.334 6.5 -47.001 19.5s-19 29.167 -19 48.5
c0 18.667 6.33301 34.667 19 48s28.334 20 47.001 20s34.334 -6.5 47.001 -19.5s19 -29.167 19 -48.5c0 -18.667 -6.33301 -34.667 -19 -48s-28.334 -20 -47.001 -20zM885 250c0 -36.667 -6.33398 -70.3311 -19.001 -100.998s-30.167 -57 -52.5 -79
s-49.166 -39.167 -80.499 -51.5s-65.666 -18.5 -102.999 -18.5h-213c-68 0 -125.333 6.83301 -172 20.5s-84.5 33.334 -113.5 59.001s-49.833 56.667 -62.5 93s-19 77.5 -19 123.5c0 27.333 2.5 55.166 7.5 83.499s11.167 52.833 18.5 73.5l141 23
c-10.667 -23.333 -19 -50 -25 -80s-9 -58.333 -9 -85c0 -70.667 17.5 -122.834 52.5 -156.501s92.833 -50.5 173.5 -50.5h33c-14.667 13.333 -25.667 31.333 -33 54s-11 48 -11 76c0 36 6.16699 69.167 18.5 99.5s29.666 56.666 51.999 78.999s49 39.666 80 51.999
s65.5 18.5 103.5 18.5c35.333 0 67.333 -4.66699 96 -14s53.167 -23.666 73.5 -42.999s36 -43.5 47 -72.5s16.5 -63.5 16.5 -103.5zM751.999 243.003c0 44 -8.66602 77.667 -25.999 101s-45 35 -83 35c-14 0 -27.833 -2.5 -41.5 -7.5s-25.834 -13 -36.501 -24
s-19.167 -25 -25.5 -42s-9.5 -37.167 -9.5 -60.5c0 -94 37 -141 111 -141c32 0 58.5 11.5 79.5 34.5s31.5 57.833 31.5 104.5z" />
    <glyph glyph-name="kheh.isol" unicode="&#x6a9;" horiz-adv-x="846" arabic-form="isolated" 
d="M417 0c-68 0 -125.333 6.83203 -172 20.499s-84.5 33.334 -113.5 59.001s-49.833 56.667 -62.5 93s-19 77.5 -19 123.5c0 27.333 2.5 55.166 7.5 83.499s11.167 52.833 18.5 73.5l141 23c-10.667 -23.333 -19 -50 -25 -80s-9 -58.333 -9 -85
c0 -35.333 4.16699 -66 12.5 -92s22.166 -47.5 41.499 -64.5s44.833 -29.667 76.5 -38s70.834 -12.5 117.501 -12.5h221c-3.33301 78 -25 139.833 -65 185.5s-99.667 77.834 -179 96.501v97l395 248v-131l-244 -147c33.333 -15.333 63.666 -33.833 90.999 -55.5
s50.833 -48 70.5 -79s34.834 -67.167 45.501 -108.5s16 -89 16 -143v-67h-365z" />
    <glyph glyph-name="Gaf.isol" unicode="&#x6af;" horiz-adv-x="846" arabic-form="isolated" 
d="M417 0c-68 0 -125.333 6.83203 -172 20.499s-84.5 33.334 -113.5 59.001s-49.833 56.667 -62.5 93s-19 77.5 -19 123.5c0 27.333 2.5 55.166 7.5 83.499s11.167 52.833 18.5 73.5l141 23c-10.667 -23.333 -19 -50 -25 -80s-9 -58.333 -9 -85
c0 -35.333 4.16699 -66 12.5 -92s22.166 -47.5 41.499 -64.5s44.833 -29.667 76.5 -38s70.834 -12.5 117.501 -12.5h221c-3.33301 78 -25 139.833 -65 185.5s-99.667 77.834 -179 96.501v85l395 249v-120l-244 -147c33.333 -15.333 63.666 -33.833 90.999 -55.5
s50.833 -48 70.5 -79s34.834 -67.167 45.501 -108.5s16 -89 16 -143v-67h-365zM408 665.999l395 249v-114l-395 -248v113z" />
    <glyph glyph-name="ghunna.isol" unicode="&#x6ba;" horiz-adv-x="667" arabic-form="isolated" 
d="M593 71c0 -100.667 -22.999 -175.996 -68.999 -225.996s-117 -75 -213 -75c-40 0 -76.333 5.33301 -109 16s-60.5 27.5 -83.5 50.5s-40.667 52.5 -53 88.5s-18.5 79 -18.5 129c0 29.333 2 59.166 6 89.499s10 60.166 18 89.499l136 25
c-9.33301 -32 -16.333 -64.333 -21 -97s-7 -64.334 -7 -95.001c0 -38 4.16699 -69.5 12.5 -94.5s19.166 -44.833 32.499 -59.5s28.5 -24.834 45.5 -30.501s34.167 -8.5 51.5 -8.5c22 0 41.667 3.16699 59 9.5s32 16.833 44 31.5s21.167 34.167 27.5 58.5s9.5 54.5 9.5 90.5
v407h132v-399z" />
    <glyph glyph-name="uni06BE" unicode="&#x6be;" horiz-adv-x="766" arabic-form="isolated" 
d="M0 0l-0.00195312 104.004h85c6.66699 0 12.834 -0.333008 18.501 -1s10.5 -1.33398 14.5 -2.00098c4.66699 -0.666992 8.66699 -1.33398 12 -2.00098c-5.33301 4.66699 -9.66602 10.667 -12.999 18c-3.33301 6 -6.33301 13 -9 21s-4 17.333 -4 28
c0 24 4.16699 46.167 12.5 66.5s20.666 38.166 36.999 53.499s36.166 27.333 59.499 36s50 13 80 13c32.667 0 60.667 -5.16699 84 -15.5s42.333 -24.833 57 -43.5s25.334 -40.5 32.001 -65.5s10 -51.833 10 -80.5v-26h105v12c0 103.333 -22.333 180.5 -67 231.5
s-116.667 76.5 -216 76.5c-34 0 -70.167 -3.5 -108.5 -10.5s-73.5 -15.833 -105.5 -26.5l-12 93c36 11.333 75.333 20.666 118 27.999s84 11 124 11c62.667 0 118.334 -7.83301 167.001 -23.5s89.667 -40 123 -73s58.833 -75.667 76.5 -128s26.5 -114.833 26.5 -187.5v-107
h-707zM368.998 131.004c0 36 -6.83398 65.167 -20.501 87.5s-35.167 33.5 -64.5 33.5c-23.333 0 -41.166 -7 -53.499 -21s-18.5 -31 -18.5 -51c0 -26 9.16699 -45.833 27.5 -59.5s40.5 -20.5 66.5 -20.5h63v31z" />
    <glyph glyph-name="hehhamza" unicode="&#x6c0;" horiz-adv-x="594" arabic-form="isolated" 
d="M306 0c-48.667 0 -90.001 5.50098 -124.001 16.501s-61.667 26.5 -83 46.5s-36.833 44.167 -46.5 72.5s-14.5 60.166 -14.5 95.499c0 34 5.5 66.167 16.5 96.5s27.333 57 49 80s48.834 41.333 81.501 55s70.667 20.5 114 20.5c78 0 135.167 -20.833 171.5 -62.5
s54.5 -97.5 54.5 -167.5v-253h-219zM395.999 237.001c0 50 -9.33301 86.166 -28 108.499s-45 33.5 -79 33.5c-38 0 -67.333 -12.667 -88 -38s-31 -57.666 -31 -96.999c0 -47.333 12 -82.5 36 -105.5s62 -34.5 114 -34.5h76v133zM150.999 629
c10.667 0 20.8369 -0.333008 30.5039 -1s18.167 -1.66699 25.5 -3c-6 3.33301 -10.667 8.83301 -14 16.5s-5 15.167 -5 22.5c0 14 2.66699 27.667 8 41s13.666 25.333 24.999 36s26.333 19.167 45 25.5s41 9.5 67 9.5c13.333 0 25.666 -0.666992 36.999 -2
s18.666 -2.33301 21.999 -3l-12 -75c-2.66699 0.666992 -8.83398 1.66699 -18.501 3s-20.167 2 -31.5 2c-15.333 0 -27.166 -3.16699 -35.499 -9.5s-12.5 -14.5 -12.5 -24.5c0 -11.333 5.16699 -20.5 15.5 -27.5s28.166 -10.5 53.499 -10.5h57v-75h-257v75z" />
    <glyph glyph-name="uni06C1" unicode="&#x6c1;" horiz-adv-x="594" arabic-form="isolated" 
d="M306 0c-48.667 0 -90.001 5.50098 -124.001 16.501s-61.667 26.5 -83 46.5s-36.833 44.167 -46.5 72.5s-14.5 60.166 -14.5 95.499c0 34 5.5 66.167 16.5 96.5s27.333 57 49 80s48.834 41.333 81.501 55s70.667 20.5 114 20.5c78 0 135.167 -20.833 171.5 -62.5
s54.5 -97.5 54.5 -167.5v-253h-219zM395.999 237.001c0 50 -9.33301 86.166 -28 108.499s-45 33.5 -79 33.5c-38 0 -67.333 -12.667 -88 -38s-31 -57.666 -31 -96.999c0 -47.333 12 -82.5 36 -105.5s62 -34.5 114 -34.5h76v133z" />
    <glyph glyph-name="uni06CC" unicode="&#x6cc;" horiz-adv-x="1057" arabic-form="isolated" 
d="M417 0c-68 0 -125.335 6.83398 -172.002 20.501s-84.5 33.334 -113.5 59.001s-49.833 56.667 -62.5 93s-19 77.5 -19 123.5c0 27.333 2.5 55.166 7.5 83.499s11.167 52.833 18.5 73.5l141 23c-10.667 -23.333 -19 -50 -25 -80s-9 -58.333 -9 -85
c0 -35.333 4.16699 -66 12.5 -92s22.166 -47.5 41.499 -64.5s44.833 -29.667 76.5 -38s70.834 -12.5 117.501 -12.5h68v360c18 3.33301 38 6.33301 60 9c18.667 2.66699 40 5 64 7s49.667 3 77 3c44 0 80.833 -5.16699 110.5 -15.5s53.334 -25 71.001 -44
s30.334 -42.167 38.001 -69.5s11.5 -58 11.5 -92v-126h-128v112c0 48 -8.16699 81.833 -24.5 101.5s-45.166 29.5 -86.499 29.5c-8.66699 0 -16.834 -0.333008 -24.501 -1s-14.5 -1.33398 -20.5 -2.00098c-7.33301 -1.33301 -14.333 -2.33301 -21 -3v-373h-209z" />
    <glyph glyph-name="yehbarree" unicode="&#x6d2;" horiz-adv-x="750" arabic-form="isolated" 
d="M64 0c-8 60 -5.16504 118.832 8.50195 176.499s35.5 109.167 65.5 154.5s67.167 82 111.5 110s93.166 42 146.499 42c31.333 0 57.5 -4.16699 78.5 -12.5s38 -20.166 51 -35.499s22.167 -33.666 27.5 -54.999s8 -45 8 -71v-59h-127v37c0 29.333 -4.33301 51.5 -13 66.5
s-25 22.5 -49 22.5s-47 -8.83301 -69 -26.5s-41.333 -39.834 -58 -66.501s-29.834 -56 -39.501 -88s-14.5 -62.333 -14.5 -91h503v-104h-630z" />
    <glyph glyph-name="uni06D3" unicode="&#x6d3;" horiz-adv-x="750" arabic-form="isolated" 
d="M64 0c-8 60 -5.16504 118.832 8.50195 176.499s35.5 109.167 65.5 154.5s67.167 82 111.5 110s93.166 42 146.499 42c31.333 0 57.5 -4.16699 78.5 -12.5s38 -20.166 51 -35.499s22.167 -33.666 27.5 -54.999s8 -45 8 -71v-59h-127v37c0 29.333 -4.33301 51.5 -13 66.5
s-25 22.5 -49 22.5s-47 -8.83301 -69 -26.5s-41.333 -39.834 -58 -66.501s-29.834 -56 -39.501 -88s-14.5 -62.333 -14.5 -91h503v-104h-630zM189.002 628.999c10.667 0 20.8369 -0.333008 30.5039 -1s18.167 -1.66699 25.5 -3c-6 3.33301 -10.667 8.83301 -14 16.5
s-5 15.167 -5 22.5c0 14 2.66699 27.667 8 41s13.666 25.333 24.999 36s26.333 19.167 45 25.5s41 9.5 67 9.5c13.333 0 25.666 -0.666992 36.999 -2s18.666 -2.33301 21.999 -3l-12 -75c-2.66699 0.666992 -8.83398 1.66699 -18.501 3s-20.167 2 -31.5 2
c-15.333 0 -27.166 -3.16699 -35.499 -9.5s-12.5 -14.5 -12.5 -24.5c0 -11.333 5.16699 -20.5 15.5 -27.5s28.166 -10.5 53.499 -10.5h57v-75h-257v75z" />
    <glyph glyph-name="alef_wasla.fina" unicode="&#x671;" horiz-adv-x="302" arabic-form="final" 
d="M85 688h132v-584h100v-104h-232v688zM-13 819l49 0.00195312c6.66699 20 14.667 38.667 24 56s20.333 32.166 33 44.499s27.167 22.166 43.5 29.499s34.833 11 55.5 11c66.667 0 100 -42 100 -126v-84h-305v69zM213 819.002l-0.00195312 13c0 22 -3 37.667 -9 47
s-14.667 14 -26 14c-17.333 0 -31.666 -7.5 -42.999 -22.5s-19.666 -32.167 -24.999 -51.5h103z" />
    <glyph glyph-name="peh.fina" unicode="&#x67e;" horiz-adv-x="782" arabic-form="final" 
d="M417 0c-68 0 -125.333 6.83301 -172 20.5s-84.5 33.334 -113.5 59.001s-49.833 56.667 -62.5 93s-19 77.5 -19 123.5c0 27.333 2.5 55.166 7.5 83.499s11.167 52.833 18.5 73.5l141 23c-10.667 -23.333 -19 -50 -25 -80s-9 -58.333 -9 -85
c0 -35.333 4.16699 -66 12.5 -92s22.166 -47.5 41.499 -64.5s44.833 -29.667 76.5 -38s70.834 -12.5 117.501 -12.5h136v366h132v-366h99v-104h-381zM334 -171c-17.333 0 -31.833 6 -43.5 18s-17.5 26.667 -17.5 44s5.83301 31.833 17.5 43.5s26.167 17.5 43.5 17.5
s31.833 -5.83301 43.5 -17.5s17.5 -26.167 17.5 -43.5s-5.83301 -32 -17.5 -44s-26.167 -18 -43.5 -18zM495 -171c-17.333 0 -31.666 6 -42.999 18s-17 26.667 -17 44s5.66699 31.833 17 43.5s25.666 17.5 42.999 17.5s31.833 -5.83301 43.5 -17.5s17.5 -26.167 17.5 -43.5
s-5.83301 -32 -17.5 -44s-26.167 -18 -43.5 -18zM415 -291c-16.667 0 -30.5 5.5 -41.5 16.5s-16.5 24.833 -16.5 41.5c0 16 5.5 29.667 16.5 41s24.833 17 41.5 17c16 0 29.667 -5.66699 41 -17s17 -25 17 -41c0 -16.667 -5.66699 -30.5 -17 -41.5s-25 -16.5 -41 -16.5z" />
    <glyph glyph-name="peh.init" unicode="&#x67e;" horiz-adv-x="394" arabic-form="initial" 
d="M0 104h188v366h132v-470h-320v104zM179 -291c-16.667 0 -30.5 5.5 -41.5 16.5s-16.5 24.833 -16.5 41.5c0 16 5.5 29.667 16.5 41s24.833 17 41.5 17c16 0 29.667 -5.66699 41 -17s17 -25 17 -41c0 -16.667 -5.66699 -30.5 -17 -41.5s-25 -16.5 -41 -16.5zM259 -171
c-17.333 0 -31.666 6 -42.999 18s-17 26.667 -17 44s5.66699 31.833 17 43.5s25.666 17.5 42.999 17.5s31.833 -5.83301 43.5 -17.5s17.5 -26.167 17.5 -43.5s-5.83301 -32 -17.5 -44s-26.167 -18 -43.5 -18zM98 -171c-17.333 0 -31.833 6 -43.5 18s-17.5 26.667 -17.5 44
s5.83301 31.833 17.5 43.5s26.167 17.5 43.5 17.5s31.833 -5.83301 43.5 -17.5s17.5 -26.167 17.5 -43.5s-5.83301 -32 -17.5 -44s-26.167 -18 -43.5 -18z" />
    <glyph glyph-name="peh.medi" unicode="&#x67e;" horiz-adv-x="403" arabic-form="medial" 
d="M0 104h188v366h132v-366h99v-104h-419v104zM98 -171c-17.333 0 -31.833 6 -43.5 18s-17.5 26.667 -17.5 44s5.83301 31.833 17.5 43.5s26.167 17.5 43.5 17.5s31.833 -5.83301 43.5 -17.5s17.5 -26.167 17.5 -43.5s-5.83301 -32 -17.5 -44s-26.167 -18 -43.5 -18z
M259 -171c-17.333 0 -31.666 6 -42.999 18s-17 26.667 -17 44s5.66699 31.833 17 43.5s25.666 17.5 42.999 17.5s31.833 -5.83301 43.5 -17.5s17.5 -26.167 17.5 -43.5s-5.83301 -32 -17.5 -44s-26.167 -18 -43.5 -18zM179 -291c-16.667 0 -30.5 5.5 -41.5 16.5
s-16.5 24.833 -16.5 41.5c0 16 5.5 29.667 16.5 41s24.833 17 41.5 17c16 0 29.667 -5.66699 41 -17s17 -25 17 -41c0 -16.667 -5.66699 -30.5 -17 -41.5s-25 -16.5 -41 -16.5z" />
    <glyph glyph-name="uniFB67" unicode="&#x679;" horiz-adv-x="782" arabic-form="final" 
d="M417 0c-68 0 -125.333 6.83301 -172 20.5s-84.5 33.334 -113.5 59.001s-49.833 56.667 -62.5 93s-19 77.5 -19 123.5c0 27.333 2.5 55.166 7.5 83.499s11.167 52.833 18.5 73.5l141 23c-10.667 -23.333 -19 -50 -25 -80s-9 -58.333 -9 -85
c0 -35.333 4.16699 -66 12.5 -92s22.166 -47.5 41.499 -64.5s44.833 -29.667 76.5 -38s70.834 -12.5 117.501 -12.5h136v366h132v-366h99v-104h-381zM354 737c0 -8 -0.668945 -17.001 -2.00195 -27.001s-3 -20.333 -5 -31h1c12.667 20.667 29.334 37.334 50.001 50.001
s43.334 19 68.001 19c32 0 56.667 -8.16699 74 -24.5s26 -40.5 26 -72.5c0 -37.333 -13.167 -67 -39.5 -89s-64.5 -33 -114.5 -33h-129v286h71v-78zM491.998 643.999c0 15.333 -3 27.167 -9 35.5s-15.667 12.5 -29 12.5c-11.333 0 -22.333 -3 -33 -9s-20.5 -14 -29.5 -24
s-16.833 -21.333 -23.5 -34s-11.667 -26 -15 -40h67c26 0 44.5 5.5 55.5 16.5s16.5 25.167 16.5 42.5z" />
    <glyph glyph-name="uniFB68" unicode="&#x679;" horiz-adv-x="394" arabic-form="initial" 
d="M0 104h188v366h132v-470h-320v104zM285 674c0 15.333 -3 27.167 -9 35.5s-15.667 12.5 -29 12.5c-11.333 0 -22.333 -3 -33 -9s-20.5 -14 -29.5 -24s-16.833 -21.333 -23.5 -34s-11.667 -26 -15 -40h67c26 0 44.5 5.5 55.5 16.5s16.5 25.167 16.5 42.5zM147 767.001
c0 -8 -0.668945 -17.001 -2.00195 -27.001s-3 -20.333 -5 -31h1c12.667 20.667 29.334 37.334 50.001 50.001s43.334 19 68.001 19c32 0 56.667 -8.16699 74 -24.5s26 -40.5 26 -72.5c0 -37.333 -13.167 -67 -39.5 -89s-64.5 -33 -114.5 -33h-129v286h71v-78z" />
    <glyph glyph-name="uniFB69" unicode="&#x679;" horiz-adv-x="403" arabic-form="medial" 
d="M0 104h188v366h132v-366h99v-104h-419v104zM147 767c0 -8 -0.668945 -17.001 -2.00195 -27.001s-3 -20.333 -5 -31h1c12.667 20.667 29.334 37.334 50.001 50.001s43.334 19 68.001 19c32 0 56.667 -8.16699 74 -24.5s26 -40.5 26 -72.5c0 -37.333 -13.167 -67 -39.5 -89
s-64.5 -33 -114.5 -33h-129v286h71v-78zM284.998 673.999c0 15.333 -3 27.167 -9 35.5s-15.667 12.5 -29 12.5c-11.333 0 -22.333 -3 -33 -9s-20.5 -14 -29.5 -24s-16.833 -21.333 -23.5 -34s-11.667 -26 -15 -40h67c26 0 44.5 5.5 55.5 16.5s16.5 25.167 16.5 42.5z" />
    <glyph glyph-name="veh.fina" unicode="&#x6a4;" horiz-adv-x="941" arabic-form="final" 
d="M956 0l-538.999 0.000976562c-68 0 -125.333 6.83301 -172 20.5s-84.5 33.334 -113.5 59.001s-49.833 56.667 -62.5 93s-19 77.5 -19 123.5c0 27.333 2.5 55.166 7.5 83.499s11.167 52.833 18.5 73.5l141 23c-10.667 -23.333 -19 -50 -25 -80s-9 -58.333 -9 -85
c0 -70.667 17.5 -122.834 52.5 -156.501s92.833 -50.5 173.5 -50.5h33c-14.667 13.333 -25.667 31.333 -33 54s-11 48 -11 76c0 36 6.16699 69.167 18.5 99.5s29.666 56.666 51.999 78.999s49 39.666 80 51.999s65.5 18.5 103.5 18.5c35.333 0 67.333 -4.66699 96 -14
s53.167 -23.666 73.5 -42.999s36 -43.5 47 -72.5s16.5 -63.5 16.5 -103.5c0 -29.333 -4.83301 -57.833 -14.5 -85.5s-24.167 -49.5 -43.5 -65.5l25 2c7.33301 0.666992 15.5 1.33398 24.5 2.00098s17.833 1 26.5 1h53v-104zM752.001 243.001
c0 44 -8.66602 77.667 -25.999 101s-45 35 -83 35c-14 0 -27.833 -2.5 -41.5 -7.5s-25.834 -13 -36.501 -24s-19.167 -25 -25.5 -42s-9.5 -37.167 -9.5 -60.5c0 -94 37 -141 111 -141c32 0 58.5 11.5 79.5 34.5s31.5 57.833 31.5 104.5zM643.002 688.001
c-17.333 0 -31.833 6.16699 -43.5 18.5s-17.5 27.166 -17.5 44.499s5.83301 32.166 17.5 44.499s26.167 18.5 43.5 18.5s32 -6.16699 44 -18.5s18 -27.166 18 -44.499s-6 -32.166 -18 -44.499s-26.667 -18.5 -44 -18.5zM727.002 546.001c-19.333 0 -35.333 6.5 -48 19.5
s-19 29.167 -19 48.5c0 18.667 6.33301 34.667 19 48s28.667 20 48 20c18.667 0 34.334 -6.5 47.001 -19.5s19 -29.167 19 -48.5c0 -18.667 -6.33301 -34.667 -19 -48s-28.334 -20 -47.001 -20zM561.002 546.001c-18.667 0 -34.334 6.5 -47.001 19.5s-19 29.167 -19 48.5
c0 18.667 6.33301 34.667 19 48s28.334 20 47.001 20s34.334 -6.5 47.001 -19.5s19 -29.167 19 -48.5c0 -18.667 -6.33301 -34.667 -19 -48s-28.334 -20 -47.001 -20z" />
    <glyph glyph-name="veh.init" unicode="&#x6a4;" horiz-adv-x="612" arabic-form="initial" 
d="M304 688c-17.333 0 -31.833 6.16699 -43.5 18.5s-17.5 27.166 -17.5 44.499s5.83301 32.166 17.5 44.499s26.167 18.5 43.5 18.5s32 -6.16699 44 -18.5s18 -27.166 18 -44.499s-6 -32.166 -18 -44.499s-26.667 -18.5 -44 -18.5zM388 546c-19.333 0 -35.333 6.5 -48 19.5
s-19 29.167 -19 48.5c0 18.667 6.33301 34.667 19 48s28.667 20 48 20c18.667 0 34.334 -6.5 47.001 -19.5s19 -29.167 19 -48.5c0 -18.667 -6.33301 -34.667 -19 -48s-28.334 -20 -47.001 -20zM222 546c-18.667 0 -34.334 6.5 -47.001 19.5s-19 29.167 -19 48.5
c0 18.667 6.33301 34.667 19 48s28.334 20 47.001 20s34.334 -6.5 47.001 -19.5s19 -29.167 19 -48.5c0 -18.667 -6.33301 -34.667 -19 -48s-28.334 -20 -47.001 -20zM0 0l-0.00292969 104h57c8.66699 0 16.334 -0.333008 23.001 -1s12.667 -1.66699 18 -3l15 -3
c-18.667 13.333 -32.667 31.5 -42 54.5s-14 52.5 -14 88.5c0 32 5.33301 62.5 16 91.5s26.834 54.833 48.501 77.5s48.834 40.667 81.501 54s70.667 20 114 20c78 0 135.167 -20.833 171.5 -62.5s54.5 -97.5 54.5 -167.5v-253h-543zM413.997 237
c0 50 -9.33301 86.166 -28 108.499s-45 33.5 -79 33.5c-38 0 -67.333 -12.667 -88 -38s-31 -57.666 -31 -96.999c0 -47.333 12 -82.5 36 -105.5s62 -34.5 114 -34.5h76v133z" />
    <glyph glyph-name="veh.medi" unicode="&#x6a4;" horiz-adv-x="600" arabic-form="medial" 
d="M302 688c-17.333 0 -31.833 6.16699 -43.5 18.5s-17.5 27.166 -17.5 44.499s5.83301 32.166 17.5 44.499s26.167 18.5 43.5 18.5s32 -6.16699 44 -18.5s18 -27.166 18 -44.499s-6 -32.166 -18 -44.499s-26.667 -18.5 -44 -18.5zM386 546c-19.333 0 -35.333 6.5 -48 19.5
s-19 29.167 -19 48.5c0 18.667 6.33301 34.667 19 48s28.667 20 48 20c18.667 0 34.334 -6.5 47.001 -19.5s19 -29.167 19 -48.5c0 -18.667 -6.33301 -34.667 -19 -48s-28.334 -20 -47.001 -20zM220 546c-18.667 0 -34.334 6.5 -47.001 19.5s-19 29.167 -19 48.5
c0 18.667 6.33301 34.667 19 48s28.334 20 47.001 20s34.334 -6.5 47.001 -19.5s19 -29.167 19 -48.5c0 -18.667 -6.33301 -34.667 -19 -48s-28.334 -20 -47.001 -20zM0 104l42.001 0.00195312c7.33301 0 14.833 -0.333008 22.5 -1s14.167 -1.33398 19.5 -2.00098
c6.66699 -0.666992 13 -1.33398 19 -2.00098c-30.667 32 -46 77 -46 135c0 36 6.16699 69.167 18.5 99.5s29.666 56.666 51.999 78.999s49 39.666 80 51.999s65.5 18.5 103.5 18.5c35.333 0 67.333 -4.66699 96 -14s53.167 -23.666 73.5 -42.999s36 -43.5 47 -72.5
s16.5 -63.5 16.5 -103.5c0 -29.333 -4.83301 -57.833 -14.5 -85.5s-24.167 -49.5 -43.5 -65.5l25 2c7.33301 0.666992 15.5 1.33398 24.5 2.00098s17.833 1 26.5 1h53v-104h-615v104zM300.001 104.002c32 0 58.501 11.5 79.501 34.5s31.5 57.833 31.5 104.5
c0 44 -8.66699 77.667 -26 101s-45 35 -83 35c-14 0 -27.833 -2.5 -41.5 -7.5s-25.834 -13 -36.501 -24s-19.167 -25 -25.5 -42s-9.5 -37.167 -9.5 -60.5c0 -94 37 -141 111 -141z" />
    <glyph glyph-name="tcheh.fina" unicode="&#x686;" horiz-adv-x="621" arabic-form="final" 
d="M336 0c-37.333 0 -68.165 -2.83594 -92.498 -8.50293s-43.666 -13.5 -57.999 -23.5s-24.333 -21.833 -30 -35.5s-8.5 -28.5 -8.5 -44.5c0 -25.333 8.66699 -46.833 26 -64.5s43.666 -29.5 78.999 -35.5l-29 -106c-62.667 10.667 -112.834 32.334 -150.501 65.001
s-56.5 77 -56.5 133c0 32 6.16699 61.667 18.5 89s31.666 51 57.999 71s59.833 35.667 100.5 47s89.667 17 147 17h85c2 12 3.33301 24.5 4 37.5s1 25.833 1 38.5c0 63.333 -14.5 111.166 -43.5 143.499s-79.5 48.5 -151.5 48.5c-20.667 0 -40.5 -0.666992 -59.5 -2
s-37.5 -3.33301 -55.5 -6v103c19.333 2.66699 40 4.83398 62 6.50098s44 2.5 66 2.5c56 0 103.833 -6.16699 143.5 -18.5s72 -30.666 97 -54.999s43.333 -54.666 55 -90.999s17.5 -78.5 17.5 -126.5c0 -24 -1 -51 -3 -81h78v-104h-300zM328.001 -170.003
c-17.333 0 -31.833 6 -43.5 18s-17.5 26.667 -17.5 44s5.83301 31.833 17.5 43.5s26.167 17.5 43.5 17.5s31.833 -5.83301 43.5 -17.5s17.5 -26.167 17.5 -43.5s-5.83301 -32 -17.5 -44s-26.167 -18 -43.5 -18zM489.001 -170.003c-17.333 0 -31.666 6 -42.999 18
s-17 26.667 -17 44s5.66699 31.833 17 43.5s25.666 17.5 42.999 17.5s31.833 -5.83301 43.5 -17.5s17.5 -26.167 17.5 -43.5s-5.83301 -32 -17.5 -44s-26.167 -18 -43.5 -18zM409.001 -290.003c-16.667 0 -30.5 5.5 -41.5 16.5s-16.5 24.833 -16.5 41.5
c0 16 5.5 29.667 16.5 41s24.833 17 41.5 17c16 0 29.667 -5.66699 41 -17s17 -25 17 -41c0 -16.667 -5.66699 -30.5 -17 -41.5s-25 -16.5 -41 -16.5z" />
    <glyph glyph-name="tcheh.init" unicode="&#x686;" horiz-adv-x="578" arabic-form="initial" 
d="M0 104l387.004 -0.00195312c1.33301 12 2.5 24.5 3.5 37.5s1.5 25.833 1.5 38.5c0 63.333 -14.667 111.166 -44 143.499s-80 48.5 -152 48.5c-20.667 0 -40.334 -0.666992 -59.001 -2s-37.334 -3.33301 -56.001 -6v103c19.333 2.66699 40.166 4.83398 62.499 6.50098
s44.166 2.5 65.499 2.5c56 0 104 -6.16699 144 -18.5s72.5 -30.666 97.5 -54.999s43.333 -54.666 55 -90.999s17.5 -78.5 17.5 -126.5c0 -25.333 -1.33301 -53.5 -4 -84.5s-7 -64.5 -13 -100.5h-506v104zM238.004 -290.002c-16.667 0 -30.5 5.5 -41.5 16.5
s-16.5 24.833 -16.5 41.5c0 16 5.5 29.667 16.5 41s24.833 17 41.5 17c16 0 29.667 -5.66699 41 -17s17 -25 17 -41c0 -16.667 -5.66699 -30.5 -17 -41.5s-25 -16.5 -41 -16.5zM318.004 -170.002c-17.333 0 -31.666 6 -42.999 18s-17 26.667 -17 44s5.66699 31.833 17 43.5
s25.666 17.5 42.999 17.5s31.833 -5.83301 43.5 -17.5s17.5 -26.167 17.5 -43.5s-5.83301 -32 -17.5 -44s-26.167 -18 -43.5 -18zM157.004 -170.002c-17.333 0 -31.833 6 -43.5 18s-17.5 26.667 -17.5 44s5.83301 31.833 17.5 43.5s26.167 17.5 43.5 17.5
s31.833 -5.83301 43.5 -17.5s17.5 -26.167 17.5 -43.5s-5.83301 -32 -17.5 -44s-26.167 -18 -43.5 -18z" />
    <glyph glyph-name="tcheh.medi" unicode="&#x686;" horiz-adv-x="582" arabic-form="medial" 
d="M0 104l387.004 -0.000976562c1.33301 12 2.5 24.5 3.5 37.5s1.5 25.833 1.5 38.5c0 63.333 -14.667 111.166 -44 143.499s-80 48.5 -152 48.5c-20.667 0 -40.334 -0.666992 -59.001 -2s-37.334 -3.33301 -56.001 -6v103c19.333 2.66699 40.166 4.83398 62.499 6.50098
s44.166 2.5 65.499 2.5c56 0 104 -6.16699 144 -18.5s72.5 -30.666 97.5 -54.999s43.333 -54.666 55 -90.999s17.5 -78.5 17.5 -126.5c0 -12 -0.333008 -24.833 -1 -38.5s-1.66699 -27.834 -3 -42.501h78v-104h-597v104zM157.004 -170.001c-17.333 0 -31.833 6 -43.5 18
s-17.5 26.667 -17.5 44s5.83301 31.833 17.5 43.5s26.167 17.5 43.5 17.5s31.833 -5.83301 43.5 -17.5s17.5 -26.167 17.5 -43.5s-5.83301 -32 -17.5 -44s-26.167 -18 -43.5 -18zM318.004 -170.001c-17.333 0 -31.666 6 -42.999 18s-17 26.667 -17 44
s5.66699 31.833 17 43.5s25.666 17.5 42.999 17.5s31.833 -5.83301 43.5 -17.5s17.5 -26.167 17.5 -43.5s-5.83301 -32 -17.5 -44s-26.167 -18 -43.5 -18zM238.004 -290.001c-16.667 0 -30.5 5.5 -41.5 16.5s-16.5 24.833 -16.5 41.5c0 16 5.5 29.667 16.5 41
s24.833 17 41.5 17c16 0 29.667 -5.66699 41 -17s17 -25 17 -41c0 -16.667 -5.66699 -30.5 -17 -41.5s-25 -16.5 -41 -16.5z" />
    <glyph glyph-name="ddal.fina" unicode="&#x688;" horiz-adv-x="521" arabic-form="final" 
d="M46 104l297.001 -0.000976562c-3.33301 74.667 -23.833 135 -61.5 181s-95.834 79 -174.501 99l32 110c51.333 -13.333 96.833 -30.666 136.5 -51.999s73.5 -47.833 101.5 -79.5s49.833 -68.667 65.5 -111s25.167 -91.5 28.5 -147.5h65v-104h-490v104zM181.001 766.999
c0 -8 -0.668945 -17.001 -2.00195 -27.001s-3 -20.333 -5 -31h1c12.667 20.667 29.334 37.334 50.001 50.001s43.334 19 68.001 19c32 0 56.667 -8.16699 74 -24.5s26 -40.5 26 -72.5c0 -37.333 -13.167 -67 -39.5 -89s-64.5 -33 -114.5 -33h-129v286h71v-78z
M318.999 673.998c0 15.333 -3 27.167 -9 35.5s-15.667 12.5 -29 12.5c-11.333 0 -22.333 -3 -33 -9s-20.5 -14 -29.5 -24s-16.833 -21.333 -23.5 -34s-11.667 -26 -15 -40h67c26 0 44.5 5.5 55.5 16.5s16.5 25.167 16.5 42.5z" />
    <glyph glyph-name="uniFB8B" unicode="&#x698;" horiz-adv-x="406" arabic-form="final" 
d="M75 -254c-15.333 0 -29.999 0.832031 -43.999 2.49902s-27.333 4.16699 -40 7.5l11 105c11.333 -3.33301 23.666 -6.16602 36.999 -8.49902s28 -3.5 44 -3.5c16.667 0 31.667 2.16699 45 6.5s24.5 12 33.5 23s16 25.333 21 43s7.5 40.167 7.5 67.5v481h132v-366h99v-104
h-99v-4c0 -32 -3.33301 -63 -10 -93s-19 -56.667 -37 -80s-43.167 -42 -75.5 -56s-73.833 -21 -124.5 -21zM330.001 545.999c-19.333 0 -35.333 6.5 -48 19.5s-19 29.167 -19 48.5c0 18.667 6.33301 34.667 19 48s28.667 20 48 20c18.667 0 34.334 -6.5 47.001 -19.5
s19 -29.167 19 -48.5c0 -18.667 -6.33301 -34.667 -19 -48s-28.334 -20 -47.001 -20zM164.001 545.999c-18.667 0 -34.334 6.5 -47.001 19.5s-19 29.167 -19 48.5c0 18.667 6.33301 34.667 19 48s28.334 20 47.001 20s34.334 -6.5 47.001 -19.5s19 -29.167 19 -48.5
c0 -18.667 -6.33301 -34.667 -19 -48s-28.334 -20 -47.001 -20zM246.001 687.999c-17.333 0 -31.833 6.16699 -43.5 18.5s-17.5 27.166 -17.5 44.499s5.83301 32.166 17.5 44.499s26.167 18.5 43.5 18.5s32 -6.16699 44 -18.5s18 -27.166 18 -44.499s-6 -32.166 -18 -44.499
s-26.667 -18.5 -44 -18.5z" />
    <glyph glyph-name="uniFB8D" unicode="&#x691;" horiz-adv-x="406" arabic-form="final" 
d="M75 -254c-15.333 0 -29.999 0.832031 -43.999 2.49902s-27.333 4.16699 -40 7.5l11 105c11.333 -3.33301 23.666 -6.16602 36.999 -8.49902s28 -3.5 44 -3.5c16.667 0 31.667 2.16699 45 6.5s24.5 12 33.5 23s16 25.333 21 43s7.5 40.167 7.5 67.5v481h132v-366h99v-104
h-99v-4c0 -32 -3.33301 -63 -10 -93s-19 -56.667 -37 -80s-43.167 -42 -75.5 -56s-73.833 -21 -124.5 -21zM186.001 766.999c0 -8 -0.668945 -17.001 -2.00195 -27.001s-3 -20.333 -5 -31h1c12.667 20.667 29.334 37.334 50.001 50.001s43.334 19 68.001 19
c32 0 56.667 -8.16699 74 -24.5s26 -40.5 26 -72.5c0 -37.333 -13.167 -67 -39.5 -89s-64.5 -33 -114.5 -33h-129v286h71v-78zM323.999 673.998c0 15.333 -3 27.167 -9 35.5s-15.667 12.5 -29 12.5c-11.333 0 -22.333 -3 -33 -9s-20.5 -14 -29.5 -24
s-16.833 -21.333 -23.5 -34s-11.667 -26 -15 -40h67c26 0 44.5 5.5 55.5 16.5s16.5 25.167 16.5 42.5z" />
    <glyph glyph-name="kheh.fina" unicode="&#x6a9;" horiz-adv-x="846" arabic-form="final" 
d="M417 0c-68 0 -125.333 6.83203 -172 20.499s-84.5 33.334 -113.5 59.001s-49.833 56.667 -62.5 93s-19 77.5 -19 123.5c0 27.333 2.5 55.166 7.5 83.499s11.167 52.833 18.5 73.5l141 23c-10.667 -23.333 -19 -50 -25 -80s-9 -58.333 -9 -85
c0 -35.333 4.16699 -66 12.5 -92s22.166 -47.5 41.499 -64.5s44.833 -29.667 76.5 -38s70.834 -12.5 117.501 -12.5h221c-3.33301 78 -25 139.833 -65 185.5s-99.667 77.834 -179 96.501v97l395 248v-131l-244 -147c31.333 -14 60.166 -31.167 86.499 -51.5
s49 -44.5 68 -72.5s34.333 -60.5 46 -97.5s18.834 -79.5 21.501 -127.5h81v-104h-445v0z" />
    <glyph glyph-name="kheh.init" unicode="&#x6a9;" horiz-adv-x="491" arabic-form="initial" 
d="M0 104l297.002 -0.000976562c-3.33301 78 -25 139.833 -65 185.5s-100 77.834 -180 96.501v97l396 248v-131l-244 -147c33.333 -15.333 63.666 -33.833 90.999 -55.5s50.666 -48 69.999 -79s34.333 -67.167 45 -108.5s16 -89 16 -143v-67h-426v104z" />
    <glyph glyph-name="kheh.medi" unicode="&#x6a9;" horiz-adv-x="491" arabic-form="medial" 
d="M0 104l297.001 -0.000976562c-3.33301 78 -25 139.833 -65 185.5s-100 77.834 -180 96.501v97l396 248v-131l-244 -147c31.333 -14 60 -31.167 86 -51.5s48.667 -44.5 68 -72.5s34.666 -60.5 45.999 -97.5s18.333 -79.5 21 -127.5h81v-104h-506v104z" />
    <glyph glyph-name="Gaf.fina" unicode="&#x6af;" horiz-adv-x="846" arabic-form="final" 
d="M417 0c-68 0 -125.333 6.83203 -172 20.499s-84.5 33.334 -113.5 59.001s-49.833 56.667 -62.5 93s-19 77.5 -19 123.5c0 27.333 2.5 55.166 7.5 83.499s11.167 52.833 18.5 73.5l141 23c-10.667 -23.333 -19 -50 -25 -80s-9 -58.333 -9 -85
c0 -35.333 4.16699 -66 12.5 -92s22.166 -47.5 41.499 -64.5s44.833 -29.667 76.5 -38s70.834 -12.5 117.501 -12.5h221c-3.33301 78 -25 139.833 -65 185.5s-99.667 77.834 -179 96.501v85l395 249v-120l-244 -147c31.333 -14 60.166 -31.167 86.499 -51.5
s49 -44.5 68 -72.5s34.333 -60.5 46 -97.5s18.834 -79.5 21.501 -127.5h81v-104h-445zM408 665.999l395 249v-114l-395 -248v113z" />
    <glyph glyph-name="Gaf.init" unicode="&#x6af;" horiz-adv-x="491" arabic-form="initial" 
d="M0 104l297.002 -0.000976562c-3.33301 78 -25 139.833 -65 185.5s-100 77.834 -180 96.501v85l396 249v-120l-244 -147c33.333 -15.333 63.666 -33.833 90.999 -55.5s50.666 -48 69.999 -79s34.333 -67.167 45 -108.5s16 -89 16 -143v-67h-426v104zM52.002 665.999
l396 249v-114l-396 -248v113z" />
    <glyph glyph-name="Gaf.medi" unicode="&#x6af;" horiz-adv-x="491" arabic-form="medial" 
d="M0 104l297.001 -0.000976562c-3.33301 78 -25 139.833 -65 185.5s-100 77.834 -180 96.501v85l396 249v-120l-244 -147c31.333 -14 60 -31.167 86 -51.5s48.667 -44.5 68 -72.5s34.666 -60.5 45.999 -97.5s18.333 -79.5 21 -127.5h81v-104h-506v104zM52.001 665.999
l396 249v-114l-396 -248v113z" />
    <glyph glyph-name="ghunna.fina" unicode="&#x6ba;" horiz-adv-x="677" arabic-form="final" 
d="M593 104l99.001 0.00390625v-104h-104c-10 -76.667 -37.667 -134.167 -83 -172.5s-110 -57.5 -194 -57.5c-40 0 -76.333 5.33301 -109 16s-60.5 27.5 -83.5 50.5s-40.667 52.5 -53 88.5s-18.5 79 -18.5 129c0 29.333 2 59.166 6 89.499s10 60.166 18 89.499l136 25
c-9.33301 -32 -16.333 -64.333 -21 -97s-7 -64.334 -7 -95.001c0 -38 4.16699 -69.5 12.5 -94.5s19.166 -44.833 32.499 -59.5s28.5 -24.834 45.5 -30.501s34.167 -8.5 51.5 -8.5c22 0 41.667 3.16699 59 9.5s32 16.833 44 31.5s21.167 34.167 27.5 58.5s9.5 54.5 9.5 90.5
v407h132v-366z" />
    <glyph glyph-name="hehhamza.fina" unicode="&#x6c0;" horiz-adv-x="595" arabic-form="final" 
d="M306 0c-48.667 0 -90 5.50098 -124 16.501s-61.667 26.5 -83 46.5s-36.833 44.333 -46.5 73s-14.5 60.667 -14.5 96c0 32.667 5.16699 64.167 15.5 94.5s26.333 57 48 80s49.167 41.5 82.5 55.5s73 21 119 21c30 0 57.5 -1.83301 82.5 -5.5s47.167 -7.83398 66.5 -12.501
c22 -5.33301 42 -11 60 -17v-344h98v-104h-304zM384 361.001c-7.33301 3.33301 -16 6.33203 -26 8.99902c-8.66699 2 -18.834 4 -30.501 6s-24.5 3 -38.5 3c-38 0 -67.333 -12.667 -88 -38s-31 -57.666 -31 -96.999c0 -46 11.833 -80.833 35.5 -104.5
s61.834 -35.5 114.501 -35.5h64v257zM151 629c10.667 0 20.8369 -0.333008 30.5039 -1s18.167 -1.66699 25.5 -3c-6 3.33301 -10.667 8.83301 -14 16.5s-5 15.167 -5 22.5c0 14 2.66699 27.667 8 41s13.666 25.333 24.999 36s26.333 19.167 45 25.5s41 9.5 67 9.5
c13.333 0 25.666 -0.666992 36.999 -2s18.666 -2.33301 21.999 -3l-12 -75c-2.66699 0.666992 -8.83398 1.66699 -18.501 3s-20.167 2 -31.5 2c-15.333 0 -27.166 -3.16699 -35.499 -9.5s-12.5 -14.5 -12.5 -24.5c0 -11.333 5.16699 -20.5 15.5 -27.5
s28.166 -10.5 53.499 -10.5h57v-75h-257v75z" />
    <glyph glyph-name="hehfinaltone" unicode="&#x6c1;" horiz-adv-x="565" arabic-form="final" 
d="M580 0l-26.999 -0.00292969c-82.667 0 -143.167 17.667 -181.5 53s-57.5 88 -57.5 158v30c-38.667 -8 -74 -25.167 -106 -51.5s-61.667 -60.166 -89 -101.499l-82 68c20 29.333 42.5 56.333 67.5 81s52.333 45.834 82 63.501s61.5 31.334 95.5 41.001
s70.667 14.5 110 14.5c6 0 11.833 -0.166992 17.5 -0.5s11.167 -0.5 16.5 -0.5c5.33301 -0.666992 10.666 -1 15.999 -1v-111c0 -52 9.16699 -88.167 27.5 -108.5s49.5 -30.5 93.5 -30.5h17v-104z" />
    <glyph glyph-name="hehinitialaltone" unicode="&#x6c1;" horiz-adv-x="346" arabic-form="initial" 
d="M0 104h140v366h132v-470h-272v104zM113 -242c-19.333 0 -34.333 6.16602 -45 18.499s-16 28.166 -16 47.499c0 12 2.5 24.167 7.5 36.5s13 24.333 24 36s25.5 22.334 43.5 32.001s39.667 17.834 65 24.501l21 -46c-19.333 -10 -32.5 -19.167 -39.5 -27.5
s-10.5 -17.166 -10.5 -26.499c0 -8.66699 1.5 -15.334 4.5 -20.001s4.5 -11 4.5 -19c0 -14.667 -5 -27.667 -15 -39s-24.667 -17 -44 -17z" />
    <glyph glyph-name="hehmedialaltone" unicode="&#x6c1;" horiz-adv-x="719" arabic-form="medial" 
d="M734 0h-111.999v-260h-121c-93.333 0 -164.833 22.667 -214.5 68s-74.5 108.333 -74.5 189c0 16 1 33.167 3 51.5s4.66699 34.166 8 47.499l-2 1c-14 -30 -34.333 -53.667 -61 -71s-58.667 -26 -96 -26h-64v104h74c20.667 0 39.5 4.33301 56.5 13s31.167 20.5 42.5 35.5
s20.166 33 26.499 54s9.5 43.5 9.5 67.5v96h127v-343c0 -121.333 52.667 -182.666 158 -183.999v261h240v-104zM96.001 -267c-20.667 0 -36.668 7.00098 -48.001 21.001s-17 31 -17 51c0 10 1.5 21 4.5 33s8.33301 24.333 16 37s18 25.667 31 39s29.167 26.666 48.5 39.999
l37 -37c-13.333 -13.333 -22.666 -25.333 -27.999 -36s-8 -19.667 -8 -27c0 -6 1.16699 -11.167 3.5 -15.5s4.83301 -8.66602 7.5 -12.999s5.16699 -9.33301 7.5 -15s3.5 -12.834 3.5 -21.501c0 -14 -5.33301 -26.833 -16 -38.5s-24.667 -17.5 -42 -17.5z" />
    <glyph glyph-name="uniFBAB" unicode="&#x6be;" horiz-adv-x="661" arabic-form="final" 
d="M676 0l-92.001 0.000976562c-12.667 0 -25.167 0.666992 -37.5 2s-25.833 3.33301 -40.5 6v-2c57.333 -16.667 86 -56.334 86 -119.001c0 -31.333 -5.16699 -59.666 -15.5 -84.999s-25.166 -47 -44.499 -65s-42.666 -32 -69.999 -42s-58.333 -15 -93 -15
c-43.333 0 -81 7.66699 -113 23s-58.833 37 -80.5 65s-38.334 61.667 -50.001 101s-18.834 83 -21.501 131h-104v104h105c3.33301 40 10.5 79.5 21.5 118.5s25.833 76 44.5 111s41.167 67.667 67.5 98s57.166 57.166 92.499 80.499c36.667 -18.667 70 -38.667 100 -60
s55.5 -43.666 76.5 -66.999s37.333 -47.666 49 -72.999s17.5 -51.333 17.5 -78c0 -34.667 -6.16699 -62.834 -18.5 -84.501s-29.166 -38.167 -50.499 -49.5v-2c14.667 1.33301 27.834 2.66602 39.501 3.99902s24.5 2 38.5 2h93v-104zM233.999 0.000976562
c5.33301 -76 20.5 -131 45.5 -165s57.167 -51 96.5 -51c28 0 49.5 8.66699 64.5 26s22.5 41.333 22.5 72c0 36 -13.167 64.667 -39.5 86s-65.5 32 -117.5 32h-72zM339.999 361.001c-30 -28 -54.334 -63.832 -73.001 -107.499s-30 -93.5 -34 -149.5h83
c26 0 47.5 3.16699 64.5 9.5s30.333 14.666 40 24.999s16.334 22 20.001 35s5.5 26.167 5.5 39.5c0 31.333 -10.167 59 -30.5 83s-45.5 45.667 -75.5 65z" />
    <glyph glyph-name="yehbarree.fina" unicode="&#x6d2;" horiz-adv-x="791" arabic-form="final" 
d="M64 -320c-6.66699 55.333 -2.83008 108.665 11.5029 159.998s38.166 96.5 71.499 135.5s76.333 70.167 129 93.5s114 35 184 35h346v-104h-363c-42.667 0 -79.834 -6.83301 -111.501 -20.5s-57.834 -31.167 -78.501 -52.5s-36.167 -44.666 -46.5 -69.999
s-15.5 -49.666 -15.5 -72.999h503v-104h-630z" />
    <glyph glyph-name="uniFBB1" unicode="&#x6d3;" horiz-adv-x="791" arabic-form="final" 
d="M64 -320c-6.66699 55.333 -2.83008 108.665 11.5029 159.998s38.166 96.5 71.499 135.5s76.333 70.167 129 93.5s114 35 184 35h346v-104h-363c-42.667 0 -79.834 -6.83301 -111.501 -20.5s-57.834 -31.167 -78.501 -52.5s-36.167 -44.666 -46.5 -69.999
s-15.5 -49.666 -15.5 -72.999h503v-104h-630zM244.004 264.999c10.667 0 20.8369 -0.333008 30.5039 -1s18.167 -1.66699 25.5 -3c-6 3.33301 -10.667 8.83301 -14 16.5s-5 15.167 -5 22.5c0 14 2.66699 27.667 8 41s13.666 25.333 24.999 36s26.333 19.167 45 25.5
s41 9.5 67 9.5c13.333 0 25.666 -0.666992 36.999 -2s18.666 -2.33301 21.999 -3l-12 -75c-2.66699 0.666992 -8.83398 1.66699 -18.501 3s-20.167 2 -31.5 2c-15.333 0 -27.166 -3.16699 -35.499 -9.5s-12.5 -14.5 -12.5 -24.5c0 -11.333 5.16699 -20.5 15.5 -27.5
s28.166 -10.5 53.499 -10.5h57v-75h-257v75z" />
    <glyph glyph-name="alefmaksura.init" unicode="&#x649;" horiz-adv-x="346" arabic-form="initial" 
d="M0 104h140v366h132v-470h-272v104z" />
    <glyph glyph-name="alefmaksura.medi" unicode="&#x649;" horiz-adv-x="355" arabic-form="medial" 
d="M0 104h140v366h132v-366h98v-104h-370v104z" />
    <glyph glyph-name="uniFBFD" unicode="&#x6cc;" horiz-adv-x="596" arabic-form="final" 
d="M372 104h239.004v-104h-81c9.33301 -5.33301 17 -14.5 23 -27.5s8.66699 -28.167 8 -45.5c0 -18 -4.5 -37.167 -13.5 -57.5s-23.333 -39.166 -43 -56.499s-45.334 -31.666 -77.001 -42.999s-70.5 -17 -116.5 -17c-41.333 0 -78.333 5.66699 -111 17
s-60.334 28.833 -83.001 52.5s-40 53.667 -52 90s-18 79.166 -18 128.499c0 70 8 134 24 192l136 25c-9.33301 -32 -16.333 -64.833 -21 -98.5s-7 -68.5 -7 -104.5c0 -38 3.83301 -69.833 11.5 -95.5s18.167 -46 31.5 -61s28.833 -25.667 46.5 -32s36.167 -9.5 55.5 -9.5
c20 0 36.833 2.66699 50.5 8s24.667 12.333 33 21s14.166 18.167 17.499 28.5s4.66602 20.166 3.99902 29.499c-1.33301 16 -6.83301 29.333 -16.5 40s-23.167 16 -40.5 16v104z" />
    <glyph glyph-name="uniFBFE" unicode="&#x6cc;" horiz-adv-x="394" arabic-form="initial" 
d="M317 -150c0 -18.667 -6.33301 -34.667 -19 -48s-28.334 -20 -47.001 -20s-34.334 6.5 -47.001 19.5s-19 29.167 -19 48.5c0 18.667 6.33301 34.667 19 48s28.334 20 47.001 20s34.334 -6.5 47.001 -19.5s19 -29.167 19 -48.5zM152 -150
c0 -18.667 -6.33301 -34.667 -19 -48s-28.667 -20 -48 -20c-18.667 0 -34.334 6.5 -47.001 19.5s-19 29.167 -19 48.5c0 18.667 6.33301 34.667 19 48s28.334 20 47.001 20c19.333 0 35.333 -6.5 48 -19.5s19 -29.167 19 -48.5zM0 104h188v366h132v-470h-320v104z" />
    <glyph glyph-name="uniFBFF" unicode="&#x6cc;" horiz-adv-x="403" arabic-form="medial" 
d="M0 104h188v366h132v-366h99v-104h-419v104zM152 -150c0 -18.667 -6.33301 -34.667 -19 -48s-28.667 -20 -48 -20c-18.667 0 -34.334 6.5 -47.001 19.5s-19 29.167 -19 48.5c0 18.667 6.33301 34.667 19 48s28.334 20 47.001 20c19.333 0 35.333 -6.5 48 -19.5
s19 -29.167 19 -48.5zM317 -150c0 -18.667 -6.33301 -34.667 -19 -48s-28.334 -20 -47.001 -20s-34.334 6.5 -47.001 19.5s-19 29.167 -19 48.5c0 18.667 6.33301 34.667 19 48s28.334 20 47.001 20s34.334 -6.5 47.001 -19.5s19 -29.167 19 -48.5z" />
    <glyph glyph-name="shadda_dammatan" unicode="&#xfc5e;" horiz-adv-x="0" arabic-form="isolated" 
d="M-141 277l52.001 10.999l18 -84l43 9c-1.33301 2.66699 -2.33301 5.66699 -3 9c-2 6 -3 13 -3 21c0 27.333 9.16699 49.333 27.5 66s40.5 25 66.5 25c25.333 0 44.166 -6.33301 56.499 -19s18.5 -29.334 18.5 -50.001c0 -23.333 -7.5 -42.166 -22.5 -56.499
s-35.5 -24.166 -61.5 -29.499l-164 -34zM46.001 227.999c11.333 2.66699 19.832 6.66699 25.499 12s8.5 13 8.5 23c0 14.667 -8.33301 22 -25 22c-10 0 -18.167 -3.33301 -24.5 -10s-9.5 -15.667 -9.5 -27c0 -6 0.666992 -11.667 2 -17
c0.666992 -2.66699 1.33398 -5 2.00098 -7zM29 37.999c-4.66699 -11.333 -12.335 -20.5 -23.002 -27.5s-23.667 -10.5 -39 -10.5s-27.166 5 -35.499 15s-14.833 26.667 -19.5 50l-8 37l51 10l7 -35c2.66699 -14.667 9 -22 19 -22c7.33301 0 12.333 3 15 9
s3.33398 13.333 2.00098 22l-6 38l49 10l8 -37c4 -16.667 11 -25 21 -25c9.33301 0 15 3.33301 17 10s2.33301 15.667 1 27l-7 40l50 9l7 -37c6 -30 3.16699 -54.333 -8.5 -73s-31.5 -28 -59.5 -28c-17.333 0 -31 6 -41 18z" />
    <glyph glyph-name="shadda_kasratan" unicode="&#xfc5f;" horiz-adv-x="0" arabic-form="isolated" 
d="M-99 126l210 32l8 -49l-210 -32zM-87 49l211 33l7 -49l-210 -33zM-8 207c-5.33301 -11.333 -13.334 -20.166 -24.001 -26.499s-22.667 -9.5 -36 -9.5c-17.333 0 -30 5.16699 -38 15.5s-14 27.166 -18 50.499l-7 37l50 9l7 -35c2 -14.667 8.33301 -22 19 -22
c7.33301 -0.666992 12.333 1.83301 15 7.5s3.33398 13.167 2.00098 22.5l-5 38l49 9l7 -37c4 -17.333 11 -26 21 -26c9.33301 0.666992 15 4.33398 17 11.001s2.33301 15.334 1 26.001l-6 40l50 8l7 -37c5.33301 -30.667 2 -54.834 -10 -72.501s-31.667 -26.834 -59 -27.501
c-17.333 0 -31.333 6.33301 -42 19z" />
    <glyph glyph-name="shadda_fatha" unicode="&#xfc60;" horiz-adv-x="0" arabic-form="isolated" 
d="M-123 212l211 32l8 -49l-210 -33zM10 37c-4.66699 -12 -12.5039 -21.166 -23.5039 -27.499s-23.167 -9.5 -36.5 -9.5c-17.333 0 -30 5.33301 -38 16s-14 27.334 -18 50.001l-7 38l51 9l6 -36c2.66699 -14 9.33398 -21 20.001 -21
c6.66699 -0.666992 11.334 1.83301 14.001 7.5s3.33398 13.167 2.00098 22.5l-5 37l50 10l7 -37c2.66699 -17.333 9.33398 -26 20.001 -26c9.33301 0 15 3.33301 17 10s2.33301 15.667 1 27l-6 39l51 9l6 -37c5.33301 -30.667 2 -54.834 -10 -72.501
s-31.667 -26.834 -59 -27.501c-17.333 0 -31.333 6.33301 -42 19z" />
    <glyph glyph-name="shadda_damma" unicode="&#xfc61;" horiz-adv-x="0" arabic-form="isolated" 
d="M-130 194l92.001 18.999c-1.33301 2.66699 -2.33301 5.66699 -3 9c-2 6 -3 13 -3 21c0 27.333 9.16699 49.333 27.5 66s40.5 25 66.5 25c25.333 0 44.166 -6.33301 56.499 -19s18.5 -29.334 18.5 -50.001c0 -23.333 -7.5 -42.166 -22.5 -56.499
s-35.5 -24.166 -61.5 -29.499l-160 -33zM36.001 227.999c11.333 2.66699 19.832 6.66699 25.499 12s8.5 13 8.5 23c0 14.667 -8.33301 22 -25 22c-10 0 -18.167 -3.33301 -24.5 -10s-9.5 -15.667 -9.5 -27c0 -6 0.666992 -11.667 2 -17
c0.666992 -2.66699 1.33398 -5 2.00098 -7zM19 37.999c-4.66699 -11.333 -12.335 -20.5 -23.002 -27.5s-23.667 -10.5 -39 -10.5s-27.166 5 -35.499 15s-14.833 26.667 -19.5 50l-8 37l51 10l7 -35c2.66699 -14.667 9 -22 19 -22c7.33301 0 12.333 3 15 9
s3.33398 13.333 2.00098 22l-6 38l49 10l8 -37c4 -16.667 11 -25 21 -25c9.33301 0 15 3.33301 17 10s2.33301 15.667 1 27l-7 40l50 9l7 -37c6 -30 3.16699 -54.333 -8.5 -73s-31.5 -28 -59.5 -28c-17.333 0 -31 6 -41 18z" />
    <glyph glyph-name="shadda_kasra" unicode="&#xfc62;" horiz-adv-x="0" arabic-form="isolated" 
d="M-94 49l211 32l8 -49l-210 -32zM-1 127c-5.33301 -11.333 -13.334 -20.166 -24.001 -26.499s-22.667 -9.5 -36 -9.5c-17.333 0 -30 5.16699 -38 15.5s-14 27.166 -18 50.499l-7 37l50 9l7 -35c2 -14.667 8.33301 -22 19 -22c7.33301 -0.666992 12.333 1.83301 15 7.5
s3.33398 13.167 2.00098 22.5l-5 38l49 9l7 -37c4 -17.333 11 -26 21 -26c9.33301 0.666992 15 4.33398 17 11.001s2.33301 15.334 1 26.001l-6 40l51 8l6 -37c5.33301 -30.667 2 -54.834 -10 -72.501s-31.667 -26.834 -59 -27.501c-17.333 0 -31.333 6.33301 -42 19z" />
    <glyph glyph-name="shadda_alefsuperscript" unicode="&#xfc63;" horiz-adv-x="0" arabic-form="isolated" 
d="M7 35c-5.33301 -10.667 -13.1709 -18.834 -23.5039 -24.501s-22.166 -8.83398 -35.499 -9.50098c-17.333 -0.666992 -30.166 3.83301 -38.499 13.5s-14.833 24.834 -19.5 45.501l-8 35l50 9l7 -32c2.66699 -14 9.33398 -21 20.001 -21c7.33301 0 12.333 2.66699 15 8
s3.33398 12.333 2.00098 21l-6 35l49 9l8 -34c4 -16 11 -23.667 21 -23c9.33301 0 15 3.16699 17 9.5s2 14.5 0 24.5l-7 36l51 9l7 -34c6 -28 3.16699 -50.167 -8.5 -66.5s-31.167 -25.166 -58.5 -26.499c-18 0 -32 5.33301 -42 16zM-38.0049 148v96h53v-86z" />
    <glyph glyph-name="alah" unicode="&#xfdf2;" horiz-adv-x="1278" arabic-form="isolated" 
d="M306 0c-48.667 0 -90 5.50098 -124 16.501s-61.667 26.5 -83 46.5s-36.833 44.333 -46.5 73s-14.5 60.667 -14.5 96c0 32.667 5.16699 64.167 15.5 94.5s26.333 57 48 80s49.167 41.5 82.5 55.5s73 21 119 21c30 0 57.5 -1.83301 82.5 -5.5s47.167 -7.83398 66.5 -12.501
c22 -5.33301 42 -11 60 -17v-344h207v571h132v-571h210v601h132v-705h-887zM384 361.001c-7.33301 3.33301 -16 6.33203 -26 8.99902c-8.66699 2 -18.834 4 -30.501 6s-24.5 3 -38.5 3c-38 0 -67.333 -12.667 -88 -38s-31 -57.666 -31 -96.999
c0 -46 11.833 -80.833 35.5 -104.5s61.834 -35.5 114.501 -35.5h64v257z" />
    <glyph glyph-name="alef_madda.fina" unicode="&#x622;" horiz-adv-x="302" arabic-form="final" 
d="M85 705h132v-601h100v-104h-232v705zM-20 830l105.002 77.999c3.33301 -3.33301 8.16602 -7.16602 14.499 -11.499s13.666 -8.5 21.999 -12.5s17.5 -7.5 27.5 -10.5s20 -4.5 30 -4.5c12 0 23.333 1.5 34 4.5s20.5 6.66699 29.5 11s17 8.83301 24 13.5
s12.5 8.66699 16.5 12v-96c-8 -6.66699 -21.333 -14.667 -40 -24s-42 -14 -70 -14c-23.333 0 -42.5 4 -57.5 12s-25.5 14.667 -31.5 20l-58 -41z" />
    <glyph glyph-name="alef_hamza_above.fina" unicode="&#x623;" horiz-adv-x="302" arabic-form="final" 
d="M85 688h132v-584h100v-104h-232v688zM15 819c12 0 23.167 -0.333008 33.5 -1s18.833 -1.66699 25.5 -3c-5.33301 3.33301 -9.66602 8.83301 -12.999 16.5s-5 15.167 -5 22.5c0 14 2.5 27.333 7.5 40s13 24 24 34s25.5 17.833 43.5 23.5s40 8.5 66 8.5
c13.333 0 25.666 -0.5 36.999 -1.5s18.666 -2.16699 21.999 -3.5l-12 -69c-2.66699 0.666992 -8.66699 1.66699 -18 3s-19.666 2 -30.999 2c-16 0 -28.167 -3.16699 -36.5 -9.5s-12.5 -14.5 -12.5 -24.5c0 -11.333 5.16699 -20.5 15.5 -27.5s28.5 -10.5 54.5 -10.5h57v-69
h-258v69z" />
    <glyph glyph-name="waw_hamza.fina" unicode="&#x624;" horiz-adv-x="595" arabic-form="final" 
d="M199 -252c-19.333 0 -37.832 0.668945 -55.499 2.00195s-33.834 2.66602 -48.501 3.99902c-17.333 2 -33.333 4.33301 -48 7l8 108c15.333 -3.33301 31.666 -6.33301 48.999 -9c14.667 -2 31.334 -3.83301 50.001 -5.5s37.667 -2.5 57 -2.5c52 0 93.833 10.333 125.5 31
s47.5 54.667 47.5 102v15h-78c-48.667 0 -90 5.5 -124 16.5s-61.667 26.5 -83 46.5s-36.833 44.333 -46.5 73s-14.5 60.667 -14.5 96c0 32.667 5.16699 64.167 15.5 94.5s26.333 57 48 80s49.167 41.5 82.5 55.5s73 21 119 21c30 0 57.5 -1.83301 82.5 -5.5
s47.167 -7.83398 66.5 -12.501c22 -5.33301 42 -11 60 -17v-344h99v-104h-99v-2c0 -34.667 -5.83301 -67.167 -17.5 -97.5s-30 -56.833 -55 -79.5s-57.333 -40.5 -97 -53.5s-87.5 -19.5 -143.5 -19.5zM384.001 361.002c-7.33301 3.33301 -16 6.33203 -26 8.99902
c-8.66699 2 -18.834 4 -30.501 6s-24.5 3 -38.5 3c-38 0 -67.333 -12.667 -88 -38s-31 -57.666 -31 -96.999c0 -46 11.833 -80.833 35.5 -104.5s61.834 -35.5 114.501 -35.5h64v257zM159.001 629.001c10.667 0 20.8369 -0.333008 30.5039 -1s18.167 -1.66699 25.5 -3
c-6 3.33301 -10.667 8.83301 -14 16.5s-5 15.167 -5 22.5c0 14 2.66699 27.667 8 41s13.666 25.333 24.999 36s26.333 19.167 45 25.5s41 9.5 67 9.5c13.333 0 25.666 -0.666992 36.999 -2s18.666 -2.33301 21.999 -3l-12 -75c-2.66699 0.666992 -8.83398 1.66699 -18.501 3
s-20.167 2 -31.5 2c-15.333 0 -27.166 -3.16699 -35.499 -9.5s-12.5 -14.5 -12.5 -24.5c0 -11.333 5.16699 -20.5 15.5 -27.5s28.166 -10.5 53.499 -10.5h57v-75h-257v75z" />
    <glyph glyph-name="alef_hamza_below.fina" unicode="&#x625;" horiz-adv-x="302" arabic-form="final" 
d="M85 705h132v-601h100v-104h-232v705zM5 -195c9.33301 0 18.1709 -0.333008 26.5039 -1s15.833 -1.66699 22.5 -3c-3.33301 3.33301 -6.33301 7.83301 -9 13.5s-4 12.167 -4 19.5c0 13.333 2.66699 26.166 8 38.499s13.666 23.333 24.999 33s25.833 17.334 43.5 23.001
s38.5 8.5 62.5 8.5c13.333 0 25.666 -0.5 36.999 -1.5s18.666 -2.16699 21.999 -3.5l-12 -72c-3.33301 0.666992 -9.5 1.66699 -18.5 3s-18.833 2 -29.5 2c-14 0 -24.833 -2.66699 -32.5 -8s-11.5 -12.333 -11.5 -21c0 -10 4.66699 -17.667 14 -23s25.666 -8 48.999 -8h59
v-73h-252v73z" />
    <glyph glyph-name="yeh_hamza_above.fina" unicode="&#x626;" horiz-adv-x="1000" arabic-form="final" 
d="M417 0c-68 0 -125.335 6.83398 -172.002 20.501s-84.5 33.334 -113.5 59.001s-49.833 56.667 -62.5 93s-19 77.5 -19 123.5c0 27.333 2.5 55.166 7.5 83.499s11.167 52.833 18.5 73.5l141 23c-10.667 -23.333 -19 -50 -25 -80s-9 -58.333 -9 -85
c0 -35.333 4.16699 -66 12.5 -92s22.166 -47.5 41.499 -64.5s44.833 -29.667 76.5 -38s70.834 -12.5 117.501 -12.5h68v360c18 3.33301 38 6.33301 60 9c18.667 2.66699 40 5 64 7s49.667 3 77 3c44 0 80.833 -5.16699 110.5 -15.5s53.334 -25 71.001 -44
s30.334 -42.167 38.001 -69.5s11.5 -58 11.5 -92v-158h84v-104h-212v248c0 48 -8.16699 81.833 -24.5 101.5s-45.166 29.5 -86.499 29.5c-8.66699 0 -16.834 -0.333008 -24.501 -1s-14.5 -1.33398 -20.5 -2.00098c-7.33301 -1.33301 -14.333 -2.33301 -21 -3v-373h-209z
M43.998 629.001c10.667 0 20.8369 -0.333008 30.5039 -1s18.167 -1.66699 25.5 -3c-6 3.33301 -10.667 8.83301 -14 16.5s-5 15.167 -5 22.5c0 14 2.66699 27.667 8 41s13.666 25.333 24.999 36s26.333 19.167 45 25.5s41 9.5 67 9.5c13.333 0 25.666 -0.666992 36.999 -2
s18.666 -2.33301 21.999 -3l-12 -75c-2.66699 0.666992 -8.83398 1.66699 -18.501 3s-20.167 2 -31.5 2c-15.333 0 -27.166 -3.16699 -35.499 -9.5s-12.5 -14.5 -12.5 -24.5c0 -11.333 5.16699 -20.5 15.5 -27.5s28.166 -10.5 53.499 -10.5h57v-75h-257v75z" />
    <glyph glyph-name="yeh_hamza_above.init" unicode="&#x626;" horiz-adv-x="346" arabic-form="initial" 
d="M0 104h140v366h132v-470h-272v104zM57 629c10.667 0 20.8369 -0.333008 30.5039 -1s18.167 -1.66699 25.5 -3c-6 3.33301 -10.667 8.83301 -14 16.5s-5 15.167 -5 22.5c0 14 2.66699 27.667 8 41s13.666 25.333 24.999 36s26.333 19.167 45 25.5s41 9.5 67 9.5
c13.333 0 25.666 -0.666992 36.999 -2s18.666 -2.33301 21.999 -3l-12 -75c-2.66699 0.666992 -8.83398 1.66699 -18.501 3s-20.167 2 -31.5 2c-15.333 0 -27.166 -3.16699 -35.499 -9.5s-12.5 -14.5 -12.5 -24.5c0 -11.333 5.16699 -20.5 15.5 -27.5
s28.166 -10.5 53.499 -10.5h57v-75h-257v75z" />
    <glyph glyph-name="yeh_hamza_above.medi" unicode="&#x626;" horiz-adv-x="355" arabic-form="medial" 
d="M0 104h140v366h132v-366h98v-104h-370v104zM57 629c10.667 0 20.8369 -0.333008 30.5039 -1s18.167 -1.66699 25.5 -3c-6 3.33301 -10.667 8.83301 -14 16.5s-5 15.167 -5 22.5c0 14 2.66699 27.667 8 41s13.666 25.333 24.999 36s26.333 19.167 45 25.5s41 9.5 67 9.5
c13.333 0 25.666 -0.666992 36.999 -2s18.666 -2.33301 21.999 -3l-12 -75c-2.66699 0.666992 -8.83398 1.66699 -18.501 3s-20.167 2 -31.5 2c-15.333 0 -27.166 -3.16699 -35.499 -9.5s-12.5 -14.5 -12.5 -24.5c0 -11.333 5.16699 -20.5 15.5 -27.5
s28.166 -10.5 53.499 -10.5h57v-75h-257v75z" />
    <glyph glyph-name="alef.fina" unicode="&#x627;" horiz-adv-x="302" arabic-form="final" 
d="M85 705h132v-601h100v-104h-232v705z" />
    <glyph glyph-name="beh.fina" unicode="&#x628;" horiz-adv-x="782" arabic-form="final" 
d="M417 0c-68 0 -125.333 6.83301 -172 20.5s-84.5 33.334 -113.5 59.001s-49.833 56.667 -62.5 93s-19 77.5 -19 123.5c0 27.333 2.5 55.166 7.5 83.499s11.167 52.833 18.5 73.5l141 23c-10.667 -23.333 -19 -50 -25 -80s-9 -58.333 -9 -85
c0 -35.333 4.16699 -66 12.5 -92s22.166 -47.5 41.499 -64.5s44.833 -29.667 76.5 -38s70.834 -12.5 117.501 -12.5h136v366h132v-366h99v-104h-381zM395 -219c-19.333 0 -35.666 6.66699 -48.999 20s-20 29.666 -20 48.999s6.66699 35.666 20 48.999s29.666 20 48.999 20
s35.666 -6.66699 48.999 -20s20 -29.666 20 -48.999s-6.66699 -35.666 -20 -48.999s-29.666 -20 -48.999 -20z" />
    <glyph glyph-name="beh.init" unicode="&#x628;" horiz-adv-x="346" arabic-form="initial" 
d="M0 104h140v366h132v-470h-272v104zM132 -219c-19.333 0 -35.666 6.66699 -48.999 20s-20 29.666 -20 48.999s6.66699 35.666 20 48.999s29.666 20 48.999 20s35.666 -6.66699 48.999 -20s20 -29.666 20 -48.999s-6.66699 -35.666 -20 -48.999s-29.666 -20 -48.999 -20z
" />
    <glyph glyph-name="beh.medi" unicode="&#x628;" horiz-adv-x="355" arabic-form="medial" 
d="M0 104h140v366h132v-366h98v-104h-370v104zM132 -219c-19.333 0 -35.666 6.66699 -48.999 20s-20 29.666 -20 48.999s6.66699 35.666 20 48.999s29.666 20 48.999 20s35.666 -6.66699 48.999 -20s20 -29.666 20 -48.999s-6.66699 -35.666 -20 -48.999
s-29.666 -20 -48.999 -20z" />
    <glyph glyph-name="tehmarbuta.fina" unicode="&#x629;" horiz-adv-x="595" arabic-form="final" 
d="M306 0c-48.667 0 -90 5.50098 -124 16.501s-61.667 26.5 -83 46.5s-36.833 44.333 -46.5 73s-14.5 60.667 -14.5 96c0 32.667 5.16699 64.167 15.5 94.5s26.333 57 48 80s49.167 41.5 82.5 55.5s73 21 119 21c30 0 57.5 -1.83301 82.5 -5.5s47.167 -7.83398 66.5 -12.501
c22 -5.33301 42 -11 60 -17v-344h98v-104h-304zM384 361.001c-7.33301 3.33301 -16 6.33203 -26 8.99902c-8.66699 2 -18.834 4 -30.501 6s-24.5 3 -38.5 3c-38 0 -67.333 -12.667 -88 -38s-31 -57.666 -31 -96.999c0 -46 11.833 -80.833 35.5 -104.5
s61.834 -35.5 114.501 -35.5h64v257zM373 546c-18.667 0 -34.334 6.5 -47.001 19.5s-19 29.167 -19 48.5c0 18.667 6.33301 34.667 19 48s28.334 20 47.001 20s34.334 -6.5 47.001 -19.5s19 -29.167 19 -48.5c0 -18.667 -6.33301 -34.667 -19 -48s-28.334 -20 -47.001 -20z
M207 546c-18.667 0 -34.334 6.5 -47.001 19.5s-19 29.167 -19 48.5c0 18.667 6.33301 34.667 19 48s28.334 20 47.001 20c19.333 0 35.333 -6.5 48 -19.5s19 -29.167 19 -48.5c0 -18.667 -6.33301 -34.667 -19 -48s-28.667 -20 -48 -20z" />
    <glyph glyph-name="teh.fina" unicode="&#x62a;" horiz-adv-x="782" arabic-form="final" 
d="M417 0c-68 0 -125.333 6.83301 -172 20.5s-84.5 33.334 -113.5 59.001s-49.833 56.667 -62.5 93s-19 77.5 -19 123.5c0 27.333 2.5 55.166 7.5 83.499s11.167 52.833 18.5 73.5l141 23c-10.667 -23.333 -19 -50 -25 -80s-9 -58.333 -9 -85
c0 -35.333 4.16699 -66 12.5 -92s22.166 -47.5 41.499 -64.5s44.833 -29.667 76.5 -38s70.834 -12.5 117.501 -12.5h136v366h132v-366h99v-104h-381zM319 546c-18.667 0 -34.334 6.5 -47.001 19.5s-19 29.167 -19 48.5c0 18.667 6.33301 34.667 19 48s28.334 20 47.001 20
c19.333 0 35.333 -6.5 48 -19.5s19 -29.167 19 -48.5c0 -18.667 -6.33301 -34.667 -19 -48s-28.667 -20 -48 -20zM485 546c-18.667 0 -34.334 6.5 -47.001 19.5s-19 29.167 -19 48.5c0 18.667 6.33301 34.667 19 48s28.334 20 47.001 20s34.334 -6.5 47.001 -19.5
s19 -29.167 19 -48.5c0 -18.667 -6.33301 -34.667 -19 -48s-28.334 -20 -47.001 -20z" />
    <glyph glyph-name="teh.init" unicode="&#x62a;" horiz-adv-x="346" arabic-form="initial" 
d="M0 104h140v366h132v-470h-272v104zM270 546c-18.667 0 -34.334 6.5 -47.001 19.5s-19 29.167 -19 48.5c0 18.667 6.33301 34.667 19 48s28.334 20 47.001 20s34.334 -6.5 47.001 -19.5s19 -29.167 19 -48.5c0 -18.667 -6.33301 -34.667 -19 -48s-28.334 -20 -47.001 -20z
M104 546c-18.667 0 -34.334 6.5 -47.001 19.5s-19 29.167 -19 48.5c0 18.667 6.33301 34.667 19 48s28.334 20 47.001 20c19.333 0 35.333 -6.5 48 -19.5s19 -29.167 19 -48.5c0 -18.667 -6.33301 -34.667 -19 -48s-28.667 -20 -48 -20z" />
    <glyph glyph-name="teh.medi" unicode="&#x62a;" horiz-adv-x="346" arabic-form="medial" 
d="M0 104h140v366h132v-366h89v-104h-361v104zM104 546c-18.667 0 -34.334 6.5 -47.001 19.5s-19 29.167 -19 48.5c0 18.667 6.33301 34.667 19 48s28.334 20 47.001 20c19.333 0 35.333 -6.5 48 -19.5s19 -29.167 19 -48.5c0 -18.667 -6.33301 -34.667 -19 -48
s-28.667 -20 -48 -20zM270 546c-18.667 0 -34.334 6.5 -47.001 19.5s-19 29.167 -19 48.5c0 18.667 6.33301 34.667 19 48s28.334 20 47.001 20s34.334 -6.5 47.001 -19.5s19 -29.167 19 -48.5c0 -18.667 -6.33301 -34.667 -19 -48s-28.334 -20 -47.001 -20z" />
    <glyph glyph-name="theh.fina" unicode="&#x62b;" horiz-adv-x="782" arabic-form="final" 
d="M417 0c-68 0 -125.333 6.83301 -172 20.5s-84.5 33.334 -113.5 59.001s-49.833 56.667 -62.5 93s-19 77.5 -19 123.5c0 27.333 2.5 55.166 7.5 83.499s11.167 52.833 18.5 73.5l141 23c-10.667 -23.333 -19 -50 -25 -80s-9 -58.333 -9 -85
c0 -35.333 4.16699 -66 12.5 -92s22.166 -47.5 41.499 -64.5s44.833 -29.667 76.5 -38s70.834 -12.5 117.501 -12.5h136v366h132v-366h99v-104h-381zM485 546c-19.333 0 -35.333 6.5 -48 19.5s-19 29.167 -19 48.5c0 18.667 6.33301 34.667 19 48s28.667 20 48 20
c18.667 0 34.334 -6.5 47.001 -19.5s19 -29.167 19 -48.5c0 -18.667 -6.33301 -34.667 -19 -48s-28.334 -20 -47.001 -20zM319 546c-18.667 0 -34.334 6.5 -47.001 19.5s-19 29.167 -19 48.5c0 18.667 6.33301 34.667 19 48s28.334 20 47.001 20s34.334 -6.5 47.001 -19.5
s19 -29.167 19 -48.5c0 -18.667 -6.33301 -34.667 -19 -48s-28.334 -20 -47.001 -20zM401 688c-17.333 0 -31.833 6.16699 -43.5 18.5s-17.5 27.166 -17.5 44.499s5.83301 32.166 17.5 44.499s26.167 18.5 43.5 18.5s32 -6.16699 44 -18.5s18 -27.166 18 -44.499
s-6 -32.166 -18 -44.499s-26.667 -18.5 -44 -18.5z" />
    <glyph glyph-name="theh.init" unicode="&#x62b;" horiz-adv-x="346" arabic-form="initial" 
d="M0 104h140v366h132v-470h-272v104zM186 688c-17.333 0 -31.833 6.16699 -43.5 18.5s-17.5 27.166 -17.5 44.499s5.83301 32.166 17.5 44.499s26.167 18.5 43.5 18.5s32 -6.16699 44 -18.5s18 -27.166 18 -44.499s-6 -32.166 -18 -44.499s-26.667 -18.5 -44 -18.5z
M270 546c-19.333 0 -35.333 6.5 -48 19.5s-19 29.167 -19 48.5c0 18.667 6.33301 34.667 19 48s28.667 20 48 20c18.667 0 34.334 -6.5 47.001 -19.5s19 -29.167 19 -48.5c0 -18.667 -6.33301 -34.667 -19 -48s-28.334 -20 -47.001 -20zM104 546
c-18.667 0 -34.334 6.5 -47.001 19.5s-19 29.167 -19 48.5c0 18.667 6.33301 34.667 19 48s28.334 20 47.001 20s34.334 -6.5 47.001 -19.5s19 -29.167 19 -48.5c0 -18.667 -6.33301 -34.667 -19 -48s-28.334 -20 -47.001 -20z" />
    <glyph glyph-name="theh.medi" unicode="&#x62b;" horiz-adv-x="355" arabic-form="medial" 
d="M0 104h140v366h132v-366h98v-104h-370v104zM270 546c-19.333 0 -35.333 6.5 -48 19.5s-19 29.167 -19 48.5c0 18.667 6.33301 34.667 19 48s28.667 20 48 20c18.667 0 34.334 -6.5 47.001 -19.5s19 -29.167 19 -48.5c0 -18.667 -6.33301 -34.667 -19 -48
s-28.334 -20 -47.001 -20zM104 546c-18.667 0 -34.334 6.5 -47.001 19.5s-19 29.167 -19 48.5c0 18.667 6.33301 34.667 19 48s28.334 20 47.001 20s34.334 -6.5 47.001 -19.5s19 -29.167 19 -48.5c0 -18.667 -6.33301 -34.667 -19 -48s-28.334 -20 -47.001 -20zM186 688
c-17.333 0 -31.833 6.16699 -43.5 18.5s-17.5 27.166 -17.5 44.499s5.83301 32.166 17.5 44.499s26.167 18.5 43.5 18.5s32 -6.16699 44 -18.5s18 -27.166 18 -44.499s-6 -32.166 -18 -44.499s-26.667 -18.5 -44 -18.5z" />
    <glyph glyph-name="jeem.fina" unicode="&#x62c;" horiz-adv-x="593" arabic-form="final" 
d="M326 0c-37.333 0 -68.168 -2.83398 -92.501 -8.50098s-43.666 -13.5 -57.999 -23.5s-24.333 -21.667 -30 -35s-8.5 -27.666 -8.5 -42.999c0 -14 3.16699 -27.333 9.5 -40s16.333 -23.834 30 -33.501s30.834 -17.5 51.501 -23.5s45.667 -9 75 -9l-9 -104
c-49.333 0 -92 5 -128 15s-65.833 24 -89.5 42s-41.334 39.333 -53.001 64s-17.5 51.667 -17.5 81c0 31.333 6.16699 60.5 18.5 87.5s31.666 50.5 57.999 70.5s59.833 35.667 100.5 47s89.667 17 147 17h68c1.33301 12 2.5 24.5 3.5 37.5s1.5 25.833 1.5 38.5
c0 63.333 -14.667 111.166 -44 143.499s-79.666 48.5 -150.999 48.5c-21.333 0 -41.333 -0.666992 -60 -2s-37 -3.33301 -55 -6v103c19.333 2.66699 40 4.83398 62 6.50098s44 2.5 66 2.5c56 0 103.833 -6.16699 143.5 -18.5s72 -30.666 97 -54.999
s43.333 -54.666 55 -90.999s17.5 -78.5 17.5 -126.5c0 -12 -0.333008 -24.833 -1 -38.5s-1.66699 -27.834 -3 -42.501h79v-104h-283zM395.998 -219.001c-19.333 0 -35.666 6.66699 -48.999 20s-20 29.666 -20 48.999s6.66699 35.666 20 48.999s29.666 20 48.999 20
s35.666 -6.66699 48.999 -20s20 -29.666 20 -48.999s-6.66699 -35.666 -20 -48.999s-29.666 -20 -48.999 -20z" />
    <glyph glyph-name="jeem.init" unicode="&#x62c;" horiz-adv-x="578" arabic-form="initial" 
d="M0 104l387.004 -0.00195312c1.33301 12 2.5 24.5 3.5 37.5s1.5 25.833 1.5 38.5c0 63.333 -14.667 111.166 -44 143.499s-80 48.5 -152 48.5c-20.667 0 -40.334 -0.666992 -59.001 -2s-37.334 -3.33301 -56.001 -6v103c19.333 2.66699 40.166 4.83398 62.499 6.50098
s44.166 2.5 65.499 2.5c56 0 104 -6.16699 144 -18.5s72.5 -30.666 97.5 -54.999s43.333 -54.666 55 -90.999s17.5 -78.5 17.5 -126.5c0 -25.333 -1.33301 -53.5 -4 -84.5s-7 -64.5 -13 -100.5h-506v104zM237.004 -219.002c-19.333 0 -35.666 6.66699 -48.999 20
s-20 29.666 -20 48.999s6.66699 35.666 20 48.999s29.666 20 48.999 20s35.666 -6.66699 48.999 -20s20 -29.666 20 -48.999s-6.66699 -35.666 -20 -48.999s-29.666 -20 -48.999 -20z" />
    <glyph glyph-name="jeem.medi" unicode="&#x62c;" horiz-adv-x="582" arabic-form="medial" 
d="M0 104l387.004 -0.000976562c1.33301 12 2.5 24.5 3.5 37.5s1.5 25.833 1.5 38.5c0 63.333 -14.667 111.166 -44 143.499s-80 48.5 -152 48.5c-20.667 0 -40.334 -0.666992 -59.001 -2s-37.334 -3.33301 -56.001 -6v103c19.333 2.66699 40.166 4.83398 62.499 6.50098
s44.166 2.5 65.499 2.5c56 0 104 -6.16699 144 -18.5s72.5 -30.666 97.5 -54.999s43.333 -54.666 55 -90.999s17.5 -78.5 17.5 -126.5c0 -12 -0.333008 -24.833 -1 -38.5s-1.66699 -27.834 -3 -42.501h78v-104h-597v104zM237.004 -219.001
c-19.333 0 -35.666 6.66699 -48.999 20s-20 29.666 -20 48.999s6.66699 35.666 20 48.999s29.666 20 48.999 20s35.666 -6.66699 48.999 -20s20 -29.666 20 -48.999s-6.66699 -35.666 -20 -48.999s-29.666 -20 -48.999 -20z" />
    <glyph glyph-name="hah.fina" unicode="&#x62d;" horiz-adv-x="592" arabic-form="final" 
d="M336 0c-37.333 0 -68.1621 -2.83398 -92.4951 -8.50098s-43.666 -13.5 -57.999 -23.5s-24.333 -21.5 -30 -34.5s-8.5 -26.833 -8.5 -41.5c0 -30 13.333 -55.5 40 -76.5s70 -31.5 130 -31.5c27.333 0 54.833 1.5 82.5 4.5s57.167 7.5 88.5 13.5l9 -102
c-32 -6 -64.167 -10.833 -96.5 -14.5s-64.5 -5.5 -96.5 -5.5c-49.333 0 -92 4.83301 -128 14.5s-65.833 23.5 -89.5 41.5s-41.334 39.5 -53.001 64.5s-17.5 52.5 -17.5 82.5c0 31.333 6.16699 60.5 18.5 87.5s31.666 50.333 57.999 70s59.833 35.167 100.5 46.5
s89.667 17 147 17h57c1.33301 12 2.5 24.5 3.5 37.5s1.5 25.833 1.5 38.5c0 63.333 -14.667 111.166 -44 143.499s-80 48.5 -152 48.5c-20.667 0 -40.334 -0.666992 -59.001 -2s-37.334 -3.33301 -56.001 -6v103c19.333 2.66699 40.166 4.83398 62.499 6.50098
s44.166 2.5 65.499 2.5c56 0 104 -6.16699 144 -18.5s72.5 -30.666 97.5 -54.999s43.333 -54.666 55 -90.999s17.5 -78.5 17.5 -126.5c0 -12 -0.333008 -24.833 -1 -38.5s-1.66699 -27.834 -3 -42.501h78v-104h-271v0z" />
    <glyph glyph-name="hah.init" unicode="&#x62d;" horiz-adv-x="578" arabic-form="initial" 
d="M0 104l387.004 -0.00195312c1.33301 12 2.5 24.5 3.5 37.5s1.5 25.833 1.5 38.5c0 63.333 -14.667 111.166 -44 143.499s-80 48.5 -152 48.5c-20.667 0 -40.334 -0.666992 -59.001 -2s-37.334 -3.33301 -56.001 -6v103c19.333 2.66699 40.166 4.83398 62.499 6.50098
s44.166 2.5 65.499 2.5c56 0 104 -6.16699 144 -18.5s72.5 -30.666 97.5 -54.999s43.333 -54.666 55 -90.999s17.5 -78.5 17.5 -126.5c0 -25.333 -1.33301 -53.5 -4 -84.5s-7 -64.5 -13 -100.5h-506v104z" />
    <glyph glyph-name="hah.medi" unicode="&#x62d;" horiz-adv-x="582" arabic-form="medial" 
d="M0 104l387.004 -0.000976562c1.33301 12 2.5 24.5 3.5 37.5s1.5 25.833 1.5 38.5c0 63.333 -14.667 111.166 -44 143.499s-80 48.5 -152 48.5c-20.667 0 -40.334 -0.666992 -59.001 -2s-37.334 -3.33301 -56.001 -6v103c19.333 2.66699 40.166 4.83398 62.499 6.50098
s44.166 2.5 65.499 2.5c56 0 104 -6.16699 144 -18.5s72.5 -30.666 97.5 -54.999s43.333 -54.666 55 -90.999s17.5 -78.5 17.5 -126.5c0 -12 -0.333008 -24.833 -1 -38.5s-1.66699 -27.834 -3 -42.501h78v-104h-597v104z" />
    <glyph glyph-name="khah.fina" unicode="&#x62e;" horiz-adv-x="592" arabic-form="final" 
d="M336 0c-37.333 0 -68.1621 -2.83398 -92.4951 -8.50098s-43.666 -13.5 -57.999 -23.5s-24.333 -21.5 -30 -34.5s-8.5 -26.833 -8.5 -41.5c0 -30 13.333 -55.5 40 -76.5s70 -31.5 130 -31.5c27.333 0 54.833 1.5 82.5 4.5s57.167 7.5 88.5 13.5l9 -102
c-32 -6 -64.167 -10.833 -96.5 -14.5s-64.5 -5.5 -96.5 -5.5c-49.333 0 -92 4.83301 -128 14.5s-65.833 23.5 -89.5 41.5s-41.334 39.5 -53.001 64.5s-17.5 52.5 -17.5 82.5c0 31.333 6.16699 60.5 18.5 87.5s31.666 50.333 57.999 70s59.833 35.167 100.5 46.5
s89.667 17 147 17h57c1.33301 12 2.5 24.5 3.5 37.5s1.5 25.833 1.5 38.5c0 63.333 -14.667 111.166 -44 143.499s-80 48.5 -152 48.5c-20.667 0 -40.334 -0.666992 -59.001 -2s-37.334 -3.33301 -56.001 -6v103c19.333 2.66699 40.166 4.83398 62.499 6.50098
s44.166 2.5 65.499 2.5c56 0 104 -6.16699 144 -18.5s72.5 -30.666 97.5 -54.999s43.333 -54.666 55 -90.999s17.5 -78.5 17.5 -126.5c0 -12 -0.333008 -24.833 -1 -38.5s-1.66699 -27.834 -3 -42.501h78v-104h-271zM247.004 553.999c-19.333 0 -35.666 6.66699 -48.999 20
s-20 29.666 -20 48.999s6.66699 35.666 20 48.999s29.666 20 48.999 20s35.666 -6.66699 48.999 -20s20 -29.666 20 -48.999s-6.66699 -35.666 -20 -48.999s-29.666 -20 -48.999 -20z" />
    <glyph glyph-name="khah.init" unicode="&#x62e;" horiz-adv-x="578" arabic-form="initial" 
d="M0 104l387.004 -0.00195312c1.33301 12 2.5 24.5 3.5 37.5s1.5 25.833 1.5 38.5c0 63.333 -14.667 111.166 -44 143.499s-80 48.5 -152 48.5c-20.667 0 -40.334 -0.666992 -59.001 -2s-37.334 -3.33301 -56.001 -6v103c19.333 2.66699 40.166 4.83398 62.499 6.50098
s44.166 2.5 65.499 2.5c56 0 104 -6.16699 144 -18.5s72.5 -30.666 97.5 -54.999s43.333 -54.666 55 -90.999s17.5 -78.5 17.5 -126.5c0 -25.333 -1.33301 -53.5 -4 -84.5s-7 -64.5 -13 -100.5h-506v104zM237.004 553.998c-19.333 0 -35.666 6.66699 -48.999 20
s-20 29.666 -20 48.999s6.66699 35.666 20 48.999s29.666 20 48.999 20s35.666 -6.66699 48.999 -20s20 -29.666 20 -48.999s-6.66699 -35.666 -20 -48.999s-29.666 -20 -48.999 -20z" />
    <glyph glyph-name="khah.medi" unicode="&#x62e;" horiz-adv-x="582" arabic-form="medial" 
d="M0 104l387.004 -0.000976562c1.33301 12 2.5 24.5 3.5 37.5s1.5 25.833 1.5 38.5c0 63.333 -14.667 111.166 -44 143.499s-80 48.5 -152 48.5c-20.667 0 -40.334 -0.666992 -59.001 -2s-37.334 -3.33301 -56.001 -6v103c19.333 2.66699 40.166 4.83398 62.499 6.50098
s44.166 2.5 65.499 2.5c56 0 104 -6.16699 144 -18.5s72.5 -30.666 97.5 -54.999s43.333 -54.666 55 -90.999s17.5 -78.5 17.5 -126.5c0 -12 -0.333008 -24.833 -1 -38.5s-1.66699 -27.834 -3 -42.501h78v-104h-597v104zM237.004 553.999
c-19.333 0 -35.666 6.66699 -48.999 20s-20 29.666 -20 48.999s6.66699 35.666 20 48.999s29.666 20 48.999 20s35.666 -6.66699 48.999 -20s20 -29.666 20 -48.999s-6.66699 -35.666 -20 -48.999s-29.666 -20 -48.999 -20z" />
    <glyph glyph-name="dal.fina" unicode="&#x62f;" horiz-adv-x="521" arabic-form="final" 
d="M46 104l297.001 -0.000976562c-3.33301 74.667 -23.833 135 -61.5 181s-95.834 79 -174.501 99l32 110c51.333 -13.333 96.833 -30.666 136.5 -51.999s73.5 -47.833 101.5 -79.5s49.833 -68.667 65.5 -111s25.167 -91.5 28.5 -147.5h65v-104h-490v104z" />
    <glyph glyph-name="thal.fina" unicode="&#x630;" horiz-adv-x="521" arabic-form="final" 
d="M46 104l297.001 -0.000976562c-3.33301 74.667 -23.833 135 -61.5 181s-95.834 79 -174.501 99l32 110c51.333 -13.333 96.833 -30.666 136.5 -51.999s73.5 -47.833 101.5 -79.5s49.833 -68.667 65.5 -111s25.167 -91.5 28.5 -147.5h65v-104h-490v104zM198.001 553.999
c-19.333 0 -35.666 6.66699 -48.999 20s-20 29.666 -20 48.999s6.66699 35.666 20 48.999s29.666 20 48.999 20s35.666 -6.66699 48.999 -20s20 -29.666 20 -48.999s-6.66699 -35.666 -20 -48.999s-29.666 -20 -48.999 -20z" />
    <glyph glyph-name="reh.fina" unicode="&#x631;" horiz-adv-x="406" arabic-form="final" 
d="M75 -254c-15.333 0 -29.999 0.832031 -43.999 2.49902s-27.333 4.16699 -40 7.5l11 105c11.333 -3.33301 23.666 -6.16602 36.999 -8.49902s28 -3.5 44 -3.5c16.667 0 31.667 2.16699 45 6.5s24.5 12 33.5 23s16 25.333 21 43s7.5 40.167 7.5 67.5v481h132v-366h99v-104
h-99v-4c0 -32 -3.33301 -63 -10 -93s-19 -56.667 -37 -80s-43.167 -42 -75.5 -56s-73.833 -21 -124.5 -21z" />
    <glyph glyph-name="zain.fina" unicode="&#x632;" horiz-adv-x="406" arabic-form="final" 
d="M75 -254c-15.333 0 -29.999 0.832031 -43.999 2.49902s-27.333 4.16699 -40 7.5l11 105c11.333 -3.33301 23.666 -6.16602 36.999 -8.49902s28 -3.5 44 -3.5c16.667 0 31.667 2.16699 45 6.5s24.5 12 33.5 23s16 25.333 21 43s7.5 40.167 7.5 67.5v481h132v-366h99v-104
h-99v-4c0 -32 -3.33301 -63 -10 -93s-19 -56.667 -37 -80s-43.167 -42 -75.5 -56s-73.833 -21 -124.5 -21zM256.001 553.999c-19.333 0 -35.666 6.66699 -48.999 20s-20 29.666 -20 48.999s6.66699 35.666 20 48.999s29.666 20 48.999 20s35.666 -6.66699 48.999 -20
s20 -29.666 20 -48.999s-6.66699 -35.666 -20 -48.999s-29.666 -20 -48.999 -20z" />
    <glyph glyph-name="seen.fina" unicode="&#x633;" horiz-adv-x="1231" arabic-form="final" 
d="M311 -230c-40 0 -76.332 5.33984 -108.999 16.0068s-60.5 27.5 -83.5 50.5s-40.667 52.5 -53 88.5s-18.5 79 -18.5 129c0 29.333 2 59.166 6 89.499s10 60.166 18 89.499l136 25c-9.33301 -32 -16.333 -64.333 -21 -97s-7 -64.334 -7 -95.001
c0 -38 4.16699 -69.5 12.5 -94.5s19.166 -44.833 32.499 -59.5s28.5 -24.834 45.5 -30.501s34.167 -8.5 51.5 -8.5c22 0 41.667 3.16699 59 9.5s32 16.833 44 31.5s21.167 34 27.5 58s9.5 54 9.5 90v348h132v-197c0 -37.333 5.16699 -66 15.5 -86s30.5 -30 60.5 -30
c29.333 0 49 10.167 59 30.5s15 48.5 15 84.5v238h126v-235c0 -20.667 1.66699 -38.167 5 -52.5s9 -25.833 17 -34.5s19.167 -14.834 33.5 -18.501s32.5 -5.5 54.5 -5.5h35c2 20 3.66699 41.167 5 63.5s2 41.166 2 56.499c0 50 -2.66699 97.667 -8 143s-12.333 87 -21 125
l129 18c9.33301 -40 17 -83.667 23 -131s9 -96 9 -146c0 -20 -0.5 -41 -1.5 -63s-2.16699 -44 -3.5 -66h98v-104h-294c-44 0 -79.167 5.5 -105.5 16.5s-45.166 30.167 -56.499 57.5c-8 -26 -22.833 -46.167 -44.5 -60.5s-46.5 -21.5 -74.5 -21.5
c-22 0 -40.333 3.66699 -55 11s-26.334 17.333 -35.001 30c1.33301 -3.33301 2.33301 -7 3 -11s1 -8.33301 1 -13c0 -12 -1.16699 -26.167 -3.5 -42.5s-7 -33.333 -14 -51s-16.833 -35.167 -29.5 -52.5s-29.167 -32.833 -49.5 -46.5s-45 -24.834 -74 -33.501
s-63.5 -13 -103.5 -13z" />
    <glyph glyph-name="seen.init" unicode="&#x633;" horiz-adv-x="883" arabic-form="initial" 
d="M0 104l32.002 0.000976562c16 0 29.833 1.83301 41.5 5.5s21 10.334 28 20.001s12.167 22.5 15.5 38.5s5 36.333 5 61v181h132v-198c0 -38 5.16699 -66.833 15.5 -86.5s30.5 -29.5 60.5 -29.5c29.333 0 49 10.167 59 30.5s15 48.5 15 84.5v239h126v-235
c0 -20.667 1.66699 -38.167 5 -52.5s9 -25.833 17 -34.5s19.167 -14.834 33.5 -18.501s32.5 -5.5 54.5 -5.5h35c2 20 3.66699 41.167 5 63.5s2 41.166 2 56.499c0 50 -2.66699 97.667 -8 143s-12.333 87 -21 125l129 18c9.33301 -40 17 -83.667 23 -131s9 -96 9 -146
c0 -36.667 -1.33301 -75.667 -4 -117s-6.33398 -80 -11.001 -116h-186c-44 0 -79.167 5.5 -105.5 16.5s-45.166 30.167 -56.499 57.5c-12 -28 -31.167 -48.833 -57.5 -62.5s-55.5 -20.5 -87.5 -20.5c-36.667 0 -67.334 7.33301 -92.001 22s-41.334 35 -50.001 61
c-9.33301 -24 -24.5 -42.333 -45.5 -55s-50.167 -19 -87.5 -19h-31v104z" />
    <glyph glyph-name="seen.medi" unicode="&#x633;" horiz-adv-x="892" arabic-form="medial" 
d="M0 104l32.001 0.000976562c16 0 29.833 1.83301 41.5 5.5s21 10.334 28 20.001s12.167 22.5 15.5 38.5s5 36.333 5 61v181h132v-198c0 -38 5.16699 -66.833 15.5 -86.5s30.5 -29.5 60.5 -29.5c29.333 0 49 10.167 59 30.5s15 48.5 15 84.5v239h126v-235
c0 -20.667 1.66699 -38.167 5 -52.5s9 -25.833 17 -34.5s19.167 -14.834 33.5 -18.501s32.5 -5.5 54.5 -5.5h35c2 20 3.66699 41.167 5 63.5s2 41.166 2 56.499c0 50 -2.66699 97.667 -8 143s-12.333 87 -21 125l129 18c9.33301 -40 17 -83.667 23 -131s9 -96 9 -146
c0 -20 -0.5 -41 -1.5 -63s-2.16699 -44 -3.5 -66h98v-104h-294c-44 0 -79.167 5.5 -105.5 16.5s-45.166 30.167 -56.499 57.5c-12 -28 -31.167 -48.833 -57.5 -62.5s-55.5 -20.5 -87.5 -20.5c-36.667 0 -67.334 7.33301 -92.001 22s-41.334 35 -50.001 61
c-9.33301 -24 -24.5 -42.333 -45.5 -55s-50.167 -19 -87.5 -19h-31v104z" />
    <glyph glyph-name="sheen.fina" unicode="&#x634;" horiz-adv-x="1231" arabic-form="final" 
d="M952 0c-44 0 -79.166 5.50684 -105.499 16.5068s-45.166 30.167 -56.499 57.5c-8 -26 -22.833 -46.167 -44.5 -60.5s-46.5 -21.5 -74.5 -21.5c-22 0 -40.333 3.66699 -55 11s-26.334 17.333 -35.001 30c1.33301 -3.33301 2.33301 -7 3 -11s1 -8.33301 1 -13
c0 -12 -1.16699 -26.167 -3.5 -42.5s-7 -33.333 -14 -51s-16.833 -35.167 -29.5 -52.5s-29.167 -32.833 -49.5 -46.5s-45 -24.834 -74 -33.501s-63.5 -13 -103.5 -13s-76.333 5.33301 -109 16s-60.5 27.5 -83.5 50.5s-40.667 52.5 -53 88.5s-18.5 79 -18.5 129
c0 29.333 2 59.166 6 89.499s10 60.166 18 89.499l136 25c-9.33301 -32 -16.333 -64.333 -21 -97s-7 -64.334 -7 -95.001c0 -38 4.16699 -69.5 12.5 -94.5s19.166 -44.833 32.499 -59.5s28.5 -24.834 45.5 -30.501s34.167 -8.5 51.5 -8.5c22 0 41.667 3.16699 59 9.5
s32 16.833 44 31.5s21.167 34 27.5 58s9.5 54 9.5 90v348h132v-197c0 -37.333 5.16699 -66 15.5 -86s30.5 -30 60.5 -30c29.333 0 49 10.167 59 30.5s15 48.5 15 84.5v238h126v-235c0 -20.667 1.66699 -38.167 5 -52.5s9 -25.833 17 -34.5s19.167 -14.834 33.5 -18.501
s32.5 -5.5 54.5 -5.5h35c2 20 3.66699 41.167 5 63.5s2 41.166 2 56.499c0 50 -2.66699 97.667 -8 143s-12.333 87 -21 125l129 18c9.33301 -40 17 -83.667 23 -131s9 -96 9 -146c0 -20 -0.5 -41 -1.5 -63s-2.16699 -44 -3.5 -66h98v-104h-294zM884.001 546.007
c-19.333 0 -35.333 6.5 -48 19.5s-19 29.167 -19 48.5c0 18.667 6.33301 34.667 19 48s28.667 20 48 20c18.667 0 34.334 -6.5 47.001 -19.5s19 -29.167 19 -48.5c0 -18.667 -6.33301 -34.667 -19 -48s-28.334 -20 -47.001 -20zM718.001 546.007
c-18.667 0 -34.334 6.5 -47.001 19.5s-19 29.167 -19 48.5c0 18.667 6.33301 34.667 19 48s28.334 20 47.001 20s34.334 -6.5 47.001 -19.5s19 -29.167 19 -48.5c0 -18.667 -6.33301 -34.667 -19 -48s-28.334 -20 -47.001 -20zM800.001 688.007
c-17.333 0 -31.833 6.16699 -43.5 18.5s-17.5 27.166 -17.5 44.499s5.83301 32.166 17.5 44.499s26.167 18.5 43.5 18.5s32 -6.16699 44 -18.5s18 -27.166 18 -44.499s-6 -32.166 -18 -44.499s-26.667 -18.5 -44 -18.5z" />
    <glyph glyph-name="sheen.init" unicode="&#x634;" horiz-adv-x="883" arabic-form="initial" 
d="M0 104l32.002 0.000976562c16 0 29.833 1.83301 41.5 5.5s21 10.334 28 20.001s12.167 22.5 15.5 38.5s5 36.333 5 61v181h132v-198c0 -38 5.16699 -66.833 15.5 -86.5s30.5 -29.5 60.5 -29.5c29.333 0 49 10.167 59 30.5s15 48.5 15 84.5v239h126v-235
c0 -20.667 1.66699 -38.167 5 -52.5s9 -25.833 17 -34.5s19.167 -14.834 33.5 -18.501s32.5 -5.5 54.5 -5.5h35c2 20 3.66699 41.167 5 63.5s2 41.166 2 56.499c0 50 -2.66699 97.667 -8 143s-12.333 87 -21 125l129 18c9.33301 -40 17 -83.667 23 -131s9 -96 9 -146
c0 -36.667 -1.33301 -75.667 -4 -117s-6.33398 -80 -11.001 -116h-186c-44 0 -79.167 5.5 -105.5 16.5s-45.166 30.167 -56.499 57.5c-12 -28 -31.167 -48.833 -57.5 -62.5s-55.5 -20.5 -87.5 -20.5c-36.667 0 -67.334 7.33301 -92.001 22s-41.334 35 -50.001 61
c-9.33301 -24 -24.5 -42.333 -45.5 -55s-50.167 -19 -87.5 -19h-31v104zM461.002 688.001c-17.333 0 -31.833 6.16699 -43.5 18.5s-17.5 27.166 -17.5 44.499s5.83301 32.166 17.5 44.499s26.167 18.5 43.5 18.5s32 -6.16699 44 -18.5s18 -27.166 18 -44.499
s-6 -32.166 -18 -44.499s-26.667 -18.5 -44 -18.5zM545.002 546.001c-19.333 0 -35.333 6.5 -48 19.5s-19 29.167 -19 48.5c0 18.667 6.33301 34.667 19 48s28.667 20 48 20c18.667 0 34.334 -6.5 47.001 -19.5s19 -29.167 19 -48.5c0 -18.667 -6.33301 -34.667 -19 -48
s-28.334 -20 -47.001 -20zM379.002 546.001c-18.667 0 -34.334 6.5 -47.001 19.5s-19 29.167 -19 48.5c0 18.667 6.33301 34.667 19 48s28.334 20 47.001 20s34.334 -6.5 47.001 -19.5s19 -29.167 19 -48.5c0 -18.667 -6.33301 -34.667 -19 -48s-28.334 -20 -47.001 -20z
" />
    <glyph glyph-name="sheen.medi" unicode="&#x634;" horiz-adv-x="892" arabic-form="medial" 
d="M0 104l32.001 0.000976562c16 0 29.833 1.83301 41.5 5.5s21 10.334 28 20.001s12.167 22.5 15.5 38.5s5 36.333 5 61v181h132v-198c0 -38 5.16699 -66.833 15.5 -86.5s30.5 -29.5 60.5 -29.5c29.333 0 49 10.167 59 30.5s15 48.5 15 84.5v239h126v-235
c0 -20.667 1.66699 -38.167 5 -52.5s9 -25.833 17 -34.5s19.167 -14.834 33.5 -18.501s32.5 -5.5 54.5 -5.5h35c2 20 3.66699 41.167 5 63.5s2 41.166 2 56.499c0 50 -2.66699 97.667 -8 143s-12.333 87 -21 125l129 18c9.33301 -40 17 -83.667 23 -131s9 -96 9 -146
c0 -20 -0.5 -41 -1.5 -63s-2.16699 -44 -3.5 -66h98v-104h-294c-44 0 -79.167 5.5 -105.5 16.5s-45.166 30.167 -56.499 57.5c-12 -28 -31.167 -48.833 -57.5 -62.5s-55.5 -20.5 -87.5 -20.5c-36.667 0 -67.334 7.33301 -92.001 22s-41.334 35 -50.001 61
c-9.33301 -24 -24.5 -42.333 -45.5 -55s-50.167 -19 -87.5 -19h-31v104zM545.001 546.001c-19.333 0 -35.333 6.5 -48 19.5s-19 29.167 -19 48.5c0 18.667 6.33301 34.667 19 48s28.667 20 48 20c18.667 0 34.334 -6.5 47.001 -19.5s19 -29.167 19 -48.5
c0 -18.667 -6.33301 -34.667 -19 -48s-28.334 -20 -47.001 -20zM379.001 546.001c-18.667 0 -34.334 6.5 -47.001 19.5s-19 29.167 -19 48.5c0 18.667 6.33301 34.667 19 48s28.334 20 47.001 20s34.334 -6.5 47.001 -19.5s19 -29.167 19 -48.5
c0 -18.667 -6.33301 -34.667 -19 -48s-28.334 -20 -47.001 -20zM461.001 688.001c-17.333 0 -31.833 6.16699 -43.5 18.5s-17.5 27.166 -17.5 44.499s5.83301 32.166 17.5 44.499s26.167 18.5 43.5 18.5s32 -6.16699 44 -18.5s18 -27.166 18 -44.499s-6 -32.166 -18 -44.499
s-26.667 -18.5 -44 -18.5z" />
    <glyph glyph-name="sad.fina" unicode="&#x635;" horiz-adv-x="1116" arabic-form="final" 
d="M587 0c-4 -40.667 -13.499 -75.4951 -28.499 -104.495s-34.5 -52.833 -58.5 -71.5s-52 -32.334 -84 -41.001s-67 -13 -105 -13c-40 0 -76.333 5.33301 -109 16s-60.5 27.5 -83.5 50.5s-40.667 52.5 -53 88.5s-18.5 79 -18.5 129c0 29.333 2 59.166 6 89.499
s10 60.166 18 89.499l136 25c-9.33301 -32 -16.333 -64.333 -21 -97s-7 -64.334 -7 -95.001c0 -38 4.16699 -69.5 12.5 -94.5s19.166 -44.833 32.499 -59.5s28.5 -24.834 45.5 -30.501s34.167 -8.5 51.5 -8.5c22 0 41.667 3.16699 59 9.5s32 16.833 44 31.5
s21.167 34 27.5 58s9.5 54 9.5 90v408h132v-25c0 -22 -0.833008 -46.167 -2.5 -72.5s-4.5 -51.5 -8.5 -75.5h1c12 29.333 27.167 55.5 45.5 78.5s38.666 42.5 60.999 58.5s46.333 28.167 72 36.5s51.834 12.5 78.501 12.5c69.333 0 120.5 -21.5 153.5 -64.5
s49.5 -102.167 49.5 -177.5c0 -22.667 -0.333008 -45.5 -1 -68.5s-1.66699 -45.833 -3 -68.5h92v-104h-544zM903.001 104.005c1.33301 20 2.5 40.8301 3.5 62.4971s1.5 41.834 1.5 60.501c0 46.667 -7 83.334 -21 110.001s-38.667 40 -74 40c-26.667 0 -52 -7.66699 -76 -23
s-45.667 -35.666 -65 -60.999s-36 -54.5 -50 -87.5s-24 -66.833 -30 -101.5h311z" />
    <glyph glyph-name="sad.init" unicode="&#x635;" horiz-adv-x="768" arabic-form="initial" 
d="M704 241c0 -40 -1 -80.5 -3 -121.5s-5.66699 -80.833 -11 -119.5h-690v104h122v366h132v-25c0 -22 -0.833008 -46.167 -2.5 -72.5s-4.5 -51.5 -8.5 -75.5h1c12 29.333 27.167 55.5 45.5 78.5s38.666 42.5 60.999 58.5s46.333 28.167 72 36.5s51.834 12.5 78.501 12.5
c69.333 0 120.5 -21.5 153.5 -64.5s49.5 -102.167 49.5 -177.5zM569 226c0 46.667 -7 83.499 -21 110.499s-38.667 40.5 -74 40.5c-26.667 0 -52 -7.66699 -76 -23s-45.667 -35.666 -65 -60.999s-36 -54.5 -50 -87.5s-24 -66.833 -30 -101.5h311
c1.33301 20 2.5 40.833 3.5 62.5s1.5 41.5 1.5 59.5z" />
    <glyph glyph-name="sad.medi" unicode="&#x635;" horiz-adv-x="777" arabic-form="medial" 
d="M704 241c0 -22.667 -0.333008 -45.5 -1 -68.5s-1.66699 -45.833 -3 -68.5h92v-104h-792v104h122v366h132v-25c0 -22 -0.833008 -46.167 -2.5 -72.5s-4.5 -51.5 -8.5 -75.5h1c12 29.333 27.167 55.5 45.5 78.5s38.666 42.5 60.999 58.5s46.333 28.167 72 36.5
s51.834 12.5 78.501 12.5c69.333 0 120.5 -21.5 153.5 -64.5s49.5 -102.167 49.5 -177.5zM569 226c0 46.667 -7 83.499 -21 110.499s-38.667 40.5 -74 40.5c-26.667 0 -52 -7.66699 -76 -23s-45.667 -35.666 -65 -60.999s-36 -54.5 -50 -87.5s-24 -66.833 -30 -101.5h311
c1.33301 20 2.5 40.833 3.5 62.5s1.5 41.5 1.5 59.5z" />
    <glyph glyph-name="dad.fina" unicode="&#x636;" horiz-adv-x="1116" arabic-form="final" 
d="M311 -230c-40 0 -76.332 5.33789 -108.999 16.0049s-60.5 27.5 -83.5 50.5s-40.667 52.5 -53 88.5s-18.5 79 -18.5 129c0 29.333 2 59.166 6 89.499s10 60.166 18 89.499l136 25c-9.33301 -32 -16.333 -64.333 -21 -97s-7 -64.334 -7 -95.001
c0 -38 4.16699 -69.5 12.5 -94.5s19.166 -44.833 32.499 -59.5s28.5 -24.834 45.5 -30.501s34.167 -8.5 51.5 -8.5c22 0 41.667 3.16699 59 9.5s32 16.833 44 31.5s21.167 34 27.5 58s9.5 54 9.5 90v408h132v-25c0 -22 -0.833008 -46.167 -2.5 -72.5s-4.5 -51.5 -8.5 -75.5
h1c12 29.333 27.167 55.5 45.5 78.5s38.666 42.5 60.999 58.5s46.333 28.167 72 36.5s51.834 12.5 78.501 12.5c69.333 0 120.5 -21.5 153.5 -64.5s49.5 -102.167 49.5 -177.5c0 -22.667 -0.333008 -45.5 -1 -68.5s-1.66699 -45.833 -3 -68.5h92v-104h-544
c-4 -40.667 -13.5 -75.5 -28.5 -104.5s-34.5 -52.833 -58.5 -71.5s-52 -32.334 -84 -41.001s-67 -13 -105 -13zM903.001 104.005c1.33301 20 2.5 40.8301 3.5 62.4971s1.5 41.834 1.5 60.501c0 46.667 -7 83.334 -21 110.001s-38.667 40 -74 40
c-26.667 0 -52 -7.66699 -76 -23s-45.667 -35.666 -65 -60.999s-36 -54.5 -50 -87.5s-24 -66.833 -30 -101.5h311zM822.001 554.002c-19.333 0 -35.666 6.66699 -48.999 20s-20 29.666 -20 48.999s6.66699 35.666 20 48.999s29.666 20 48.999 20s35.666 -6.66699 48.999 -20
s20 -29.666 20 -48.999s-6.66699 -35.666 -20 -48.999s-29.666 -20 -48.999 -20z" />
    <glyph glyph-name="dad.init" unicode="&#x636;" horiz-adv-x="768" arabic-form="initial" 
d="M704 241c0 -40 -1 -80.5 -3 -121.5s-5.66699 -80.833 -11 -119.5h-690v104h122v366h132v-25c0 -22 -0.833008 -46.167 -2.5 -72.5s-4.5 -51.5 -8.5 -75.5h1c12 29.333 27.167 55.5 45.5 78.5s38.666 42.5 60.999 58.5s46.333 28.167 72 36.5s51.834 12.5 78.501 12.5
c69.333 0 120.5 -21.5 153.5 -64.5s49.5 -102.167 49.5 -177.5zM569 226c0 46.667 -7 83.499 -21 110.499s-38.667 40.5 -74 40.5c-26.667 0 -52 -7.66699 -76 -23s-45.667 -35.666 -65 -60.999s-36 -54.5 -50 -87.5s-24 -66.833 -30 -101.5h311
c1.33301 20 2.5 40.833 3.5 62.5s1.5 41.5 1.5 59.5zM484 553.999c-19.333 0 -35.666 6.66699 -48.999 20s-20 29.666 -20 48.999s6.66699 35.666 20 48.999s29.666 20 48.999 20s35.666 -6.66699 48.999 -20s20 -29.666 20 -48.999s-6.66699 -35.666 -20 -48.999
s-29.666 -20 -48.999 -20z" />
    <glyph glyph-name="dad.medi" unicode="&#x636;" horiz-adv-x="777" arabic-form="medial" 
d="M0 104h122v366h132v-25c0 -22 -0.833008 -46.167 -2.5 -72.5s-4.5 -51.5 -8.5 -75.5h1c12 29.333 27.167 55.5 45.5 78.5s38.666 42.5 60.999 58.5s46.333 28.167 72 36.5s51.834 12.5 78.501 12.5c69.333 0 120.5 -21.5 153.5 -64.5s49.5 -102.167 49.5 -177.5
c0 -22.667 -0.333008 -45.5 -1 -68.5s-1.66699 -45.833 -3 -68.5h92v-104h-792v104zM569 226c0 46.667 -7 83.499 -21 110.499s-38.667 40.5 -74 40.5c-26.667 0 -52 -7.66699 -76 -23s-45.667 -35.666 -65 -60.999s-36 -54.5 -50 -87.5s-24 -66.833 -30 -101.5h311
c1.33301 20 2.5 40.833 3.5 62.5s1.5 41.5 1.5 59.5zM484 553.999c-19.333 0 -35.666 6.66699 -48.999 20s-20 29.666 -20 48.999s6.66699 35.666 20 48.999s29.666 20 48.999 20s35.666 -6.66699 48.999 -20s20 -29.666 20 -48.999s-6.66699 -35.666 -20 -48.999
s-29.666 -20 -48.999 -20z" />
    <glyph glyph-name="tah.fina" unicode="&#x637;" horiz-adv-x="777" arabic-form="final" 
d="M0 104h122v601h132v-260c0 -22 -0.833008 -46.167 -2.5 -72.5s-4.5 -51.5 -8.5 -75.5h1c12 29.333 27.167 55.5 45.5 78.5s38.666 42.5 60.999 58.5s46.333 28.167 72 36.5s51.834 12.5 78.501 12.5c69.333 0 120.5 -21.5 153.5 -64.5s49.5 -102.167 49.5 -177.5
c0 -22.667 -0.333008 -45.5 -1 -68.5s-1.66699 -45.833 -3 -68.5h92v-104h-792v104zM564 104c1.33301 20 2.5 40.832 3.5 62.499s1.5 41.5 1.5 59.5c0 46.667 -7 83.5 -21 110.5s-38.667 40.5 -74 40.5c-26.667 0 -52 -7.66699 -76 -23s-45.667 -35.666 -65 -60.999
s-36 -54.5 -50 -87.5s-24 -66.833 -30 -101.5h311z" />
    <glyph glyph-name="tah.init" unicode="&#x637;" horiz-adv-x="768" arabic-form="initial" 
d="M0 104h122v601h132v-260c0 -22 -0.833008 -46.167 -2.5 -72.5s-4.5 -51.5 -8.5 -75.5h1c12 29.333 27.167 55.5 45.5 78.5s38.666 42.5 60.999 58.5s46.333 28.167 72 36.5s51.834 12.5 78.501 12.5c69.333 0 120.5 -21.5 153.5 -64.5s49.5 -102.167 49.5 -177.5
c0 -40 -1 -80.5 -3 -121.5s-5.66699 -80.833 -11 -119.5h-690v104zM564 104c1.33301 20 2.5 40.832 3.5 62.499s1.5 41.5 1.5 59.5c0 46.667 -7 83.5 -21 110.5s-38.667 40.5 -74 40.5c-26.667 0 -52 -7.66699 -76 -23s-45.667 -35.666 -65 -60.999s-36 -54.5 -50 -87.5
s-24 -66.833 -30 -101.5h311z" />
    <glyph glyph-name="tah.medi" unicode="&#x637;" horiz-adv-x="777" arabic-form="medial" 
d="M0 104h122v601h132v-260c0 -22 -0.833008 -46.167 -2.5 -72.5s-4.5 -51.5 -8.5 -75.5h1c12 29.333 27.167 55.5 45.5 78.5s38.666 42.5 60.999 58.5s46.333 28.167 72 36.5s51.834 12.5 78.501 12.5c69.333 0 120.5 -21.5 153.5 -64.5s49.5 -102.167 49.5 -177.5
c0 -22.667 -0.333008 -45.5 -1 -68.5s-1.66699 -45.833 -3 -68.5h92v-104h-792v104zM564 104c1.33301 20 2.5 40.832 3.5 62.499s1.5 41.5 1.5 59.5c0 46.667 -7 83.5 -21 110.5s-38.667 40.5 -74 40.5c-26.667 0 -52 -7.66699 -76 -23s-45.667 -35.666 -65 -60.999
s-36 -54.5 -50 -87.5s-24 -66.833 -30 -101.5h311z" />
    <glyph glyph-name="zah.fina" unicode="&#x638;" horiz-adv-x="777" arabic-form="final" 
d="M0 104h122v601h132v-260c0 -22 -0.833008 -46.167 -2.5 -72.5s-4.5 -51.5 -8.5 -75.5h1c12 29.333 27.167 55.5 45.5 78.5s38.666 42.5 60.999 58.5s46.333 28.167 72 36.5s51.834 12.5 78.501 12.5c69.333 0 120.5 -21.5 153.5 -64.5s49.5 -102.167 49.5 -177.5
c0 -22.667 -0.333008 -45.5 -1 -68.5s-1.66699 -45.833 -3 -68.5h92v-104h-792v104zM564 104c1.33301 20 2.5 40.832 3.5 62.499s1.5 41.5 1.5 59.5c0 46.667 -7 83.5 -21 110.5s-38.667 40.5 -74 40.5c-26.667 0 -52 -7.66699 -76 -23s-45.667 -35.666 -65 -60.999
s-36 -54.5 -50 -87.5s-24 -66.833 -30 -101.5h311zM484 553.999c-19.333 0 -35.666 6.66699 -48.999 20s-20 29.666 -20 48.999s6.66699 35.666 20 48.999s29.666 20 48.999 20s35.666 -6.66699 48.999 -20s20 -29.666 20 -48.999s-6.66699 -35.666 -20 -48.999
s-29.666 -20 -48.999 -20z" />
    <glyph glyph-name="zah.init" unicode="&#x638;" horiz-adv-x="768" arabic-form="initial" 
d="M0 104h122v601h132v-260c0 -22 -0.833008 -46.167 -2.5 -72.5s-4.5 -51.5 -8.5 -75.5h1c12 29.333 27.167 55.5 45.5 78.5s38.666 42.5 60.999 58.5s46.333 28.167 72 36.5s51.834 12.5 78.501 12.5c69.333 0 120.5 -21.5 153.5 -64.5s49.5 -102.167 49.5 -177.5
c0 -40 -1 -80.5 -3 -121.5s-5.66699 -80.833 -11 -119.5h-690v104zM564 104c1.33301 20 2.5 40.832 3.5 62.499s1.5 41.5 1.5 59.5c0 46.667 -7 83.5 -21 110.5s-38.667 40.5 -74 40.5c-26.667 0 -52 -7.66699 -76 -23s-45.667 -35.666 -65 -60.999s-36 -54.5 -50 -87.5
s-24 -66.833 -30 -101.5h311zM484 553.999c-19.333 0 -35.666 6.66699 -48.999 20s-20 29.666 -20 48.999s6.66699 35.666 20 48.999s29.666 20 48.999 20s35.666 -6.66699 48.999 -20s20 -29.666 20 -48.999s-6.66699 -35.666 -20 -48.999s-29.666 -20 -48.999 -20z" />
    <glyph glyph-name="zah.medi" unicode="&#x638;" horiz-adv-x="777" arabic-form="medial" 
d="M0 104h122v601h132v-260c0 -22 -0.833008 -46.167 -2.5 -72.5s-4.5 -51.5 -8.5 -75.5h1c12 29.333 27.167 55.5 45.5 78.5s38.666 42.5 60.999 58.5s46.333 28.167 72 36.5s51.834 12.5 78.501 12.5c69.333 0 120.5 -21.5 153.5 -64.5s49.5 -102.167 49.5 -177.5
c0 -22.667 -0.333008 -45.5 -1 -68.5s-1.66699 -45.833 -3 -68.5h92v-104h-792v104zM564 104c1.33301 20 2.5 40.832 3.5 62.499s1.5 41.5 1.5 59.5c0 46.667 -7 83.5 -21 110.5s-38.667 40.5 -74 40.5c-26.667 0 -52 -7.66699 -76 -23s-45.667 -35.666 -65 -60.999
s-36 -54.5 -50 -87.5s-24 -66.833 -30 -101.5h311zM484 553.999c-19.333 0 -35.666 6.66699 -48.999 20s-20 29.666 -20 48.999s6.66699 35.666 20 48.999s29.666 20 48.999 20s35.666 -6.66699 48.999 -20s20 -29.666 20 -48.999s-6.66699 -35.666 -20 -48.999
s-29.666 -20 -48.999 -20z" />
    <glyph glyph-name="ain.fina" unicode="&#x639;" horiz-adv-x="629" arabic-form="final" 
d="M312 -255c-50.667 0 -93.8271 4.67383 -129.494 14.0068s-64.834 22 -87.501 38s-39.334 34.667 -50.001 56s-16 44 -16 68c0 30.667 6.83301 57.167 20.5 79.5s31.334 42.166 53.001 59.499s46.167 32.833 73.5 46.5s54.666 26.5 81.999 38.5
c-30 28.667 -60.667 55.667 -92 81s-67.333 43.666 -108 54.999l11 94c20 14 41.5 27.667 64.5 41s47 25.166 72 35.499s50.5 18.666 76.5 24.999s51.333 9.5 76 9.5c37.333 0 69.333 -4.5 96 -13.5s48.5 -21 65.5 -36s29.5 -32.333 37.5 -52s12 -40.5 12 -62.5
c0 -42.667 -11 -78.834 -33 -108.501s-49 -55.5 -81 -77.5c18 -9.33301 37.167 -17 57.5 -23s42.166 -9 65.499 -9h66v-104h-81c-48 0 -89.833 7 -125.5 21s-67.834 31.667 -96.501 53l-66.5 -32.5c-21 -10.333 -39.833 -21 -56.5 -32s-29.834 -22.667 -39.501 -35
s-14.5 -25.833 -14.5 -40.5c0 -12 2.66699 -23.333 8 -34s14.333 -19.834 27 -27.501s29.5 -13.667 50.5 -18s46.833 -6.5 77.5 -6.5c19.333 0 38 0.666992 56 2s34 2.66602 48 3.99902c16.667 2 32 4.33301 46 7l8 -100l-54 -8c-16.667 -2 -35.334 -3.83301 -56.001 -5.5
s-41.667 -2.5 -63 -2.5zM191.007 329.007c32.667 -13.333 62.8311 -32 90.498 -56l83.5 -73c21.333 14 38.833 29.333 52.5 46s20.5 36.334 20.5 59.001c0 23.333 -7.83301 43.166 -23.5 59.499s-39.5 24.5 -71.5 24.5c-13.333 0 -27.166 -2 -41.499 -6
s-28.166 -9 -41.499 -15s-26 -12.5 -38 -19.5s-22.333 -13.5 -31 -19.5z" />
    <glyph glyph-name="ain.init" unicode="&#x639;" horiz-adv-x="549" arabic-form="initial" 
d="M0 104h152.999c-22 13.333 -40.5 33 -55.5 59s-22.5 56 -22.5 90c0 30.667 5.33301 60 16 88s26.834 52.5 48.501 73.5s49 37.667 82 50s71.5 18.5 115.5 18.5c16.667 0 32.5 -1 47.5 -3s28.167 -4.33301 39.5 -7c13.333 -2.66699 25.666 -5.66699 36.999 -9l-23 -105
c-8.66699 4 -18.667 7.33301 -30 10c-9.33301 2.66699 -20.333 5.16699 -33 7.5s-26.334 3.5 -41.001 3.5c-38 0 -68.5 -11.5 -91.5 -34.5s-34.5 -53.833 -34.5 -92.5c0 -21.333 4.33301 -41 13 -59s22.334 -33.667 41.001 -47s42.334 -23.833 71.001 -31.5
s62.667 -11.5 102 -11.5h78v-104h-513v104z" />
    <glyph glyph-name="ain.medi" unicode="&#x639;" horiz-adv-x="629" arabic-form="medial" 
d="M0 104l35 0.00195312c48 0 91.167 2.66699 129.5 8s72.833 13 103.5 23l-47.5 44.5c-15.667 15 -32 29 -49 42s-34.667 24.667 -53 35s-38.5 18.5 -60.5 24.5l11 94c20 14 41.5 27.667 64.5 41s47 25.166 72 35.499s50.5 18.666 76.5 24.999s51.333 9.5 76 9.5
c37.333 0 69.333 -4.5 96 -13.5s48.5 -21 65.5 -36s29.5 -32.333 37.5 -52s12 -40.5 12 -62.5c0 -34 -8.5 -67.5 -25.5 -100.5s-42.5 -63.5 -76.5 -91.5c16.667 -8 34 -14.333 52 -19s37.667 -7 59 -7h66v-104h-81c-44 -0 -82.5 5.83301 -115.5 17.5
s-63.167 26.5 -90.5 44.5c-42.667 -19.333 -91.5 -34.5 -146.5 -45.5s-116.167 -16.5 -183.5 -16.5h-27v104zM191 329.002c17.333 -7.33301 33.8311 -16.168 49.498 -26.501s31 -21.666 46 -33.999s29.833 -25.166 44.5 -38.499l45 -39c21.333 16.667 37 34.667 47 54
s15 39.333 15 60c0 23.333 -7.83301 43.166 -23.5 59.499s-39.5 24.5 -71.5 24.5c-13.333 0 -27.166 -2 -41.499 -6s-28.166 -9 -41.499 -15s-26 -12.5 -38 -19.5s-22.333 -13.5 -31 -19.5z" />
    <glyph glyph-name="ghain.fina" unicode="&#x63a;" horiz-adv-x="629" arabic-form="final" 
d="M312 -255c-50.667 0 -93.8271 4.67383 -129.494 14.0068s-64.834 22 -87.501 38s-39.334 34.667 -50.001 56s-16 44 -16 68c0 30.667 6.83301 57.167 20.5 79.5s31.334 42.166 53.001 59.499s46.167 32.833 73.5 46.5s54.666 26.5 81.999 38.5
c-30 28.667 -60.667 55.667 -92 81s-67.333 43.666 -108 54.999l11 94c20 14 41.5 27.667 64.5 41s47 25.166 72 35.499s50.5 18.666 76.5 24.999s51.333 9.5 76 9.5c37.333 0 69.333 -4.5 96 -13.5s48.5 -21 65.5 -36s29.5 -32.333 37.5 -52s12 -40.5 12 -62.5
c0 -42.667 -11 -78.834 -33 -108.501s-49 -55.5 -81 -77.5c18 -9.33301 37.167 -17 57.5 -23s42.166 -9 65.499 -9h66v-104h-81c-48 0 -89.833 7 -125.5 21s-67.834 31.667 -96.501 53l-66.5 -32.5c-21 -10.333 -39.833 -21 -56.5 -32s-29.834 -22.667 -39.501 -35
s-14.5 -25.833 -14.5 -40.5c0 -12 2.66699 -23.333 8 -34s14.333 -19.834 27 -27.501s29.5 -13.667 50.5 -18s46.833 -6.5 77.5 -6.5c19.333 0 38 0.666992 56 2s34 2.66602 48 3.99902c16.667 2 32 4.33301 46 7l8 -100l-54 -8c-16.667 -2 -35.334 -3.83301 -56.001 -5.5
s-41.667 -2.5 -63 -2.5zM191.007 329.007c32.667 -13.333 62.8311 -32 90.498 -56l83.5 -73c21.333 14 38.833 29.333 52.5 46s20.5 36.334 20.5 59.001c0 23.333 -7.83301 43.166 -23.5 59.499s-39.5 24.5 -71.5 24.5c-13.333 0 -27.166 -2 -41.499 -6
s-28.166 -9 -41.499 -15s-26 -12.5 -38 -19.5s-22.333 -13.5 -31 -19.5zM342.004 560.007c-19.333 0 -35.666 6.66699 -48.999 20s-20 29.666 -20 48.999s6.66699 35.666 20 48.999s29.666 20 48.999 20s35.666 -6.66699 48.999 -20s20 -29.666 20 -48.999
s-6.66699 -35.666 -20 -48.999s-29.666 -20 -48.999 -20z" />
    <glyph glyph-name="ghain.init" unicode="&#x63a;" horiz-adv-x="549" arabic-form="initial" 
d="M0 104h152.999c-22 13.333 -40.5 33 -55.5 59s-22.5 56 -22.5 90c0 30.667 5.33301 60 16 88s26.834 52.5 48.501 73.5s49 37.667 82 50s71.5 18.5 115.5 18.5c16.667 0 32.5 -1 47.5 -3s28.167 -4.33301 39.5 -7c13.333 -2.66699 25.666 -5.66699 36.999 -9l-23 -105
c-8.66699 4 -18.667 7.33301 -30 10c-9.33301 2.66699 -20.333 5.16699 -33 7.5s-26.334 3.5 -41.001 3.5c-38 0 -68.5 -11.5 -91.5 -34.5s-34.5 -53.833 -34.5 -92.5c0 -21.333 4.33301 -41 13 -59s22.334 -33.667 41.001 -47s42.334 -23.833 71.001 -31.5
s62.667 -11.5 102 -11.5h78v-104h-513v104zM308.999 554c-19.333 0 -35.666 6.66699 -48.999 20s-20 29.666 -20 48.999s6.66699 35.666 20 48.999s29.666 20 48.999 20s35.666 -6.66699 48.999 -20s20 -29.666 20 -48.999s-6.66699 -35.666 -20 -48.999
s-29.666 -20 -48.999 -20z" />
    <glyph glyph-name="ghain.medi" unicode="&#x63a;" horiz-adv-x="629" arabic-form="medial" 
d="M0 104l35 0.00195312c48 0 91.167 2.66699 129.5 8s72.833 13 103.5 23l-47.5 44.5c-15.667 15 -32 29 -49 42s-34.667 24.667 -53 35s-38.5 18.5 -60.5 24.5l11 94c20 14 41.5 27.667 64.5 41s47 25.166 72 35.499s50.5 18.666 76.5 24.999s51.333 9.5 76 9.5
c37.333 0 69.333 -4.5 96 -13.5s48.5 -21 65.5 -36s29.5 -32.333 37.5 -52s12 -40.5 12 -62.5c0 -34 -8.5 -67.5 -25.5 -100.5s-42.5 -63.5 -76.5 -91.5c16.667 -8 34 -14.333 52 -19s37.667 -7 59 -7h66v-104h-81c-44 -0 -82.5 5.83301 -115.5 17.5
s-63.167 26.5 -90.5 44.5c-42.667 -19.333 -91.5 -34.5 -146.5 -45.5s-116.167 -16.5 -183.5 -16.5h-27v104zM191 329.002c17.333 -7.33301 33.8311 -16.168 49.498 -26.501s31 -21.666 46 -33.999s29.833 -25.166 44.5 -38.499l45 -39c21.333 16.667 37 34.667 47 54
s15 39.333 15 60c0 23.333 -7.83301 43.166 -23.5 59.499s-39.5 24.5 -71.5 24.5c-13.333 0 -27.166 -2 -41.499 -6s-28.166 -9 -41.499 -15s-26 -12.5 -38 -19.5s-22.333 -13.5 -31 -19.5zM341.998 560c-19.333 0 -35.666 6.66699 -48.999 20s-20 29.666 -20 48.999
s6.66699 35.666 20 48.999s29.666 20 48.999 20s35.666 -6.66699 48.999 -20s20 -29.666 20 -48.999s-6.66699 -35.666 -20 -48.999s-29.666 -20 -48.999 -20z" />
    <glyph glyph-name="feh.fina" unicode="&#x641;" horiz-adv-x="941" arabic-form="final" 
d="M956 0l-538.999 0.000976562c-68 0 -125.333 6.83301 -172 20.5s-84.5 33.334 -113.5 59.001s-49.833 56.667 -62.5 93s-19 77.5 -19 123.5c0 27.333 2.5 55.166 7.5 83.499s11.167 52.833 18.5 73.5l141 23c-10.667 -23.333 -19 -50 -25 -80s-9 -58.333 -9 -85
c0 -70.667 17.5 -122.834 52.5 -156.501s92.833 -50.5 173.5 -50.5h33c-14.667 13.333 -25.667 31.333 -33 54s-11 48 -11 76c0 36 6.16699 69.167 18.5 99.5s29.666 56.666 51.999 78.999s49 39.666 80 51.999s65.5 18.5 103.5 18.5c35.333 0 67.333 -4.66699 96 -14
s53.167 -23.666 73.5 -42.999s36 -43.5 47 -72.5s16.5 -63.5 16.5 -103.5c0 -29.333 -4.83301 -57.833 -14.5 -85.5s-24.167 -49.5 -43.5 -65.5l25 2c7.33301 0.666992 15.5 1.33398 24.5 2.00098s17.833 1 26.5 1h53v-104zM752.001 243.001
c0 44 -8.66602 77.667 -25.999 101s-45 35 -83 35c-14 0 -27.833 -2.5 -41.5 -7.5s-25.834 -13 -36.501 -24s-19.167 -25 -25.5 -42s-9.5 -37.167 -9.5 -60.5c0 -94 37 -141 111 -141c32 0 58.5 11.5 79.5 34.5s31.5 57.833 31.5 104.5zM643.002 558.001
c-19.333 0 -35.666 6.66699 -48.999 20s-20 29.666 -20 48.999s6.66699 35.666 20 48.999s29.666 20 48.999 20s35.666 -6.66699 48.999 -20s20 -29.666 20 -48.999s-6.66699 -35.666 -20 -48.999s-29.666 -20 -48.999 -20z" />
    <glyph glyph-name="feh.init" unicode="&#x641;" horiz-adv-x="612" arabic-form="initial" 
d="M304 558c-19.333 0 -35.666 6.66699 -48.999 20s-20 29.666 -20 48.999s6.66699 35.666 20 48.999s29.666 20 48.999 20s35.666 -6.66699 48.999 -20s20 -29.666 20 -48.999s-6.66699 -35.666 -20 -48.999s-29.666 -20 -48.999 -20zM0 0l-0.00292969 104h57
c8.66699 0 16.334 -0.333008 23.001 -1s12.667 -1.66699 18 -3l15 -3c-18.667 13.333 -32.667 31.5 -42 54.5s-14 52.5 -14 88.5c0 32 5.33301 62.5 16 91.5s26.834 54.833 48.501 77.5s48.834 40.667 81.501 54s70.667 20 114 20c78 0 135.167 -20.833 171.5 -62.5
s54.5 -97.5 54.5 -167.5v-253h-543zM413.997 237c0 50 -9.33301 86.166 -28 108.499s-45 33.5 -79 33.5c-38 0 -67.333 -12.667 -88 -38s-31 -57.666 -31 -96.999c0 -47.333 12 -82.5 36 -105.5s62 -34.5 114 -34.5h76v133z" />
    <glyph glyph-name="feh.medi" unicode="&#x641;" horiz-adv-x="600" arabic-form="medial" 
d="M302 558c-19.333 0 -35.666 6.66699 -48.999 20s-20 29.666 -20 48.999s6.66699 35.666 20 48.999s29.666 20 48.999 20s35.666 -6.66699 48.999 -20s20 -29.666 20 -48.999s-6.66699 -35.666 -20 -48.999s-29.666 -20 -48.999 -20zM0 104l42.001 0.00195312
c7.33301 0 14.833 -0.333008 22.5 -1s14.167 -1.33398 19.5 -2.00098c6.66699 -0.666992 13 -1.33398 19 -2.00098c-30.667 32 -46 77 -46 135c0 36 6.16699 69.167 18.5 99.5s29.666 56.666 51.999 78.999s49 39.666 80 51.999s65.5 18.5 103.5 18.5
c35.333 0 67.333 -4.66699 96 -14s53.167 -23.666 73.5 -42.999s36 -43.5 47 -72.5s16.5 -63.5 16.5 -103.5c0 -29.333 -4.83301 -57.833 -14.5 -85.5s-24.167 -49.5 -43.5 -65.5l25 2c7.33301 0.666992 15.5 1.33398 24.5 2.00098s17.833 1 26.5 1h53v-104h-615v104z
M300.001 104.002c32 0 58.501 11.5 79.501 34.5s31.5 57.833 31.5 104.5c0 44 -8.66699 77.667 -26 101s-45 35 -83 35c-14 0 -27.833 -2.5 -41.5 -7.5s-25.834 -13 -36.501 -24s-19.167 -25 -25.5 -42s-9.5 -37.167 -9.5 -60.5c0 -94 37 -141 111 -141z" />
    <glyph glyph-name="qaf.fina" unicode="&#x642;" horiz-adv-x="893" arabic-form="final" 
d="M810 104l98.0039 0.00292969v-104h-98v-239l-113 -6c-32.667 -1.33301 -67.834 -2.5 -105.501 -3.5s-72.5 -1.5 -104.5 -1.5c-79.333 0 -146.833 6.16699 -202.5 18.5s-101 31.166 -136 56.499s-60.667 57.166 -77 95.499s-24.5 83.5 -24.5 135.5c0 28 2 57.167 6 87.5
s10 60.166 18 89.499l136 25c-9.33301 -32 -16.333 -64.167 -21 -96.5s-7 -63.166 -7 -92.499c0 -38.667 5.33301 -71.667 16 -99s28.667 -49.666 54 -66.999s59 -30 101 -38s94 -12 156 -12c22 0 43.333 0.166992 64 0.5s39.334 1.16602 56.001 2.49902
c19.333 0.666992 37.666 1.66699 54.999 3v141h-78c-48.667 0 -90 5.5 -124 16.5s-61.5 26.5 -82.5 46.5s-36.333 44.333 -46 73s-14.5 60.667 -14.5 96c0 32.667 5.16699 64.167 15.5 94.5s26.166 57 47.499 80s48.666 41.5 81.999 55.5s73 21 119 21
c30 0 57.667 -1.83301 83 -5.5s47.666 -7.83398 66.999 -12.501c22 -5.33301 42 -11 60 -17v-344zM681.004 361.003c-8 3.33301 -16.667 6.33203 -26 8.99902c-8.66699 2 -18.667 4 -30 6s-24 3 -38 3c-38 0 -67.5 -12.667 -88.5 -38s-31.5 -57.666 -31.5 -96.999
c0 -46 12 -80.833 36 -104.5s62 -35.5 114 -35.5h64v257zM505.004 546.002c-18.667 0 -34.334 6.5 -47.001 19.5s-19 29.167 -19 48.5c0 18.667 6.33301 34.667 19 48s28.334 20 47.001 20c19.333 0 35.333 -6.5 48 -19.5s19 -29.167 19 -48.5
c0 -18.667 -6.33301 -34.667 -19 -48s-28.667 -20 -48 -20zM671.004 546.002c-18.667 0 -34.334 6.5 -47.001 19.5s-19 29.167 -19 48.5c0 18.667 6.33301 34.667 19 48s28.334 20 47.001 20s34.334 -6.5 47.001 -19.5s19 -29.167 19 -48.5
c0 -18.667 -6.33301 -34.667 -19 -48s-28.334 -20 -47.001 -20z" />
    <glyph glyph-name="qaf.init" unicode="&#x642;" horiz-adv-x="612" arabic-form="initial" 
d="M387 546c-18.667 0 -34.334 6.5 -47.001 19.5s-19 29.167 -19 48.5c0 18.667 6.33301 34.667 19 48s28.334 20 47.001 20s34.334 -6.5 47.001 -19.5s19 -29.167 19 -48.5c0 -18.667 -6.33301 -34.667 -19 -48s-28.334 -20 -47.001 -20zM221 546
c-18.667 0 -34.334 6.5 -47.001 19.5s-19 29.167 -19 48.5c0 18.667 6.33301 34.667 19 48s28.334 20 47.001 20c19.333 0 35.333 -6.5 48 -19.5s19 -29.167 19 -48.5c0 -18.667 -6.33301 -34.667 -19 -48s-28.667 -20 -48 -20zM0 0l-0.00292969 104h57
c8.66699 0 16.334 -0.333008 23.001 -1s12.667 -1.66699 18 -3l15 -3c-18.667 13.333 -32.667 31.5 -42 54.5s-14 52.5 -14 88.5c0 32 5.33301 62.5 16 91.5s26.834 54.833 48.501 77.5s48.834 40.667 81.501 54s70.667 20 114 20c78 0 135.167 -20.833 171.5 -62.5
s54.5 -97.5 54.5 -167.5v-253h-543zM413.997 237c0 50 -9.33301 86.166 -28 108.499s-45 33.5 -79 33.5c-38 0 -67.333 -12.667 -88 -38s-31 -57.666 -31 -96.999c0 -47.333 12 -82.5 36 -105.5s62 -34.5 114 -34.5h76v133z" />
    <glyph glyph-name="qaf.medi" unicode="&#x642;" horiz-adv-x="600" arabic-form="medial" 
d="M386 546c-18.667 0 -34.334 6.5 -47.001 19.5s-19 29.167 -19 48.5c0 18.667 6.33301 34.667 19 48s28.334 20 47.001 20s34.334 -6.5 47.001 -19.5s19 -29.167 19 -48.5c0 -18.667 -6.33301 -34.667 -19 -48s-28.334 -20 -47.001 -20zM220 546
c-18.667 0 -34.334 6.5 -47.001 19.5s-19 29.167 -19 48.5c0 18.667 6.33301 34.667 19 48s28.334 20 47.001 20c19.333 0 35.333 -6.5 48 -19.5s19 -29.167 19 -48.5c0 -18.667 -6.33301 -34.667 -19 -48s-28.667 -20 -48 -20zM0 104l42.001 0.00195312
c7.33301 0 14.833 -0.333008 22.5 -1s14.167 -1.33398 19.5 -2.00098c6.66699 -0.666992 13 -1.33398 19 -2.00098c-30.667 32 -46 77 -46 135c0 36 6.16699 69.167 18.5 99.5s29.666 56.666 51.999 78.999s49 39.666 80 51.999s65.5 18.5 103.5 18.5
c35.333 0 67.333 -4.66699 96 -14s53.167 -23.666 73.5 -42.999s36 -43.5 47 -72.5s16.5 -63.5 16.5 -103.5c0 -29.333 -4.83301 -57.833 -14.5 -85.5s-24.167 -49.5 -43.5 -65.5l25 2c7.33301 0.666992 15.5 1.33398 24.5 2.00098s17.833 1 26.5 1h53v-104h-615v104z
M300.001 104.002c32 0 58.501 11.5 79.501 34.5s31.5 57.833 31.5 104.5c0 44 -8.66699 77.667 -26 101s-45 35 -83 35c-14 0 -27.833 -2.5 -41.5 -7.5s-25.834 -13 -36.501 -24s-19.167 -25 -25.5 -42s-9.5 -37.167 -9.5 -60.5c0 -94 37 -141 111 -141z" />
    <glyph glyph-name="kaf.fina" unicode="&#x643;" horiz-adv-x="857" arabic-form="final" 
d="M417 0c-68 0 -125.333 6.83301 -172 20.5s-84.5 33.334 -113.5 59.001s-49.833 56.667 -62.5 93s-19 77.5 -19 123.5c0 27.333 2.5 55.166 7.5 83.499s11.167 52.833 18.5 73.5l141 23c-10.667 -23.333 -19 -50 -25 -80s-9 -58.333 -9 -85
c0 -35.333 4.16699 -66 12.5 -92s22.166 -47.5 41.499 -64.5s44.833 -29.667 76.5 -38s70.834 -12.5 117.501 -12.5h209v601h132v-601h101v-104h-456zM302 487c10.667 0 20.8369 -0.333008 30.5039 -1s18.167 -1.66699 25.5 -3c-6 3.33301 -10.667 8.83301 -14 16.5
s-5 15.167 -5 22.5c0 14 2.66699 27.667 8 41s13.666 25.333 24.999 36s26.333 19.167 45 25.5s41 9.5 67 9.5c13.333 0 25.666 -0.666992 36.999 -2s18.666 -2.33301 21.999 -3l-12 -75c-2.66699 0.666992 -8.83398 1.66699 -18.501 3s-20.167 2 -31.5 2
c-15.333 0 -27.166 -3.16699 -35.499 -9.5s-12.5 -14.5 -12.5 -24.5c0 -11.333 5.16699 -20.5 15.5 -27.5s28.166 -10.5 53.499 -10.5h57v-75h-257v75z" />
    <glyph glyph-name="kaf.init" unicode="&#x643;" horiz-adv-x="491" arabic-form="initial" 
d="M0 104l297.002 -0.000976562c-3.33301 78 -25 139.833 -65 185.5s-100 77.834 -180 96.501v97l396 248v-131l-244 -147c33.333 -15.333 63.666 -33.833 90.999 -55.5s50.666 -48 69.999 -79s34.333 -67.167 45 -108.5s16 -89 16 -143v-67h-426v104z" />
    <glyph glyph-name="kaf.medi" unicode="&#x643;" horiz-adv-x="491" arabic-form="medial" 
d="M0 104l297.001 -0.000976562c-3.33301 78 -25 139.833 -65 185.5s-100 77.834 -180 96.501v97l396 248v-131l-244 -147c31.333 -14 60 -31.167 86 -51.5s48.667 -44.5 68 -72.5s34.666 -60.5 45.999 -97.5s18.333 -79.5 21 -127.5h81v-104h-506v104z" />
    <glyph glyph-name="lam.fina" unicode="&#x644;" horiz-adv-x="652" arabic-form="final" 
d="M441 705l131.998 0.00292969v-601h95v-104h-100c-11.333 -78.667 -39.5 -136.667 -84.5 -174s-104.5 -56 -178.5 -56c-40 0 -76 5.33301 -108 16s-59 27.5 -81 50.5s-39 52.5 -51 88.5s-18 79 -18 129c0 29.333 2 59.166 6 89.499s10 60.166 18 89.499l136 25
c-9.33301 -32 -16.333 -64.333 -21 -97s-7 -64.334 -7 -95.001c0 -38 3.83301 -69.5 11.5 -94.5s17.834 -44.833 30.501 -59.5s27.334 -24.834 44.001 -30.501s33.667 -8.5 51 -8.5c18 0 34.667 3.16699 50 9.5s28.5 17 39.5 32s19.667 34.833 26 59.5
s9.5 55.334 9.5 92.001v639z" />
    <glyph glyph-name="lam.init" unicode="&#x644;" horiz-adv-x="341" arabic-form="initial" 
d="M0 104h124v601h132v-705h-256v104z" />
    <glyph glyph-name="lam.medi" unicode="&#x644;" horiz-adv-x="341" arabic-form="medial" 
d="M0 104h124v601h132v-601h101v-104h-357v104z" />
    <glyph glyph-name="meem.fina" unicode="&#x645;" horiz-adv-x="806" arabic-form="final" 
d="M518 0c-44.667 0 -83.001 4.49902 -115.001 13.499s-58.833 21.833 -80.5 38.5s-38.167 37 -49.5 61s-18.666 51 -21.999 81h-20c-28.667 0 -47.5 -9.33301 -56.5 -28s-9.83301 -51.667 -2.5 -99l52 -327h-127l-51 317c-5.33301 35.333 -6 67.833 -2 97.5
s13.5 55.167 28.5 76.5s35.833 37.833 62.5 49.5s60 17.5 100 17.5h22c6 26 15.833 50.333 29.5 73s31.167 42.334 52.5 59.001s46.333 29.667 75 39s61 14 97 14c78 0 135.167 -20.833 171.5 -62.5s54.5 -97.5 54.5 -167.5v-149h84v-104h-303zM607.999 236.999
c0 50 -9.33301 86.166 -28 108.499s-45 33.5 -79 33.5c-38 0 -67.333 -12.667 -88 -38s-31 -57.666 -31 -96.999c0 -47.333 12 -82.5 36 -105.5s62 -34.5 114 -34.5h76v133z" />
    <glyph glyph-name="meem.init" unicode="&#x645;" horiz-adv-x="650" arabic-form="initial" 
d="M353 0c-59.333 0 -104.669 6.66895 -136.002 20.002s-54.666 32.333 -69.999 57c-12.667 -26 -30.334 -45.333 -53.001 -58s-49 -19 -79 -19h-15v104h20c24 0 42.5 8.66699 55.5 26s19.5 48.666 19.5 93.999c0 36 5.33301 69.667 16 101s26.834 58.666 48.501 81.999
s48.334 41.833 80.001 55.5s68.5 20.5 110.5 20.5c40 0 74.667 -5.5 104 -16.5s53.333 -26.833 72 -47.5s32.5 -45.667 41.5 -75s13.5 -62.333 13.5 -99v-245h-228zM451.997 230.002c0 52.667 -9.33203 90.667 -27.999 114s-46.334 35 -83.001 35
s-65.167 -13.167 -85.5 -39.5s-30.5 -60.833 -30.5 -103.5c0 -44 10.5 -77 31.5 -99s57.5 -33 109.5 -33h86v126z" />
    <glyph glyph-name="meem.medi" unicode="&#x645;" horiz-adv-x="650" arabic-form="medial" 
d="M353 0c-59.333 0 -104.669 6.66895 -136.002 20.002s-54.666 32.333 -69.999 57c-12.667 -26 -30.334 -45.333 -53.001 -58s-49 -19 -79 -19h-15v104h20c24 0 42.5 8.66699 55.5 26s19.5 48.666 19.5 93.999c0 36 5.33301 69.667 16 101s26.834 58.666 48.501 81.999
s48.334 41.833 80.001 55.5s68.5 20.5 110.5 20.5c40 0 74.667 -5.5 104 -16.5s53.333 -26.833 72 -47.5s32.5 -45.667 41.5 -75s13.5 -62.333 13.5 -99v-141h85v-104h-313zM451.997 230.002c0 52.667 -9.33203 90.667 -27.999 114s-46.334 35 -83.001 35
s-65.167 -13.167 -85.5 -39.5s-30.5 -60.833 -30.5 -103.5c0 -44 10.5 -77 31.5 -99s57.5 -33 109.5 -33h86v126z" />
    <glyph glyph-name="noon.fina" unicode="&#x646;" horiz-adv-x="677" arabic-form="final" 
d="M593 104l99.001 0.00390625v-104h-104c-10 -76.667 -37.667 -134.167 -83 -172.5s-110 -57.5 -194 -57.5c-40 0 -76.333 5.33301 -109 16s-60.5 27.5 -83.5 50.5s-40.667 52.5 -53 88.5s-18.5 79 -18.5 129c0 29.333 2 59.166 6 89.499s10 60.166 18 89.499l136 25
c-9.33301 -32 -16.333 -64.333 -21 -97s-7 -64.334 -7 -95.001c0 -38 4.16699 -69.5 12.5 -94.5s19.166 -44.833 32.499 -59.5s28.5 -24.834 45.5 -30.501s34.167 -8.5 51.5 -8.5c22 0 41.667 3.16699 59 9.5s32 16.833 44 31.5s21.167 34.167 27.5 58.5s9.5 54.5 9.5 90.5
v407h132v-366zM311.001 345.004c-19.333 0 -35.666 6.66699 -48.999 20s-20 29.666 -20 48.999s6.66699 35.666 20 48.999s29.666 20 48.999 20s35.666 -6.66699 48.999 -20s20 -29.666 20 -48.999s-6.66699 -35.666 -20 -48.999s-29.666 -20 -48.999 -20z" />
    <glyph glyph-name="noon.init" unicode="&#x646;" horiz-adv-x="346" arabic-form="initial" 
d="M0 104h140v366h132v-470h-272v104zM206 554c-19.333 0 -35.666 6.66699 -48.999 20s-20 29.666 -20 48.999s6.66699 35.666 20 48.999s29.666 20 48.999 20s35.666 -6.66699 48.999 -20s20 -29.666 20 -48.999s-6.66699 -35.666 -20 -48.999s-29.666 -20 -48.999 -20z
" />
    <glyph glyph-name="noon.medi" unicode="&#x646;" horiz-adv-x="355" arabic-form="medial" 
d="M0 104h140v366h132v-366h98v-104h-370v104zM206 554c-19.333 0 -35.666 6.66699 -48.999 20s-20 29.666 -20 48.999s6.66699 35.666 20 48.999s29.666 20 48.999 20s35.666 -6.66699 48.999 -20s20 -29.666 20 -48.999s-6.66699 -35.666 -20 -48.999
s-29.666 -20 -48.999 -20z" />
    <glyph glyph-name="heh.fina" unicode="&#x647;" horiz-adv-x="595" arabic-form="final" 
d="M306 0c-48.667 0 -90 5.50098 -124 16.501s-61.667 26.5 -83 46.5s-36.833 44.333 -46.5 73s-14.5 60.667 -14.5 96c0 32.667 5.16699 64.167 15.5 94.5s26.333 57 48 80s49.167 41.5 82.5 55.5s73 21 119 21c30 0 57.5 -1.83301 82.5 -5.5s47.167 -7.83398 66.5 -12.501
c22 -5.33301 42 -11 60 -17v-344h98v-104h-304zM384 361.001c-7.33301 3.33301 -16 6.33203 -26 8.99902c-8.66699 2 -18.834 4 -30.501 6s-24.5 3 -38.5 3c-38 0 -67.333 -12.667 -88 -38s-31 -57.666 -31 -96.999c0 -46 11.833 -80.833 35.5 -104.5
s61.834 -35.5 114.501 -35.5h64v257z" />
    <glyph glyph-name="heh.init" unicode="&#x647;" horiz-adv-x="766" arabic-form="initial" 
d="M0 0l-0.00195312 104.004h85c6.66699 0 12.834 -0.333008 18.501 -1s10.5 -1.33398 14.5 -2.00098c4.66699 -0.666992 8.66699 -1.33398 12 -2.00098c-5.33301 4.66699 -9.66602 10.667 -12.999 18c-3.33301 6 -6.33301 13 -9 21s-4 17.333 -4 28
c0 24 4.16699 46.167 12.5 66.5s20.666 38.166 36.999 53.499s36.166 27.333 59.499 36s50 13 80 13c32.667 0 60.667 -5.16699 84 -15.5s42.333 -24.833 57 -43.5s25.334 -40.5 32.001 -65.5s10 -51.833 10 -80.5v-26h105v12c0 103.333 -22.333 180.5 -67 231.5
s-116.667 76.5 -216 76.5c-34 0 -70.167 -3.5 -108.5 -10.5s-73.5 -15.833 -105.5 -26.5l-12 93c36 11.333 75.333 20.666 118 27.999s84 11 124 11c62.667 0 118.334 -7.83301 167.001 -23.5s89.667 -40 123 -73s58.833 -75.667 76.5 -128s26.5 -114.833 26.5 -187.5v-107
h-707zM368.998 131.004c0 36 -6.83398 65.167 -20.501 87.5s-35.167 33.5 -64.5 33.5c-23.333 0 -41.166 -7 -53.499 -21s-18.5 -31 -18.5 -51c0 -26 9.16699 -45.833 27.5 -59.5s40.5 -20.5 66.5 -20.5h63v31z" />
    <glyph glyph-name="heh.medi" unicode="&#x647;" horiz-adv-x="766" arabic-form="medial" 
d="M0 0l-0.00195312 104.004h85c6.66699 0 12.834 -0.333008 18.501 -1s10.5 -1.33398 14.5 -2.00098c4.66699 -0.666992 8.66699 -1.33398 12 -2.00098c-5.33301 4.66699 -9.66602 10.667 -12.999 18c-3.33301 6 -6.33301 13 -9 21s-4 17.333 -4 28
c0 24 4.16699 46.167 12.5 66.5s20.666 38.166 36.999 53.499s36.166 27.333 59.499 36s50 13 80 13c32.667 0 60.667 -5.16699 84 -15.5s42.333 -24.833 57 -43.5s25.334 -40.5 32.001 -65.5s10 -51.833 10 -80.5v-26h105v12c0 103.333 -22.333 180.5 -67 231.5
s-116.667 76.5 -216 76.5c-34 0 -70.167 -3.5 -108.5 -10.5s-73.5 -15.833 -105.5 -26.5l-12 93c36 11.333 75.333 20.666 118 27.999s84 11 124 11c62.667 0 118.334 -7.83301 167.001 -23.5s89.667 -40 123 -73s58.833 -75.667 76.5 -128s26.5 -114.833 26.5 -187.5v-3h75
v-104h-782zM368.998 131.004c0 36 -6.83398 65.167 -20.501 87.5s-35.167 33.5 -64.5 33.5c-23.333 0 -41.166 -7 -53.499 -21s-18.5 -31 -18.5 -51c0 -26 9.16699 -45.833 27.5 -59.5s40.5 -20.5 66.5 -20.5h63v31z" />
    <glyph glyph-name="waw.fina" unicode="&#x648;" horiz-adv-x="595" arabic-form="final" 
d="M199 -252c-19.333 0 -37.832 0.668945 -55.499 2.00195s-33.834 2.66602 -48.501 3.99902c-17.333 2 -33.333 4.33301 -48 7l8 108c15.333 -3.33301 31.666 -6.33301 48.999 -9c14.667 -2 31.334 -3.83301 50.001 -5.5s37.667 -2.5 57 -2.5c52 0 93.833 10.333 125.5 31
s47.5 54.667 47.5 102v15h-78c-48.667 0 -90 5.5 -124 16.5s-61.667 26.5 -83 46.5s-36.833 44.333 -46.5 73s-14.5 60.667 -14.5 96c0 32.667 5.16699 64.167 15.5 94.5s26.333 57 48 80s49.167 41.5 82.5 55.5s73 21 119 21c30 0 57.5 -1.83301 82.5 -5.5
s47.167 -7.83398 66.5 -12.501c22 -5.33301 42 -11 60 -17v-344h99v-104h-99v-2c0 -34.667 -5.83301 -67.167 -17.5 -97.5s-30 -56.833 -55 -79.5s-57.333 -40.5 -97 -53.5s-87.5 -19.5 -143.5 -19.5zM384.001 361.002c-7.33301 3.33301 -16 6.33203 -26 8.99902
c-8.66699 2 -18.834 4 -30.501 6s-24.5 3 -38.5 3c-38 0 -67.333 -12.667 -88 -38s-31 -57.666 -31 -96.999c0 -46 11.833 -80.833 35.5 -104.5s61.834 -35.5 114.501 -35.5h64v257z" />
    <glyph glyph-name="alefmaksura.fina" unicode="&#x649;" horiz-adv-x="1000" arabic-form="final" 
d="M417 0c-68 0 -125.335 6.83398 -172.002 20.501s-84.5 33.334 -113.5 59.001s-49.833 56.667 -62.5 93s-19 77.5 -19 123.5c0 27.333 2.5 55.166 7.5 83.499s11.167 52.833 18.5 73.5l141 23c-10.667 -23.333 -19 -50 -25 -80s-9 -58.333 -9 -85
c0 -35.333 4.16699 -66 12.5 -92s22.166 -47.5 41.499 -64.5s44.833 -29.667 76.5 -38s70.834 -12.5 117.501 -12.5h68v360c18 3.33301 38 6.33301 60 9c18.667 2.66699 40 5 64 7s49.667 3 77 3c44 0 80.833 -5.16699 110.5 -15.5s53.334 -25 71.001 -44
s30.334 -42.167 38.001 -69.5s11.5 -58 11.5 -92v-158h84v-104h-212v248c0 48 -8.16699 81.833 -24.5 101.5s-45.166 29.5 -86.499 29.5c-8.66699 0 -16.834 -0.333008 -24.501 -1s-14.5 -1.33398 -20.5 -2.00098c-7.33301 -1.33301 -14.333 -2.33301 -21 -3v-373h-209z" />
    <glyph glyph-name="yeh.fina" unicode="&#x64a;" horiz-adv-x="1000" arabic-form="final" 
d="M417 0c-68 0 -125.335 6.83398 -172.002 20.501s-84.5 33.334 -113.5 59.001s-49.833 56.667 -62.5 93s-19 77.5 -19 123.5c0 27.333 2.5 55.166 7.5 83.499s11.167 52.833 18.5 73.5l141 23c-10.667 -23.333 -19 -50 -25 -80s-9 -58.333 -9 -85
c0 -35.333 4.16699 -66 12.5 -92s22.166 -47.5 41.499 -64.5s44.833 -29.667 76.5 -38s70.834 -12.5 117.501 -12.5h68v360c18 3.33301 38 6.33301 60 9c18.667 2.66699 40 5 64 7s49.667 3 77 3c44 0 80.833 -5.16699 110.5 -15.5s53.334 -25 71.001 -44
s30.334 -42.167 38.001 -69.5s11.5 -58 11.5 -92v-158h84v-104h-212v248c0 48 -8.16699 81.833 -24.5 101.5s-45.166 29.5 -86.499 29.5c-8.66699 0 -16.834 -0.333008 -24.501 -1s-14.5 -1.33398 -20.5 -2.00098c-7.33301 -1.33301 -14.333 -2.33301 -21 -3v-373h-209z
M540.998 -149.999c0 -18.667 -6.33301 -34.667 -19 -48s-28.334 -20 -47.001 -20s-34.334 6.5 -47.001 19.5s-19 29.167 -19 48.5c0 18.667 6.33301 34.667 19 48s28.334 20 47.001 20s34.334 -6.5 47.001 -19.5s19 -29.167 19 -48.5zM375.998 -149.999
c0 -18.667 -6.33301 -34.667 -19 -48s-28.667 -20 -48 -20c-18.667 0 -34.334 6.5 -47.001 19.5s-19 29.167 -19 48.5c0 18.667 6.33301 34.667 19 48s28.334 20 47.001 20c19.333 0 35.333 -6.5 48 -19.5s19 -29.167 19 -48.5z" />
    <glyph glyph-name="yeh.init" unicode="&#x64a;" horiz-adv-x="394" arabic-form="initial" 
d="M317 -150c0 -18.667 -6.33301 -34.667 -19 -48s-28.334 -20 -47.001 -20s-34.334 6.5 -47.001 19.5s-19 29.167 -19 48.5c0 18.667 6.33301 34.667 19 48s28.334 20 47.001 20s34.334 -6.5 47.001 -19.5s19 -29.167 19 -48.5zM152 -150
c0 -18.667 -6.33301 -34.667 -19 -48s-28.667 -20 -48 -20c-18.667 0 -34.334 6.5 -47.001 19.5s-19 29.167 -19 48.5c0 18.667 6.33301 34.667 19 48s28.334 20 47.001 20c19.333 0 35.333 -6.5 48 -19.5s19 -29.167 19 -48.5zM0 104h188v366h132v-470h-320v104z" />
    <glyph glyph-name="yeh.medi" unicode="&#x64a;" horiz-adv-x="403" arabic-form="medial" 
d="M0 104h188v366h132v-366h99v-104h-419v104zM152 -150c0 -18.667 -6.33301 -34.667 -19 -48s-28.667 -20 -48 -20c-18.667 0 -34.334 6.5 -47.001 19.5s-19 29.167 -19 48.5c0 18.667 6.33301 34.667 19 48s28.334 20 47.001 20c19.333 0 35.333 -6.5 48 -19.5
s19 -29.167 19 -48.5zM317 -150c0 -18.667 -6.33301 -34.667 -19 -48s-28.334 -20 -47.001 -20s-34.334 6.5 -47.001 19.5s-19 29.167 -19 48.5c0 18.667 6.33301 34.667 19 48s28.334 20 47.001 20s34.334 -6.5 47.001 -19.5s19 -29.167 19 -48.5z" />
    <glyph glyph-name=".notdef" 
d="M150 150v250h50v-200h100v-50h-150zM50 50v450h450v-450h-450zM250 350v50h150v-250h-50v100h-100v50h100v50h-100zM450 100v350h-350v-350h350z" />
    <glyph glyph-name="space" unicode=" " horiz-adv-x="244" 
 />
    <glyph glyph-name="exclam" unicode="!" horiz-adv-x="321" 
d="M225 188h-110l-21 520h150zM247 65c0 -21.333 -7.5 -39.333 -22.5 -54s-33.833 -22 -56.5 -22c-22 0 -40.5 7.33301 -55.5 22s-22.5 32.667 -22.5 54s7.5 39.333 22.5 54s33.5 22 55.5 22c22.667 0 41.5 -7.33301 56.5 -22s22.5 -32.667 22.5 -54z" />
    <glyph glyph-name="quotedbl" unicode="&#x22;" horiz-adv-x="405" 
d="M344 448h-95l-16 254h128zM156 448h-96l-16 254h128z" />
    <glyph glyph-name="numbersign" unicode="#" horiz-adv-x="583" 
d="M467 411l-15 -143h80v-90h-90l-18 -178h-102l19 178h-132l-19 -178h-102l19 178h-79v90h88l16 143h-80v89h89l18 175h102l-19 -175h132l19 175h102l-19 -175h79v-89h-88zM234 411l-16 -143h132l15 143h-131z" />
    <glyph glyph-name="dollar" unicode="$" horiz-adv-x="494" 
d="M448 185c0 -22.667 -3.83398 -44.1689 -11.501 -64.502s-18.5 -38.833 -32.5 -55.5s-31.167 -30.834 -51.5 -42.501s-43.5 -20.5 -69.5 -26.5v-122h-92v115c-22.667 0.666992 -43.667 2.16699 -63 4.5s-38.666 5.16602 -57.999 8.49902l9 116
c19.333 -7.33301 40.5 -12.666 63.5 -15.999s44.167 -5 63.5 -5c32 0 57.833 5.83301 77.5 17.5s29.5 30.834 29.5 57.501c0 18.667 -6.66699 33.5 -20 44.5s-29.833 20.667 -49.5 29s-41 16.833 -64 25.5s-44.333 19.834 -64 33.501s-36.167 31.334 -49.5 53.001
s-20 49.834 -20 84.501c0 44.667 14.5 83 43.5 115s67.167 52.667 114.5 62v101h91v-94c36 -1.33301 70 -5.33301 102 -12l-8 -109c-41.333 11.333 -78.333 17 -111 17c-36.667 0 -62.5 -6.66699 -77.5 -20s-22.5 -29 -22.5 -47c0 -17.333 6.66699 -31.333 20 -42
s30 -20.334 50 -29.001s41.667 -17.5 65 -26.5s45 -20.667 65 -35s36.667 -32.333 50 -54s20 -49.5 20 -83.5z" />
    <glyph glyph-name="percent" unicode="%" horiz-adv-x="760" 
d="M722 154c0 -24.667 -4 -47.1689 -12 -67.502s-19.167 -37.666 -33.5 -51.999s-31 -25.5 -50 -33.5s-39.5 -12 -61.5 -12c-48.667 0 -85.5 13.833 -110.5 41.5s-37.5 65.834 -37.5 114.501c0 24 4 46 12 66s19 37.167 33 51.5s30.5 25.5 49.5 33.5s39.5 12 61.5 12
c46 0 82.333 -12.667 109 -38s40 -64 40 -116zM168 -22.002l-80 57l501 661l80 -58zM343 533.998c0 -24.667 -4 -47.168 -12 -67.501s-19 -37.833 -33 -52.5s-30.667 -26 -50 -34s-40 -12 -62 -12c-48.667 0 -85.5 14 -110.5 42s-37.5 66 -37.5 114c0 24 4 46 12 66
s19 37.167 33 51.5s30.667 25.5 50 33.5s40 12 62 12c46 0 82.167 -12.667 108.5 -38s39.5 -63.666 39.5 -114.999zM625 147.997c0 29.333 -4.66699 49.833 -14 61.5s-23 17.5 -41 17.5c-16 0 -29.333 -6.66699 -40 -20s-16 -32.333 -16 -57c0 -30 4.83301 -51 14.5 -63
s23.834 -18 42.501 -18c15.333 0 28.166 6.83301 38.499 20.5s15.5 33.167 15.5 58.5zM247 526.997c0 30 -4.66699 50.834 -14 62.501s-23.333 17.5 -42 17.5c-15.333 0 -28.333 -6.83301 -39 -20.5s-16 -32.834 -16 -57.501c0 -30 4.83301 -51 14.5 -63s23.5 -18 41.5 -18
c15.333 0 28.333 6.83301 39 20.5s16 33.167 16 58.5z" />
    <glyph glyph-name="ampersand" unicode="&#x26;" horiz-adv-x="797" 
d="M671 -23l-35.501 25l-36.5 26l-35 25.5c-11.333 8.33301 -21.333 16.166 -30 23.499c-32 -25.333 -69.833 -46.333 -113.5 -63s-92.5 -25 -146.5 -25c-39.333 0 -73.166 5.33301 -101.499 16s-51.833 25 -70.5 43s-32.5 39 -41.5 63s-13.5 49.333 -13.5 76
c0 44 11.667 82.167 35 114.5s54 63.5 92 93.5c-15.333 18 -28.333 34.667 -39 50s-19.5 30 -26.5 44s-12 27.833 -15 41.5s-4.5 27.834 -4.5 42.501c0 22 4.33301 43 13 63s21.334 37.5 38.001 52.5s37.5 27 62.5 36s53.5 13.5 85.5 13.5c58 0 102.167 -13.5 132.5 -40.5
s45.5 -62.5 45.5 -106.5c0 -35.333 -9.5 -68.333 -28.5 -99s-49.167 -62 -90.5 -94c24 -24 52.167 -50.333 84.5 -79s64.5 -55.667 96.5 -81v-1c20 30.667 35.333 65.167 46 103.5s15.334 77.5 14.001 117.5h127c1.33301 -52.667 -5.83398 -104 -21.501 -154
s-38.834 -95.333 -69.501 -136l68.5 -50.5l62.5 -43.5zM339.999 582c0 16.667 -4.99805 30.833 -14.998 42.5s-25.667 17.5 -47 17.5c-18.667 0 -33.834 -5.83301 -45.501 -17.5s-17.5 -26.5 -17.5 -44.5c0 -14 4.16699 -29.667 12.5 -47s23.166 -38.333 44.499 -63
c21.333 18 38 35.833 50 53.5s18 37.167 18 58.5zM440.001 146.999l-52.499 43.5l-51.5 45.5l-47.5 44c-15 14 -28.167 27 -39.5 39c-24.667 -21.333 -42.334 -41.166 -53.001 -59.499s-16 -37.166 -16 -56.499c0 -14 2.66699 -27.333 8 -40s13 -23.834 23 -33.501
s22.167 -17.334 36.5 -23.001s30.5 -8.5 48.5 -8.5c30 0 57 4.83301 81 14.5s45 21.167 63 34.5z" />
    <glyph glyph-name="quotesingle" unicode="'" horiz-adv-x="216" 
d="M156 448h-96l-16 254h128z" />
    <glyph glyph-name="parenleft" unicode="(" horiz-adv-x="306" 
d="M200 -215c-56 88 -94.667 173.33 -116 255.997s-32 164 -32 244c0 78.667 11 160.334 33 245.001s60.667 170.334 116 257.001l93 -43c-38 -67.333 -66.833 -139.333 -86.5 -216s-29.5 -156 -29.5 -238c0 -169.333 39.667 -322.666 119 -459.999z" />
    <glyph glyph-name="parenright" unicode=")" horiz-adv-x="306" 
d="M256 288c0 -79.333 -11 -161.332 -33 -245.999s-60.667 -170.334 -116 -257.001l-93 43c38 67.333 67 139.333 87 216s30 156.334 30 239.001c0 85.333 -10 166.166 -30 242.499s-49.333 148.833 -88 217.5l97 44c54.667 -88 92.667 -173.167 114 -255.5
s32 -163.5 32 -243.5z" />
    <glyph glyph-name="asterisk" unicode="*" horiz-adv-x="384" 
d="M305 453l-85 68l16 -108h-91l16 108l-86 -68l-44 78l101 40l-101 40l45 79l85 -68l-16 108h91l-16 -108l85 68l45 -78l-101 -40l101 -41z" />
    <glyph glyph-name="plus" unicode="+" 
d="M335 244v-186h-121v186h-175v107h175v185h121v-185h176v-107h-176z" />
    <glyph glyph-name="comma" unicode="," horiz-adv-x="258" 
d="M128 149c23.333 0 42.667 -9.16504 58 -27.498s23 -42.5 23 -72.5s-9.83301 -64.333 -29.5 -103s-52.834 -78.334 -99.501 -119.001l-53 47c34.667 36.667 54.167 66.667 58.5 90s-1.5 44.666 -17.5 63.999c-9.33301 10.667 -14.666 23 -15.999 37s0.666992 27.333 6 40
s14 23.167 26 31.5s26.667 12.5 44 12.5z" />
    <glyph glyph-name="hyphen" unicode="-" horiz-adv-x="334" 
d="M44 226v103h246v-103h-246z" />
    <glyph glyph-name="hyphen" unicode="&#xad;" horiz-adv-x="334" 
d="M44 226v103h246v-103h-246z" />
    <glyph glyph-name="period" unicode="." horiz-adv-x="258" 
d="M211 71c0 -22.667 -8 -42 -24 -58s-35.333 -24 -58 -24s-42 8 -58 24s-24 35.333 -24 58c0 22 8 41 24 57s35.333 24 58 24s42 -8 58 -24s24 -35 24 -57z" />
    <glyph glyph-name="slash" unicode="/" horiz-adv-x="463" 
d="M115 -161h-126l350 918h126z" />
    <glyph glyph-name="zero" unicode="0" horiz-adv-x="589" 
d="M553 345c0 -60 -7.16699 -112.168 -21.5 -156.501s-33.833 -81.166 -58.5 -110.499s-53 -51.166 -85 -65.499s-66 -21.5 -102 -21.5c-86 0 -149.167 28.833 -189.5 86.5s-60.5 141.834 -60.5 252.501c0 60 7.16699 112.167 21.5 156.5s33.833 81.166 58.5 110.499
s53 51.166 85 65.499s66 21.5 102 21.5c86 0 149.167 -29 189.5 -87s60.5 -142 60.5 -252zM417 335.999c0 84.667 -10 146.001 -30 184.001s-50.333 57 -91 57c-18 0 -34.5 -4.16699 -49.5 -12.5s-28 -22 -39 -41s-19.667 -43.667 -26 -74s-9.5 -67.5 -9.5 -111.5
c0 -84 10 -145 30 -183s50.333 -57 91 -57c18 0 34.5 4.16699 49.5 12.5s28 22 39 41s19.667 43.667 26 74s9.5 67.166 9.5 110.499z" />
    <glyph glyph-name="one" unicode="1" horiz-adv-x="359" 
d="M154 0v542l-116 -46l-19 122l166 57h101v-675h-132z" />
    <glyph glyph-name="two" unicode="2" horiz-adv-x="498" 
d="M50 0l-0.00292969 108.002l101 114c29.333 32 53.5 60.667 72.5 86s33.833 48 44.5 68s18 37.833 22 53.5s6 30.5 6 44.5c0 26.667 -8 49 -24 67s-40.333 27 -73 27c-21.333 0 -43.166 -3.66699 -65.499 -11s-42.166 -16.333 -59.499 -27l-19 116
c22.667 11.333 48.667 20.666 78 27.999s63 11 101 11c34 0 63.833 -5 89.5 -15s47 -23.5 64 -40.5s29.667 -37 38 -60s12.5 -47.5 12.5 -73.5c0 -44 -12.167 -90.333 -36.5 -139s-65.166 -104.334 -122.499 -167.001l-60 -70v-1c35.333 2 72.5 3.16699 111.5 3.5
s81.5 0.5 127.5 0.5v-123h-408z" />
    <glyph glyph-name="three" unicode="3" horiz-adv-x="473" 
d="M429 210c0 -32.667 -6.83105 -62.5 -20.498 -89.5s-32.5 -50.167 -56.5 -69.5s-52.833 -34.333 -86.5 -45s-70.5 -16 -110.5 -16c-20.667 0 -41.167 1.16699 -61.5 3.5s-37.5 5.5 -51.5 9.5l14 112c13.333 -5.33301 28.833 -9 46.5 -11s36.167 -3 55.5 -3
c42 0 74.667 9.5 98 28.5s35 43.167 35 72.5c0 27.333 -11.333 50 -34 68s-59 27 -109 27c-14.667 0 -27.667 -0.5 -39 -1.5s-21.666 -2.16699 -30.999 -3.5v103c36 -1.33301 66.333 0.5 91 5.5s44.5 12.167 59.5 21.5s25.833 20.5 32.5 33.5s10 26.833 10 41.5
c0 23.333 -7.83301 42.5 -23.5 57.5s-39.5 22.5 -71.5 22.5c-19.333 0 -38.333 -2.5 -57 -7.5s-36.667 -11.833 -54 -20.5l-10 107c21.333 8.66699 45.5 15.667 72.5 21s54.5 8 82.5 8c32 0 60.333 -4 85 -12s45.167 -19.333 61.5 -34s28.666 -31.834 36.999 -51.501
s12.5 -41.167 12.5 -64.5c0 -37.333 -9.83301 -69.166 -29.5 -95.499s-45.834 -45.5 -78.501 -57.5l-1 -2c41.333 -10 73.666 -29.167 96.999 -57.5s35 -61.833 35 -100.5z" />
    <glyph glyph-name="four" unicode="4" horiz-adv-x="554" 
d="M435 148v-148h-126v148h-283l-9 102l246 425h172v-410h101v-117h-101zM311 558h-1.00195l-172 -297c10.667 0.666992 24.334 1.16699 41.001 1.5s33.334 0.5 50.001 0.5h47.5h34.5v295z" />
    <glyph glyph-name="five" unicode="5" horiz-adv-x="461" 
d="M429 229c0 -36 -6.99902 -68.667 -20.999 -98s-33.667 -54.166 -59 -74.499s-55.5 -36.166 -90.5 -47.499s-73.5 -17 -115.5 -17c-16.667 0 -34.167 0.833008 -52.5 2.5s-34.166 4.16699 -47.499 7.5l13 114c12.667 -4.66699 27.167 -8 43.5 -10s33.166 -3 50.499 -3
c46 0 81.5 10.333 106.5 31s37.5 48 37.5 82c0 33.333 -13.333 58.666 -40 75.999s-68.334 26 -125.001 26c-11.333 0 -22.5 -0.333008 -33.5 -1s-21.167 -1.66699 -30.5 -3v361h333v-122l-213 1v-134c78.667 0.666992 139 -15.833 181 -49.5s63 -80.834 63 -141.501z" />
    <glyph glyph-name="six" unicode="6" horiz-adv-x="578" 
d="M541 231c0 -36 -6.16895 -68.9961 -18.502 -98.9961s-29.666 -55.5 -51.999 -76.5s-49.166 -37.333 -80.499 -49s-65.666 -17.5 -102.999 -17.5c-42 0 -77.833 7.83301 -107.5 23.5s-54 37 -73 64s-32.833 58.333 -41.5 94s-13 73.167 -13 112.5c0 67.333 9 126 27 176
s42.667 91.667 74 125s68.166 58.333 110.499 75s87.833 25 136.5 25c16.667 0 31.667 -0.333008 45 -1s24.666 -1.66699 33.999 -3v-115c-14 3.33301 -27.5 5.66602 -40.5 6.99902s-26.5 2 -40.5 2c-50 0 -92.5 -12.833 -127.5 -38.5s-59.833 -66.834 -74.5 -123.501
c-1.33301 -6.66699 -2.66602 -13 -3.99902 -19s-2.66602 -11 -3.99902 -15l1 -1c15.333 15.333 35.166 28.333 59.499 39s52.833 16 85.5 16c32 0 60.833 -4.83301 86.5 -14.5s47.5 -23.334 65.5 -41.001s31.667 -38.834 41 -63.501s14 -52 14 -82zM405.998 213.004
c0 34.667 -8.83105 62.1689 -26.498 82.502s-43.834 30.5 -78.501 30.5c-16.667 0 -31.667 -2.83301 -45 -8.5s-24.833 -13.334 -34.5 -23.001s-17 -20.834 -22 -33.501s-7.5 -26 -7.5 -40c0 -38 9.16699 -68 27.5 -90s44.5 -33 78.5 -33c33.333 0 59.666 10.667 78.999 32
s29 49 29 83z" />
    <glyph glyph-name="seven" unicode="7" horiz-adv-x="459" 
d="M435 565c-19.333 -42 -37.833 -86.835 -55.5 -134.502s-34.167 -96.167 -49.5 -145.5s-29.5 -98.166 -42.5 -146.499s-23.833 -94.5 -32.5 -138.5h-143c10.667 48.667 23.5 99.167 38.5 151.5s30.5 103 46.5 152s32.167 95 48.5 138s31.5 79.833 45.5 110.5
c-9.33301 0 -24.833 -0.166992 -46.5 -0.5s-45.667 -0.666016 -72 -0.999023s-53 -0.5 -80 -0.5h-70.5v125h413v-110v0z" />
    <glyph glyph-name="eight" unicode="8" horiz-adv-x="557" 
d="M514 183c0 -32 -6.66895 -60.167 -20.002 -84.5s-31.333 -44.666 -54 -60.999s-49 -28.666 -79 -36.999s-61.333 -12.5 -94 -12.5c-71.333 0 -126.666 16.167 -165.999 48.5s-59 75.5 -59 129.5c0 19.333 3.33301 37.333 10 54s15.5 32.167 26.5 46.5
s23.833 27.666 38.5 39.999s30.334 23.5 47.001 33.5c-34.667 19.333 -61.834 42 -81.501 68s-29.5 56 -29.5 90c0 29.333 5.83301 55.833 17.5 79.5s28 43.667 49 60s45.833 29 74.5 38s60 13.5 94 13.5c32 0 61.167 -4.16699 87.5 -12.5s48.666 -20 66.999 -35
s32.5 -32.5 42.5 -52.5s15 -42 15 -66c0 -19.333 -3.16699 -36.833 -9.5 -52.5s-14.666 -30.334 -24.999 -44.001s-22.5 -26.167 -36.5 -37.5s-28.667 -22.333 -44 -33c36.667 -20.667 67.334 -44.667 92.001 -72s37 -61 37 -101zM368.998 512
c0 19.333 -7.33301 36.5 -22 51.5s-37.667 22.5 -69 22.5c-30.667 0 -54.167 -7 -70.5 -21s-24.5 -32 -24.5 -54s8.66699 -40.833 26 -56.5s41.333 -31.5 72 -47.5c30 18.667 52.167 36 66.5 52s21.5 33.667 21.5 53zM379.998 174c0 13.333 -2.99902 25.332 -8.99902 35.999
s-14.333 20.5 -25 29.5s-22.834 17.5 -36.501 25.5l-42.5 24c-25.333 -16 -46.833 -32.5 -64.5 -49.5s-26.5 -37.5 -26.5 -61.5c0 -25.333 9 -45.666 27 -60.999s43.333 -23 76 -23c28.667 0 52.667 7 72 21s29 33.667 29 59z" />
    <glyph glyph-name="nine" unicode="9" horiz-adv-x="581" 
d="M530 393c0 -128 -29.9971 -227.169 -89.9971 -297.502s-148 -105.5 -264 -105.5c-15.333 0 -30.666 0.5 -45.999 1.5s-30 2.83301 -44 5.5v116c17.333 -5.33301 34.666 -8.83301 51.999 -10.5s33.333 -2.5 48 -2.5c98.667 0 160.667 47.667 186 143
c3.33301 8.66699 5.83301 17.167 7.5 25.5s3.5 15.833 5.5 22.5l-1 1c-12.667 -15.333 -30.834 -28.5 -54.501 -39.5s-51.834 -16.5 -84.501 -16.5c-31.333 0 -59.5 4.83301 -84.5 14.5s-46.333 23.5 -64 41.5s-31.167 39.833 -40.5 65.5s-14 54.167 -14 85.5
c0 34.667 6 66.834 18 96.501s29 55.334 51 77.001s48.167 38.667 78.5 51s63.5 18.5 99.5 18.5c44 0 81.167 -8 111.5 -24s55.166 -37.5 74.499 -64.5s33.333 -58.167 42 -93.5s13 -72.333 13 -111zM386.003 450.998c0 40 -9.33301 70.833 -28 92.5s-44 32.5 -76 32.5
s-57.833 -10.5 -77.5 -31.5s-29.5 -49.167 -29.5 -84.5c0 -34 8.83301 -61.167 26.5 -81.5s43.5 -30.5 77.5 -30.5c16.667 0 31.5 3 44.5 9s24.167 14 33.5 24s16.5 21.167 21.5 33.5s7.5 24.5 7.5 36.5z" />
    <glyph glyph-name="colon" unicode=":" horiz-adv-x="298" 
d="M242 354c0 -22.667 -7.83301 -42 -23.5 -58s-34.834 -24 -57.501 -24s-42 8 -58 24s-24 35.333 -24 58c0 22 8 41 24 57s35.333 24 58 24s41.834 -8 57.501 -24s23.5 -35 23.5 -57zM242 71c0 -22.667 -7.83301 -42 -23.5 -58s-34.834 -24 -57.501 -24s-42 8 -58 24
s-24 35.333 -24 58c0 22 8 41 24 57s35.333 24 58 24s41.834 -8 57.501 -24s23.5 -35 23.5 -57z" />
    <glyph glyph-name="semicolon" unicode=";" horiz-adv-x="298" 
d="M242 354c0 -22.667 -7.83301 -42 -23.5 -58s-34.834 -24 -57.501 -24s-42 8 -58 24s-24 35.333 -24 58c0 22 8 41 24 57s35.333 24 58 24s41.834 -8 57.501 -24s23.5 -35 23.5 -57zM160 149c24 0 43.667 -9.16406 59 -27.4971s23 -42.5 23 -72.5
s-9.83301 -64.333 -29.5 -103s-52.834 -78.334 -99.501 -119.001l-53 47c16.667 18 29.667 34.5 39 49.5s15.5 28.667 18.5 41s3 23.666 0 33.999s-8.5 20.166 -16.5 29.499c-9.33301 10.667 -14.666 23 -15.999 37s0.666992 27.333 6 40s13.833 23.167 25.5 31.5
s26.167 12.5 43.5 12.5z" />
    <glyph glyph-name="semicolon" unicode="&#x37e;" horiz-adv-x="298" 
d="M242 354c0 -22.667 -7.83301 -42 -23.5 -58s-34.834 -24 -57.501 -24s-42 8 -58 24s-24 35.333 -24 58c0 22 8 41 24 57s35.333 24 58 24s41.834 -8 57.501 -24s23.5 -35 23.5 -57zM160 149c24 0 43.667 -9.16406 59 -27.4971s23 -42.5 23 -72.5
s-9.83301 -64.333 -29.5 -103s-52.834 -78.334 -99.501 -119.001l-53 47c16.667 18 29.667 34.5 39 49.5s15.5 28.667 18.5 41s3 23.666 0 33.999s-8.5 20.166 -16.5 29.499c-9.33301 10.667 -14.666 23 -15.999 37s0.666992 27.333 6 40s13.833 23.167 25.5 31.5
s26.167 12.5 43.5 12.5z" />
    <glyph glyph-name="less" unicode="&#x3c;" 
d="M382 6l-319 295l318 294l84 -84l-237 -209l238 -209z" />
    <glyph glyph-name="equal" unicode="=" 
d="M53 341v103h444v-103h-444zM53 150v103h444v-103h-444z" />
    <glyph glyph-name="greater" unicode="&#x3e;" 
d="M169 6l-84 84l237 209l-238 209l84 87l319 -295z" />
    <glyph glyph-name="question" unicode="?" horiz-adv-x="451" 
d="M404 512c0 -28 -4.83398 -51.667 -14.501 -71s-21.334 -36.666 -35.001 -51.999s-28.167 -29.333 -43.5 -42s-28.5 -26.5 -39.5 -41.5s-18.667 -31.667 -23 -50s-2.5 -40.833 5.5 -67.5h-125c-10.667 31.333 -14.667 58.5 -12 81.5s9 43.167 19 60.5
s22.167 32.833 36.5 46.5l42 39c13.667 12.333 25.334 25.166 35.001 38.499s14.5 28.333 14.5 45c0 30 -17.333 54 -52 72s-83 28 -145 30l16 116c54.667 -1.33301 102.167 -7.83301 142.5 -19.5s73.833 -27 100.5 -46s46.334 -40.5 59.001 -64.5s19 -49 19 -75z
M270.999 65c0 -21.333 -7.5 -39.333 -22.5 -54s-33.5 -22 -55.5 -22s-40.5 7.33301 -55.5 22s-22.5 32.667 -22.5 54s7.5 39.333 22.5 54s33.5 22 55.5 22s40.5 -7.33301 55.5 -22s22.5 -32.667 22.5 -54z" />
    <glyph glyph-name="at" unicode="@" horiz-adv-x="970" 
d="M881 413c0 -46.667 -6.16406 -87.6689 -18.4971 -123.002s-29.166 -64.833 -50.499 -88.5s-46.666 -41.5 -75.999 -53.5s-61.333 -18 -96 -18c-37.333 0 -64.5 9.33301 -81.5 28s-24.833 41.334 -23.5 68.001h-3c-5.33301 -10.667 -12.5 -21.667 -21.5 -33
s-19.667 -21.666 -32 -30.999s-25.833 -17 -40.5 -23s-30.334 -9 -47.001 -9c-32 0 -56.833 11.833 -74.5 35.5s-26.5 59.5 -26.5 107.5c0 36.667 4.66699 71.334 14 104.001s23.666 61 42.999 85s43.666 43 72.999 57s64 21 104 21c23.333 0 45.833 -2 67.5 -6
s39.834 -8.66699 54.501 -14l-35 -198c-6 -34 -5.33301 -57.833 2 -71.5s21.333 -20.5 42 -20.5c15.333 0 29.833 3.33301 43.5 10s25.5 17.334 35.5 32.001s17.833 33 23.5 55s8.5 48.667 8.5 80c0 28.667 -4.5 56.667 -13.5 84s-23.333 51.666 -43 72.999
s-45.334 38.333 -77.001 51s-70.5 19 -116.5 19c-44.667 0 -86.334 -8.16699 -125.001 -24.5s-72.5 -39.5 -101.5 -69.5s-51.833 -66 -68.5 -108s-25 -88.333 -25 -139c0 -84 23 -150 69 -198s117.667 -72 215 -72c58.667 0 117 9.66699 175 29l19 -100
c-33.333 -11.333 -68.833 -19.833 -106.5 -25.5s-72.167 -8.5 -103.5 -8.5c-62.667 0 -117.834 8.5 -165.501 25.5s-87.667 41.333 -120 73s-56.833 69.667 -73.5 114s-25 94.166 -25 149.499c0 66 11.5 127 34.5 183s54.5 104.167 94.5 144.5s86.833 71.833 140.5 94.5
s111.5 34 173.5 34c59.333 0 111.333 -8.5 156 -25.5s82 -40.167 112 -69.5s52.5 -63.5 67.5 -102.5s22.5 -80.833 22.5 -125.5zM538.003 448.998c-13.333 4 -28.002 6.00098 -44.002 6.00098c-17.333 0 -32.666 -5.33301 -45.999 -16s-24.333 -24 -33 -40
s-15.167 -33.333 -19.5 -52s-6.5 -36.334 -6.5 -53.001c0 -43.333 10.667 -65 32 -65c18.667 0 38.334 14 59.001 42s37 72.667 49 134z" />
    <glyph glyph-name="A" unicode="A" horiz-adv-x="626" 
d="M481 0l-46 138h-256l-47 -138h-131l233 675h153l238 -675h-144zM333 442l-15 47.5c-4.66699 15 -8.66699 30.167 -12 45.5h-1l-12 -45.5c-4 -15 -8.66699 -30.833 -14 -47.5l-69 -201h192z" />
    <glyph glyph-name="B" unicode="B" horiz-adv-x="580" 
d="M539 208c0 -26 -4.83105 -51.5 -14.498 -76.5s-25.334 -47.5 -47.001 -67.5s-49.834 -36 -84.501 -48s-76.667 -18 -126 -18c-22.667 0 -50.5 0.333008 -83.5 1s-70.833 1 -113.5 1v674c28.667 1.33301 62.834 2.5 102.501 3.5s80.167 1.5 121.5 1.5
c72.667 0 128.5 -14.333 167.5 -43s58.5 -70 58.5 -124c0 -34 -8.83301 -64.333 -26.5 -91s-42.834 -46.667 -75.501 -60v-2c36 -7.33301 65.167 -25 87.5 -53s33.5 -60.667 33.5 -98zM382.002 491c0 25.333 -8.16797 45.667 -24.501 61s-44.5 23 -84.5 23
c-14 0 -27 -0.166992 -39 -0.5s-23.333 -0.833008 -34 -1.5v-177c8 -0.666992 16.167 -1 24.5 -1h28.5c44.667 0 77.334 8.5 98.001 25.5s31 40.5 31 70.5zM400.001 204.001c0 32 -12.667 55.668 -38 71.001s-60.333 23 -105 23h-26.5c-13 0 -23.167 -0.333008 -30.5 -1
v-191c8 -0.666992 19 -1.33398 33 -2.00098s27 -1 39 -1c42.667 0 74.667 9.33301 96 28s32 43 32 73z" />
    <glyph glyph-name="C" unicode="C" horiz-adv-x="566" 
d="M526 23c-25.333 -9.33301 -53 -16.834 -83 -22.501s-61 -8.5 -93 -8.5c-59.333 0 -108.833 9 -148.5 27s-71.667 42 -96 72s-41.666 64.5 -51.999 103.5s-15.5 79.5 -15.5 121.5c0 53.333 7 102.333 21 147s35 83.167 63 115.5s63.167 57.5 105.5 75.5
s91.833 27 148.5 27c24 0 48.5 -1.66699 73.5 -5s48.5 -8.33301 70.5 -15l-18 -120c-41.333 16 -85.333 24 -132 24c-32 0 -59.833 -5.66699 -83.5 -17s-43.334 -27 -59.001 -47s-27.334 -44 -35.001 -72s-11.5 -58.333 -11.5 -91c0 -73.333 15.667 -129.666 47 -168.999
s81.333 -59 150 -59c20.667 0 42.834 2.5 66.501 7.5s44.167 11.833 61.5 20.5l20 -115v0z" />
    <glyph glyph-name="D" unicode="D" horiz-adv-x="667" 
d="M630 349c0 -58 -8.99805 -108.999 -26.998 -152.999s-43.5 -80.833 -76.5 -110.5s-72.333 -52 -118 -67s-95.834 -22.5 -150.501 -22.5c-35.333 0 -68.333 0.5 -99 1.5s-60.334 2.16699 -89.001 3.5v673c26.667 1.33301 59.167 2.5 97.5 3.5s78.5 1.5 120.5 1.5
c52 0 99.167 -6 141.5 -18s78.333 -31.333 108 -58s52.5 -60.834 68.5 -102.501s24 -92.167 24 -151.5zM490.002 339.001c0 36 -3.8291 68.332 -11.4961 96.999s-19.834 53 -36.501 73s-38.334 35.167 -65.001 45.5s-59.334 15.5 -98.001 15.5
c-15.333 0 -29.666 -0.166992 -42.999 -0.5s-25.333 -1.16602 -36 -2.49902v-455c9.33301 -1.33301 20.166 -2.5 32.499 -3.5s25.166 -1.5 38.499 -1.5c32 0 61.333 4.5 88 13.5s49.667 23 69 42s34.5 43.167 45.5 72.5s16.5 64 16.5 104z" />
    <glyph glyph-name="E" unicode="E" horiz-adv-x="493" 
d="M70 0v675h367v-109h-237v-166h225v-106h-225v-182h237v-112h-367z" />
    <glyph glyph-name="F" unicode="F" horiz-adv-x="465" 
d="M200 564v-173h218v-107h-218v-284h-130v675h361v-111h-231z" />
    <glyph glyph-name="G" unicode="G" horiz-adv-x="675" 
d="M608 32c-34 -13.333 -70.8271 -23.6641 -110.494 -30.9971s-79.834 -11 -120.501 -11c-55.333 0 -104.333 7.66699 -147 23s-78.334 37.166 -107.001 65.499s-50.334 62.666 -65.001 102.999s-22 85.5 -22 135.5c0 54.667 8.16699 104.667 24.5 150
s40.166 84.166 71.499 116.499s70.333 57.333 117 75s100.667 26.5 162 26.5c35.333 0 69.166 -2.66699 101.499 -8s62.166 -12.333 89.499 -21l-26 -119c-52 21.333 -109.667 32 -173 32c-40 0 -74.333 -6.16699 -103 -18.5s-52 -29.333 -70 -51s-31.333 -46.667 -40 -75
s-13 -58.5 -13 -90.5c0 -72 18.167 -127.833 54.5 -167.5s89.833 -59.5 160.5 -59.5c31.333 0 60 4 86 12v235h130v-322v0z" />
    <glyph glyph-name="H" unicode="H" horiz-adv-x="686" 
d="M486 0v293h-286v-293h-130v675h130v-270h286v270h131v-675h-131z" />
    <glyph glyph-name="I" unicode="I" horiz-adv-x="270" 
d="M70 0v675h130v-675h-130z" />
    <glyph glyph-name="J" unicode="J" horiz-adv-x="335" 
d="M266 189c0 -28 -3.00195 -54.001 -9.00195 -78.001s-16.167 -44.833 -30.5 -62.5s-33.166 -31.667 -56.499 -42s-52 -15.5 -86 -15.5c-18 0 -33.667 0.833008 -47 2.5s-25.666 3.5 -36.999 5.5v112c8 -3.33301 17.333 -5.83301 28 -7.5s22 -2.5 34 -2.5
c23.333 0 41.5 6.33301 54.5 19s19.5 37.334 19.5 74.001v481h130v-486v0z" />
    <glyph glyph-name="K" unicode="K" horiz-adv-x="597" 
d="M417 0l-217 324v-324h-130v675h130v-306l218 306h160l-248 -326l258 -349h-171z" />
    <glyph glyph-name="L" unicode="L" horiz-adv-x="429" 
d="M70 0v675h130v-561h219v-114h-349z" />
    <glyph glyph-name="M" unicode="M" horiz-adv-x="881" 
d="M715 0l-49.002 326.001c-4.66699 30.667 -8.66699 60.667 -12 90l-9 79h-2l-16 -72c-6 -26.667 -13.333 -54 -22 -82l-109 -341h-126l-104 317c-9.33301 29.333 -17.666 59.333 -24.999 90s-13.666 60 -18.999 88h-2c-2.66699 -30 -5.5 -60 -8.5 -90
s-6.16699 -60 -9.5 -90l-39 -315h-131l103 675h153l114 -349c5.33301 -18 11.5 -40.333 18.5 -67s13.167 -51.667 18.5 -75h2l18.5 74.5c6.33301 24.333 12.5 46.166 18.5 65.499l115 351h152l105 -675h-135z" />
    <glyph glyph-name="N" unicode="N" horiz-adv-x="699" 
d="M457 0l-208.999 371.998l-34 68.5c-10 21 -18.667 42.167 -26 63.5c0.666992 -14.667 1.5 -35 2.5 -61s1.83301 -54.167 2.5 -84.5s1.16699 -61 1.5 -92s0.5 -58.833 0.5 -83.5v-183h-125v675h172l204 -363c12 -21.333 23.5 -43.666 34.5 -66.999s21.167 -46 30.5 -68
c-1.33301 16.667 -2.33301 38.834 -3 66.501s-1.33398 57 -2.00098 88s-1.16699 61.833 -1.5 92.5s-0.5 57.667 -0.5 81v170h125v-675h-172z" />
    <glyph glyph-name="O" unicode="O" horiz-adv-x="703" 
d="M670 348c0 -56 -8.66699 -106.167 -26 -150.5s-41 -82 -71 -113s-65 -54.667 -105 -71s-82.667 -24.5 -128 -24.5c-51.333 0 -96.333 7.83301 -135 23.5s-70.667 38.167 -96 67.5s-44.333 64.833 -57 106.5s-19 88.5 -19 140.5c0 56 8.66699 106.167 26 150.5
s41 82 71 113s65 54.667 105 71s82.667 24.5 128 24.5c51.333 0 96.166 -7.83301 134.499 -23.5s70.333 -38.167 96 -67.5s44.834 -64.833 57.501 -106.5s19 -88.5 19 -140.5zM531 333c0 36 -3.66602 68.501 -10.999 97.501s-18.333 53.667 -33 74
s-33.334 36.166 -56.001 47.499s-49 17 -79 17c-25.333 0 -49 -5 -71 -15s-41 -24.5 -57 -43.5s-28.667 -42.667 -38 -71s-14 -60.5 -14 -96.5c0 -72 14.667 -129.333 44 -172s74.333 -64 135 -64c25.333 0 49 5 71 15s41 24.5 57 43.5s28.667 42.5 38 70.5s14 60.333 14 97
z" />
    <glyph glyph-name="P" unicode="P" horiz-adv-x="538" 
d="M515 471c0 -34 -5.83301 -65.6699 -17.5 -95.0029s-28.834 -54.666 -51.501 -75.999s-50.667 -38.166 -84 -50.499s-71.666 -18.5 -114.999 -18.5h-18c-5.33301 0 -10.333 0.333008 -15 1c-5.33301 0 -10 0.333008 -14 1v-233h-130v675
c18 0.666992 37.333 1.33398 58 2.00098c17.333 0.666992 37.5 1.16699 60.5 1.5s46.5 0.5 70.5 0.5c83.333 0 146.833 -18 190.5 -54s65.5 -87.333 65.5 -154zM380 457.997c0 36.667 -10.165 64.833 -30.498 84.5s-53.5 29.5 -99.5 29.5
c-6.66699 0 -12.834 -0.166992 -18.501 -0.5s-10.834 -0.5 -15.501 -0.5h-16v-227c4.66699 -1.33301 10 -2.33301 16 -3c5.33301 -0.666992 11.333 -1.16699 18 -1.5s13.667 -0.5 21 -0.5c42 0 73.333 10.5 94 31.5s31 50.167 31 87.5z" />
    <glyph glyph-name="Q" unicode="Q" horiz-adv-x="703" 
d="M702 -66c-43.333 -6 -78.833 -6.66797 -106.5 -2.00098s-52.667 11.334 -75 20.001l-67.5 25c-22.667 8 -50.667 12 -84 12h-29c-51.333 0 -96.333 7.83301 -135 23.5s-70.667 38.167 -96 67.5s-44.333 64.833 -57 106.5s-19 88.5 -19 140.5
c0 56 8.66699 106.167 26 150.5s41 82 71 113s65 54.667 105 71s82.667 24.5 128 24.5c51.333 0 96.166 -7.83301 134.499 -23.5s70.333 -38.167 96 -67.5s44.834 -64.833 57.501 -106.5s19 -88.5 19 -140.5c0 -68 -12.333 -126.667 -37 -176s-58.667 -85 -102 -107
c14 0 27 -1.5 39 -4.5l37 -9.5c12.667 -3.33301 26.5 -5.83301 41.5 -7.5s32.833 -1.16699 53.5 1.5v-111zM531 332.999c0 36 -3.66602 68.501 -10.999 97.501s-18.333 53.667 -33 74s-33.334 36.166 -56.001 47.499s-49 17 -79 17c-25.333 0 -49 -5 -71 -15
s-41 -24.5 -57 -43.5s-28.667 -42.667 -38 -71s-14 -60.5 -14 -96.5c0 -72 14.667 -129.333 44 -172s74.333 -64 135 -64c25.333 0 49 5 71 15s41 24.5 57 43.5s28.667 42.667 38 71s14 60.5 14 96.5z" />
    <glyph glyph-name="R" unicode="R" horiz-adv-x="567" 
d="M393 0l-182.002 279h-11v-279h-130v675c26.667 1.33301 55.834 2.33301 87.501 3s67.167 1 106.5 1c37.333 0 71 -3.5 101 -10.5s55.667 -18 77 -33s37.833 -34.5 49.5 -58.5s17.5 -53.333 17.5 -88c0 -25.333 -4.16699 -48.5 -12.5 -69.5s-20 -39.667 -35 -56
s-32.667 -29.833 -53 -40.5s-42.166 -18 -65.499 -22l28 -37.5c9.33301 -12.333 18 -24.5 26 -36.5l157 -227h-161zM372.998 476c0 64.667 -40.666 96.999 -121.999 96.999c-9.33301 0 -18.5 -0.166992 -27.5 -0.5s-16.833 -1.16602 -23.5 -2.49902v-195
c4.66699 -0.666992 11.167 -1.16699 19.5 -1.5s17.5 -0.5 27.5 -0.5c39.333 0 70.166 9.16699 92.499 27.5s33.5 43.5 33.5 75.5z" />
    <glyph glyph-name="S" unicode="S" horiz-adv-x="503" 
d="M467 207c0 -31.333 -6.33301 -60.334 -19 -87.001s-30.334 -49.667 -53.001 -69s-50.167 -34.5 -82.5 -45.5s-67.833 -16.5 -106.5 -16.5c-59.333 0 -111.333 6 -156 18l14 125c21.333 -9.33301 44.333 -16.5 69 -21.5s50.667 -7.5 78 -7.5
c15.333 0 29.833 1.66699 43.5 5s25.667 8.5 36 15.5s18.5 16 24.5 27s9 24.5 9 40.5c0 21.333 -7 38.333 -21 51s-31.5 23.667 -52.5 33s-43.833 18.5 -68.5 27.5s-47.5 20.667 -68.5 35s-38.5 32.833 -52.5 55.5s-21 52.667 -21 90c0 30 5.66699 57.5 17 82.5
s27.833 46.333 49.5 64s48.334 31.5 80.001 41.5s67.834 15 108.501 15c18.667 0 38.834 -1.16699 60.501 -3.5s42.167 -5.5 61.5 -9.5l-12 -114c-18.667 6 -37.667 10.667 -57 14s-39 5 -59 5c-38 0 -66 -7.5 -84 -22.5s-27 -34.5 -27 -58.5
c0 -20 7.16699 -36.167 21.5 -48.5s32.166 -23.166 53.499 -32.499s44.5 -18.833 69.5 -28.5s48.167 -22 69.5 -37s39.166 -33.833 53.499 -56.5s21.5 -51.667 21.5 -87z" />
    <glyph glyph-name="T" unicode="T" horiz-adv-x="510" 
d="M320 564v-564h-130v564h-175v111h480v-111h-175z" />
    <glyph glyph-name="U" unicode="U" horiz-adv-x="681" 
d="M611 262c0 -92.667 -24.501 -161.334 -73.501 -206.001s-117.833 -67 -206.5 -67c-53.333 0 -96.833 6.66699 -130.5 20s-60.167 31.333 -79.5 54s-32.666 48.834 -39.999 78.501s-11 60.5 -11 92.5v441h130v-433c0 -21.333 2 -40.833 6 -58.5s11.333 -33 22 -46
s25 -23 43 -30s41 -10.5 69 -10.5c50 0 86.167 11.833 108.5 35.5s33.5 64.167 33.5 121.5v421h129v-413v0z" />
    <glyph glyph-name="V" unicode="V" horiz-adv-x="628" 
d="M388 0h-149.999l-235 675h142l131 -395c6.66699 -19.333 13.5 -40.5 20.5 -63.5s13.167 -45.167 18.5 -66.5h2c5.33301 22 11.666 44.833 18.999 68.5l22 69.5l133 387h134z" />
    <glyph glyph-name="W" unicode="W" horiz-adv-x="951" 
d="M755 0l-160 0.00292969l-98 372c-5.33301 21.333 -10.166 43.833 -14.499 67.5s-8.16602 47.5 -11.499 71.5h-1c-4.66699 -46.667 -13 -92 -25 -136l-98 -375h-151l-172 675h139l92 -373c5.33301 -22 10 -44.5 14 -67.5s7.66699 -46.167 11 -69.5h1
c3.33301 22.667 7.16602 45.167 11.499 67.5s9.16602 44.166 14.499 65.499l103 377h138l104 -375c5.33301 -18.667 10.333 -39.334 15 -62.001s8.66699 -45.667 12 -69h1c3.33301 23.333 7 45.666 11 66.999s8.66699 42 14 62l92 377h130z" />
    <glyph glyph-name="X" unicode="X" horiz-adv-x="628" 
d="M454 0l-145 248l-145 -248h-154l215 345l-202 330h151l137 -234l136 234h148l-199 -329l222 -346h-164z" />
    <glyph glyph-name="Y" unicode="Y" horiz-adv-x="561" 
d="M344 239l0.00195312 -238.999h-130v238l-211 437h142l89 -194c9.33301 -20 17.666 -39.333 24.999 -58l21 -54h2c7.33301 19.333 15.666 39.666 24.999 60.999l29 64l85 181h138z" />
    <glyph glyph-name="Z" unicode="Z" horiz-adv-x="537" 
d="M45 0v100l243 396l21.5 32.5c7 10.333 14.5 20.833 22.5 31.5c-12 -0.666992 -27 -1.16699 -45 -1.5s-44 -0.5 -78 -0.5h-156v117h436v-105l-257 -405l-15 -23.5c-4.66699 -7.66699 -10 -15.5 -16 -23.5c8.66699 1.33301 24.667 2 48 2h98h146v-120h-448z" />
    <glyph glyph-name="bracketleft" unicode="[" horiz-adv-x="328" 
d="M71 -205v982h221v-101h-101v-778h101v-103h-221z" />
    <glyph glyph-name="backslash" unicode="\" horiz-adv-x="479" 
d="M357 -161l-350 918h126l350 -918h-126z" />
    <glyph glyph-name="bracketright" unicode="]" horiz-adv-x="328" 
d="M36 -205v103h100v778h-100v101h220v-982h-220z" />
    <glyph glyph-name="asciicircum" unicode="^" 
d="M396 337l-131 247l-125 -247l-85 45l164 293h98l171 -292z" />
    <glyph glyph-name="underscore" unicode="_" 
d="M0 -246v103h550v-103h-550z" />
    <glyph glyph-name="grave" unicode="`" horiz-adv-x="374" 
d="M248 560l-181 108l59 86l170 -125z" />
    <glyph glyph-name="a" unicode="a" horiz-adv-x="524" 
d="M335 0c0 14.667 0.333984 29 1.00098 43s2 27.667 4 41l-1 1c-12 -28 -32.167 -50.833 -60.5 -68.5s-61.166 -26.5 -98.499 -26.5c-45.333 0 -80.333 13.5 -105 40.5s-37 60.833 -37 101.5c0 29.333 6.83301 54.833 20.5 76.5s33 39.667 58 54s55.167 25 90.5 32
s74.666 10.5 117.999 10.5v18c0 30 -6.5 52 -19.5 66s-36.167 21 -69.5 21c-22.667 0 -47.834 -3.33301 -75.501 -10s-52.5 -14.667 -74.5 -24l-21 98c25.333 10 54.5 18.167 87.5 24.5s66.5 9.5 100.5 9.5c38.667 0 70.834 -3.83301 96.501 -11.5s46.167 -19 61.5 -34
s26.166 -33.333 32.499 -55s9.5 -46.5 9.5 -74.5v-205c0 -20 0.333008 -41.167 1 -63.5s1.66699 -43.833 3 -64.5h-122zM325.001 221c-32 0 -58.6689 -1.83105 -80.002 -5.49805s-38.166 -8.83398 -50.499 -15.501s-21 -14.667 -26 -24s-7.5 -19.333 -7.5 -30
c0 -16 5.33301 -29.667 16 -41s25.334 -17 44.001 -17c15.333 0 29.5 3.5 42.5 10.5s24 16 33 27s16 23.667 21 38s7.5 29.166 7.5 44.499v13z" />
    <glyph glyph-name="b" unicode="b" horiz-adv-x="559" 
d="M523 274c0 -42 -6 -80.5 -18 -115.5s-29.5 -65 -52.5 -90s-51.167 -44.333 -84.5 -58s-71.333 -20.5 -114 -20.5c-36 0 -68.667 2 -98 6s-58.333 10 -87 18v716h128v-214c0 -15.333 -0.666992 -32 -2 -50s-3.33301 -33.667 -6 -47h1
c12.667 27.333 32.167 48.833 58.5 64.5s56.833 23.5 91.5 23.5c60 0 105.5 -20.333 136.5 -61s46.5 -98 46.5 -172zM389 261c0 93.333 -28.333 140 -85 140c-16.667 0 -31.667 -4.5 -45 -13.5s-24.5 -20.833 -33.5 -35.5s-16 -31.667 -21 -51s-7.5 -39.333 -7.5 -60v-140
c18 -6 40.333 -9 67 -9c18 0 34.667 3 50 9s28.5 15.833 39.5 29.5s19.667 31.167 26 52.5s9.5 47.333 9.5 78z" />
    <glyph glyph-name="c" unicode="c" horiz-adv-x="425" 
d="M398 14c-19.333 -7.33301 -41.501 -12.998 -66.501 -16.998s-49.5 -6 -73.5 -6c-34.667 0 -65.834 4.66699 -93.501 14s-51.167 23.666 -70.5 42.999s-34.166 44.333 -44.499 75s-15.5 67 -15.5 109c0 38.667 5.16699 74.667 15.5 108s25.833 62.333 46.5 87
s46.834 44 78.501 58s69.167 21 112.5 21c19.333 0 38.333 -1.5 57 -4.5s36 -7.16699 52 -12.5l-20 -110c-13.333 5.33301 -28 9.83301 -44 13.5s-32.333 5.5 -49 5.5c-38 0 -66.667 -14 -86 -42s-29 -65 -29 -111c0 -21.333 2 -40.833 6 -58.5s10.667 -32.834 20 -45.501
s21.333 -22.5 36 -29.5s32.667 -10.5 54 -10.5c34.667 0 67 6.66699 97 20l17 -107v0z" />
    <glyph glyph-name="d" unicode="d" horiz-adv-x="558" 
d="M369 0c0 12 0.5 25.5 1.5 40.5s2.5 29.167 4.5 42.5h-2c-13.333 -28 -33.333 -50.667 -60 -68s-59 -26 -97 -26c-60.667 0 -106 21 -136 63s-45 98.667 -45 170c0 42 6 80.333 18 115s29.167 64.5 51.5 89.5s49.833 44.5 82.5 58.5s69.667 21 111 21
c10.667 0 21 -0.333008 31 -1s20.667 -1.66699 32 -3v228h127v-730h-119zM361 397c-11.333 2.66699 -22.5 4.66699 -33.5 6s-22.167 2 -33.5 2c-36.667 0 -66.667 -12.833 -90 -38.5s-35 -69.167 -35 -130.5c0 -94 28.333 -141 85 -141c16.667 0 31.667 4.5 45 13.5
s24.5 21 33.5 36s16 32.333 21 52s7.5 40.167 7.5 61.5v139z" />
    <glyph glyph-name="e" unicode="e" horiz-adv-x="514" 
d="M476 296c0 -9.33301 -0.333008 -20.833 -1 -34.5s-2 -26.167 -4 -37.5h-307c0 -44 10.833 -77.333 32.5 -100s56.5 -34 104.5 -34s96 9.66699 144 29l14 -97c-27.333 -10 -56.5 -17.833 -87.5 -23.5s-61.833 -8.5 -92.5 -8.5c-78.667 0 -139.167 20.333 -181.5 61
s-63.5 105 -63.5 193c0 37.333 5.33301 72 16 104s26.167 59.833 46.5 83.5s45 42.167 74 55.5s62.167 20 99.5 20c36 0 67 -5.5 93 -16.5s47.333 -26 64 -45s29 -41.333 37 -67s12 -53.167 12 -82.5zM349 309c1.33301 34 -5.83203 59.833 -21.499 77.5
s-37.167 26.5 -64.5 26.5c-26.667 0 -48.834 -9.16699 -66.501 -27.5s-28.167 -43.833 -31.5 -76.5h184z" />
    <glyph glyph-name="f" unicode="f" horiz-adv-x="354" 
d="M365 625c-10 3.33301 -20.501 5.66699 -31.501 7s-21.167 2 -30.5 2c-28 0 -48.5 -7.5 -61.5 -22.5s-19.5 -39.167 -19.5 -72.5v-42h116v-99h-116v-398h-127v398h-87v99h87v41c0 67.333 15.833 117.5 47.5 150.5s81.834 49.5 150.501 49.5
c13.333 0 26.833 -0.5 40.5 -1.5s27.167 -3.16699 40.5 -6.5z" />
    <glyph glyph-name="g" unicode="g" horiz-adv-x="545" 
d="M520 -53c0 -26.667 -6.49414 -51.999 -19.4941 -75.999s-31.333 -45 -55 -63s-52.334 -32.333 -86.001 -43s-71.167 -16 -112.5 -16c-66.667 0 -118.834 12.5 -156.501 37.5s-56.5 61.833 -56.5 110.5c0 26 7.66699 50 23 72s33.333 38.667 54 50
c-15.333 7.33301 -27.333 17.5 -36 30.5s-13 28.167 -13 45.5c0 19.333 5.5 37.166 16.5 53.499s25.167 28.166 42.5 35.499c-23.333 12.667 -41.5 30.334 -54.5 53.001s-19.5 50.334 -19.5 83.001c0 24.667 4.66699 48.5 14 71.5s23.166 43 41.499 60
s41.166 30.667 68.499 41s59 15.5 95 15.5c16 0 30.167 -1 42.5 -3s25.166 -4.66699 38.499 -8h169v-100h-68c16.667 -15.333 25 -36.333 25 -63s-4.5 -51 -13.5 -73s-22.333 -40.833 -40 -56.5s-39.834 -27.834 -66.501 -36.501s-57.667 -13 -93 -13
c-13.333 0 -26.333 1.33301 -39 4c-8 -3.33301 -14 -8 -18 -14s-6 -12 -6 -18c0 -11.333 5.5 -19 16.5 -23s31.167 -6.66699 60.5 -8l77 -3c54 -2 95.667 -14.833 125 -38.5s44 -59.5 44 -107.5zM351.006 327.001c0 26.667 -7.5 47.999 -22.5 63.999s-37.5 24 -67.5 24
c-29.333 0 -52 -8.16699 -68 -24.5s-24 -37.166 -24 -62.499c0 -26.667 7.83301 -47.667 23.5 -63s38.5 -23 68.5 -23c28 0 50 7.5 66 22.5s24 35.833 24 62.5zM393.006 -70c0 18 -6 32.833 -18 44.5s-32 18.167 -60 19.5l-86 3h-23c-14.667 -10.667 -26 -22.5 -34 -35.5
s-12 -26.5 -12 -40.5c0 -23.333 9.66699 -41.5 29 -54.5s45 -19.5 77 -19.5c42 0 73.667 8 95 24s32 35.667 32 59z" />
    <glyph glyph-name="h" unicode="h" horiz-adv-x="571" 
d="M374 0l-0.00292969 317.997c0 25.333 -4.33301 45.333 -13 60s-25 22 -49 22c-16 0 -31 -4.33301 -45 -13s-26.167 -20.167 -36.5 -34.5s-18.5 -31.333 -24.5 -51s-9 -40.5 -9 -62.5v-239h-128v730h128v-214c0 -15.333 -0.666992 -32.166 -2 -50.499
s-3.66602 -35.166 -6.99902 -50.499h2c14.667 28 35.834 50.333 63.501 67s60.834 25 99.501 25c28 0 51.5 -4.16699 70.5 -12.5s34.167 -19.666 45.5 -33.999s19.5 -31 24.5 -50s7.5 -39.5 7.5 -61.5v-349h-127z" />
    <glyph glyph-name="i" unicode="i" horiz-adv-x="266" 
d="M213 648c0 -21.333 -7.83301 -39.499 -23.5 -54.499s-34.5 -22.5 -56.5 -22.5s-40.667 7.5 -56 22.5s-23 33.167 -23 54.5s7.66699 39.666 23 54.999s34 23 56 23s40.833 -7.5 56.5 -22.5s23.5 -33.5 23.5 -55.5zM69 0.000976562v497h128v-497h-128z" />
    <glyph glyph-name="j" unicode="j" horiz-adv-x="271" 
d="M217 648c0 -21.333 -7.83301 -39.499 -23.5 -54.499s-34.5 -22.5 -56.5 -22.5s-40.833 7.5 -56.5 22.5s-23.5 33.167 -23.5 54.5s7.83301 39.666 23.5 54.999s34.5 23 56.5 23s40.833 -7.5 56.5 -22.5s23.5 -33.5 23.5 -55.5zM201 -36.999
c0 -33.333 -3.33105 -63.168 -9.99805 -89.501s-17.5 -48.5 -32.5 -66.5s-34.833 -31.667 -59.5 -41s-55 -14 -91 -14c-11.333 0 -23.333 0.833008 -36 2.5s-24.334 4.16699 -35.001 7.5l9 109c9.33301 -3.33301 19.166 -6.16602 29.499 -8.49902s20.166 -3.5 29.499 -3.5
c26.667 0 44.834 6.66699 54.501 20s14.5 37 14.5 71v547h127v-534z" />
    <glyph glyph-name="k" unicode="k" horiz-adv-x="523" 
d="M351 0l-154 246v-246h-128v730h128v-440l145 207h156l-174 -227l187 -270h-160z" />
    <glyph glyph-name="l" unicode="l" horiz-adv-x="266" 
d="M69 0v730h128v-730h-128z" />
    <glyph glyph-name="m" unicode="m" horiz-adv-x="866" 
d="M669 0l0.00878906 314.002c0 26.667 -4 47.667 -12 63s-23.667 23 -47 23c-14 0 -27.833 -3.83301 -41.5 -11.5s-25.834 -18.667 -36.501 -33s-19.334 -31.5 -26.001 -51.5s-10 -42 -10 -66v-238h-126v315c0 24.667 -3.66699 45 -11 61s-23.333 24 -48 24
c-14.667 0 -28.834 -4 -42.501 -12s-25.834 -19.333 -36.501 -34s-19.167 -31.834 -25.5 -51.501s-9.5 -41.167 -9.5 -64.5v-238h-128v497h121c0 -11.333 -0.5 -25.5 -1.5 -42.5s-2.5 -32.5 -4.5 -46.5l1 -1c15.333 30.667 37.166 55 65.499 73s61.166 27 98.499 27
c22 0 41 -2.83301 57 -8.5s29.333 -13.334 40 -23.001s19.167 -20.334 25.5 -32.001s11.166 -23.5 14.499 -35.5c6 12 13.833 23.833 23.5 35.5s21.167 22.334 34.5 32.001s28.666 17.334 45.999 23.001s36.666 8.5 57.999 8.5c48 0 84.833 -13.333 110.5 -40
s38.5 -68.334 38.5 -125.001v-342h-128z" />
    <glyph glyph-name="n" unicode="n" horiz-adv-x="571" 
d="M374 0l0.000976562 317.997c0 25.333 -4.33301 45.333 -13 60s-25 22 -49 22c-16 0 -31 -4.33301 -45 -13s-26.167 -20.167 -36.5 -34.5s-18.5 -31.166 -24.5 -50.499s-9 -40 -9 -62v-240h-128v497h121c0 -11.333 -0.5 -25.666 -1.5 -42.999
s-2.83301 -32.666 -5.5 -45.999h1c15.333 29.333 37.166 53.166 65.499 71.499s62.833 27.5 103.5 27.5c28 0 51.5 -4.16699 70.5 -12.5s34.167 -19.666 45.5 -33.999s19.5 -31 24.5 -50s7.5 -39.5 7.5 -61.5v-349h-127z" />
    <glyph glyph-name="o" unicode="o" horiz-adv-x="553" 
d="M520 258c0 -39.333 -6.33301 -75.334 -19 -108.001s-30.167 -60.834 -52.5 -84.501s-49.166 -42.167 -80.499 -55.5s-65.333 -20 -102 -20c-35.333 0 -67.333 4.66699 -96 14s-53.167 24.166 -73.5 44.499s-36 46.333 -47 78s-16.5 69.5 -16.5 113.5
c0 38.667 6.16699 74.334 18.5 107.001s29.666 60.834 51.999 84.501s49 42.167 80 55.5s65.5 20 103.5 20c35.333 0 67.333 -5 96 -15s53.167 -25.167 73.5 -45.5s36 -46.166 47 -77.499s16.5 -68.333 16.5 -111zM388 250.999c0 48 -8.83203 84.666 -26.499 109.999
s-45.5 38 -83.5 38c-14 0 -27.833 -2.83301 -41.5 -8.5s-25.834 -14.5 -36.501 -26.5s-19.167 -27.167 -25.5 -45.5s-9.5 -40.166 -9.5 -65.499c0 -102.667 37 -154 111 -154c32 0 58.667 12.667 80 38s32 63.333 32 114z" />
    <glyph glyph-name="p" unicode="p" horiz-adv-x="559" 
d="M523 275c0 -43.333 -5.66602 -82.3311 -16.999 -116.998s-28 -64.334 -50 -89.001s-49.333 -43.5 -82 -56.5s-70.334 -19.5 -113.001 -19.5c-12 0 -23 0.333008 -33 1s-20.333 1.66699 -31 3v-238h-128v738h119c0 -12 -0.333008 -25.5 -1 -40.5s-2 -29.167 -4 -42.5h2
c14 29.333 34 52.166 60 68.499s58 24.5 96 24.5c59.333 0 104.5 -20.167 135.5 -60.5s46.5 -97.5 46.5 -171.5zM389.001 261.002c0 94 -28.333 141 -85 141c-16.667 0 -31.667 -4.5 -45 -13.5s-24.5 -21 -33.5 -36s-16 -32.333 -21 -52s-7.5 -40.167 -7.5 -61.5v-138
c20 -6 42.333 -9 67 -9c18 0 34.667 3 50 9s28.5 15.833 39.5 29.5s19.667 31.167 26 52.5s9.5 47.333 9.5 78z" />
    <glyph glyph-name="q" unicode="q" horiz-adv-x="559" 
d="M362 -241l0.00195312 225.002c0 13.333 0.333008 28.666 1 45.999s2.66699 34 6 50l-2 1c-13.333 -28.667 -32.833 -51.167 -58.5 -67.5s-55.167 -24.5 -88.5 -24.5c-60 0 -105.667 19.667 -137 59s-47 97.333 -47 174c0 42 5.83301 80.333 17.5 115s29 64.5 52 89.5
s51.333 44.5 85 58.5s72.5 21 116.5 21c35.333 0 67.666 -1.33301 96.999 -4s57.666 -6.33398 84.999 -11.001v-732h-127zM362.002 398.002c-10.667 2 -21.3311 3.66699 -31.998 5s-22.334 2 -35.001 2c-36.667 0 -66.667 -12.833 -90 -38.5s-35 -69.167 -35 -130.5
c0 -94 28 -141 84 -141c16.667 0 31.667 4.5 45 13.5s24.666 21.167 33.999 36.5s16.5 32.833 21.5 52.5s7.5 40.5 7.5 62.5v138z" />
    <glyph glyph-name="r" unicode="r" horiz-adv-x="355" 
d="M335 382c-92 18 -138.001 -41.667 -138.001 -179v-203h-128v497h121c0 -12.667 -0.666992 -28.167 -2 -46.5s-3.66602 -36.166 -6.99902 -53.499h2c6 16 13.5 31 22.5 45s20 26.167 33 36.5s28 18.166 45 23.499s36.167 7 57.5 5z" />
    <glyph glyph-name="s" unicode="s" horiz-adv-x="417" 
d="M378 155c0 -24.667 -5.16797 -47.167 -15.501 -67.5s-25.166 -37.666 -44.499 -51.999s-42.5 -25.5 -69.5 -33.5s-56.833 -12 -89.5 -12c-19.333 0 -38.666 1 -57.999 3s-37 5.33301 -53 10l9 107c15.333 -6.66699 32.166 -11.667 50.499 -15s36.833 -5 55.5 -5
c24 0 43.333 4.83301 58 14.5s22 22.834 22 39.501c0 14.667 -5 26 -15 34s-22.5 14.833 -37.5 20.5l-48.5 17.5c-17.333 6 -33.5 14.167 -48.5 24.5s-27.5 24 -37.5 41s-15 39.5 -15 67.5c0 22 4.16699 42.667 12.5 62s21.333 36.166 39 50.499s39.667 25.666 66 33.999
s57.5 12.5 93.5 12.5c14 0 29 -0.833008 45 -2.5s31 -4.16699 45 -7.5l-6 -100c-13.333 4 -27.833 7.16699 -43.5 9.5s-31.167 3.5 -46.5 3.5c-25.333 0 -43.833 -4.66699 -55.5 -14s-17.5 -21.666 -17.5 -36.999c0 -14 5 -25 15 -33s22.667 -15 38 -21l49.5 -18.5
c17.667 -6.33301 34.167 -14.833 49.5 -25.5s28 -24.334 38 -41.001s15 -38.667 15 -66z" />
    <glyph glyph-name="t" unicode="t" horiz-adv-x="375" 
d="M344 4c-16 -4 -33.668 -7.33203 -53.001 -9.99902s-37.666 -4 -54.999 -4c-27.333 0 -50.333 2.66699 -69 8s-33.5 14.166 -44.5 26.499s-18.833 28.333 -23.5 48s-7 44.167 -7 73.5v252h-86v99h86v153l127 34v-187h121v-99h-121v-218c0 -32 4.33301 -53.667 13 -65
s24 -17 46 -17s41 2.33301 57 7l9 -101v0z" />
    <glyph glyph-name="u" unicode="u" horiz-adv-x="570" 
d="M381 0c0 11.333 0.332031 25.6689 0.999023 43.002s2.33398 32.666 5.00098 45.999h-1c-15.333 -29.333 -37 -53.166 -65 -71.499s-62.667 -27.5 -104 -27.5c-28 0 -51.5 4.16699 -70.5 12.5s-34.167 19.666 -45.5 33.999s-19.5 31 -24.5 50s-7.5 39.5 -7.5 61.5v349h127
v-318c0 -25.333 4.33301 -45.333 13 -60s25 -22 49 -22c16 0 31 4.33301 45 13s26.167 20.167 36.5 34.5s18.5 31.166 24.5 50.499s9 40 9 62v240h128v-497h-120z" />
    <glyph glyph-name="v" unicode="v" horiz-adv-x="506" 
d="M328 0h-152.001l-171 497h138l80 -240c7.33301 -23.333 13.5 -44.833 18.5 -64.5s9.5 -39.5 13.5 -59.5h2c4 19.333 8.33301 38.833 13 58.5s10.334 41.167 17.001 64.5l78 241h135z" />
    <glyph glyph-name="w" unicode="w" horiz-adv-x="796" 
d="M630 0l-139.001 0.000976562l-72 220c-5.33301 17.333 -10.166 35 -14.499 53l-13.5 59h-1c-5.33301 -23.333 -10.666 -44.833 -15.999 -64.5s-11.333 -39.834 -18 -60.501l-63 -207h-132l-152 497h140l53 -188l20 -74.5c6.66699 -25 13 -50.167 19 -75.5h1
c5.33301 28 11 53.5 17 76.5s12.333 45.5 19 67.5l60 194h123l61 -188c8.66699 -28.667 16.167 -54.667 22.5 -78s12.166 -47.333 17.499 -72h2l16 72.5c5.33301 23 11.333 46.833 18 71.5l57 194h131z" />
    <glyph glyph-name="x" unicode="x" horiz-adv-x="528" 
d="M356 0l-96 167l-96 -167h-153l171 251l-161 246h153l96 -164l97 164h142l-156 -245l164 -252h-161z" />
    <glyph glyph-name="y" unicode="y" horiz-adv-x="502" 
d="M302 -28c-16 -43.333 -32.668 -79.166 -50.001 -107.499s-36 -50.833 -56 -67.5s-41.833 -28.5 -65.5 -35.5s-49.834 -10.5 -78.501 -10.5c-10.667 0 -22.667 0.666992 -36 2s-24.666 3 -33.999 5l15 110c9.33301 -3.33301 19.5 -5.83301 30.5 -7.5
s21.833 -2.5 32.5 -2.5s21.167 1.5 31.5 4.5s20.5 8.16699 30.5 15.5s19.333 17.333 28 30s16.334 28.667 23.001 48l16 44l-184 497h143l67 -190c7.33301 -21.333 14.333 -43.833 21 -67.5s12.667 -46.834 18 -69.501h1c2.66699 11.333 6 23.833 10 37.5l12.5 41.5l13 41.5
c4.33301 13.667 8.5 26.167 12.5 37.5l59 169h137z" />
    <glyph glyph-name="z" unicode="z" horiz-adv-x="450" 
d="M45 0v91l200 293c-9.33301 -0.666992 -23.333 -1.16699 -42 -1.5s-40 -0.5 -64 -0.5h-88v115h348v-91l-196 -290c5.33301 0 12.5 0.166992 21.5 0.5s18.667 0.5 29 0.5h32h30.5h87v-117h-358z" />
    <glyph glyph-name="braceleft" unicode="{" horiz-adv-x="362" 
d="M309 -205c-65.333 0 -112.001 17.666 -140.001 52.999s-42 92 -42 170v135c0 41.333 -8.33301 69.833 -25 85.5s-41.667 24.5 -75 26.5v96c16.667 0.666992 31.334 2.83398 44.001 6.50098s23.167 9.5 31.5 17.5s14.5 18.667 18.5 32s6 30.666 6 51.999v87
c0 72.667 13.833 127.667 41.5 165s74.5 56 140.5 56h21v-101c-16 0 -29.5 -1.66699 -40.5 -5s-19.667 -9.33301 -26 -18s-10.833 -20.667 -13.5 -36s-4 -35 -4 -59v-86c0 -53.333 -8.33301 -91.666 -25 -114.999s-39 -37.666 -67 -42.999v-2c28 -4 50.333 -18.5 67 -43.5
s25 -64.167 25 -117.5v-134c0 -24 1.33301 -43.833 4 -59.5s7.16699 -27.834 13.5 -36.501s15 -14.667 26 -18s24.5 -5 40.5 -5v-103h-21z" />
    <glyph glyph-name="bar" unicode="|" horiz-adv-x="288" 
d="M91 -241v1000h102v-1000h-102z" />
    </font>
</defs>
</svg>
