<?xml version="1.0" standalone="no"?>
<!DOCTYPE svg PUBLIC "-//W3C//DTD SVG 1.1//EN" "http://www.w3.org/Graphics/SVG/1.1/DTD/svg11.dtd" >
<svg>
<metadata>
Created by FontForge 20090914 at Thu Aug 27 14:37:09 2015
 By www-data
Copyright (c) 2008 by Luc(as) de Groot. All rights reserved.
</metadata>
<defs>
<font id="AlinmaTheSans-Plain" horiz-adv-x="550" >
  <font-face 
    font-family="Alinma TheSans"
    font-weight="400"
    font-stretch="normal"
    units-per-em="1000"
    panose-1="2 11 5 3 4 3 2 2 2 3"
    ascent="750"
    descent="-250"
    x-height="497"
    cap-height="675"
    bbox="-149.002 -320 2985 960"
    underline-thickness="41"
    underline-position="-191"
    unicode-range="U+0020-U+FEFC"
  />
<missing-glyph 
d="M150 150v250h50v-200h100v-50h-150zM50 50v450h450v-450h-450zM250 350v50h150v-250h-50v100h-100v50h100v50h-100zM450 100v350h-350v-350h350z" />
    <glyph glyph-name="lam_alef_madda.isol" unicode="&#xfedf;&#xfe82;" horiz-adv-x="583" arabic-form="isolated" 
d="M295 163h-93l-159 535l92 13zM86 0v73h309v632h93v-705h-402zM-22 836l89 67.001c2 -2 5.66699 -5.16699 11 -9.5s12 -8.83301 20 -13.5s17.333 -8.83398 28 -12.501s22.334 -5.5 35.001 -5.5c14 0 27 1.83301 39 5.5s22.5 8 31.5 13s16.5 9.83301 22.5 14.5s10 8 12 10
v-73c-2 -2 -5.66699 -5 -11 -9s-12.5 -8.16699 -21.5 -12.5s-19.833 -8.16602 -32.5 -11.499s-27.334 -5 -44.001 -5c-13.333 0 -25.333 1.5 -36 4.5s-19.667 6.33301 -27 10s-13.333 7.16699 -18 10.5s-7.66699 5.66602 -9 6.99902l-52 -38z" />
    <glyph glyph-name="lam_alef_madda.fina" unicode="&#xfee0;&#xfe82;" horiz-adv-x="583" arabic-form="final" 
d="M86 73h309v632h93v-632h109v-73h-511v73zM295 163h-93l-159 535l92 13zM-22 836l89 67.001c2 -2 5.66699 -5.16699 11 -9.5s12 -8.83301 20 -13.5s17.333 -8.83398 28 -12.501s22.334 -5.5 35.001 -5.5c14 0 27 1.83301 39 5.5s22.5 8 31.5 13s16.5 9.83301 22.5 14.5
s10 8 12 10v-73c-2 -2 -5.66699 -5 -11 -9s-12.5 -8.16699 -21.5 -12.5s-19.833 -8.16602 -32.5 -11.499s-27.334 -5 -44.001 -5c-13.333 0 -25.333 1.5 -36 4.5s-19.667 6.33301 -27 10s-13.333 7.16699 -18 10.5s-7.66699 5.66602 -9 6.99902l-52 -38z" />
    <glyph glyph-name="lam_alef_hamza_above.isol" unicode="&#xfedf;&#xfe84;" horiz-adv-x="583" arabic-form="isolated" 
d="M295 163h-93l-159 526l92 13zM86 0v73h309v623h93v-696h-402zM-20 820c14.667 0 28.166 -0.500977 40.499 -1.50098s22.5 -2.16699 30.5 -3.5c-9.33301 4.66699 -16.333 11.667 -21 21s-7 18.333 -7 27c0 12.667 2.33301 24.834 7 36.501s12 22 22 31s23 16.167 39 21.5
s35.667 8 59 8c10.667 0 20.834 -0.333008 30.501 -1s17.167 -1.66699 22.5 -3l-8 -54c-5.33301 1.33301 -12.5 2.5 -21.5 3.5s-18.167 1.5 -27.5 1.5c-18.667 0 -32.5 -3.83301 -41.5 -11.5s-13.5 -17.5 -13.5 -29.5c0 -13.333 5.66699 -24.333 17 -33s31.333 -13 60 -13
h54v-53h-242v53z" />
    <glyph glyph-name="lam_alef_hamza_above.fina" unicode="&#xfee0;&#xfe84;" horiz-adv-x="583" arabic-form="final" 
d="M86 0v73h309v623h93v-623h110v-73h-512zM295 163h-93l-159 526l92 13zM-20 820c14.667 0 28.166 -0.500977 40.499 -1.50098s22.5 -2.16699 30.5 -3.5c-9.33301 4.66699 -16.333 11.667 -21 21s-7 18.333 -7 27c0 12.667 2.33301 24.834 7 36.501s12 22 22 31
s23 16.167 39 21.5s35.667 8 59 8c10.667 0 20.834 -0.333008 30.501 -1s17.167 -1.66699 22.5 -3l-8 -54c-5.33301 1.33301 -12.5 2.5 -21.5 3.5s-18.167 1.5 -27.5 1.5c-18.667 0 -32.5 -3.83301 -41.5 -11.5s-13.5 -17.5 -13.5 -29.5c0 -13.333 5.66699 -24.333 17 -33
s31.333 -13 60 -13h54v-53h-242v53z" />
    <glyph glyph-name="lam_alef_hamza_below.isol" unicode="&#xfedf;&#xfe88;" horiz-adv-x="583" arabic-form="isolated" 
d="M295 163h-93l-159 535l92 13zM86 0v73h309v632h93v-705h-402zM98 -199c11.333 0 21.834 -0.167969 31.501 -0.500977s18.5 -1.16602 26.5 -2.49902c-5.33301 3.33301 -9.66602 8.16602 -12.999 14.499s-5 13.833 -5 22.5c0 24.667 9.66699 45.834 29 63.501
s48.666 26.5 87.999 26.5c22 0 40.333 -1.66699 55 -5l-9 -56c-6 1.33301 -13.167 2.66602 -21.5 3.99902s-16.833 2 -25.5 2c-15.333 0 -27 -3 -35 -9s-12 -14 -12 -24c0 -11.333 5.16699 -20.166 15.5 -26.499s27.166 -9.5 50.499 -9.5h59v-55h-234v55z" />
    <glyph glyph-name="lam_alef_hamza_below.fina" unicode="&#xfee0;&#xfe88;" horiz-adv-x="583" arabic-form="final" 
d="M86 73h309v632h93v-632h109v-73h-511v73zM295 163h-93l-159 535l92 13zM98 -199c11.333 0 21.834 -0.167969 31.501 -0.500977s18.5 -1.16602 26.5 -2.49902c-5.33301 3.33301 -9.66602 8.16602 -12.999 14.499s-5 13.833 -5 22.5c0 24.667 9.66699 45.834 29 63.501
s48.666 26.5 87.999 26.5c22 0 40.333 -1.66699 55 -5l-9 -56c-6 1.33301 -13.167 2.66602 -21.5 3.99902s-16.833 2 -25.5 2c-15.333 0 -27 -3 -35 -9s-12 -14 -12 -24c0 -11.333 5.16699 -20.166 15.5 -26.499s27.166 -9.5 50.499 -9.5h59v-55h-234v55z" />
    <glyph glyph-name="lam_alef.isol" unicode="&#xfedf;&#xfe8e;" horiz-adv-x="583" arabic-form="isolated" 
d="M295 163h-93l-159 535l92 13zM86 0v73h309v632h93v-705h-402z" />
    <glyph glyph-name="lam_alef.fina" unicode="&#xfee0;&#xfe8e;" horiz-adv-x="583" arabic-form="final" 
d="M86 0v73h309v632h93v-632h109v-73h-511zM295 163h-93l-159 535l92 13z" />
    <glyph glyph-name="hamza.isol" unicode="&#x621;" horiz-adv-x="514" arabic-form="isolated" 
d="M50 72c23.333 0 45.501 -0.500977 66.501 -1.50098s38.5 -2.16699 52.5 -3.5c-16.667 7.33301 -29.5 18.5 -38.5 33.5s-13.5 32.833 -13.5 53.5c0 18.667 3.5 37.334 10.5 56.001s18.333 35.167 34 49.5s36 26 61 35s55.5 13.5 91.5 13.5
c17.333 0 33.5 -0.833008 48.5 -2.5s27.167 -3.16699 36.5 -4.5l-11 -74c-8 1.33301 -19.667 3 -35 5s-31.333 3 -48 3c-32 0 -56 -7 -72 -21s-24 -32.667 -24 -56c0 -24 10.167 -44.333 30.5 -61s55.166 -25 104.499 -25h90v-72h-384v72z" />
    <glyph glyph-name="alef_madda.isol" unicode="&#x622;" horiz-adv-x="282" arabic-form="isolated" 
d="M95 705h92v-705h-92v705zM-20 836l89 67.001c2 -2 5.66699 -5.16699 11 -9.5s12 -8.83301 20 -13.5s17.333 -8.83398 28 -12.501s22.334 -5.5 35.001 -5.5c14 0 27 1.83301 39 5.5s22.5 8 31.5 13s16.5 9.83301 22.5 14.5s10 8 12 10v-73c-2 -2 -5.66699 -5 -11 -9
s-12.5 -8.16699 -21.5 -12.5s-19.833 -8.16602 -32.5 -11.499s-27.334 -5 -44.001 -5c-13.333 0 -25.333 1.5 -36 4.5s-19.667 6.33301 -27 10s-13.333 7.16699 -18 10.5s-7.66699 5.66602 -9 6.99902l-52 -38z" />
    <glyph glyph-name="alef_hamza_above.isol" unicode="&#x623;" horiz-adv-x="282" arabic-form="isolated" 
d="M95 696h92v-696h-92v696zM11 820c14 0 27.165 -0.500977 39.498 -1.50098s22.5 -2.16699 30.5 -3.5c-9.33301 4.66699 -16.166 11.667 -20.499 21s-6.5 18.333 -6.5 27c0 12.667 2.16699 24.834 6.5 36.501s11.5 22 21.5 31s23 16.167 39 21.5s35.667 8 59 8
c11.333 0 21.833 -0.333008 31.5 -1s17.167 -1.66699 22.5 -3l-9 -54c-4.66699 1.33301 -11.5 2.5 -20.5 3.5s-18.5 1.5 -28.5 1.5c-18 0 -31.667 -3.83301 -41 -11.5s-14 -17.5 -14 -29.5c0 -13.333 5.83301 -24.333 17.5 -33s31.834 -13 60.501 -13h54v-53h-242v53z" />
    <glyph glyph-name="waw_hamza.isol" unicode="&#x624;" horiz-adv-x="585" arabic-form="isolated" 
d="M207 -253c-19.333 0 -38.334 0.668945 -57.001 2.00195s-35.334 3 -50.001 5c-17.333 2.66699 -33.666 5.33398 -48.999 8.00098l6 77c16 -4 33 -7.33301 51 -10c15.333 -2.66699 32.5 -4.83398 51.5 -6.50098s38.167 -2.5 57.5 -2.5c27.333 0 52.666 2.66699 75.999 8
s43.5 14.166 60.5 26.499s30.333 28.5 40 48.5s14.5 44.333 14.5 73v24h-101c-48 0 -88.667 5.5 -122 16.5s-60.333 26.667 -81 47s-35.667 44.833 -45 73.5s-14 60.667 -14 96c0 32.667 5.16699 64 15.5 94s25.833 56.5 46.5 79.5s46.834 41.167 78.501 54.5
s68.834 20 111.501 20c28 0 54 -1.83301 78 -5.5s45.333 -7.83398 64 -12.501c21.333 -5.33301 41 -11 59 -17v-465c0 -29.333 -5 -58 -15 -86s-26.5 -53 -49.5 -75s-53 -39.667 -90 -53s-82.5 -20 -136.5 -20zM407.999 385.002c-10.667 4 -21.999 7.66797 -33.999 11.001
c-10.667 3.33301 -23.334 6.16602 -38.001 8.49902s-31 3.5 -49 3.5c-46.667 0 -83.167 -15 -109.5 -45s-39.5 -70 -39.5 -120c0 -57.333 14.167 -100 42.5 -128s74.833 -42 139.5 -42h88v312zM158 623.003c13.333 0 26.165 -0.5 38.498 -1.5s22.5 -2.16699 30.5 -3.5
c-9.33301 4 -16.166 10.667 -20.499 20s-6.5 18.666 -6.5 27.999c0 12 2.33301 24 7 36s12 22.667 22 32s23 16.833 39 22.5s35.667 8.5 59 8.5c11.333 0 21.833 -0.333008 31.5 -1s17.167 -1.66699 22.5 -3l-9 -56c-4.66699 0.666992 -11.5 1.5 -20.5 2.5
s-18.167 1.5 -27.5 1.5c-18.667 0 -32.667 -3.66699 -42 -11s-14 -17.333 -14 -30c0 -13.333 5.83301 -24.166 17.5 -32.499s31.834 -12.5 60.501 -12.5h54v-57h-242v57z" />
    <glyph glyph-name="alef_hamza_below.isol" unicode="&#x625;" horiz-adv-x="282" arabic-form="isolated" 
d="M95 705h92v-705h-92v705zM9 -199c11.333 0 21.834 -0.167969 31.501 -0.500977s18.5 -1.16602 26.5 -2.49902c-5.33301 3.33301 -9.66602 8.16602 -12.999 14.499s-5 13.833 -5 22.5c0 24.667 9.66699 45.834 29 63.501s48.666 26.5 87.999 26.5
c22 0 40.333 -1.66699 55 -5l-9 -56c-6 1.33301 -13.167 2.66602 -21.5 3.99902s-16.833 2 -25.5 2c-15.333 0 -27 -3 -35 -9s-12 -14 -12 -24c0 -11.333 5.16699 -20.166 15.5 -26.499s27.166 -9.5 50.499 -9.5h59v-55h-234v55z" />
    <glyph glyph-name="yeh_hamza_above.isol" unicode="&#x626;" horiz-adv-x="1000" arabic-form="isolated" 
d="M413 0c-63.333 0 -117.165 6.16797 -161.498 18.501s-80.5 30.833 -108.5 55.5s-48.5 55.167 -61.5 91.5s-19.5 78.166 -19.5 125.499c0 30 3.16699 60.333 9.5 91s14.166 55.667 23.499 75l98 17c-11.333 -23.333 -20.5 -50.833 -27.5 -82.5s-10.5 -61.5 -10.5 -89.5
c0 -38 4.16699 -71.333 12.5 -100s22.833 -52.5 43.5 -71.5s48.334 -33.333 83.001 -43s78 -14.5 130 -14.5h85v389c17.333 3.33301 36 6.33301 56 9c17.333 2.66699 36.833 5 58.5 7s44.5 3 68.5 3c42 0 77.167 -5 105.5 -15s51.166 -24.333 68.499 -43
s29.833 -41.667 37.5 -69s11.5 -58 11.5 -92v-134h-90v122c0 57.333 -11 98 -33 122s-58.333 36 -109 36c-10.667 0 -20.834 -0.333008 -30.501 -1s-18.5 -1.66699 -26.5 -3l-27 -4v-400h-186zM47.001 623.001c13.333 0 26.165 -0.5 38.498 -1.5s22.5 -2.16699 30.5 -3.5
c-9.33301 4 -16.166 10.667 -20.499 20s-6.5 18.666 -6.5 27.999c0 12 2.33301 24 7 36s12 22.667 22 32s23 16.833 39 22.5s35.667 8.5 59 8.5c11.333 0 21.833 -0.333008 31.5 -1s17.167 -1.66699 22.5 -3l-9 -56c-4.66699 0.666992 -11.5 1.5 -20.5 2.5
s-18.167 1.5 -27.5 1.5c-18.667 0 -32.667 -3.66699 -42 -11s-14 -17.333 -14 -30c0 -13.333 5.83301 -24.166 17.5 -32.499s31.834 -12.5 60.501 -12.5h54v-57h-242v57z" />
    <glyph glyph-name="alef.isol" unicode="&#x627;" horiz-adv-x="282" arabic-form="isolated" 
d="M95 705h92v-705h-92v705z" />
    <glyph glyph-name="beh.isol" unicode="&#x628;" horiz-adv-x="773" arabic-form="isolated" 
d="M393 -204c-15.333 0 -28.166 5.16699 -38.499 15.5s-15.5 23.166 -15.5 38.499s5.16699 28.166 15.5 38.499s23.166 15.5 38.499 15.5s28.333 -5.16699 39 -15.5s16 -23.166 16 -38.499s-5.33301 -28.166 -16 -38.499s-23.667 -15.5 -39 -15.5zM413 0
c-63.333 0 -117.167 6.16797 -161.5 18.501s-80.5 30.833 -108.5 55.5s-48.5 55.167 -61.5 91.5s-19.5 78.166 -19.5 125.499c0 30 3.16699 60.333 9.5 91s14.166 55.667 23.499 75l98 17c-11.333 -23.333 -20.5 -50.833 -27.5 -82.5s-10.5 -61.5 -10.5 -89.5
c0 -38 4.16699 -71.333 12.5 -100s22.833 -52.5 43.5 -71.5s48.334 -33.333 83.001 -43s78 -14.5 130 -14.5h170v397h92v-470h-273z" />
    <glyph glyph-name="tehmarbuta.isol" unicode="&#x629;" horiz-adv-x="594" arabic-form="isolated" 
d="M363 562c-15.333 0 -28.166 5.16699 -38.499 15.5s-15.5 23.166 -15.5 38.499c0 14.667 5.16699 27.167 15.5 37.5s23.166 15.5 38.499 15.5c14.667 0 27 -5 37 -15s15 -22.667 15 -38s-5 -28.166 -15 -38.499s-22.333 -15.5 -37 -15.5zM215 562
c-15.333 0 -28 5.16699 -38 15.5s-15 23.166 -15 38.499c0 14.667 5 27.167 15 37.5s22.667 15.5 38 15.5c14.667 0 27.167 -5 37.5 -15s15.5 -22.667 15.5 -38s-5.16699 -28.166 -15.5 -38.499s-22.833 -15.5 -37.5 -15.5zM307 0c-48 0 -88.666 5.5 -121.999 16.5
s-60.333 26.667 -81 47s-35.667 44.833 -45 73.5s-14 60.667 -14 96c0 33.333 5.16699 65 15.5 95s26 56.333 47 79s47.167 40.667 78.5 54s67.666 20 108.999 20c72 0 125.667 -19.5 161 -58.5s53 -94.167 53 -165.5v-257h-202zM419.001 241
c0 60 -11.668 102.833 -35.001 128.5s-55.666 38.5 -96.999 38.5c-46.667 0 -83.167 -15.167 -109.5 -45.5s-39.5 -70.5 -39.5 -120.5c0 -57.333 14.167 -99.833 42.5 -127.5s74.833 -41.5 139.5 -41.5h99v168z" />
    <glyph glyph-name="teh.isol" unicode="&#x62a;" horiz-adv-x="773" arabic-form="isolated" 
d="M476 562c-15.333 0 -28.166 5.16699 -38.499 15.5s-15.5 23.166 -15.5 38.499c0 14.667 5.16699 27.167 15.5 37.5s23.166 15.5 38.499 15.5c14.667 0 27 -5 37 -15s15 -22.667 15 -38s-5 -28.166 -15 -38.499s-22.333 -15.5 -37 -15.5zM328 562
c-15.333 0 -28 5.16699 -38 15.5s-15 23.166 -15 38.499c0 14.667 5 27.167 15 37.5s22.667 15.5 38 15.5c14.667 0 27.167 -5 37.5 -15s15.5 -22.667 15.5 -38s-5.16699 -28.166 -15.5 -38.499s-22.833 -15.5 -37.5 -15.5zM413 0c-63.333 0 -117.167 6.16797 -161.5 18.501
s-80.5 30.833 -108.5 55.5s-48.5 55.167 -61.5 91.5s-19.5 78.166 -19.5 125.499c0 30 3.16699 60.333 9.5 91s14.166 55.667 23.499 75l98 17c-11.333 -23.333 -20.5 -50.833 -27.5 -82.5s-10.5 -61.5 -10.5 -89.5c0 -38 4.16699 -71.333 12.5 -100
s22.833 -52.5 43.5 -71.5s48.334 -33.333 83.001 -43s78 -14.5 130 -14.5h170v397h92v-470h-273z" />
    <glyph glyph-name="theh.isol" unicode="&#x62b;" horiz-adv-x="773" arabic-form="isolated" 
d="M402 681c-14.667 0 -26.834 4.83203 -36.501 14.499s-14.5 21.834 -14.5 36.501s4.83301 27 14.5 37s21.834 15 36.501 15c14 0 25.833 -5 35.5 -15s14.5 -22.333 14.5 -37c0 -14 -4.83301 -26 -14.5 -36s-21.5 -15 -35.5 -15zM476 561.999
c-15.333 0 -28 5.16699 -38 15.5s-15 23.166 -15 38.499c0 14.667 5 27.167 15 37.5s22.667 15.5 38 15.5c14.667 0 27.167 -5 37.5 -15s15.5 -22.667 15.5 -38s-5.16699 -28.166 -15.5 -38.499s-22.833 -15.5 -37.5 -15.5zM328 561.999c-15.333 0 -28 5.16699 -38 15.5
s-15 23.166 -15 38.499c0 14.667 5 27.167 15 37.5s22.667 15.5 38 15.5s28 -5 38 -15s15 -22.667 15 -38s-5 -28.166 -15 -38.499s-22.667 -15.5 -38 -15.5zM413 -0.000976562c-63.333 0 -117.167 6.16797 -161.5 18.501s-80.5 30.833 -108.5 55.5s-48.5 55.167 -61.5 91.5
s-19.5 78.166 -19.5 125.499c0 30 3.16699 60.333 9.5 91s14.166 55.667 23.499 75l98 17c-11.333 -23.333 -20.5 -50.833 -27.5 -82.5s-10.5 -61.5 -10.5 -89.5c0 -38 4.16699 -71.333 12.5 -100s22.833 -52.5 43.5 -71.5s48.334 -33.333 83.001 -43s78 -14.5 130 -14.5
h170v397h92v-470h-273z" />
    <glyph glyph-name="jeem.isol" unicode="&#x62c;" horiz-adv-x="594" arabic-form="isolated" 
d="M370 -204c-15.333 0 -28.166 5.16699 -38.499 15.5s-15.5 23.166 -15.5 38.499s5.16699 28.166 15.5 38.499s23.166 15.5 38.499 15.5s28.333 -5.16699 39 -15.5s16 -23.166 16 -38.499s-5.33301 -28.166 -16 -38.499s-23.667 -15.5 -39 -15.5zM315 0
c-42.667 0 -77.6689 -3.16992 -105.002 -9.50293s-49 -15.166 -65 -26.499s-27.167 -24.666 -33.5 -39.999s-9.5 -31.666 -9.5 -48.999c0 -16 3.83301 -31.333 11.5 -46s19.334 -27.667 35.001 -39s35.167 -20.333 58.5 -27s51 -10 83 -10l-6 -73
c-46 0 -86.167 4.83301 -120.5 14.5s-62.666 23 -84.999 40s-39.166 37 -50.499 60s-17 47.5 -17 73.5c0 29.333 5.5 56.5 16.5 81.5s28.667 46.667 53 65s56.166 32.666 95.499 42.999s87.333 15.5 144 15.5h98c2.66699 17.333 4.5 34.666 5.5 51.999s1.5 34.333 1.5 51
c0 38 -3.66699 71 -11 99s-19.666 51.333 -36.999 70s-40 32.667 -68 42s-62.333 14 -103 14c-19.333 0 -37.833 -0.5 -55.5 -1.5s-36.167 -2.83301 -55.5 -5.5v72c17.333 2.66699 36.166 4.66699 56.499 6s41.5 2 63.5 2c54.667 0 101.167 -6.33301 139.5 -19
s69.5 -31.167 93.5 -55.5s41.5 -54.666 52.5 -90.999s16.5 -78.166 16.5 -125.499c0 -24 -1.16699 -51.5 -3.5 -82.5s-6.5 -64.5 -12.5 -100.5h-186z" />
    <glyph glyph-name="hah.isol" unicode="&#x62d;" horiz-adv-x="588" arabic-form="isolated" 
d="M294 -320c-46 0 -86.168 4.66797 -120.501 14.001s-62.666 22.333 -84.999 39s-39.166 36.667 -50.499 60s-17 48.666 -17 75.999c0 28.667 5.5 55.5 16.5 80.5s28.667 46.667 53 65s56.166 32.666 95.499 42.999s87.333 15.5 144 15.5h93
c2 17.333 3.66699 34.666 5 51.999s2 34.333 2 51c0 38 -3.66699 71 -11 99s-19.666 51.333 -36.999 70s-40 32.667 -68 42s-62.333 14 -103 14c-20 0 -38.833 -0.5 -56.5 -1.5s-35.834 -2.83301 -54.501 -5.5v72c16.667 2.66699 35.167 4.66699 55.5 6s41.5 2 63.5 2
c54.667 0 101.167 -6.33301 139.5 -19s69.5 -31.167 93.5 -55.5s41.5 -54.666 52.5 -90.999s16.5 -78.166 16.5 -125.499c0 -24 -1.16699 -51.5 -3.5 -82.5s-6.5 -64.5 -12.5 -100.5h-180c-42.667 -0 -77.667 -3.16699 -105 -9.5s-49 -15.166 -65 -26.499
s-27.167 -24.5 -33.5 -39.5s-9.5 -31.167 -9.5 -48.5c0 -34.667 15.5 -63.834 46.5 -87.501s78.833 -35.5 143.5 -35.5c54.667 0 114.667 7 180 21l7 -72c-65.333 -14.667 -130.333 -22 -195 -22z" />
    <glyph glyph-name="khah.isol" unicode="&#x62e;" horiz-adv-x="588" arabic-form="isolated" 
d="M246 577c-15.333 0 -28.166 5.16699 -38.499 15.5s-15.5 23.166 -15.5 38.499s5.16699 28.333 15.5 39s23.166 16 38.499 16s28.333 -5.33301 39 -16s16 -23.667 16 -39s-5.33301 -28.166 -16 -38.499s-23.667 -15.5 -39 -15.5zM294 -320
c-46 0 -86.168 4.66797 -120.501 14.001s-62.666 22.333 -84.999 39s-39.166 36.667 -50.499 60s-17 48.666 -17 75.999c0 28.667 5.5 55.5 16.5 80.5s28.667 46.667 53 65s56.166 32.666 95.499 42.999s87.333 15.5 144 15.5h93c2 17.333 3.66699 34.666 5 51.999
s2 34.333 2 51c0 38 -3.66699 71 -11 99s-19.666 51.333 -36.999 70s-40 32.667 -68 42s-62.333 14 -103 14c-20 0 -38.833 -0.5 -56.5 -1.5s-35.834 -2.83301 -54.501 -5.5v72c16.667 2.66699 35.167 4.66699 55.5 6s41.5 2 63.5 2c54.667 0 101.167 -6.33301 139.5 -19
s69.5 -31.167 93.5 -55.5s41.5 -54.666 52.5 -90.999s16.5 -78.166 16.5 -125.499c0 -24 -1.16699 -51.5 -3.5 -82.5s-6.5 -64.5 -12.5 -100.5h-180c-42.667 -0 -77.667 -3.16699 -105 -9.5s-49 -15.166 -65 -26.499s-27.167 -24.5 -33.5 -39.5s-9.5 -31.167 -9.5 -48.5
c0 -34.667 15.5 -63.834 46.5 -87.501s78.833 -35.5 143.5 -35.5c54.667 0 114.667 7 180 21l7 -72c-65.333 -14.667 -130.333 -22 -195 -22z" />
    <glyph glyph-name="dal.isol" unicode="&#x62f;" horiz-adv-x="527" arabic-form="isolated" 
d="M52 73l321.002 -0.00195312c-0.666992 46 -5.83398 87 -15.501 123s-24.667 67.667 -45 95s-46.333 51 -78 71s-69.5 36.667 -113.5 50l23 78c54 -16.667 101.167 -37.167 141.5 -61.5s73.666 -54.166 99.999 -89.499s46 -76.666 59 -123.999s19.5 -102.333 19.5 -165
v-50h-412v73z" />
    <glyph glyph-name="thal.isol" unicode="&#x630;" horiz-adv-x="527" arabic-form="isolated" 
d="M197 577c-15.333 0 -28.166 5.16699 -38.499 15.5s-15.5 23.166 -15.5 38.499s5.16699 28.333 15.5 39s23.166 16 38.499 16s28.333 -5.33301 39 -16s16 -23.667 16 -39s-5.33301 -28.166 -16 -38.499s-23.667 -15.5 -39 -15.5zM52 73l321.002 -0.00195312
c-0.666992 46 -5.83398 87 -15.501 123s-24.667 67.667 -45 95s-46.333 51 -78 71s-69.5 36.667 -113.5 50l23 78c54 -16.667 101.167 -37.167 141.5 -61.5s73.666 -54.166 99.999 -89.499s46 -76.666 59 -123.999s19.5 -102.333 19.5 -165v-50h-412v73z" />
    <glyph glyph-name="reh.isol" unicode="&#x631;" horiz-adv-x="409" arabic-form="isolated" 
d="M90 -257c-18.667 0 -36.833 1.33398 -54.5 4.00098s-34.167 6 -49.5 10l11 76c30.667 -11.333 64 -17 100 -17c20.667 0 39.167 2.83301 55.5 8.5s30.333 15 42 28s20.5 30.5 26.5 52.5s9 49.333 9 82v483h92v-475c0 -35.333 -3.66699 -68.333 -11 -99
s-19.833 -57.334 -37.5 -80.001s-41.5 -40.5 -71.5 -53.5s-67.333 -19.5 -112 -19.5z" />
    <glyph glyph-name="zain.isol" unicode="&#x632;" horiz-adv-x="409" arabic-form="isolated" 
d="M274 577c-15.333 0 -28.166 5.16699 -38.499 15.5s-15.5 23.166 -15.5 38.499s5.16699 28.333 15.5 39s23.166 16 38.499 16s28.333 -5.33301 39 -16s16 -23.667 16 -39s-5.33301 -28.166 -16 -38.499s-23.667 -15.5 -39 -15.5zM90 -257
c-18.667 0 -36.833 1.33398 -54.5 4.00098s-34.167 6 -49.5 10l11 76c30.667 -11.333 64 -17 100 -17c20.667 0 39.167 2.83301 55.5 8.5s30.333 15 42 28s20.5 30.5 26.5 52.5s9 49.333 9 82v483h92v-475c0 -35.333 -3.66699 -68.333 -11 -99
s-19.833 -57.334 -37.5 -80.001s-41.5 -40.5 -71.5 -53.5s-67.333 -19.5 -112 -19.5z" />
    <glyph glyph-name="seen.isol" unicode="&#x633;" horiz-adv-x="1206" arabic-form="isolated" 
d="M307 -231c-34.667 0 -67.1699 5.00098 -97.5029 15.001s-56.666 26 -78.999 48s-40 50.667 -53 86s-19.5 78.666 -19.5 129.999c0 32.667 2.16699 65 6.5 97s10.5 63 18.5 93l95 18c-9.33301 -33.333 -16.333 -66.666 -21 -99.999s-7 -66.333 -7 -99
c0 -42.667 5 -77.834 15 -105.501s22.833 -49.667 38.5 -66s33.334 -27.666 53.001 -33.999s39.5 -9.5 59.5 -9.5c24 0 45.833 3.33301 65.5 10s36.834 18 51.501 34s26 37 34 63s12 58 12 96v365h92v-205c0 -21.333 1.5 -40.5 4.5 -57.5s8 -31.5 15 -43.5
s16.5 -21.333 28.5 -28s27.333 -10 46 -10c36 0 60.5 12.5 73.5 37.5s19.5 58.833 19.5 101.5v245h89v-241c0 -26 1.83301 -47.667 5.5 -65s10.5 -31.333 20.5 -42s23.5 -18.167 40.5 -22.5s38.833 -6.5 65.5 -6.5h46c1.33301 10.667 2.5 22.167 3.5 34.5
s1.83301 24.833 2.5 37.5s1.16699 24.667 1.5 36s0.5 21.666 0.5 30.999c0 54.667 -3.16699 105.167 -9.5 151.5s-14.166 87.833 -23.499 124.5l90 16c10 -38 18.5 -81.167 25.5 -129.5s10.5 -99.833 10.5 -154.5c0 -34 -1.5 -70.667 -4.5 -110s-7.16699 -76 -12.5 -110
h-149c-48 -0 -85.333 6.33301 -112 19s-45.334 33 -56.001 61c-8.66699 -28 -24.5 -49.5 -47.5 -64.5s-49.5 -22.5 -79.5 -22.5c-25.333 0 -46.333 4 -63 12s-29.667 19 -39 33c2 -7.33301 3 -16.333 3 -27c0 -12.667 -1.16699 -27.5 -3.5 -44.5s-6.83301 -34.5 -13.5 -52.5
s-16 -35.667 -28 -53s-27.5 -32.833 -46.5 -46.5s-42.333 -24.667 -70 -33s-60.167 -12.5 -97.5 -12.5z" />
    <glyph glyph-name="sheen.isol" unicode="&#x634;" horiz-adv-x="1206" arabic-form="isolated" 
d="M799 681c-14.667 0 -26.834 4.83203 -36.501 14.499s-14.5 21.834 -14.5 36.501s4.83301 27 14.5 37s21.834 15 36.501 15c14 0 25.833 -5 35.5 -15s14.5 -22.333 14.5 -37c0 -14 -4.83301 -26 -14.5 -36s-21.5 -15 -35.5 -15zM873 561.999
c-15.333 0 -28 5.16699 -38 15.5s-15 23.166 -15 38.499c0 14.667 5 27.167 15 37.5s22.667 15.5 38 15.5c14.667 0 27.167 -5 37.5 -15s15.5 -22.667 15.5 -38s-5.16699 -28.166 -15.5 -38.499s-22.833 -15.5 -37.5 -15.5zM725 561.999c-15.333 0 -28 5.16699 -38 15.5
s-15 23.166 -15 38.499c0 14.667 5 27.167 15 37.5s22.667 15.5 38 15.5s28 -5 38 -15s15 -22.667 15 -38s-5 -28.166 -15 -38.499s-22.667 -15.5 -38 -15.5zM307 -231.001c-34.667 0 -67.1699 5.00098 -97.5029 15.001s-56.666 26 -78.999 48s-40 50.667 -53 86
s-19.5 78.666 -19.5 129.999c0 32.667 2.16699 65 6.5 97s10.5 63 18.5 93l95 18c-9.33301 -33.333 -16.333 -66.666 -21 -99.999s-7 -66.333 -7 -99c0 -42.667 5 -77.834 15 -105.501s22.833 -49.667 38.5 -66s33.334 -27.666 53.001 -33.999s39.5 -9.5 59.5 -9.5
c24 0 45.833 3.33301 65.5 10s36.834 18 51.501 34s26 37 34 63s12 58 12 96v365h92v-205c0 -21.333 1.5 -40.5 4.5 -57.5s8 -31.5 15 -43.5s16.5 -21.333 28.5 -28s27.333 -10 46 -10c36 0 60.5 12.5 73.5 37.5s19.5 58.833 19.5 101.5v245h89v-241
c0 -26 1.83301 -47.667 5.5 -65s10.5 -31.333 20.5 -42s23.5 -18.167 40.5 -22.5s38.833 -6.5 65.5 -6.5h46c1.33301 10.667 2.5 22.167 3.5 34.5s1.83301 24.833 2.5 37.5s1.16699 24.667 1.5 36s0.5 21.666 0.5 30.999c0 54.667 -3.16699 105.167 -9.5 151.5
s-14.166 87.833 -23.499 124.5l90 16c10 -38 18.5 -81.167 25.5 -129.5s10.5 -99.833 10.5 -154.5c0 -34 -1.5 -70.667 -4.5 -110s-7.16699 -76 -12.5 -110h-149c-48 0 -85.333 6.33301 -112 19s-45.334 33 -56.001 61c-8.66699 -28 -24.5 -49.5 -47.5 -64.5
s-49.5 -22.5 -79.5 -22.5c-25.333 0 -46.333 4 -63 12s-29.667 19 -39 33c2 -7.33301 3 -16.333 3 -27c0 -12.667 -1.16699 -27.5 -3.5 -44.5s-6.83301 -34.5 -13.5 -52.5s-16 -35.667 -28 -53s-27.5 -32.833 -46.5 -46.5s-42.333 -24.667 -70 -33
s-60.167 -12.5 -97.5 -12.5z" />
    <glyph glyph-name="sad.isol" unicode="&#x635;" horiz-adv-x="1106" arabic-form="isolated" 
d="M307 -231c-34.667 0 -67.1699 5.00098 -97.5029 15.001s-56.666 26 -78.999 48s-40 50.667 -53 86s-19.5 78.666 -19.5 129.999c0 32.667 2.16699 65 6.5 97s10.5 63 18.5 93l95 18c-9.33301 -33.333 -16.333 -66.666 -21 -99.999s-7 -66.333 -7 -99
c0 -42.667 5 -77.834 15 -105.501s22.833 -49.667 38.5 -66s33.334 -27.666 53.001 -33.999s39.5 -9.5 59.5 -9.5c24 0 45.833 3.33301 65.5 10s36.834 18 51.501 34s26 37 34 63s12 58 12 96v425h92v-39c0 -27.333 -0.833008 -57 -2.5 -89s-4.5 -62 -8.5 -90h1
c12 36.667 27.667 69.167 47 97.5s41 52.166 65 71.499s49.833 34.166 77.5 44.499s55.5 15.5 83.5 15.5c66 0 115 -22 147 -66s48 -104.333 48 -181c0 -39.333 -1.16699 -78.666 -3.5 -117.999s-5.5 -78 -9.5 -116h-449c-6.66699 -80 -33.167 -138.5 -79.5 -175.5
s-106.5 -55.5 -180.5 -55.5zM927.997 73.001c2 24.667 3.50098 50.001 4.50098 76.001s1.5 51 1.5 75c0 28 -2 53.167 -6 75.5s-10.5 41.5 -19.5 57.5s-21 28.333 -36 37s-33.167 13 -54.5 13c-33.333 0 -64.166 -9.83301 -92.499 -29.5s-53.333 -45.334 -75 -77.001
s-39.334 -67.5 -53.001 -107.5s-22.834 -80 -27.501 -120h358z" />
    <glyph glyph-name="dad.isol" unicode="&#x636;" horiz-adv-x="1106" arabic-form="isolated" 
d="M822 577c-15.333 0 -28.166 5.16699 -38.499 15.5s-15.5 23.166 -15.5 38.499s5.16699 28.333 15.5 39s23.166 16 38.499 16s28.333 -5.33301 39 -16s16 -23.667 16 -39s-5.33301 -28.166 -16 -38.499s-23.667 -15.5 -39 -15.5zM307 -231
c-34.667 0 -67.1699 5.00098 -97.5029 15.001s-56.666 26 -78.999 48s-40 50.667 -53 86s-19.5 78.666 -19.5 129.999c0 32.667 2.16699 65 6.5 97s10.5 63 18.5 93l95 18c-9.33301 -33.333 -16.333 -66.666 -21 -99.999s-7 -66.333 -7 -99c0 -42.667 5 -77.834 15 -105.501
s22.833 -49.667 38.5 -66s33.334 -27.666 53.001 -33.999s39.5 -9.5 59.5 -9.5c24 0 45.833 3.33301 65.5 10s36.834 18 51.501 34s26 37 34 63s12 58 12 96v425h92v-39c0 -27.333 -0.833008 -57 -2.5 -89s-4.5 -62 -8.5 -90h1c12 36.667 27.667 69.167 47 97.5
s41 52.166 65 71.499s49.833 34.166 77.5 44.499s55.5 15.5 83.5 15.5c66 0 115 -22 147 -66s48 -104.333 48 -181c0 -39.333 -1.16699 -78.666 -3.5 -117.999s-5.5 -78 -9.5 -116h-449c-6.66699 -80 -33.167 -138.5 -79.5 -175.5s-106.5 -55.5 -180.5 -55.5z
M927.997 73.001c2 24.667 3.50098 50.001 4.50098 76.001s1.5 51 1.5 75c0 28 -2 53.167 -6 75.5s-10.5 41.5 -19.5 57.5s-21 28.333 -36 37s-33.167 13 -54.5 13c-33.333 0 -64.166 -9.83301 -92.499 -29.5s-53.333 -45.334 -75 -77.001s-39.334 -67.5 -53.001 -107.5
s-22.834 -80 -27.501 -120h358z" />
    <glyph glyph-name="tah.isol" unicode="&#x637;" horiz-adv-x="765" arabic-form="isolated" 
d="M0 73l138 0.000976562v632h92v-274c0 -27.333 -0.833008 -57 -2.5 -89s-4.5 -62 -8.5 -90h1c12 36.667 27.667 69.167 47 97.5s41 52.166 65 71.499s49.833 34.166 77.5 44.499s55.5 15.5 83.5 15.5c66 0 115 -22 147 -66s48 -104.333 48 -181
c0 -39.333 -1.16699 -78.666 -3.5 -117.999s-5.5 -78 -9.5 -116h-675v73zM587 73.001c2 24.667 3.50098 50.001 4.50098 76.001s1.5 51 1.5 75c0 28 -2 53.167 -6 75.5s-10.5 41.5 -19.5 57.5s-21 28.333 -36 37s-33.167 13 -54.5 13
c-33.333 0 -64.166 -9.83301 -92.499 -29.5s-53.333 -45.334 -75 -77.001s-39.334 -67.5 -53.001 -107.5s-22.834 -80 -27.501 -120h358z" />
    <glyph glyph-name="zah.isol" unicode="&#x638;" horiz-adv-x="765" arabic-form="isolated" 
d="M481 577c-15.333 0 -28.166 5.16699 -38.499 15.5s-15.5 23.166 -15.5 38.499s5.16699 28.333 15.5 39s23.166 16 38.499 16s28.333 -5.33301 39 -16s16 -23.667 16 -39s-5.33301 -28.166 -16 -38.499s-23.667 -15.5 -39 -15.5zM0 73l138 0.000976562v632h92v-274
c0 -27.333 -0.833008 -57 -2.5 -89s-4.5 -62 -8.5 -90h1c12 36.667 27.667 69.167 47 97.5s41 52.166 65 71.499s49.833 34.166 77.5 44.499s55.5 15.5 83.5 15.5c66 0 115 -22 147 -66s48 -104.333 48 -181c0 -39.333 -1.16699 -78.666 -3.5 -117.999s-5.5 -78 -9.5 -116
h-675v73zM587 73.001c2 24.667 3.50098 50.001 4.50098 76.001s1.5 51 1.5 75c0 28 -2 53.167 -6 75.5s-10.5 41.5 -19.5 57.5s-21 28.333 -36 37s-33.167 13 -54.5 13c-33.333 0 -64.166 -9.83301 -92.499 -29.5s-53.333 -45.334 -75 -77.001s-39.334 -67.5 -53.001 -107.5
s-22.834 -80 -27.501 -120h358z" />
    <glyph glyph-name="ain.isol" unicode="&#x639;" horiz-adv-x="492" arabic-form="isolated" 
d="M283 -320c-47.333 0 -87.834 5 -121.501 15s-61.334 23.5 -83.001 40.5s-37.667 37 -48 60s-15.5 47.5 -15.5 73.5c0 46.667 14.333 86 43 118s71.334 52.667 128.001 62c-18 5.33301 -35 13.666 -51 24.999s-30 25.333 -42 42s-21.5 35.667 -28.5 57
s-10.5 44.666 -10.5 69.999c0 36 5.66699 68.667 17 98s28 54.333 50 75s48.833 36.667 80.5 48s67.5 17 107.5 17c15.333 0 29.833 -0.666992 43.5 -2s25.5 -2.66602 35.5 -3.99902c12 -2 22.333 -4 31 -6l-15 -74l-28 7l-32 4.5c-12 1.66699 -25.333 2.5 -40 2.5
c-48.667 0 -87 -14.333 -115 -43s-42 -68 -42 -118c0 -24 4.33301 -46.667 13 -68s22 -40 40 -56s41 -28.5 69 -37.5s61.333 -13.5 100 -13.5h70v-73h-130c-42 0 -76.167 -3.66699 -102.5 -11s-46.833 -17 -61.5 -29s-24.5 -25.667 -29.5 -41s-7.5 -30.666 -7.5 -45.999
c0 -34 14.833 -62.5 44.5 -85.5s76.167 -34.5 139.5 -34.5c20.667 0 40.334 0.666992 59.001 2s35.334 3 50.001 5c17.333 2.66699 33.333 5.33398 48 8.00098l6 -70c-16 -3.33301 -33.333 -6.33301 -52 -9c-16 -2.66699 -34.333 -4.83398 -55 -6.50098
s-42.334 -2.5 -65.001 -2.5z" />
    <glyph glyph-name="ghain.isol" unicode="&#x63a;" horiz-adv-x="492" arabic-form="isolated" 
d="M269 580c-15.333 0 -28.166 5.16699 -38.499 15.5s-15.5 23.166 -15.5 38.499s5.16699 28.333 15.5 39s23.166 16 38.499 16s28.333 -5.33301 39 -16s16 -23.667 16 -39s-5.33301 -28.166 -16 -38.499s-23.667 -15.5 -39 -15.5zM283 -320
c-47.333 0 -87.834 5 -121.501 15s-61.334 23.5 -83.001 40.5s-37.667 37 -48 60s-15.5 47.5 -15.5 73.5c0 46.667 14.333 86 43 118s71.334 52.667 128.001 62c-18 5.33301 -35 13.666 -51 24.999s-30 25.333 -42 42s-21.5 35.667 -28.5 57s-10.5 44.666 -10.5 69.999
c0 36 5.66699 68.667 17 98s28 54.333 50 75s48.833 36.667 80.5 48s67.5 17 107.5 17c15.333 0 29.833 -0.666992 43.5 -2s25.5 -2.66602 35.5 -3.99902c12 -2 22.333 -4 31 -6l-15 -74l-28 7l-32 4.5c-12 1.66699 -25.333 2.5 -40 2.5c-48.667 0 -87 -14.333 -115 -43
s-42 -68 -42 -118c0 -24 4.33301 -46.667 13 -68s22 -40 40 -56s41 -28.5 69 -37.5s61.333 -13.5 100 -13.5h70v-73h-130c-42 0 -76.167 -3.66699 -102.5 -11s-46.833 -17 -61.5 -29s-24.5 -25.667 -29.5 -41s-7.5 -30.666 -7.5 -45.999c0 -34 14.833 -62.5 44.5 -85.5
s76.167 -34.5 139.5 -34.5c20.667 0 40.334 0.666992 59.001 2s35.334 3 50.001 5c17.333 2.66699 33.333 5.33398 48 8.00098l6 -70c-16 -3.33301 -33.333 -6.33301 -52 -9c-16 -2.66699 -34.333 -4.83398 -55 -6.50098s-42.334 -2.5 -65.001 -2.5z" />
    <glyph glyph-name="feh.isol" unicode="&#x641;" horiz-adv-x="922" arabic-form="isolated" 
d="M640 579c-15.333 0 -28.166 5.16699 -38.499 15.5s-15.5 23.166 -15.5 38.499s5.16699 28.333 15.5 39s23.166 16 38.499 16s28.333 -5.33301 39 -16s16 -23.667 16 -39s-5.33301 -28.166 -16 -38.499s-23.667 -15.5 -39 -15.5zM869 248
c0 -35.333 -5.66797 -67.999 -17.001 -97.999s-27.666 -56.167 -48.999 -78.5s-47 -39.833 -77 -52.5s-63.333 -19 -100 -19h-213c-63.333 0 -117.166 6.16699 -161.499 18.5s-80.5 30.833 -108.5 55.5s-48.5 55.167 -61.5 91.5s-19.5 78.166 -19.5 125.499
c0 30 3.16699 60.333 9.5 91s14.166 55.667 23.499 75l98 17c-11.333 -23.333 -20.5 -50.833 -27.5 -82.5s-10.5 -61.5 -10.5 -89.5c0 -38 4.16699 -71.333 12.5 -100s22.5 -52.5 42.5 -71.5s46.5 -33.333 79.5 -43s74.167 -14.5 123.5 -14.5h55
c-21.333 15.333 -37.333 37 -48 65s-16 61 -16 99c0 34 5.5 65.833 16.5 95.5s27 55.5 48 77.5s46.5 39.333 76.5 52s63.667 19 101 19c32 0 61.5 -4.33301 88.5 -13s50.5 -22.167 70.5 -40.5s35.667 -42.333 47 -72s17 -65.5 17 -107.5zM775.999 243.001
c0 52.667 -11.5 93.3359 -34.5 122.003s-57.5 43 -103.5 43c-18 0 -35.5 -3.16699 -52.5 -9.5s-32 -16.333 -45 -30s-23.5 -30.834 -31.5 -51.501s-12 -45.334 -12 -74.001c0 -55.333 12 -97.5 36 -126.5s58.667 -43.5 104 -43.5c18.667 0 36.5 3.33301 53.5 10
s31.833 17 44.5 31s22.667 31.667 30 53s11 46.666 11 75.999z" />
    <glyph glyph-name="qaf.isol" unicode="&#x642;" horiz-adv-x="881" arabic-form="isolated" 
d="M794 -238c-32 -2.66699 -65.002 -5.00391 -99.002 -7.00391c-29.333 -1.33301 -61.833 -2.66602 -97.5 -3.99902s-70.834 -2 -105.501 -2c-77.333 0 -143.333 5.83301 -198 17.5s-99.5 29.834 -134.5 54.501s-60.667 56.167 -77 94.5s-24.5 83.833 -24.5 136.5
c0 30.667 2.16699 61.834 6.5 93.501s10.5 62.5 18.5 92.5l95 18c-9.33301 -33.333 -16.333 -66.5 -21 -99.5s-7 -64.5 -7 -94.5c0 -43.333 6.33301 -80.166 19 -110.499s33 -55.166 61 -74.499s64.5 -33.333 109.5 -42s99.833 -13 164.5 -13
c24.667 0 48.834 0.333008 72.501 1s45.167 1.66699 64.5 3l63 4v170h-101c-48 0 -88.667 5.5 -122 16.5s-60.333 26.667 -81 47s-35.667 44.833 -45 73.5s-14 60.667 -14 96c0 32.667 5.16699 64 15.5 94s25.833 56.5 46.5 79.5s46.834 41.167 78.501 54.5
s68.834 20 111.501 20c28 0 54 -1.83301 78 -5.5s45.333 -7.83398 64 -12.501c21.333 -5.33301 41 -11 59 -17v-684zM703.998 384.996c-10.667 4 -21.999 7.66797 -33.999 11.001c-10.667 3.33301 -23.334 6.16602 -38.001 8.49902s-31 3.5 -49 3.5
c-46 0 -82.333 -15 -109 -45s-40 -70 -40 -120c0 -57.333 14.167 -100 42.5 -128s74.833 -42 139.5 -42h88v312zM658.999 561.997c-15.333 0 -28.166 5.16699 -38.499 15.5s-15.5 23.166 -15.5 38.499c0 14.667 5.16699 27.167 15.5 37.5s23.166 15.5 38.499 15.5
c14.667 0 27 -5 37 -15s15 -22.667 15 -38s-5 -28.166 -15 -38.499s-22.333 -15.5 -37 -15.5zM510.999 561.997c-15.333 0 -28 5.16699 -38 15.5s-15 23.166 -15 38.499c0 14.667 5 27.167 15 37.5s22.667 15.5 38 15.5c14.667 0 27.167 -5 37.5 -15s15.5 -22.667 15.5 -38
s-5.16699 -28.166 -15.5 -38.499s-22.833 -15.5 -37.5 -15.5z" />
    <glyph glyph-name="kaf.isol" unicode="&#x643;" horiz-adv-x="851" arabic-form="isolated" 
d="M413 0c-63.333 0 -117.167 6.16797 -161.5 18.501s-80.5 30.833 -108.5 55.5s-48.5 55.167 -61.5 91.5s-19.5 78.166 -19.5 125.499c0 30 3.16699 60.333 9.5 91s14.166 55.667 23.499 75l98 17c-11.333 -23.333 -20.5 -50.833 -27.5 -82.5s-10.5 -61.5 -10.5 -89.5
c0 -38 4.16699 -71.333 12.5 -100s22.833 -52.5 43.5 -71.5s48.334 -33.333 83.001 -43s78 -14.5 130 -14.5h240v632h92v-705h-343zM310.999 465.001c13.333 0 26.165 -0.5 38.498 -1.5s22.5 -2.16699 30.5 -3.5c-9.33301 4 -16.166 10.667 -20.499 20
s-6.5 18.666 -6.5 27.999c0 12 2.33301 24 7 36s12 22.667 22 32s23 16.833 39 22.5s35.667 8.5 59 8.5c11.333 0 21.833 -0.333008 31.5 -1s17.167 -1.66699 22.5 -3l-9 -56c-4.66699 0.666992 -11.5 1.5 -20.5 2.5s-18.167 1.5 -27.5 1.5
c-18.667 0 -32.667 -3.66699 -42 -11s-14 -17.333 -14 -30c0 -13.333 5.83301 -24.166 17.5 -32.499s31.834 -12.5 60.501 -12.5h54v-57h-242v57z" />
    <glyph glyph-name="lam.isol" unicode="&#x644;" horiz-adv-x="643" arabic-form="isolated" 
d="M459 705h92.001v-645c0 -51.333 -6.16699 -95.5 -18.5 -132.5s-29.333 -67.167 -51 -90.5s-47.667 -40.5 -78 -51.5s-63.5 -16.5 -99.5 -16.5c-34.667 0 -67 5 -97 15s-56 26 -78 48s-39.333 50.667 -52 86s-19 78.666 -19 129.999c0 32.667 2.16699 65 6.5 97
s10.5 63 18.5 93l95 18c-9.33301 -33.333 -16.333 -66.666 -21 -99.999s-7 -66.333 -7 -99c0 -42.667 4.83301 -77.834 14.5 -105.501s22.167 -49.667 37.5 -66s32.666 -27.666 51.999 -33.999s39 -9.5 59 -9.5s38.833 3.5 56.5 10.5s33.167 18.5 46.5 34.5
s23.833 37.333 31.5 64s11.5 60 11.5 100v654z" />
    <glyph glyph-name="meem.isol" unicode="&#x645;" horiz-adv-x="799" arabic-form="isolated" 
d="M512 0c-45.333 0 -84.1699 4.83203 -116.503 14.499s-59 23.667 -80 42s-36.667 40.5 -47 66.5s-16.5 55.333 -18.5 88h-28c-36 0 -60.167 -11.333 -72.5 -34s-14.166 -59.667 -5.49902 -111l52 -326h-90l-51 318c-5.33301 34 -6.16602 64.833 -2.49902 92.5
s12.5 51.334 26.5 71.001s33 35 57 46s54 16.5 90 16.5h28c4.66699 27.333 13.334 53 26.001 77s29.167 44.833 49.5 62.5s44.833 31.667 73.5 42s61 15.5 97 15.5c72 0 125.667 -19.5 161 -58.5s53 -94.167 53 -165.5v-257h-202zM623.996 240.999
c0 60 -11.668 102.833 -35.001 128.5s-55.666 38.5 -96.999 38.5c-46.667 0 -83.167 -15.167 -109.5 -45.5s-39.5 -70.5 -39.5 -120.5c0 -57.333 14.167 -99.833 42.5 -127.5s74.833 -41.5 139.5 -41.5h99v168z" />
    <glyph glyph-name="noon.isol" unicode="&#x646;" horiz-adv-x="658" arabic-form="isolated" 
d="M313 373c-15.333 0 -28.166 5.16699 -38.499 15.5s-15.5 23.166 -15.5 38.499s5.16699 28.333 15.5 39s23.166 16 38.499 16s28.333 -5.33301 39 -16s16 -23.667 16 -39s-5.33301 -28.166 -16 -38.499s-23.667 -15.5 -39 -15.5zM571 51
c0 -94.667 -22.1709 -165.333 -66.5039 -212s-110.166 -70 -197.499 -70c-34.667 0 -67.167 5 -97.5 15s-56.666 26 -78.999 48s-40 50.667 -53 86s-19.5 78.666 -19.5 129.999c0 32.667 2.16699 65 6.5 97s10.5 63 18.5 93l95 18
c-9.33301 -33.333 -16.333 -66.666 -21 -99.999s-7 -66.333 -7 -99c0 -42.667 5 -77.834 15 -105.501s22.833 -49.667 38.5 -66s33.334 -27.666 53.001 -33.999s39.5 -9.5 59.5 -9.5c24 0 45.833 3.33301 65.5 10s36.834 18 51.501 34s26 37 34 63s12 58 12 96v425h92v-419z
" />
    <glyph glyph-name="heh.isol" unicode="&#x647;" horiz-adv-x="594" arabic-form="isolated" 
d="M307 0c-48 0 -88.666 5.5 -121.999 16.5s-60.333 26.667 -81 47s-35.667 44.833 -45 73.5s-14 60.667 -14 96c0 33.333 5.16699 65 15.5 95s26 56.333 47 79s47.167 40.667 78.5 54s67.666 20 108.999 20c72 0 125.667 -19.5 161 -58.5s53 -94.167 53 -165.5v-257h-202z
M419.001 241c0 60 -11.668 102.833 -35.001 128.5s-55.666 38.5 -96.999 38.5c-46.667 0 -83.167 -15.167 -109.5 -45.5s-39.5 -70.5 -39.5 -120.5c0 -57.333 14.167 -99.833 42.5 -127.5s74.833 -41.5 139.5 -41.5h99v168z" />
    <glyph glyph-name="waw.isol" unicode="&#x648;" horiz-adv-x="585" arabic-form="isolated" 
d="M207 -253c-19.333 0 -38.334 0.668945 -57.001 2.00195s-35.334 3 -50.001 5c-17.333 2.66699 -33.666 5.33398 -48.999 8.00098l6 77c16 -4 33 -7.33301 51 -10c15.333 -2.66699 32.5 -4.83398 51.5 -6.50098s38.167 -2.5 57.5 -2.5c27.333 0 52.666 2.66699 75.999 8
s43.5 14.166 60.5 26.499s30.333 28.5 40 48.5s14.5 44.333 14.5 73v24h-101c-48 0 -88.667 5.5 -122 16.5s-60.333 26.667 -81 47s-35.667 44.833 -45 73.5s-14 60.667 -14 96c0 32.667 5.16699 64 15.5 94s25.833 56.5 46.5 79.5s46.834 41.167 78.501 54.5
s68.834 20 111.501 20c28 0 54 -1.83301 78 -5.5s45.333 -7.83398 64 -12.501c21.333 -5.33301 41 -11 59 -17v-465c0 -29.333 -5 -58 -15 -86s-26.5 -53 -49.5 -75s-53 -39.667 -90 -53s-82.5 -20 -136.5 -20zM407.999 385.002c-10.667 4 -21.999 7.66797 -33.999 11.001
c-10.667 3.33301 -23.334 6.16602 -38.001 8.49902s-31 3.5 -49 3.5c-46.667 0 -83.167 -15 -109.5 -45s-39.5 -70 -39.5 -120c0 -57.333 14.167 -100 42.5 -128s74.833 -42 139.5 -42h88v312z" />
    <glyph glyph-name="alefmaksura.isol" unicode="&#x649;" horiz-adv-x="1000" arabic-form="isolated" 
d="M413 0c-63.333 0 -117.165 6.16797 -161.498 18.501s-80.5 30.833 -108.5 55.5s-48.5 55.167 -61.5 91.5s-19.5 78.166 -19.5 125.499c0 30 3.16699 60.333 9.5 91s14.166 55.667 23.499 75l98 17c-11.333 -23.333 -20.5 -50.833 -27.5 -82.5s-10.5 -61.5 -10.5 -89.5
c0 -38 4.16699 -71.333 12.5 -100s22.833 -52.5 43.5 -71.5s48.334 -33.333 83.001 -43s78 -14.5 130 -14.5h85v389c17.333 3.33301 36 6.33301 56 9c17.333 2.66699 36.833 5 58.5 7s44.5 3 68.5 3c42 0 77.167 -5 105.5 -15s51.166 -24.333 68.499 -43
s29.833 -41.667 37.5 -69s11.5 -58 11.5 -92v-134h-90v122c0 57.333 -11 98 -33 122s-58.333 36 -109 36c-10.667 0 -20.834 -0.333008 -30.501 -1s-18.5 -1.66699 -26.5 -3l-27 -4v-400h-186z" />
    <glyph glyph-name="yeh.isol" unicode="&#x64a;" horiz-adv-x="1000" arabic-form="isolated" 
d="M523 -149c0 -15.333 -5 -28.166 -15 -38.499s-22.333 -15.5 -37 -15.5c-15.333 0 -28.166 5.16699 -38.499 15.5s-15.5 23.166 -15.5 38.499c0 14.667 5.16699 27.167 15.5 37.5s23.166 15.5 38.499 15.5c14.667 0 27 -5 37 -15s15 -22.667 15 -38zM376 -149
c0 -15.333 -5.16699 -28.166 -15.5 -38.499s-22.833 -15.5 -37.5 -15.5c-15.333 0 -28 5.16699 -38 15.5s-15 23.166 -15 38.499c0 14.667 5 27.167 15 37.5s22.667 15.5 38 15.5c14.667 0 27.167 -5 37.5 -15s15.5 -22.667 15.5 -38zM413 0
c-63.333 0 -117.165 6.16797 -161.498 18.501s-80.5 30.833 -108.5 55.5s-48.5 55.167 -61.5 91.5s-19.5 78.166 -19.5 125.499c0 30 3.16699 60.333 9.5 91s14.166 55.667 23.499 75l98 17c-11.333 -23.333 -20.5 -50.833 -27.5 -82.5s-10.5 -61.5 -10.5 -89.5
c0 -38 4.16699 -71.333 12.5 -100s22.833 -52.5 43.5 -71.5s48.334 -33.333 83.001 -43s78 -14.5 130 -14.5h85v389c17.333 3.33301 36 6.33301 56 9c17.333 2.66699 36.833 5 58.5 7s44.5 3 68.5 3c42 0 77.167 -5 105.5 -15s51.166 -24.333 68.499 -43
s29.833 -41.667 37.5 -69s11.5 -58 11.5 -92v-134h-90v122c0 57.333 -11 98 -33 122s-58.333 36 -109 36c-10.667 0 -20.834 -0.333008 -30.501 -1s-18.5 -1.66699 -26.5 -3l-27 -4v-400h-186z" />
    <glyph glyph-name="fathatan" unicode="&#xfe70;" horiz-adv-x="0" arabic-form="isolated" 
d="M-112 51l224 32v-51l-224 -32v51zM-111 145l224 32v-51l-224 -32v51z" />
    <glyph glyph-name="dammatan" unicode="&#xfe72;" horiz-adv-x="0" arabic-form="isolated" 
d="M-141 134l46 10l21 -92l53 11c-1.33301 4.66699 -2.33301 9.33398 -3 14.001c-2 8 -3 17.667 -3 29c0 25.333 8.83301 46.333 26.5 63s39.5 25 65.5 25c23.333 0 42 -6.83301 56 -20.5s21 -30.834 21 -51.501c0 -24 -7.5 -42.833 -22.5 -56.5
s-34.167 -23.167 -57.5 -28.5l-175 -37zM57 79c11.333 2.66699 20.333 7.66797 27 15.001s10 15.666 10 24.999s-2.66699 16.833 -8 22.5s-13.333 8.5 -24 8.5c-13.333 0 -23.666 -4 -30.999 -12s-11 -18 -11 -30c0 -9.33301 1 -17.333 3 -24
c1.33301 -4 2.66602 -7.66699 3.99902 -11z" />
    <glyph glyph-name="kasratan" unicode="&#xfe74;" horiz-adv-x="0" arabic-form="isolated" 
d="M-112 -126l224 32v-51l-224 -32v51zM-111 -32l224 32v-51l-224 -32v51z" />
    <glyph glyph-name="fatha" unicode="&#xfe76;" horiz-adv-x="0" arabic-form="isolated" 
d="M-112 56l224 32v-56l-224 -32v56z" />
    <glyph glyph-name="damma" unicode="&#xfe78;" horiz-adv-x="0" arabic-form="isolated" 
d="M-120 41l78 17c-1.33301 4.66699 -2.33301 9.33398 -3 14.001c-2 8 -3 17.667 -3 29c0 25.333 8.83301 46.333 26.5 63s39.5 25 65.5 25c23.333 0 42 -6.83301 56 -20.5s21 -30.834 21 -51.501c0 -24 -7.5 -42.833 -22.5 -56.5s-34.167 -23.167 -57.5 -28.5l-152 -32z
M36 74c11.333 2.66699 20.333 7.66797 27 15.001s10 15.666 10 24.999s-2.66699 16.833 -8 22.5s-13.333 8.5 -24 8.5c-13.333 0 -23.666 -4 -30.999 -12s-11 -18 -11 -30c0 -9.33301 1 -17.333 3 -24c1.33301 -4 2.66602 -7.66699 3.99902 -11z" />
    <glyph glyph-name="kasra" unicode="&#xfe7a;" horiz-adv-x="0" arabic-form="isolated" 
d="M-112 -32l224 32v-56l-224 -32v56z" />
    <glyph glyph-name="shadda" unicode="&#xfe7c;" horiz-adv-x="0" arabic-form="isolated" 
d="M1 35c-6 -10.667 -15.1689 -19.1699 -27.502 -25.5029s-25.166 -9.5 -38.499 -9.5c-14.667 0 -27.5 4.83301 -38.5 14.5s-18.167 26.167 -21.5 49.5l-7 52l48 7l7 -50c3.33301 -19.333 11.666 -29 24.999 -29c10 0.666992 17.667 4.33398 23 11.001s7.33301 15.667 6 27
l-8 51l48 7l8 -52c4 -20 13.667 -30 29 -30c12.667 0 20.834 4.33301 24.501 13s4.83398 19.334 3.50098 32.001l-8 53l48 7l8 -51c4.66699 -26.667 0.166992 -49.667 -13.5 -69s-36.5 -29 -68.5 -29c-8 0 -16.5 1.83301 -25.5 5.5s-16.167 8.83398 -21.5 15.501z" />
    <glyph glyph-name="sukun" unicode="&#xfe7e;" horiz-adv-x="0" arabic-form="isolated" 
d="M-39 80c0 -11.333 3.83203 -20.5 11.499 -27.5s17.167 -10.5 28.5 -10.5s20.333 3.83301 27 11.5s10 17.167 10 28.5s-3.66699 20.5 -11 27.5s-16.666 10.5 -27.999 10.5s-20.5 -3.83301 -27.5 -11.5s-10.5 -17.167 -10.5 -28.5zM-89.001 80c0 12 2.5 23 7.5 33
s11.5 18.667 19.5 26s17.5 13 28.5 17s22.5 6 34.5 6c25.333 0 46.333 -6.83301 63 -20.5s25 -33.5 25 -59.5c0 -12 -2.5 -23 -7.5 -33s-11.5 -18.667 -19.5 -26s-17.5 -13 -28.5 -17s-22.5 -6 -34.5 -6c-25.333 -0 -46.333 6.83301 -63 20.5s-25 33.5 -25 59.5z" />
    <glyph glyph-name="alef_wasla.isol" unicode="&#x671;" horiz-adv-x="282" arabic-form="isolated" 
d="M187 0h-92v696h92v-696zM214 820l-0.00195312 12.999c0 28.667 -3.66699 48.334 -11 59.001s-17.666 16 -30.999 16c-21.333 0 -38.666 -8.83301 -51.999 -26.5s-23 -38.167 -29 -61.5h123zM-22.002 819.999l53.999 0.000976562c6 19.333 13.333 37.5 22 54.5
s19.167 31.833 31.5 44.5s26.333 22.667 42 30s33.5 11 53.5 11c30.667 0 54.334 -9.33301 71.001 -28s25 -51.334 25 -98.001v-67h-299v53z" />
    <glyph glyph-name="tteh.isol" unicode="&#x679;" horiz-adv-x="773" arabic-form="isolated" 
d="M413 0c-63.333 0 -117.167 6.16797 -161.5 18.501s-80.5 30.833 -108.5 55.5s-48.5 55.167 -61.5 91.5s-19.5 78.166 -19.5 125.499c0 30 3.16699 60.333 9.5 91s14.166 55.667 23.499 75l98 17c-11.333 -23.333 -20.5 -50.833 -27.5 -82.5s-10.5 -61.5 -10.5 -89.5
c0 -38 4.16699 -71.333 12.5 -100s22.833 -52.5 43.5 -71.5s48.334 -33.333 83.001 -43s78 -14.5 130 -14.5h170v397h92v-470h-273zM495.999 660.001c0 16 -3.33398 29 -10.001 39s-17.667 15 -33 15c-13.333 0 -26.166 -3.66699 -38.499 -11s-23.5 -16.833 -33.5 -28.5
s-18.333 -24.667 -25 -39s-11 -28.5 -13 -42.5h73c28.667 0 49.167 6.16699 61.5 18.5s18.5 28.5 18.5 48.5zM343.998 747.001c0 -9.33301 -0.666992 -19.499 -2 -30.499s-3 -21.833 -5 -32.5h1c13.333 22 31 40.333 53 55s45.333 22 70 22
c30.667 0 54.167 -8.16699 70.5 -24.5s24.5 -39.5 24.5 -69.5c0 -36.667 -12.333 -65.834 -37 -87.501s-61.667 -32.5 -111 -32.5h-122v283h58v-83z" />
    <glyph glyph-name="peh.isol" unicode="&#x67e;" horiz-adv-x="773" arabic-form="isolated" 
d="M415 -271c-13.333 0 -24.833 4.66699 -34.5 14s-14.5 20.666 -14.5 33.999c0 14 4.83301 25.667 14.5 35s21.167 14 34.5 14s24.833 -4.66699 34.5 -14s14.5 -21 14.5 -35c0 -13.333 -4.83301 -24.666 -14.5 -33.999s-21.167 -14 -34.5 -14zM488 -163
c-14 0 -26 4.83203 -36 14.499s-15 21.834 -15 36.501c0 14 5 25.833 15 35.5s22 14.5 36 14.5s25.833 -4.66699 35.5 -14s14.5 -21.333 14.5 -36c0 -14 -4.83301 -26 -14.5 -36s-21.5 -15 -35.5 -15zM342 -163.001c-14 0 -25.833 4.83203 -35.5 14.499
s-14.5 21.834 -14.5 36.501c0 14 4.83301 25.833 14.5 35.5s21.5 14.5 35.5 14.5s25.833 -4.66699 35.5 -14s14.5 -21.333 14.5 -36c0 -14 -4.83301 -26 -14.5 -36s-21.5 -15 -35.5 -15zM413 -0.00195312c-63.333 0 -117.167 6.16797 -161.5 18.501
s-80.5 30.833 -108.5 55.5s-48.5 55.167 -61.5 91.5s-19.5 78.166 -19.5 125.499c0 30 3.16699 60.333 9.5 91s14.166 55.667 23.499 75l98 17c-11.333 -23.333 -20.5 -50.833 -27.5 -82.5s-10.5 -61.5 -10.5 -89.5c0 -38 4.16699 -71.333 12.5 -100
s22.833 -52.5 43.5 -71.5s48.334 -33.333 83.001 -43s78 -14.5 130 -14.5h170v397h92v-470h-273z" />
    <glyph glyph-name="tcheh.isol" unicode="&#x686;" horiz-adv-x="602" arabic-form="isolated" 
d="M325 0c-42.667 0 -77.666 -3.16699 -104.999 -9.5s-49 -15.166 -65 -26.499s-27.167 -24.666 -33.5 -39.999s-9.5 -32 -9.5 -50c0 -30 10.833 -55.167 32.5 -75.5s53.5 -33.833 95.5 -40.5l-19 -75c-62 9.33301 -110.833 29.833 -146.5 61.5s-53.5 72.5 -53.5 122.5
c0 29.333 5.5 56.666 16.5 81.999s28.667 47.166 53 65.499s56.166 32.666 95.499 42.999s87.333 15.5 144 15.5h107c2 17.333 3.66699 34.666 5 51.999s2 34.333 2 51c0 38 -3.66699 71 -11 99s-19.666 51.333 -36.999 70s-40 32.667 -68 42s-62.333 14 -103 14
c-20 0 -38.833 -0.5 -56.5 -1.5s-35.834 -2.83301 -54.501 -5.5v72c16.667 2.66699 35.334 4.66699 56.001 6s41.667 2 63 2c55.333 0 102.166 -6.33301 140.499 -19s69.5 -31.167 93.5 -55.5s41.333 -54.666 52 -90.999s16 -78.166 16 -125.499
c0 -24 -1.16699 -51.5 -3.5 -82.5s-6.5 -64.5 -12.5 -100.5h-194zM380.001 -270c-13.333 0 -24.833 4.66699 -34.5 14s-14.5 20.666 -14.5 33.999c0 14 4.83301 25.667 14.5 35s21.167 14 34.5 14s24.833 -4.66699 34.5 -14s14.5 -21 14.5 -35
c0 -13.333 -4.83301 -24.666 -14.5 -33.999s-21.167 -14 -34.5 -14zM453.001 -162c-14 0 -26 4.83203 -36 14.499s-15 21.834 -15 36.501c0 14 5 25.833 15 35.5s22 14.5 36 14.5s25.833 -4.66699 35.5 -14s14.5 -21.333 14.5 -36c0 -14 -4.83301 -26 -14.5 -36
s-21.5 -15 -35.5 -15zM307.001 -162.001c-14 0 -25.833 4.83203 -35.5 14.499s-14.5 21.834 -14.5 36.501c0 14 4.83301 25.833 14.5 35.5s21.5 14.5 35.5 14.5s25.833 -4.66699 35.5 -14s14.5 -21.333 14.5 -36c0 -14 -4.83301 -26 -14.5 -36s-21.5 -15 -35.5 -15z" />
    <glyph glyph-name="ddal.isol" unicode="&#x688;" horiz-adv-x="527" arabic-form="isolated" 
d="M52 73l321.002 -0.00195312c-0.666992 46 -5.83398 87 -15.501 123s-24.667 67.667 -45 95s-46.333 51 -78 71s-69.5 36.667 -113.5 50l23 78c54 -16.667 101.167 -37.167 141.5 -61.5s73.666 -54.166 99.999 -89.499s46 -76.666 59 -123.999s19.5 -102.333 19.5 -165
v-50h-412v73zM330.002 689.998c0 16 -3.33398 29 -10.001 39s-17.667 15 -33 15c-13.333 0 -26.166 -3.66699 -38.499 -11s-23.5 -16.833 -33.5 -28.5s-18.333 -24.667 -25 -39s-11 -28.5 -13 -42.5h73c28.667 0 49.167 6.16699 61.5 18.5s18.5 28.5 18.5 48.5z
M178.001 776.998c0 -9.33301 -0.666992 -19.499 -2 -30.499s-3 -21.833 -5 -32.5h1c13.333 22 31 40.333 53 55s45.333 22 70 22c30.667 0 54.167 -8.16699 70.5 -24.5s24.5 -39.5 24.5 -69.5c0 -36.667 -12.333 -65.834 -37 -87.501s-61.667 -32.5 -111 -32.5h-122v283h58
v-83z" />
    <glyph glyph-name="uni0691" unicode="&#x691;" horiz-adv-x="409" arabic-form="isolated" 
d="M90 -257c-18.667 0 -36.833 1.33398 -54.5 4.00098s-34.167 6 -49.5 10l11 76c30.667 -11.333 64 -17 100 -17c20.667 0 39.167 2.83301 55.5 8.5s30.333 15 42 28s20.5 30.5 26.5 52.5s9 49.333 9 82v483h92v-475c0 -35.333 -3.66699 -68.333 -11 -99
s-19.833 -57.334 -37.5 -80.001s-41.5 -40.5 -71.5 -53.5s-67.333 -19.5 -112 -19.5zM350.001 690.001c0 16 -3.33398 29 -10.001 39s-17.667 15 -33 15c-13.333 0 -26.166 -3.66699 -38.499 -11s-23.5 -16.833 -33.5 -28.5s-18.333 -24.667 -25 -39s-11 -28.5 -13 -42.5h73
c28.667 0 49.167 6.16699 61.5 18.5s18.5 28.5 18.5 48.5zM198 777.001c0 -9.33301 -0.666992 -19.499 -2 -30.499s-3 -21.833 -5 -32.5h1c13.333 22 31 40.333 53 55s45.333 22 70 22c30.667 0 54.167 -8.16699 70.5 -24.5s24.5 -39.5 24.5 -69.5
c0 -36.667 -12.333 -65.834 -37 -87.501s-61.667 -32.5 -111 -32.5h-122v283h58v-83z" />
    <glyph glyph-name="uni0698" unicode="&#x698;" horiz-adv-x="409" arabic-form="isolated" 
d="M269 681c-14.667 0 -26.834 4.83203 -36.501 14.499s-14.5 21.834 -14.5 36.501s4.83301 27 14.5 37s21.834 15 36.501 15c14 0 25.833 -5 35.5 -15s14.5 -22.333 14.5 -37c0 -14 -4.83301 -26 -14.5 -36s-21.5 -15 -35.5 -15zM343 561.999
c-15.333 0 -28 5.16699 -38 15.5s-15 23.166 -15 38.499c0 14.667 5 27.167 15 37.5s22.667 15.5 38 15.5c14.667 0 27.167 -5 37.5 -15s15.5 -22.667 15.5 -38s-5.16699 -28.166 -15.5 -38.499s-22.833 -15.5 -37.5 -15.5zM195 561.999c-15.333 0 -28 5.16699 -38 15.5
s-15 23.166 -15 38.499c0 14.667 5 27.167 15 37.5s22.667 15.5 38 15.5s28 -5 38 -15s15 -22.667 15 -38s-5 -28.166 -15 -38.499s-22.667 -15.5 -38 -15.5zM90 -257.001c-18.667 0 -36.833 1.33398 -54.5 4.00098s-34.167 6 -49.5 10l11 76c30.667 -11.333 64 -17 100 -17
c20.667 0 39.167 2.83301 55.5 8.5s30.333 15 42 28s20.5 30.5 26.5 52.5s9 49.333 9 82v483h92v-475c0 -35.333 -3.66699 -68.333 -11 -99s-19.833 -57.334 -37.5 -80.001s-41.5 -40.5 -71.5 -53.5s-67.333 -19.5 -112 -19.5z" />
    <glyph glyph-name="veh.isol" unicode="&#x6a4;" horiz-adv-x="922" arabic-form="isolated" 
d="M640 681c-14.667 0 -26.834 4.83203 -36.501 14.499s-14.5 21.834 -14.5 36.501s4.83301 27 14.5 37s21.834 15 36.501 15c14 0 25.833 -5 35.5 -15s14.5 -22.333 14.5 -37c0 -14 -4.83301 -26 -14.5 -36s-21.5 -15 -35.5 -15zM714 561.999
c-15.333 0 -28 5.16699 -38 15.5s-15 23.166 -15 38.499c0 14.667 5 27.167 15 37.5s22.667 15.5 38 15.5c14.667 0 27.167 -5 37.5 -15s15.5 -22.667 15.5 -38s-5.16699 -28.166 -15.5 -38.499s-22.833 -15.5 -37.5 -15.5zM566 561.999c-15.333 0 -28 5.16699 -38 15.5
s-15 23.166 -15 38.499c0 14.667 5 27.167 15 37.5s22.667 15.5 38 15.5s28 -5 38 -15s15 -22.667 15 -38s-5 -28.166 -15 -38.499s-22.667 -15.5 -38 -15.5zM869 247.999c0 -35.333 -5.66797 -67.999 -17.001 -97.999s-27.666 -56.167 -48.999 -78.5s-47 -39.833 -77 -52.5
s-63.333 -19 -100 -19h-213c-63.333 0 -117.166 6.16699 -161.499 18.5s-80.5 30.833 -108.5 55.5s-48.5 55.167 -61.5 91.5s-19.5 78.166 -19.5 125.499c0 30 3.16699 60.333 9.5 91s14.166 55.667 23.499 75l98 17c-11.333 -23.333 -20.5 -50.833 -27.5 -82.5
s-10.5 -61.5 -10.5 -89.5c0 -38 4.16699 -71.333 12.5 -100s22.5 -52.5 42.5 -71.5s46.5 -33.333 79.5 -43s74.167 -14.5 123.5 -14.5h55c-21.333 15.333 -37.333 37 -48 65s-16 61 -16 99c0 34 5.5 65.833 16.5 95.5s27 55.5 48 77.5s46.5 39.333 76.5 52s63.667 19 101 19
c32 0 61.5 -4.33301 88.5 -13s50.5 -22.167 70.5 -40.5s35.667 -42.333 47 -72s17 -65.5 17 -107.5zM775.999 243c0 52.667 -11.5 93.3359 -34.5 122.003s-57.5 43 -103.5 43c-18 0 -35.5 -3.16699 -52.5 -9.5s-32 -16.333 -45 -30s-23.5 -30.834 -31.5 -51.501
s-12 -45.334 -12 -74.001c0 -55.333 12 -97.5 36 -126.5s58.667 -43.5 104 -43.5c18.667 0 36.5 3.33301 53.5 10s31.833 17 44.5 31s22.667 31.667 30 53s11 46.666 11 75.999z" />
    <glyph glyph-name="kheh.isol" unicode="&#x6a9;" horiz-adv-x="847" arabic-form="isolated" 
d="M413 0c-63.333 0 -117.168 6.16895 -161.501 18.502s-80.5 30.833 -108.5 55.5s-48.5 55.167 -61.5 91.5s-19.5 78.166 -19.5 125.499c0 30 3.16699 60.333 9.5 91s14.166 55.667 23.499 75l98 17c-11.333 -23.333 -20.5 -50.833 -27.5 -82.5s-10.5 -61.5 -10.5 -89.5
c0 -38 4.16699 -71.333 12.5 -100s22.833 -52.5 43.5 -71.5s48.334 -33.333 83.001 -43s78 -14.5 130 -14.5h255c-0.666992 48.667 -6.5 91.667 -17.5 129s-27.333 69.666 -49 96.999s-48.667 50.333 -81 69s-70.5 34.334 -114.5 47.001v68l379 238v-93l-272 -167
c38.667 -16 73.334 -35.333 104.001 -58s56.5 -50.334 77.5 -83.001s37 -71 48 -115s16.5 -95.333 16.5 -154v-51h-357z" />
    <glyph glyph-name="Gaf.isol" unicode="&#x6af;" horiz-adv-x="847" arabic-form="isolated" 
d="M413 0c-63.333 0 -117.168 6.16895 -161.501 18.502s-80.5 30.833 -108.5 55.5s-48.5 55.167 -61.5 91.5s-19.5 78.166 -19.5 125.499c0 30 3.16699 60.333 9.5 91s14.166 55.667 23.499 75l98 17c-11.333 -23.333 -20.5 -50.833 -27.5 -82.5s-10.5 -61.5 -10.5 -89.5
c0 -38 4.16699 -71.333 12.5 -100s22.833 -52.5 43.5 -71.5s48.334 -33.333 83.001 -43s78 -14.5 130 -14.5h255c-0.666992 48.667 -6.5 91.667 -17.5 129s-27.333 69.666 -49 96.999s-48.667 50.333 -81 69s-70.5 34.334 -114.5 47.001v62l379 238v-87l-272 -167
c38.667 -16 73.334 -35.333 104.001 -58s56.5 -50.334 77.5 -83.001s37 -71 48 -115s16.5 -95.333 16.5 -154v-51h-357zM416.998 650.002l379 238v-84l-379 -238v84z" />
    <glyph glyph-name="ghunna.isol" unicode="&#x6ba;" horiz-adv-x="658" arabic-form="isolated" 
d="M571 51c0 -94.667 -22.1709 -165.333 -66.5039 -212s-110.166 -70 -197.499 -70c-34.667 0 -67.167 5 -97.5 15s-56.666 26 -78.999 48s-40 50.667 -53 86s-19.5 78.666 -19.5 129.999c0 32.667 2.16699 65 6.5 97s10.5 63 18.5 93l95 18
c-9.33301 -33.333 -16.333 -66.666 -21 -99.999s-7 -66.333 -7 -99c0 -42.667 5 -77.834 15 -105.501s22.833 -49.667 38.5 -66s33.334 -27.666 53.001 -33.999s39.5 -9.5 59.5 -9.5c24 0 45.833 3.33301 65.5 10s36.834 18 51.501 34s26 37 34 63s12 58 12 96v425h92v-419z
" />
    <glyph glyph-name="uni06BE" unicode="&#x6be;" horiz-adv-x="765" arabic-form="isolated" 
d="M0 0v72.999h112c10 0 18.667 -0.5 26 -1.5s11.333 -1.5 12 -1.5l-5.5 5.5c-3.66699 3.66699 -7.66699 9 -12 16s-8.16602 15.5 -11.499 25.5s-5 21.667 -5 35c0 48.667 15.667 87.667 47 117s74 44 128 44c30 0 55.833 -5 77.5 -15s39.667 -24 54 -42
s24.833 -39.5 31.5 -64.5s10 -52.167 10 -81.5v-37h139v20c0 62 -6 115 -18 159s-30.333 80.167 -55 108.5s-55.834 49 -93.501 62s-82.167 19.5 -133.5 19.5c-32.667 0 -68.167 -3.16699 -106.5 -9.5s-73.5 -14.833 -105.5 -25.5l-10 68
c34 10.667 71.667 19.334 113 26.001s82 10 122 10c60 0 113.333 -7.66699 160 -23s86 -39.833 118 -73.5s56.333 -77 73 -130s25 -116.833 25 -191.5v-93h-692zM384 106.999c0 44.667 -8 79.833 -24 105.5s-41 38.5 -75 38.5c-29.333 0 -51.333 -8.5 -66 -25.5
s-22 -38.167 -22 -63.5c0 -32 10.5 -55.167 31.5 -69.5s45.5 -21.5 73.5 -21.5h82v36z" />
    <glyph glyph-name="hehhamza" unicode="&#x6c0;" horiz-adv-x="594" arabic-form="isolated" 
d="M307 0c-48 0 -88.666 5.5 -121.999 16.5s-60.333 26.667 -81 47s-35.667 44.833 -45 73.5s-14 60.667 -14 96c0 33.333 5.16699 65 15.5 95s26 56.333 47 79s47.167 40.667 78.5 54s67.666 20 108.999 20c72 0 125.667 -19.5 161 -58.5s53 -94.167 53 -165.5v-257h-202z
M419.001 241c0 60 -11.668 102.833 -35.001 128.5s-55.666 38.5 -96.999 38.5c-46.667 0 -83.167 -15.167 -109.5 -45.5s-39.5 -70.5 -39.5 -120.5c0 -57.333 14.167 -99.833 42.5 -127.5s74.833 -41.5 139.5 -41.5h99v168zM153 623c13.333 0 26.165 -0.5 38.498 -1.5
s22.5 -2.16699 30.5 -3.5c-9.33301 4 -16.166 10.667 -20.499 20s-6.5 18.666 -6.5 27.999c0 12 2.33301 24 7 36s12 22.667 22 32s23 16.833 39 22.5s35.667 8.5 59 8.5c11.333 0 21.833 -0.333008 31.5 -1s17.167 -1.66699 22.5 -3l-9 -56
c-4.66699 0.666992 -11.5 1.5 -20.5 2.5s-18.167 1.5 -27.5 1.5c-18.667 0 -32.667 -3.66699 -42 -11s-14 -17.333 -14 -30c0 -13.333 5.83301 -24.166 17.5 -32.499s31.834 -12.5 60.501 -12.5h54v-57h-242v57z" />
    <glyph glyph-name="uni06C1" unicode="&#x6c1;" horiz-adv-x="594" arabic-form="isolated" 
d="M307 0c-48 0 -88.666 5.5 -121.999 16.5s-60.333 26.667 -81 47s-35.667 44.833 -45 73.5s-14 60.667 -14 96c0 33.333 5.16699 65 15.5 95s26 56.333 47 79s47.167 40.667 78.5 54s67.666 20 108.999 20c72 0 125.667 -19.5 161 -58.5s53 -94.167 53 -165.5v-257h-202z
M419.001 241c0 60 -11.668 102.833 -35.001 128.5s-55.666 38.5 -96.999 38.5c-46.667 0 -83.167 -15.167 -109.5 -45.5s-39.5 -70.5 -39.5 -120.5c0 -57.333 14.167 -99.833 42.5 -127.5s74.833 -41.5 139.5 -41.5h99v168z" />
    <glyph glyph-name="uni06CC" unicode="&#x6cc;" horiz-adv-x="1057" arabic-form="isolated" 
d="M413 0c-63.333 0 -117.165 6.16797 -161.498 18.501s-80.5 30.833 -108.5 55.5s-48.5 55.167 -61.5 91.5s-19.5 78.166 -19.5 125.499c0 30 3.16699 60.333 9.5 91s14.166 55.667 23.499 75l98 17c-11.333 -23.333 -20.5 -50.833 -27.5 -82.5s-10.5 -61.5 -10.5 -89.5
c0 -38 4.16699 -71.333 12.5 -100s22.833 -52.5 43.5 -71.5s48.334 -33.333 83.001 -43s78 -14.5 130 -14.5h85v389c17.333 3.33301 36 6.33301 56 9c17.333 2.66699 36.833 5 58.5 7s44.5 3 68.5 3c42 0 77.167 -5 105.5 -15s51.166 -24.333 68.499 -43
s29.833 -41.667 37.5 -69s11.5 -58 11.5 -92v-134h-90v122c0 57.333 -11 98 -33 122s-58.333 36 -109 36c-10.667 0 -20.834 -0.333008 -30.501 -1s-18.5 -1.66699 -26.5 -3l-27 -4v-400h-186z" />
    <glyph glyph-name="yehbarree" unicode="&#x6d2;" horiz-adv-x="750" arabic-form="isolated" 
d="M75 0c-6 58.667 -2.16504 116.666 11.502 173.999s34.834 108.833 63.501 154.5s63.667 82.5 105 110.5s87 42 137 42c30 0 55.167 -4.16699 75.5 -12.5s36.666 -19.833 48.999 -34.5s21.166 -32.167 26.499 -52.5s8 -42.5 8 -66.5v-65h-90v43
c0 36.667 -5.83301 64.834 -17.5 84.501s-34.167 29.5 -67.5 29.5c-30.667 0 -59 -10.667 -85 -32s-48.333 -48.5 -67 -81.5s-33.334 -69 -44.001 -108s-16 -76.5 -16 -112.5h524v-73h-613z" />
    <glyph glyph-name="uni06D3" unicode="&#x6d3;" horiz-adv-x="750" arabic-form="isolated" 
d="M75 0c-6 58.667 -2.16504 116.666 11.502 173.999s34.834 108.833 63.501 154.5s63.667 82.5 105 110.5s87 42 137 42c30 0 55.167 -4.16699 75.5 -12.5s36.666 -19.833 48.999 -34.5s21.166 -32.167 26.499 -52.5s8 -42.5 8 -66.5v-65h-90v43
c0 36.667 -5.83301 64.834 -17.5 84.501s-34.167 29.5 -67.5 29.5c-30.667 0 -59 -10.667 -85 -32s-48.333 -48.5 -67 -81.5s-33.334 -69 -44.001 -108s-16 -76.5 -16 -112.5h524v-73h-613zM195.002 622.999c13.333 0 26.165 -0.5 38.498 -1.5s22.5 -2.16699 30.5 -3.5
c-9.33301 4 -16.166 10.667 -20.499 20s-6.5 18.666 -6.5 27.999c0 12 2.33301 24 7 36s12 22.667 22 32s23 16.833 39 22.5s35.667 8.5 59 8.5c11.333 0 21.833 -0.333008 31.5 -1s17.167 -1.66699 22.5 -3l-9 -56c-4.66699 0.666992 -11.5 1.5 -20.5 2.5
s-18.167 1.5 -27.5 1.5c-18.667 0 -32.667 -3.66699 -42 -11s-14 -17.333 -14 -30c0 -13.333 5.83301 -24.166 17.5 -32.499s31.834 -12.5 60.501 -12.5h54v-57h-242v57z" />
    <glyph glyph-name="alef_wasla.fina" unicode="&#x671;" horiz-adv-x="282" arabic-form="final" 
d="M95 696h92v-623h110v-73h-202v696zM214 820l-0.00195312 12.999c0 28.667 -3.66699 48.334 -11 59.001s-17.666 16 -30.999 16c-21.333 0 -38.666 -8.83301 -51.999 -26.5s-23 -38.167 -29 -61.5h123zM-22.002 819.999l53.999 0.000976562c6 19.333 13.333 37.5 22 54.5
s19.167 31.833 31.5 44.5s26.333 22.667 42 30s33.5 11 53.5 11c30.667 0 54.334 -9.33301 71.001 -28s25 -51.334 25 -98.001v-67h-299v53z" />
    <glyph glyph-name="peh.fina" unicode="&#x67e;" horiz-adv-x="782" arabic-form="final" 
d="M413 0c-63.333 0 -117.167 6.16797 -161.5 18.501s-80.5 30.833 -108.5 55.5s-48.5 55.167 -61.5 91.5s-19.5 78.166 -19.5 125.499c0 30 3.16699 60.333 9.5 91s14.166 55.667 23.499 75l98 17c-11.333 -23.333 -20.5 -50.833 -27.5 -82.5s-10.5 -61.5 -10.5 -89.5
c0 -38 4.16699 -71.333 12.5 -100s22.833 -52.5 43.5 -71.5s48.334 -33.333 83.001 -43s78 -14.5 130 -14.5h170v397h92v-397h110v-73h-383zM487.999 -162.999c-14 0 -26 4.83203 -36 14.499s-15 21.834 -15 36.501c0 14 5 25.833 15 35.5s22 14.5 36 14.5
s25.833 -4.66699 35.5 -14s14.5 -21.333 14.5 -36c0 -14 -4.83301 -26 -14.5 -36s-21.5 -15 -35.5 -15zM341.999 -163c-14 0 -25.833 4.83203 -35.5 14.499s-14.5 21.834 -14.5 36.501c0 14 4.83301 25.833 14.5 35.5s21.5 14.5 35.5 14.5s25.833 -4.66699 35.5 -14
s14.5 -21.333 14.5 -36c0 -14 -4.83301 -26 -14.5 -36s-21.5 -15 -35.5 -15zM414.999 -271.001c-13.333 0 -24.833 4.66699 -34.5 14s-14.5 20.666 -14.5 33.999c0 14 4.83301 25.667 14.5 35s21.167 14 34.5 14s24.833 -4.66699 34.5 -14s14.5 -21 14.5 -35
c0 -13.333 -4.83301 -24.666 -14.5 -33.999s-21.167 -14 -34.5 -14z" />
    <glyph glyph-name="peh.init" unicode="&#x67e;" horiz-adv-x="380" arabic-form="initial" 
d="M176 -271c-13.333 0 -24.833 4.66699 -34.5 14s-14.5 20.666 -14.5 33.999c0 14 4.83301 25.667 14.5 35s21.167 14 34.5 14s24.833 -4.66699 34.5 -14s14.5 -21 14.5 -35c0 -13.333 -4.83301 -24.666 -14.5 -33.999s-21.167 -14 -34.5 -14zM249 -163
c-14 0 -26 4.83203 -36 14.499s-15 21.834 -15 36.501c0 14 5 25.833 15 35.5s22 14.5 36 14.5s25.833 -4.66699 35.5 -14s14.5 -21.333 14.5 -36c0 -14 -4.83301 -26 -14.5 -36s-21.5 -15 -35.5 -15zM103 -163.001c-14 0 -25.833 4.83203 -35.5 14.499
s-14.5 21.834 -14.5 36.501c0 14 4.83301 25.833 14.5 35.5s21.5 14.5 35.5 14.5s25.833 -4.66699 35.5 -14s14.5 -21.333 14.5 -36c0 -14 -4.83301 -26 -14.5 -36s-21.5 -15 -35.5 -15zM0 72.998h201v397h92v-470h-293v73z" />
    <glyph glyph-name="peh.medi" unicode="&#x67e;" horiz-adv-x="389" arabic-form="medial" 
d="M0 73h201v397h92v-397h110v-73h-403v73zM249 -163c-14 0 -26 4.83203 -36 14.499s-15 21.834 -15 36.501c0 14 5 25.833 15 35.5s22 14.5 36 14.5s25.833 -4.66699 35.5 -14s14.5 -21.333 14.5 -36c0 -14 -4.83301 -26 -14.5 -36s-21.5 -15 -35.5 -15zM103 -163.001
c-14 0 -25.833 4.83203 -35.5 14.499s-14.5 21.834 -14.5 36.501c0 14 4.83301 25.833 14.5 35.5s21.5 14.5 35.5 14.5s25.833 -4.66699 35.5 -14s14.5 -21.333 14.5 -36c0 -14 -4.83301 -26 -14.5 -36s-21.5 -15 -35.5 -15zM176 -271.002
c-13.333 0 -24.833 4.66699 -34.5 14s-14.5 20.666 -14.5 33.999c0 14 4.83301 25.667 14.5 35s21.167 14 34.5 14s24.833 -4.66699 34.5 -14s14.5 -21 14.5 -35c0 -13.333 -4.83301 -24.666 -14.5 -33.999s-21.167 -14 -34.5 -14z" />
    <glyph glyph-name="uniFB67" unicode="&#x679;" horiz-adv-x="782" arabic-form="final" 
d="M413 0c-63.333 0 -117.167 6.16797 -161.5 18.501s-80.5 30.833 -108.5 55.5s-48.5 55.167 -61.5 91.5s-19.5 78.166 -19.5 125.499c0 30 3.16699 60.333 9.5 91s14.166 55.667 23.499 75l98 17c-11.333 -23.333 -20.5 -50.833 -27.5 -82.5s-10.5 -61.5 -10.5 -89.5
c0 -38 4.16699 -71.333 12.5 -100s22.833 -52.5 43.5 -71.5s48.334 -33.333 83.001 -43s78 -14.5 130 -14.5h170v397h92v-397h110v-73h-383zM343.999 747.001c0 -9.33301 -0.666992 -19.499 -2 -30.499s-3 -21.833 -5 -32.5h1c13.333 22 31 40.333 53 55s45.333 22 70 22
c30.667 0 54.167 -8.16699 70.5 -24.5s24.5 -39.5 24.5 -69.5c0 -36.667 -12.333 -65.834 -37 -87.501s-61.667 -32.5 -111 -32.5h-122v283h58v-83zM495.999 660.002c0 16 -3.33398 29 -10.001 39s-17.667 15 -33 15c-13.333 0 -26.166 -3.66699 -38.499 -11
s-23.5 -16.833 -33.5 -28.5s-18.333 -24.667 -25 -39s-11 -28.5 -13 -42.5h73c28.667 0 49.167 6.16699 61.5 18.5s18.5 28.5 18.5 48.5z" />
    <glyph glyph-name="uniFB68" unicode="&#x679;" horiz-adv-x="380" arabic-form="initial" 
d="M0 73h201v397h92v-470h-293v73zM277 690c0 16 -3.33398 29 -10.001 39s-17.667 15 -33 15c-13.333 0 -26.166 -3.66699 -38.499 -11s-23.5 -16.833 -33.5 -28.5s-18.333 -24.667 -25 -39s-11 -28.5 -13 -42.5h73c28.667 0 49.167 6.16699 61.5 18.5s18.5 28.5 18.5 48.5z
M124.999 777c0 -9.33301 -0.666992 -19.499 -2 -30.499s-3 -21.833 -5 -32.5h1c13.333 22 31 40.333 53 55s45.333 22 70 22c30.667 0 54.167 -8.16699 70.5 -24.5s24.5 -39.5 24.5 -69.5c0 -36.667 -12.333 -65.834 -37 -87.501s-61.667 -32.5 -111 -32.5h-122v283h58v-83z
" />
    <glyph glyph-name="uniFB69" unicode="&#x679;" horiz-adv-x="389" arabic-form="medial" 
d="M0 73h201v397h92v-397h110v-73h-403v73zM125 777c0 -9.33301 -0.666992 -19.499 -2 -30.499s-3 -21.833 -5 -32.5h1c13.333 22 31 40.333 53 55s45.333 22 70 22c30.667 0 54.167 -8.16699 70.5 -24.5s24.5 -39.5 24.5 -69.5c0 -36.667 -12.333 -65.834 -37 -87.501
s-61.667 -32.5 -111 -32.5h-122v283h58v-83zM277 690.001c0 16 -3.33398 29 -10.001 39s-17.667 15 -33 15c-13.333 0 -26.166 -3.66699 -38.499 -11s-23.5 -16.833 -33.5 -28.5s-18.333 -24.667 -25 -39s-11 -28.5 -13 -42.5h73c28.667 0 49.167 6.16699 61.5 18.5
s18.5 28.5 18.5 48.5z" />
    <glyph glyph-name="veh.fina" unicode="&#x6a4;" horiz-adv-x="932" arabic-form="final" 
d="M640 681c-14.667 0 -26.834 4.83203 -36.501 14.499s-14.5 21.834 -14.5 36.501s4.83301 27 14.5 37s21.834 15 36.501 15c14 0 25.833 -5 35.5 -15s14.5 -22.333 14.5 -37c0 -14 -4.83301 -26 -14.5 -36s-21.5 -15 -35.5 -15zM714 561.999
c-15.333 0 -28 5.16699 -38 15.5s-15 23.166 -15 38.499c0 14.667 5 27.167 15 37.5s22.667 15.5 38 15.5c14.667 0 27.167 -5 37.5 -15s15.5 -22.667 15.5 -38s-5.16699 -28.166 -15.5 -38.499s-22.833 -15.5 -37.5 -15.5zM566 561.999c-15.333 0 -28 5.16699 -38 15.5
s-15 23.166 -15 38.499c0 14.667 5 27.167 15 37.5s22.667 15.5 38 15.5s28 -5 38 -15s15 -22.667 15 -38s-5 -28.166 -15 -38.499s-22.667 -15.5 -38 -15.5zM947 -0.000976562h-534.001c-63.333 0 -117.166 6.16699 -161.499 18.5s-80.5 30.833 -108.5 55.5
s-48.5 55.167 -61.5 91.5s-19.5 78.166 -19.5 125.499c0 30 3.16699 60.333 9.5 91s14.166 55.667 23.499 75l98 17c-11.333 -23.333 -20.5 -50.833 -27.5 -82.5s-10.5 -61.5 -10.5 -89.5c0 -38 4.16699 -71.333 12.5 -100s22.5 -52.5 42.5 -71.5s46.5 -33.333 79.5 -43
s74.167 -14.5 123.5 -14.5h55c-21.333 15.333 -37.333 37 -48 65s-16 61 -16 99c0 34 5.5 65.833 16.5 95.5s27 55.5 48 77.5s46.5 39.333 76.5 52s63.667 19 101 19c32 0 61.5 -4.33301 88.5 -13s50.5 -22.167 70.5 -40.5s35.667 -42.166 47 -71.499s17 -65 17 -107
c0 -36 -6.66699 -70.167 -20 -102.5s-32.666 -57.833 -57.999 -76.5c10 0 20 0.333008 30 1c8.66699 0.666992 18 1.16699 28 1.5s19.667 0.5 29 0.5h69v-73zM775.999 242.999c0 52.667 -11.5 93.3359 -34.5 122.003s-57.5 43 -103.5 43c-18 0 -35.5 -3.16699 -52.5 -9.5
s-32 -16.333 -45 -30s-23.5 -30.834 -31.5 -51.501s-12 -45.334 -12 -74.001c0 -55.333 12 -97.5 36 -126.5s58.667 -43.5 104 -43.5c18.667 0 36.5 3.33301 53.5 10s31.833 17 44.5 31s22.667 31.667 30 53s11 46.666 11 75.999z" />
    <glyph glyph-name="veh.init" unicode="&#x6a4;" horiz-adv-x="612" arabic-form="initial" 
d="M302 681c-14.667 0 -26.834 4.83203 -36.501 14.499s-14.5 21.834 -14.5 36.501s4.83301 27 14.5 37s21.834 15 36.501 15c14 0 25.833 -5 35.5 -15s14.5 -22.333 14.5 -37c0 -14 -4.83301 -26 -14.5 -36s-21.5 -15 -35.5 -15zM376 561.999
c-15.333 0 -28 5.16699 -38 15.5s-15 23.166 -15 38.499c0 14.667 5 27.167 15 37.5s22.667 15.5 38 15.5c14.667 0 27.167 -5 37.5 -15s15.5 -22.667 15.5 -38s-5.16699 -28.166 -15.5 -38.499s-22.833 -15.5 -37.5 -15.5zM228 561.999c-15.333 0 -28 5.16699 -38 15.5
s-15 23.166 -15 38.499c0 14.667 5 27.167 15 37.5s22.667 15.5 38 15.5s28 -5 38 -15s15 -22.667 15 -38s-5 -28.166 -15 -38.499s-22.667 -15.5 -38 -15.5zM0 -0.000976562l0.000976562 73.0049h79c8.66699 0 16.5 -0.333008 23.5 -1s13.167 -1.33398 18.5 -2.00098
c6 -0.666992 11.333 -1.33398 16 -2.00098c-24.667 15.333 -43.167 36.666 -55.5 63.999s-18.5 62.333 -18.5 105c0 32.667 5.16699 63.667 15.5 93s26 55.166 47 77.499s47.167 40.166 78.5 53.499s67.666 20 108.999 20c72 0 125.667 -19.5 161 -58.5
s53 -94.167 53 -165.5v-257h-527zM437.001 241.004c0 60 -11.668 102.833 -35.001 128.5s-55.666 38.5 -96.999 38.5c-46.667 0 -83.167 -15.167 -109.5 -45.5s-39.5 -70.5 -39.5 -120.5c0 -57.333 14.167 -99.833 42.5 -127.5s74.833 -41.5 139.5 -41.5h99v168z" />
    <glyph glyph-name="veh.medi" unicode="&#x6a4;" horiz-adv-x="591" arabic-form="medial" 
d="M299 681c-14.667 0 -26.834 4.83203 -36.501 14.499s-14.5 21.834 -14.5 36.501s4.83301 27 14.5 37s21.834 15 36.501 15c14 0 25.833 -5 35.5 -15s14.5 -22.333 14.5 -37c0 -14 -4.83301 -26 -14.5 -36s-21.5 -15 -35.5 -15zM373 561.999
c-15.333 0 -28 5.16699 -38 15.5s-15 23.166 -15 38.499c0 14.667 5 27.167 15 37.5s22.667 15.5 38 15.5c14.667 0 27.167 -5 37.5 -15s15.5 -22.667 15.5 -38s-5.16699 -28.166 -15.5 -38.499s-22.833 -15.5 -37.5 -15.5zM225 561.999c-15.333 0 -28 5.16699 -38 15.5
s-15 23.166 -15 38.499c0 14.667 5 27.167 15 37.5s22.667 15.5 38 15.5s28 -5 38 -15s15 -22.667 15 -38s-5 -28.166 -15 -38.499s-22.667 -15.5 -38 -15.5zM0 72.999l57.998 -0.000976562c8.66699 0 17 -0.166992 25 -0.5s15.667 -0.833008 23 -1.5s15 -1 23 -1
c-21.333 15.333 -37.666 37 -48.999 65s-17 62 -17 102c0 34 5.5 65.833 16.5 95.5s27 55.5 48 77.5s46.5 39.333 76.5 52s63.667 19 101 19c32 0 61.5 -4.33301 88.5 -13s50.5 -22.167 70.5 -40.5s35.667 -42.166 47 -71.499s17 -65 17 -107
c0 -36 -6.66699 -70.167 -20 -102.5s-32.666 -57.833 -57.999 -76.5c10 0 20 0.333008 30 1c8.66699 0.666992 18 1.16699 28 1.5s19.667 0.5 29 0.5h69v-73h-606v73zM295.998 72.998c18.667 0 36.5 3.33301 53.5 10s31.833 17 44.5 31s22.667 31.667 30 53
s11 46.666 11 75.999c0 52.667 -11.5 93.334 -34.5 122.001s-57.5 43 -103.5 43c-18 0 -35.5 -3.16699 -52.5 -9.5s-32 -16.166 -45 -29.499s-23.5 -30.333 -31.5 -51s-12 -45.334 -12 -74.001c0 -56 12 -98.5 36 -127.5s58.667 -43.5 104 -43.5z" />
    <glyph glyph-name="tcheh.fina" unicode="&#x686;" horiz-adv-x="607" arabic-form="final" 
d="M325 0c-42.667 0 -77.666 -3.16699 -104.999 -9.5s-49 -15.166 -65 -26.499s-27.167 -24.666 -33.5 -39.999s-9.5 -32 -9.5 -50c0 -30 10.833 -55.167 32.5 -75.5s53.5 -33.833 95.5 -40.5l-19 -75c-62 9.33301 -110.833 29.833 -146.5 61.5s-53.5 72.5 -53.5 122.5
c0 29.333 5.5 56.666 16.5 81.999s28.667 47.166 53 65.499s56.166 32.666 95.499 42.999s87.333 15.5 144 15.5h107c2 17.333 3.66699 34.666 5 51.999s2 34.333 2 51c0 38 -3.66699 71 -11 99s-19.666 51.333 -36.999 70s-40 32.667 -68 42s-62.333 14 -103 14
c-20 0 -38.833 -0.5 -56.5 -1.5s-35.834 -2.83301 -54.501 -5.5v72c16.667 2.66699 35.334 4.66699 56.001 6s41.667 2 63 2c55.333 0 102.166 -6.33301 140.499 -19s69.5 -31.167 93.5 -55.5s41.333 -54.666 52 -90.999s16 -78.166 16 -125.499c0 -31.333 -2 -68 -6 -110
h93v-73h-297zM453.001 -162c-14 0 -26 4.83203 -36 14.499s-15 21.834 -15 36.501c0 14 5 25.833 15 35.5s22 14.5 36 14.5s25.833 -4.66699 35.5 -14s14.5 -21.333 14.5 -36c0 -14 -4.83301 -26 -14.5 -36s-21.5 -15 -35.5 -15zM307.001 -162.001
c-14 0 -25.833 4.83203 -35.5 14.499s-14.5 21.834 -14.5 36.501c0 14 4.83301 25.833 14.5 35.5s21.5 14.5 35.5 14.5s25.833 -4.66699 35.5 -14s14.5 -21.333 14.5 -36c0 -14 -4.83301 -26 -14.5 -36s-21.5 -15 -35.5 -15zM380.001 -270.002
c-13.333 0 -24.833 4.66699 -34.5 14s-14.5 20.666 -14.5 33.999c0 14 4.83301 25.667 14.5 35s21.167 14 34.5 14s24.833 -4.66699 34.5 -14s14.5 -21 14.5 -35c0 -13.333 -4.83301 -24.666 -14.5 -33.999s-21.167 -14 -34.5 -14z" />
    <glyph glyph-name="tcheh.init" unicode="&#x686;" horiz-adv-x="578" arabic-form="initial" 
d="M237 -270c-13.333 0 -24.833 4.66699 -34.5 14s-14.5 20.666 -14.5 33.999c0 14 4.83301 25.667 14.5 35s21.167 14 34.5 14s24.833 -4.66699 34.5 -14s14.5 -21 14.5 -35c0 -13.333 -4.83301 -24.666 -14.5 -33.999s-21.167 -14 -34.5 -14zM310 -162
c-14 0 -26 4.83203 -36 14.499s-15 21.834 -15 36.501c0 14 5 25.833 15 35.5s22 14.5 36 14.5s25.833 -4.66699 35.5 -14s14.5 -21.333 14.5 -36c0 -14 -4.83301 -26 -14.5 -36s-21.5 -15 -35.5 -15zM164 -162.001c-14 0 -25.833 4.83203 -35.5 14.499
s-14.5 21.834 -14.5 36.501c0 14 4.83301 25.833 14.5 35.5s21.5 14.5 35.5 14.5s25.833 -4.66699 35.5 -14s14.5 -21.333 14.5 -36c0 -14 -4.83301 -26 -14.5 -36s-21.5 -15 -35.5 -15zM0 72.998l413 -0.000976562c2 17.333 3.66699 34.666 5 51.999s2 34.333 2 51
c0 38 -3.66699 71 -11 99s-19.666 51.333 -36.999 70s-40 32.667 -68 42s-62.333 14 -103 14c-20 0 -38.833 -0.5 -56.5 -1.5s-35.834 -2.83301 -54.501 -5.5v72c16.667 2.66699 35.167 4.66699 55.5 6s41.5 2 63.5 2c54.667 0 101.167 -6.33301 139.5 -19
s69.5 -31.167 93.5 -55.5s41.5 -54.666 52.5 -90.999s16.5 -78.166 16.5 -125.499c0 -24 -1.16699 -51.5 -3.5 -82.5s-6.5 -64.5 -12.5 -100.5h-495v73z" />
    <glyph glyph-name="tcheh.medi" unicode="&#x686;" horiz-adv-x="582" arabic-form="medial" 
d="M0 73l413 -0.000976562c2 17.333 3.66699 34.666 5 51.999s2 34.333 2 51c0 38 -3.66699 71 -11 99s-19.666 51.333 -36.999 70s-40 32.667 -68 42s-62.333 14 -103 14c-20 0 -38.833 -0.5 -56.5 -1.5s-35.834 -2.83301 -54.501 -5.5v72
c16.667 2.66699 35.167 4.66699 55.5 6s41.5 2 63.5 2c54.667 0 101.167 -6.33301 139.5 -19s69.5 -31.167 93.5 -55.5s41.5 -54.666 52.5 -90.999s16.5 -78.166 16.5 -125.499c0 -31.333 -2 -68 -6 -110h92v-73h-597v73zM310 -162.001c-14 0 -26 4.83203 -36 14.499
s-15 21.834 -15 36.501c0 14 5 25.833 15 35.5s22 14.5 36 14.5s25.833 -4.66699 35.5 -14s14.5 -21.333 14.5 -36c0 -14 -4.83301 -26 -14.5 -36s-21.5 -15 -35.5 -15zM164 -162.002c-14 0 -25.833 4.83203 -35.5 14.499s-14.5 21.834 -14.5 36.501
c0 14 4.83301 25.833 14.5 35.5s21.5 14.5 35.5 14.5s25.833 -4.66699 35.5 -14s14.5 -21.333 14.5 -36c0 -14 -4.83301 -26 -14.5 -36s-21.5 -15 -35.5 -15zM237 -270.003c-13.333 0 -24.833 4.66699 -34.5 14s-14.5 20.666 -14.5 33.999c0 14 4.83301 25.667 14.5 35
s21.167 14 34.5 14s24.833 -4.66699 34.5 -14s14.5 -21 14.5 -35c0 -13.333 -4.83301 -24.666 -14.5 -33.999s-21.167 -14 -34.5 -14z" />
    <glyph glyph-name="ddal.fina" unicode="&#x688;" horiz-adv-x="527" arabic-form="final" 
d="M52 73l321.002 0.000976562c-0.666992 46 -5.83398 87 -15.501 123s-24.667 67.667 -45 95s-46.333 51 -78 71s-69.5 36.667 -113.5 50l23 78c52.667 -16 98.667 -35.833 138 -59.5s72.166 -52.167 98.499 -85.5s46.5 -72.333 60.5 -117s21.667 -96.334 23 -155.001h77
v-73h-489v73zM178.002 777.001c0 -9.33301 -0.666992 -19.499 -2 -30.499s-3 -21.833 -5 -32.5h1c13.333 22 31 40.333 53 55s45.333 22 70 22c30.667 0 54.167 -8.16699 70.5 -24.5s24.5 -39.5 24.5 -69.5c0 -36.667 -12.333 -65.834 -37 -87.501s-61.667 -32.5 -111 -32.5
h-122v283h58v-83zM330.002 690.002c0 16 -3.33398 29 -10.001 39s-17.667 15 -33 15c-13.333 0 -26.166 -3.66699 -38.499 -11s-23.5 -16.833 -33.5 -28.5s-18.333 -24.667 -25 -39s-11 -28.5 -13 -42.5h73c28.667 0 49.167 6.16699 61.5 18.5s18.5 28.5 18.5 48.5z" />
    <glyph glyph-name="uniFB8B" unicode="&#x698;" horiz-adv-x="418" arabic-form="final" 
d="M90 -257c-18.667 0 -36.833 1.33398 -54.5 4.00098s-34.167 6 -49.5 10l11 76c30.667 -11.333 64 -17 100 -17c20.667 0 39.167 2.83301 55.5 8.5s30.333 15 42 28s20.5 30.5 26.5 52.5s9 49.333 9 82v483h92v-397h111v-73h-111v-5c0 -35.333 -3.66699 -68.333 -11 -99
s-19.833 -57.334 -37.5 -80.001s-41.5 -40.5 -71.5 -53.5s-67.333 -19.5 -112 -19.5zM195.001 562.001c-15.333 0 -28 5.16699 -38 15.5s-15 23.166 -15 38.499c0 14.667 5 27.167 15 37.5s22.667 15.5 38 15.5s28 -5 38 -15s15 -22.667 15 -38s-5 -28.166 -15 -38.499
s-22.667 -15.5 -38 -15.5zM343.001 562.001c-15.333 0 -28 5.16699 -38 15.5s-15 23.166 -15 38.499c0 14.667 5 27.167 15 37.5s22.667 15.5 38 15.5c14.667 0 27.167 -5 37.5 -15s15.5 -22.667 15.5 -38s-5.16699 -28.166 -15.5 -38.499s-22.833 -15.5 -37.5 -15.5z
M269.001 681.001c-14.667 0 -26.834 4.83203 -36.501 14.499s-14.5 21.834 -14.5 36.501s4.83301 27 14.5 37s21.834 15 36.501 15c14 0 25.833 -5 35.5 -15s14.5 -22.333 14.5 -37c0 -14 -4.83301 -26 -14.5 -36s-21.5 -15 -35.5 -15z" />
    <glyph glyph-name="uniFB8D" unicode="&#x691;" horiz-adv-x="418" arabic-form="final" 
d="M90 -257c-18.667 0 -36.833 1.33398 -54.5 4.00098s-34.167 6 -49.5 10l11 76c30.667 -11.333 64 -17 100 -17c20.667 0 39.167 2.83301 55.5 8.5s30.333 15 42 28s20.5 30.5 26.5 52.5s9 49.333 9 82v483h92v-397h111v-73h-111v-5c0 -35.333 -3.66699 -68.333 -11 -99
s-19.833 -57.334 -37.5 -80.001s-41.5 -40.5 -71.5 -53.5s-67.333 -19.5 -112 -19.5zM198.001 777.001c0 -9.33301 -0.666992 -19.499 -2 -30.499s-3 -21.833 -5 -32.5h1c13.333 22 31 40.333 53 55s45.333 22 70 22c30.667 0 54.167 -8.16699 70.5 -24.5
s24.5 -39.5 24.5 -69.5c0 -36.667 -12.333 -65.834 -37 -87.501s-61.667 -32.5 -111 -32.5h-122v283h58v-83zM350.001 690.002c0 16 -3.33398 29 -10.001 39s-17.667 15 -33 15c-13.333 0 -26.166 -3.66699 -38.499 -11s-23.5 -16.833 -33.5 -28.5s-18.333 -24.667 -25 -39
s-11 -28.5 -13 -42.5h73c28.667 0 49.167 6.16699 61.5 18.5s18.5 28.5 18.5 48.5z" />
    <glyph glyph-name="kheh.fina" unicode="&#x6a9;" horiz-adv-x="847" arabic-form="final" 
d="M413 0c-63.333 0 -117.167 6.16895 -161.5 18.502s-80.5 30.833 -108.5 55.5s-48.5 55.167 -61.5 91.5s-19.5 78.166 -19.5 125.499c0 30 3.16699 60.333 9.5 91s14.166 55.667 23.499 75l98 17c-11.333 -23.333 -20.5 -50.833 -27.5 -82.5s-10.5 -61.5 -10.5 -89.5
c0 -38 4.16699 -71.333 12.5 -100s22.833 -52.5 43.5 -71.5s48.334 -33.333 83.001 -43s78 -14.5 130 -14.5h255c-0.666992 48.667 -6.5 91.667 -17.5 129s-27.333 69.666 -49 96.999s-48.667 50.333 -81 69s-70.5 34.334 -114.5 47.001v68l379 238v-93l-272 -167
c37.333 -15.333 70.833 -33.833 100.5 -55.5s55 -48 76 -79s37.5 -67.333 49.5 -109s18.667 -89.834 20 -144.501h92v-73h-449z" />
    <glyph glyph-name="kheh.init" unicode="&#x6a9;" horiz-adv-x="489" arabic-form="initial" 
d="M0 73l320.999 0.000976562c-0.666992 48.667 -6.5 91.667 -17.5 129s-27.333 69.666 -49 96.999s-48.667 50.333 -81 69s-70.5 34.334 -114.5 47.001v68l379 238v-93l-272 -167c38.667 -16 73.334 -35.333 104.001 -58s56.5 -50.334 77.5 -83.001s37 -71 48 -115
s16.5 -95.333 16.5 -154v-51h-412v73z" />
    <glyph glyph-name="kheh.medi" unicode="&#x6a9;" horiz-adv-x="489" arabic-form="medial" 
d="M0 73l321 0.000976562c-0.666992 48.667 -6.5 91.667 -17.5 129s-27.333 69.666 -49 96.999s-48.667 50.333 -81 69s-70.5 34.334 -114.5 47.001v68l379 238v-93l-272 -167c38 -15.333 71.833 -33.833 101.5 -55.5s55 -48 76 -79s37.333 -67.333 49 -109
s18.167 -89.834 19.5 -144.501h92v-73h-504v73z" />
    <glyph glyph-name="Gaf.fina" unicode="&#x6af;" horiz-adv-x="847" arabic-form="final" 
d="M413 0c-63.333 0 -117.167 6.16895 -161.5 18.502s-80.5 30.833 -108.5 55.5s-48.5 55.167 -61.5 91.5s-19.5 78.166 -19.5 125.499c0 30 3.16699 60.333 9.5 91s14.166 55.667 23.499 75l98 17c-11.333 -23.333 -20.5 -50.833 -27.5 -82.5s-10.5 -61.5 -10.5 -89.5
c0 -38 4.16699 -71.333 12.5 -100s22.833 -52.5 43.5 -71.5s48.334 -33.333 83.001 -43s78 -14.5 130 -14.5h255c-0.666992 48.667 -6.5 91.667 -17.5 129s-27.333 69.666 -49 96.999s-48.667 50.333 -81 69s-70.5 34.334 -114.5 47.001v62l379 238v-87l-272 -167
c37.333 -15.333 70.833 -33.833 100.5 -55.5s55 -48 76 -79s37.5 -67.333 49.5 -109s18.667 -89.834 20 -144.501h92v-73h-449zM416.999 650.002l379 238v-84l-379 -238v84z" />
    <glyph glyph-name="Gaf.init" unicode="&#x6af;" horiz-adv-x="489" arabic-form="initial" 
d="M0 73l320.999 0.000976562c-0.666992 48.667 -6.5 91.667 -17.5 129s-27.333 69.666 -49 96.999s-48.667 50.333 -81 69s-70.5 34.334 -114.5 47.001v62l379 238v-87l-272 -167c38.667 -16 73.334 -35.333 104.001 -58s56.5 -50.334 77.5 -83.001s37 -71 48 -115
s16.5 -95.333 16.5 -154v-51h-412v73zM58.999 650.001l379 238v-84l-379 -238v84z" />
    <glyph glyph-name="Gaf.medi" unicode="&#x6af;" horiz-adv-x="489" arabic-form="medial" 
d="M0 73l321 0.000976562c-0.666992 48.667 -6.5 91.667 -17.5 129s-27.333 69.666 -49 96.999s-48.667 50.333 -81 69s-70.5 34.334 -114.5 47.001v62l379 238v-87l-272 -167c38 -15.333 71.833 -33.833 101.5 -55.5s55 -48 76 -79s37.333 -67.333 49 -109
s18.167 -89.834 19.5 -144.501h92v-73h-504v73zM59 650.001l379 238v-84l-379 -238v84z" />
    <glyph glyph-name="ghunna.fina" unicode="&#x6ba;" horiz-adv-x="667" arabic-form="final" 
d="M571 73h110.997v-73h-114c-15.333 -154 -102.333 -231 -261 -231c-34.667 0 -67.167 5 -97.5 15s-56.666 26 -78.999 48s-40 50.667 -53 86s-19.5 78.666 -19.5 129.999c0 32.667 2.16699 65 6.5 97s10.5 63 18.5 93l95 18c-9.33301 -33.333 -16.333 -66.666 -21 -99.999
s-7 -66.333 -7 -99c0 -42.667 5 -77.834 15 -105.501s22.833 -49.667 38.5 -66s33.334 -27.666 53.001 -33.999s39.5 -9.5 59.5 -9.5c24 0 45.833 3.33301 65.5 10s36.834 18 51.501 34s26 37 34 63s12 58 12 96v425h92v-397z" />
    <glyph glyph-name="hehhamza.fina" unicode="&#x6c0;" horiz-adv-x="594" arabic-form="final" 
d="M307 0c-48 0 -88.6689 5.50098 -122.002 16.501s-60.333 26.667 -81 47s-35.667 44.833 -45 73.5s-14 60.667 -14 96c0 32.667 5.16699 64 15.5 94s25.833 56.5 46.5 79.5s46.834 41.167 78.501 54.5s68.834 20 111.501 20c28 0 54 -1.83301 78 -5.5
s45.333 -7.83398 64 -12.501c21.333 -5.33301 41 -11 59 -17v-373h111v-73h-302zM407.998 385.001c-10.667 4 -21.999 7.66797 -33.999 11.001c-10.667 3.33301 -23.334 6.16602 -38.001 8.49902s-31 3.5 -49 3.5c-46.667 0 -83.167 -15 -109.5 -45s-39.5 -70 -39.5 -120
c0 -57.333 14.167 -100 42.5 -128s74.833 -42 139.5 -42h88v312zM152.999 623.002c13.333 0 26.165 -0.5 38.498 -1.5s22.5 -2.16699 30.5 -3.5c-9.33301 4 -16.166 10.667 -20.499 20s-6.5 18.666 -6.5 27.999c0 12 2.33301 24 7 36s12 22.667 22 32s23 16.833 39 22.5
s35.667 8.5 59 8.5c11.333 0 21.833 -0.333008 31.5 -1s17.167 -1.66699 22.5 -3l-9 -56c-4.66699 0.666992 -11.5 1.5 -20.5 2.5s-18.167 1.5 -27.5 1.5c-18.667 0 -32.667 -3.66699 -42 -11s-14 -17.333 -14 -30c0 -13.333 5.83301 -24.166 17.5 -32.499
s31.834 -12.5 60.501 -12.5h54v-57h-242v57z" />
    <glyph glyph-name="hehfinaltone" unicode="&#x6c1;" horiz-adv-x="557" arabic-form="final" 
d="M572 0h-26.001c-73.333 0 -127.833 17.5 -163.5 52.5s-53.5 89.5 -53.5 163.5v48c-43.333 -7.33301 -83.166 -24 -119.499 -50s-69.5 -62.667 -99.5 -110l-61 49c19.333 28.667 41 54.834 65 78.501s50.333 44 79 61s59.167 30.167 91.5 39.5s66.833 14 103.5 14
c3.33301 0 6.83301 -0.166992 10.5 -0.5s7.16699 -0.5 10.5 -0.5h10v-110c0 -58.667 10.5 -100.334 31.5 -125.001s55.5 -37 103.5 -37h18v-73z" />
    <glyph glyph-name="hehinitialaltone" unicode="&#x6c1;" horiz-adv-x="326" arabic-form="initial" 
d="M110 -240c-15.333 0 -27.665 5.49902 -36.998 16.499s-14 24.5 -14 40.5c0 20 7.83301 41.833 23.5 65.5s44.167 46.5 85.5 68.5l23 -34c-17.333 -13.333 -29.333 -25.5 -36 -36.5s-10 -21.167 -10 -30.5c0 -5.33301 0.666992 -9.66602 2 -12.999
s2.66602 -6.5 3.99902 -9.5s2.66602 -6.16699 3.99902 -9.5s2 -7.33301 2 -12c0 -12 -4 -22.667 -12 -32s-19.667 -14 -35 -14zM0.000976562 72.999h146v397h92v-470h-238v73z" />
    <glyph glyph-name="hehmedialaltone" unicode="&#x6c1;" horiz-adv-x="705" arabic-form="medial" 
d="M720 0h-127v-261h-88c-88 0 -156.833 23 -206.5 69s-74.5 111.667 -74.5 197c0 17.333 0.666992 35.5 2 54.5s3.66602 36.5 6.99902 52.5l-2 1c-14 -34.667 -35.5 -62.167 -64.5 -82.5s-64.167 -30.5 -105.5 -30.5h-61v73h72c22.667 0 43.334 5 62.001 15
s34.5 23.833 47.5 41.5s23.167 38.5 30.5 62.5s11 50.333 11 79v99h89v-347c0 -70.667 16.167 -123.5 48.5 -158.5s79.833 -52.833 142.5 -53.5v262h217v-73zM95 -263c-16.667 0 -29.665 5.83594 -38.998 17.5029s-14 26.167 -14 43.5c0 18 6.16699 39.167 18.5 63.5
s36.166 51.166 71.499 80.499l30 -30c-14.667 -14.667 -24.834 -28.167 -30.501 -40.5s-8.5 -22.5 -8.5 -30.5c0 -6.66699 1 -12 3 -16s4.16699 -7.83301 6.5 -11.5s4.5 -7.83398 6.5 -12.501s3 -10.334 3 -17.001c0 -12 -4.33301 -22.833 -13 -32.5s-20 -14.5 -34 -14.5z
" />
    <glyph glyph-name="uniFBAB" unicode="&#x6be;" horiz-adv-x="661" arabic-form="final" 
d="M676 0l-124 -0.000976562c-11.333 0 -22.666 0.333008 -33.999 1s-24.333 1.66699 -39 3v-1c30.667 -9.33301 55.167 -25.166 73.5 -47.499s27.5 -51.166 27.5 -86.499c0 -59.333 -18.333 -105.666 -55 -138.999s-86.667 -50 -150 -50c-42 0 -78.833 7.5 -110.5 22.5
s-58 36.333 -79 64s-37.333 61.167 -49 100.5s-18.5 83.666 -20.5 132.999h-116v73h116c2 41.333 7.83301 82 17.5 122s23.5 78.333 41.5 115s40.167 70.667 66.5 102s57.166 59.333 92.499 84c69.333 -38.667 124.333 -81 165 -127s61 -95 61 -147
c0 -40 -7.5 -72.5 -22.5 -97.5s-34.5 -42.833 -58.5 -53.5v-1c14 1.33301 26.667 2.16602 38 2.49902s23.333 0.5 36 0.5h123v-73zM339 387.999c-38.667 -34 -69.834 -78.5 -93.501 -133.5s-36.834 -115.5 -39.501 -181.5h112c28.667 0 52.834 3.83301 72.501 11.5
s35.334 17.667 47.001 30s20 26.666 25 42.999s7.5 33.5 7.5 51.5c0 18.667 -3.5 36.334 -10.5 53.001s-16.5 32.5 -28.5 47.5s-25.833 29 -41.5 42s-32.5 25.167 -50.5 36.5zM207 -0.000976562c5.33301 -83.333 22.833 -145.333 52.5 -186s70.5 -61 122.5 -61
c34.667 0 61 10 79 30s27 47 27 81c0 39.333 -15.833 71.833 -47.5 97.5s-76.167 38.5 -133.5 38.5h-100z" />
    <glyph glyph-name="yehbarree.fina" unicode="&#x6d2;" horiz-adv-x="781" arabic-form="final" 
d="M75 -320c-4.66699 51.333 0.000976562 100.668 14.001 148.001s36.667 89.166 68 125.499s71.166 65.333 119.499 87s104.833 32.5 169.5 32.5h350v-73h-362c-46.667 0 -87 -7.83301 -121 -23.5s-62 -35.5 -84 -59.5s-38.333 -50.667 -49 -80s-16 -57.333 -16 -84h524
v-73h-613z" />
    <glyph glyph-name="uniFBB1" unicode="&#x6d3;" horiz-adv-x="781" arabic-form="final" 
d="M75 -320c-4.66699 51.333 0.000976562 100.668 14.001 148.001s36.667 89.166 68 125.499s71.166 65.333 119.499 87s104.833 32.5 169.5 32.5h350v-73h-362c-46.667 0 -87 -7.83301 -121 -23.5s-62 -35.5 -84 -59.5s-38.333 -50.667 -49 -80s-16 -57.333 -16 -84h524
v-73h-613zM207.001 226.002c13.333 0 26.165 -0.5 38.498 -1.5s22.5 -2.16699 30.5 -3.5c-9.33301 4 -16.166 10.667 -20.499 20s-6.5 18.666 -6.5 27.999c0 12 2.33301 24 7 36s12 22.667 22 32s23 16.833 39 22.5s35.667 8.5 59 8.5c11.333 0 21.833 -0.333008 31.5 -1
s17.167 -1.66699 22.5 -3l-9 -56c-4.66699 0.666992 -11.5 1.5 -20.5 2.5s-18.167 1.5 -27.5 1.5c-18.667 0 -32.667 -3.66699 -42 -11s-14 -17.333 -14 -30c0 -13.333 5.83301 -24.166 17.5 -32.499s31.834 -12.5 60.501 -12.5h54v-57h-242v57z" />
    <glyph glyph-name="alefmaksura.init" unicode="&#x649;" horiz-adv-x="326" arabic-form="initial" 
d="M0 73h146v397h92v-470h-238v73z" />
    <glyph glyph-name="alefmaksura.medi" unicode="&#x649;" horiz-adv-x="334" arabic-form="medial" 
d="M0 73h146v397h92v-397h111v-73h-349v73z" />
    <glyph glyph-name="uniFBFD" unicode="&#x6cc;" horiz-adv-x="576" arabic-form="final" 
d="M386 73l204.997 0.000976562v-73h-89c10 -5.33301 18.167 -14.333 24.5 -27s9.5 -27.667 9.5 -45s-4.16699 -35.833 -12.5 -55.5s-21.5 -38 -39.5 -55s-41.5 -31 -70.5 -42s-64.5 -16.5 -106.5 -16.5c-35.333 0 -68.166 5.16699 -98.499 15.5
s-56.666 26.833 -78.999 49.5s-39.833 51.834 -52.5 87.501s-19 79.167 -19 130.5c0 36 2.16699 70.167 6.5 102.5s10.5 63.5 18.5 93.5l95 18c-18.667 -64.667 -28 -133 -28 -205c0 -42.667 4.83301 -78.167 14.5 -106.5s22.334 -50.833 38.001 -67.5
s33.5 -28.334 53.5 -35.001s40.333 -10 61 -10c23.333 0 43.166 3.16699 59.499 9.5s29.5 14.5 39.5 24.5s17.167 21 21.5 33s6.5 23.667 6.5 35c-0.666992 19.333 -6.16699 35.166 -16.5 47.499s-24.166 18.5 -41.499 18.5v73z" />
    <glyph glyph-name="uniFBFE" unicode="&#x6cc;" horiz-adv-x="380" arabic-form="initial" 
d="M285 -149c0 -15.333 -5 -28.166 -15 -38.499s-22.333 -15.5 -37 -15.5c-15.333 0 -28.166 5.16699 -38.499 15.5s-15.5 23.166 -15.5 38.499c0 14.667 5.16699 27.167 15.5 37.5s23.166 15.5 38.499 15.5c14.667 0 27 -5 37 -15s15 -22.667 15 -38zM138 -149
c0 -15.333 -5.16699 -28.166 -15.5 -38.499s-22.833 -15.5 -37.5 -15.5c-15.333 0 -28 5.16699 -38 15.5s-15 23.166 -15 38.499c0 14.667 5 27.167 15 37.5s22.667 15.5 38 15.5c14.667 0 27.167 -5 37.5 -15s15.5 -22.667 15.5 -38zM0 73h201v397h92v-470h-293v73z" />
    <glyph glyph-name="uniFBFF" unicode="&#x6cc;" horiz-adv-x="389" arabic-form="medial" 
d="M0 73h201v397h92v-397h110v-73h-403v73zM138 -149c0 -15.333 -5.16699 -28.166 -15.5 -38.499s-22.833 -15.5 -37.5 -15.5c-15.333 0 -28 5.16699 -38 15.5s-15 23.166 -15 38.499c0 14.667 5 27.167 15 37.5s22.667 15.5 38 15.5c14.667 0 27.167 -5 37.5 -15
s15.5 -22.667 15.5 -38zM285 -149c0 -15.333 -5 -28.166 -15 -38.499s-22.333 -15.5 -37 -15.5c-15.333 0 -28.166 5.16699 -38.499 15.5s-15.5 23.166 -15.5 38.499c0 14.667 5.16699 27.167 15.5 37.5s23.166 15.5 38.499 15.5c14.667 0 27 -5 37 -15s15 -22.667 15 -38z
" />
    <glyph glyph-name="shadda_dammatan" unicode="&#xfc5e;" horiz-adv-x="0" arabic-form="isolated" 
d="M-137 262l43.001 9l19 -84l51 10c-1.33301 3.33301 -2.33301 7 -3 11c-2 6.66699 -3 14.667 -3 24c0 25.333 8.66699 46 26 62s38.666 24 63.999 24c22 0 39 -5.83301 51 -17.5s18 -27.167 18 -46.5c0 -22 -6.66699 -40 -20 -54s-32.333 -23.667 -57 -29l-163 -32z
M43.001 211c13.333 3.33301 23.333 8.00195 30 14.002s10 15 10 27c0 16.667 -9.33301 25 -28 25c-12 0 -21.667 -3.83301 -29 -11.5s-11 -17.834 -11 -30.501c0 -6.66699 0.666992 -13.334 2 -20.001c0.666992 -2.66699 1.66699 -5.66699 3 -9zM29.001 34.002
c-10.667 -22.667 -30.0029 -34 -58.0029 -34c-14 0 -25.167 4.5 -33.5 13.5s-14.833 23.833 -19.5 44.5l-7 36l41 8l7 -34c4 -16.667 11.667 -25 23 -25c8.66699 0 14.834 3.33301 18.501 10s4.83398 15 3.50098 25l-6 36l41 8l7 -36c4 -18 12 -27 24 -27
c10.667 0 17.667 4 21 12s4 18 2 30l-7 37l42 8l6 -36c5.33301 -28 2.33301 -50.5 -9 -67.5s-31 -25.5 -59 -25.5c-7.33301 0 -14.166 1.33301 -20.499 4s-11.833 7 -16.5 13z" />
    <glyph glyph-name="shadda_kasratan" unicode="&#xfc5f;" horiz-adv-x="0" arabic-form="isolated" 
d="M-96 112l204 32l8 -41l-204 -31zM-84 40l204 32l6 -41l-203 -31zM-9 193c-10.667 -22.667 -29.3369 -34.0029 -56.0039 -34.0029c-15.333 0 -27.166 4.66699 -35.499 14s-14.5 24.333 -18.5 45l-7 36l41 7l7 -34c2.66699 -16.667 10.334 -25 23.001 -25
c8.66699 0 14.834 3.33301 18.501 10s4.83398 15 3.50098 25l-5 36l40 8l7 -37c2.66699 -18 10.667 -27 24 -27c11.333 0.666992 18.333 4.83398 21 12.501s3.33398 17.5 2.00098 29.5l-6 37l41 7l7 -36c4.66699 -27.333 1.16699 -49.166 -10.5 -65.499
s-30.834 -25.166 -57.501 -26.499c-7.33301 0 -14.5 1.5 -21.5 4.5s-12.833 7.5 -17.5 13.5z" />
    <glyph glyph-name="shadda_fatha" unicode="&#xfc60;" horiz-adv-x="0" arabic-form="isolated" 
d="M-119 201l204 31l7 -40l-203 -32zM10 33c-4.66699 -10 -11.834 -18.001 -21.501 -24.001s-21.167 -9 -34.5 -9c-15.333 0 -27.166 4.5 -35.499 13.5s-14.166 24.167 -17.499 45.5l-7 36l41 7l6 -34c4 -16.667 11.667 -25 23 -25c8.66699 0 15 3.33301 19 10s5 15 3 25
l-5 36l40 7l7 -36c4 -18 12 -27 24 -27c11.333 0.666992 18.5 4.83398 21.5 12.501s3.5 17.5 1.5 29.5l-6 37l42 7l6 -36c5.33301 -28 2.16602 -50.167 -9.50098 -66.5s-31.167 -24.833 -58.5 -25.5c-16.667 0 -29.667 5.66699 -39 17z" />
    <glyph glyph-name="shadda_damma" unicode="&#xfc61;" horiz-adv-x="0" arabic-form="isolated" 
d="M-124 180l88.001 17c-1.33301 3.33301 -2.33301 7 -3 11c-2 6.66699 -3 14.667 -3 24c0 25.333 8.66699 46 26 62s38.666 24 63.999 24c22 0 39 -5.83301 51 -17.5s18 -27.167 18 -46.5c0 -22 -6.66699 -40 -20 -54s-32.333 -23.667 -57 -29l-156 -31zM31.001 211
c13.333 3.33301 23.333 8.00195 30 14.002s10 15 10 27c0 16.667 -9.33301 25 -28 25c-12 0 -21.667 -3.83301 -29 -11.5s-11 -17.834 -11 -30.501c0 -6.66699 0.666992 -13.334 2 -20.001c0.666992 -2.66699 1.66699 -5.66699 3 -9zM17.001 34.002
c-10.667 -22.667 -30.0029 -34 -58.0029 -34c-14 0 -25.167 4.5 -33.5 13.5s-14.833 23.833 -19.5 44.5l-7 36l41 8l7 -34c4 -16.667 11.667 -25 23 -25c8.66699 0 14.834 3.33301 18.501 10s4.83398 15 3.50098 25l-6 36l41 8l7 -36c4 -18 12 -27 24 -27
c10.667 0 17.667 4 21 12s4 18 2 30l-7 37l42 8l6 -36c5.33301 -28 2.33301 -50.5 -9 -67.5s-31 -25.5 -59 -25.5c-7.33301 0 -14.166 1.33301 -20.499 4s-11.833 7 -16.5 13z" />
    <glyph glyph-name="shadda_kasra" unicode="&#xfc62;" horiz-adv-x="0" arabic-form="isolated" 
d="M-90 41l204 31l6 -40l-203 -32zM-2 123c-4.66699 -10.667 -12.0029 -19.0029 -22.0029 -25.0029s-21.333 -9 -34 -9c-15.333 0 -27.166 4.66699 -35.499 14s-14.5 24.333 -18.5 45l-7 36l42 7l6 -34c4 -16.667 11.667 -25 23 -25c8.66699 0 14.834 3.33301 18.501 10
s4.83398 15 3.50098 25l-5 36l40 8l7 -37c4 -18 12 -27 24 -27c11.333 0.666992 18.5 4.83398 21.5 12.501s3.5 17.5 1.5 29.5l-6 37l42 7l6 -36c5.33301 -27.333 2 -49.166 -10 -65.499s-31.333 -25.166 -58 -26.499c-7.33301 0 -14.5 1.5 -21.5 4.5
s-12.833 7.5 -17.5 13.5z" />
    <glyph glyph-name="shadda_alefsuperscript" unicode="&#xfc63;" horiz-adv-x="0" arabic-form="isolated" 
d="M4 32c-4.66699 -10 -11.835 -17.835 -21.502 -23.502s-20.834 -8.5 -33.501 -8.5c-15.333 -0.666992 -27.333 3.33301 -36 12s-15 23 -19 43l-7 34l41 8l7 -33c2 -9.33301 4.66699 -15.666 8 -18.999s8.33301 -5 15 -5c8.66699 0 14.834 3.16699 18.501 9.5
s4.83398 14.5 3.50098 24.5l-6 34l40 8l8 -35c3.33301 -17.333 11.333 -26 24 -26c11.333 0.666992 18.333 4.83398 21 12.501s3.33398 17.167 2.00098 28.5l-7 35l42 8l6 -35c5.33301 -26 2.33301 -46.833 -9 -62.5s-30.333 -24.167 -57 -25.5
c-16 -1.33301 -29.333 4 -40 16zM-32.001 147.998v93h42v-85z" />
    <glyph glyph-name="alah" unicode="&#xfdf2;" horiz-adv-x="1248" arabic-form="isolated" 
d="M307 0c-48 0 -88.6689 5.50098 -122.002 16.501s-60.333 26.667 -81 47s-35.667 44.833 -45 73.5s-14 60.667 -14 96c0 32.667 5.16699 64 15.5 94s25.833 56.5 46.5 79.5s46.834 41.167 78.501 54.5s68.834 20 111.501 20c28 0 54 -1.83301 78 -5.5
s45.333 -7.83398 64 -12.501c21.333 -5.33301 41 -11 59 -17v-373h236v598h92v-598h235v632h92v-705h-846zM407.998 385.001c-10.667 4 -21.999 7.66797 -33.999 11.001c-10.667 3.33301 -23.334 6.16602 -38.001 8.49902s-31 3.5 -49 3.5c-46.667 0 -83.167 -15 -109.5 -45
s-39.5 -70 -39.5 -120c0 -57.333 14.167 -100 42.5 -128s74.833 -42 139.5 -42h88v312z" />
    <glyph glyph-name="alef_madda.fina" unicode="&#x622;" horiz-adv-x="282" arabic-form="final" 
d="M95 705h92v-632h110v-73h-202v705zM-20 836l89 67.001c2 -2 5.66699 -5.16699 11 -9.5s12 -8.83301 20 -13.5s17.333 -8.83398 28 -12.501s22.334 -5.5 35.001 -5.5c14 0 27 1.83301 39 5.5s22.5 8 31.5 13s16.5 9.83301 22.5 14.5s10 8 12 10v-73
c-2 -2 -5.66699 -5 -11 -9s-12.5 -8.16699 -21.5 -12.5s-19.833 -8.16602 -32.5 -11.499s-27.334 -5 -44.001 -5c-13.333 0 -25.333 1.5 -36 4.5s-19.667 6.33301 -27 10s-13.333 7.16699 -18 10.5s-7.66699 5.66602 -9 6.99902l-52 -38z" />
    <glyph glyph-name="alef_hamza_above.fina" unicode="&#x623;" horiz-adv-x="282" arabic-form="final" 
d="M95 696h92v-623h110v-73h-202v696zM11 820c14 0 27.165 -0.500977 39.498 -1.50098s22.5 -2.16699 30.5 -3.5c-9.33301 4.66699 -16.166 11.667 -20.499 21s-6.5 18.333 -6.5 27c0 12.667 2.16699 24.834 6.5 36.501s11.5 22 21.5 31s23 16.167 39 21.5s35.667 8 59 8
c11.333 0 21.833 -0.333008 31.5 -1s17.167 -1.66699 22.5 -3l-9 -54c-4.66699 1.33301 -11.5 2.5 -20.5 3.5s-18.5 1.5 -28.5 1.5c-18 0 -31.667 -3.83301 -41 -11.5s-14 -17.5 -14 -29.5c0 -13.333 5.83301 -24.333 17.5 -33s31.834 -13 60.501 -13h54v-53h-242v53z" />
    <glyph glyph-name="waw_hamza.fina" unicode="&#x624;" horiz-adv-x="594" arabic-form="final" 
d="M207 -253c-19.333 0 -38.334 0.668945 -57.001 2.00195s-35.334 3 -50.001 5c-17.333 2.66699 -33.666 5.33398 -48.999 8.00098l6 77c16 -4 33 -7.33301 51 -10c15.333 -2.66699 32.5 -4.83398 51.5 -6.50098s38.167 -2.5 57.5 -2.5c27.333 0 52.666 2.66699 75.999 8
s43.5 14.166 60.5 26.499s30.333 28.5 40 48.5s14.5 44.333 14.5 73v24h-101c-48 0 -88.667 5.5 -122 16.5s-60.333 26.667 -81 47s-35.667 44.833 -45 73.5s-14 60.667 -14 96c0 32.667 5.16699 64 15.5 94s25.833 56.5 46.5 79.5s46.834 41.167 78.501 54.5
s68.834 20 111.501 20c28 0 54 -1.83301 78 -5.5s45.333 -7.83398 64 -12.501c21.333 -5.33301 41 -11 59 -17v-373h111v-73h-111v-19c0 -29.333 -5 -58 -15 -86s-26.5 -53 -49.5 -75s-53 -39.667 -90 -53s-82.5 -20 -136.5 -20zM407.999 385.002
c-10.667 4 -21.999 7.66797 -33.999 11.001c-10.667 3.33301 -23.334 6.16602 -38.001 8.49902s-31 3.5 -49 3.5c-46.667 0 -83.167 -15 -109.5 -45s-39.5 -70 -39.5 -120c0 -57.333 14.167 -100 42.5 -128s74.833 -42 139.5 -42h88v312zM158 623.003
c13.333 0 26.165 -0.5 38.498 -1.5s22.5 -2.16699 30.5 -3.5c-9.33301 4 -16.166 10.667 -20.499 20s-6.5 18.666 -6.5 27.999c0 12 2.33301 24 7 36s12 22.667 22 32s23 16.833 39 22.5s35.667 8.5 59 8.5c11.333 0 21.833 -0.333008 31.5 -1s17.167 -1.66699 22.5 -3
l-9 -56c-4.66699 0.666992 -11.5 1.5 -20.5 2.5s-18.167 1.5 -27.5 1.5c-18.667 0 -32.667 -3.66699 -42 -11s-14 -17.333 -14 -30c0 -13.333 5.83301 -24.166 17.5 -32.499s31.834 -12.5 60.501 -12.5h54v-57h-242v57z" />
    <glyph glyph-name="alef_hamza_below.fina" unicode="&#x625;" horiz-adv-x="282" arabic-form="final" 
d="M95 705h92v-632h110v-73h-202v705zM9 -199c11.333 0 21.834 -0.167969 31.501 -0.500977s18.5 -1.16602 26.5 -2.49902c-5.33301 3.33301 -9.66602 8.16602 -12.999 14.499s-5 13.833 -5 22.5c0 24.667 9.66699 45.834 29 63.501s48.666 26.5 87.999 26.5
c22 0 40.333 -1.66699 55 -5l-9 -56c-6 1.33301 -13.167 2.66602 -21.5 3.99902s-16.833 2 -25.5 2c-15.333 0 -27 -3 -35 -9s-12 -14 -12 -24c0 -11.333 5.16699 -20.166 15.5 -26.499s27.166 -9.5 50.499 -9.5h59v-55h-234v55z" />
    <glyph glyph-name="yeh_hamza_above.fina" unicode="&#x626;" horiz-adv-x="1000" arabic-form="final" 
d="M825 250c0 57.333 -10.999 98.001 -32.999 122.001s-58.333 36 -109 36c-10.667 0 -20.834 -0.333008 -30.501 -1s-18.5 -1.66699 -26.5 -3l-27 -4v-400h-186c-63.333 0 -117.166 6.16699 -161.499 18.5s-80.5 30.833 -108.5 55.5s-48.5 55.167 -61.5 91.5
s-19.5 78.166 -19.5 125.499c0 30 3.16699 60.333 9.5 91s14.166 55.667 23.499 75l98 17c-11.333 -23.333 -20.5 -50.833 -27.5 -82.5s-10.5 -61.5 -10.5 -89.5c0 -38 4.16699 -71.333 12.5 -100s22.833 -52.5 43.5 -71.5s48.334 -33.333 83.001 -43s78 -14.5 130 -14.5h85
v389c17.333 3.33301 36 6.33301 56 9c17.333 2.66699 36.833 5 58.5 7s44.5 3 68.5 3c42 0 77.167 -5 105.5 -15s51.166 -24.333 68.499 -43s29.833 -41.667 37.5 -69s11.5 -58 11.5 -92v-189h100v-73h-190v250zM47.001 623.001c13.333 0 26.165 -0.5 38.498 -1.5
s22.5 -2.16699 30.5 -3.5c-9.33301 4 -16.166 10.667 -20.499 20s-6.5 18.666 -6.5 27.999c0 12 2.33301 24 7 36s12 22.667 22 32s23 16.833 39 22.5s35.667 8.5 59 8.5c11.333 0 21.833 -0.333008 31.5 -1s17.167 -1.66699 22.5 -3l-9 -56
c-4.66699 0.666992 -11.5 1.5 -20.5 2.5s-18.167 1.5 -27.5 1.5c-18.667 0 -32.667 -3.66699 -42 -11s-14 -17.333 -14 -30c0 -13.333 5.83301 -24.166 17.5 -32.499s31.834 -12.5 60.501 -12.5h54v-57h-242v57z" />
    <glyph glyph-name="yeh_hamza_above.init" unicode="&#x626;" horiz-adv-x="326" arabic-form="initial" 
d="M0 73h146v397h92v-470h-238v73zM48 623c13.333 0 26.165 -0.5 38.498 -1.5s22.5 -2.16699 30.5 -3.5c-9.33301 4 -16.166 10.667 -20.499 20s-6.5 18.666 -6.5 27.999c0 12 2.33301 24 7 36s12 22.667 22 32s23 16.833 39 22.5s35.667 8.5 59 8.5
c11.333 0 21.833 -0.333008 31.5 -1s17.167 -1.66699 22.5 -3l-9 -56c-4.66699 0.666992 -11.5 1.5 -20.5 2.5s-18.167 1.5 -27.5 1.5c-18.667 0 -32.667 -3.66699 -42 -11s-14 -17.333 -14 -30c0 -13.333 5.83301 -24.166 17.5 -32.499s31.834 -12.5 60.501 -12.5h54v-57
h-242v57z" />
    <glyph glyph-name="yeh_hamza_above.medi" unicode="&#x626;" horiz-adv-x="334" arabic-form="medial" 
d="M0 73h146v397h92v-397h111v-73h-349v73zM48 623c13.333 0 26.165 -0.5 38.498 -1.5s22.5 -2.16699 30.5 -3.5c-9.33301 4 -16.166 10.667 -20.499 20s-6.5 18.666 -6.5 27.999c0 12 2.33301 24 7 36s12 22.667 22 32s23 16.833 39 22.5s35.667 8.5 59 8.5
c11.333 0 21.833 -0.333008 31.5 -1s17.167 -1.66699 22.5 -3l-9 -56c-4.66699 0.666992 -11.5 1.5 -20.5 2.5s-18.167 1.5 -27.5 1.5c-18.667 0 -32.667 -3.66699 -42 -11s-14 -17.333 -14 -30c0 -13.333 5.83301 -24.166 17.5 -32.499s31.834 -12.5 60.501 -12.5h54v-57
h-242v57z" />
    <glyph glyph-name="alef.fina" unicode="&#x627;" horiz-adv-x="282" arabic-form="final" 
d="M95 705h92v-632h110v-73h-202v705z" />
    <glyph glyph-name="beh.fina" unicode="&#x628;" horiz-adv-x="782" arabic-form="final" 
d="M413 0c-63.333 0 -117.167 6.16797 -161.5 18.501s-80.5 30.833 -108.5 55.5s-48.5 55.167 -61.5 91.5s-19.5 78.166 -19.5 125.499c0 30 3.16699 60.333 9.5 91s14.166 55.667 23.499 75l98 17c-11.333 -23.333 -20.5 -50.833 -27.5 -82.5s-10.5 -61.5 -10.5 -89.5
c0 -38 4.16699 -71.333 12.5 -100s22.833 -52.5 43.5 -71.5s48.334 -33.333 83.001 -43s78 -14.5 130 -14.5h170v397h92v-397h110v-73h-383zM392.999 -203.999c-15.333 0 -28.166 5.16699 -38.499 15.5s-15.5 23.166 -15.5 38.499s5.16699 28.166 15.5 38.499
s23.166 15.5 38.499 15.5s28.333 -5.16699 39 -15.5s16 -23.166 16 -38.499s-5.33301 -28.166 -16 -38.499s-23.667 -15.5 -39 -15.5z" />
    <glyph glyph-name="beh.init" unicode="&#x628;" horiz-adv-x="326" arabic-form="initial" 
d="M125 -204c-15.333 0 -28.166 5.16699 -38.499 15.5s-15.5 23.166 -15.5 38.499s5.16699 28.166 15.5 38.499s23.166 15.5 38.499 15.5s28.333 -5.16699 39 -15.5s16 -23.166 16 -38.499s-5.33301 -28.166 -16 -38.499s-23.667 -15.5 -39 -15.5zM0 73h146v397h92v-470
h-238v73z" />
    <glyph glyph-name="beh.medi" unicode="&#x628;" horiz-adv-x="334" arabic-form="medial" 
d="M0 73h146v397h92v-397h111v-73h-349v73zM125 -204c-15.333 0 -28.166 5.16699 -38.499 15.5s-15.5 23.166 -15.5 38.499s5.16699 28.166 15.5 38.499s23.166 15.5 38.499 15.5s28.333 -5.16699 39 -15.5s16 -23.166 16 -38.499s-5.33301 -28.166 -16 -38.499
s-23.667 -15.5 -39 -15.5z" />
    <glyph glyph-name="tehmarbuta.fina" unicode="&#x629;" horiz-adv-x="594" arabic-form="final" 
d="M363 562c-15.333 0 -28.166 5.16699 -38.499 15.5s-15.5 23.166 -15.5 38.499c0 14.667 5.16699 27.167 15.5 37.5s23.166 15.5 38.499 15.5c14.667 0 27 -5 37 -15s15 -22.667 15 -38s-5 -28.166 -15 -38.499s-22.333 -15.5 -37 -15.5zM215 562
c-15.333 0 -28 5.16699 -38 15.5s-15 23.166 -15 38.499c0 14.667 5 27.167 15 37.5s22.667 15.5 38 15.5c14.667 0 27.167 -5 37.5 -15s15.5 -22.667 15.5 -38s-5.16699 -28.166 -15.5 -38.499s-22.833 -15.5 -37.5 -15.5zM307 0c-48 0 -88.6689 5.50098 -122.002 16.501
s-60.333 26.667 -81 47s-35.667 44.833 -45 73.5s-14 60.667 -14 96c0 32.667 5.16699 64 15.5 94s25.833 56.5 46.5 79.5s46.834 41.167 78.501 54.5s68.834 20 111.501 20c28 0 54 -1.83301 78 -5.5s45.333 -7.83398 64 -12.501c21.333 -5.33301 41 -11 59 -17v-373h111
v-73h-302zM407.998 385.001c-10.667 4 -21.999 7.66797 -33.999 11.001c-10.667 3.33301 -23.334 6.16602 -38.001 8.49902s-31 3.5 -49 3.5c-46.667 0 -83.167 -15 -109.5 -45s-39.5 -70 -39.5 -120c0 -57.333 14.167 -100 42.5 -128s74.833 -42 139.5 -42h88v312z" />
    <glyph glyph-name="teh.fina" unicode="&#x62a;" horiz-adv-x="782" arabic-form="final" 
d="M413 0c-63.333 0 -117.167 6.16797 -161.5 18.501s-80.5 30.833 -108.5 55.5s-48.5 55.167 -61.5 91.5s-19.5 78.166 -19.5 125.499c0 30 3.16699 60.333 9.5 91s14.166 55.667 23.499 75l98 17c-11.333 -23.333 -20.5 -50.833 -27.5 -82.5s-10.5 -61.5 -10.5 -89.5
c0 -38 4.16699 -71.333 12.5 -100s22.833 -52.5 43.5 -71.5s48.334 -33.333 83.001 -43s78 -14.5 130 -14.5h170v397h92v-397h110v-73h-383zM327.999 562.001c-15.333 0 -28 5.16699 -38 15.5s-15 23.166 -15 38.499c0 14.667 5 27.167 15 37.5s22.667 15.5 38 15.5
c14.667 0 27.167 -5 37.5 -15s15.5 -22.667 15.5 -38s-5.16699 -28.166 -15.5 -38.499s-22.833 -15.5 -37.5 -15.5zM475.999 562.001c-15.333 0 -28.166 5.16699 -38.499 15.5s-15.5 23.166 -15.5 38.499c0 14.667 5.16699 27.167 15.5 37.5s23.166 15.5 38.499 15.5
c14.667 0 27 -5 37 -15s15 -22.667 15 -38s-5 -28.166 -15 -38.499s-22.333 -15.5 -37 -15.5z" />
    <glyph glyph-name="teh.init" unicode="&#x62a;" horiz-adv-x="326" arabic-form="initial" 
d="M250 562c-15.333 0 -28.166 5.16699 -38.499 15.5s-15.5 23.166 -15.5 38.499c0 14.667 5.16699 27.167 15.5 37.5s23.166 15.5 38.499 15.5c14.667 0 27 -5 37 -15s15 -22.667 15 -38s-5 -28.166 -15 -38.499s-22.333 -15.5 -37 -15.5zM102 562
c-15.333 0 -28 5.16699 -38 15.5s-15 23.166 -15 38.499c0 14.667 5 27.167 15 37.5s22.667 15.5 38 15.5c14.667 0 27.167 -5 37.5 -15s15.5 -22.667 15.5 -38s-5.16699 -28.166 -15.5 -38.499s-22.833 -15.5 -37.5 -15.5zM0 73h146v397h92v-470h-238v73z" />
    <glyph glyph-name="teh.medi" unicode="&#x62a;" horiz-adv-x="326" arabic-form="medial" 
d="M0 73h146v397h92v-397h103v-73h-341v73zM102 562c-15.333 0 -28 5.16699 -38 15.5s-15 23.166 -15 38.499c0 14.667 5 27.167 15 37.5s22.667 15.5 38 15.5c14.667 0 27.167 -5 37.5 -15s15.5 -22.667 15.5 -38s-5.16699 -28.166 -15.5 -38.499
s-22.833 -15.5 -37.5 -15.5zM250 562c-15.333 0 -28.166 5.16699 -38.499 15.5s-15.5 23.166 -15.5 38.499c0 14.667 5.16699 27.167 15.5 37.5s23.166 15.5 38.499 15.5c14.667 0 27 -5 37 -15s15 -22.667 15 -38s-5 -28.166 -15 -38.499s-22.333 -15.5 -37 -15.5z" />
    <glyph glyph-name="theh.fina" unicode="&#x62b;" horiz-adv-x="782" arabic-form="final" 
d="M413 0c-63.333 0 -117.167 6.16797 -161.5 18.501s-80.5 30.833 -108.5 55.5s-48.5 55.167 -61.5 91.5s-19.5 78.166 -19.5 125.499c0 30 3.16699 60.333 9.5 91s14.166 55.667 23.499 75l98 17c-11.333 -23.333 -20.5 -50.833 -27.5 -82.5s-10.5 -61.5 -10.5 -89.5
c0 -38 4.16699 -71.333 12.5 -100s22.833 -52.5 43.5 -71.5s48.334 -33.333 83.001 -43s78 -14.5 130 -14.5h170v397h92v-397h110v-73h-383zM327.999 562.001c-15.333 0 -28 5.16699 -38 15.5s-15 23.166 -15 38.499c0 14.667 5 27.167 15 37.5s22.667 15.5 38 15.5
s28 -5 38 -15s15 -22.667 15 -38s-5 -28.166 -15 -38.499s-22.667 -15.5 -38 -15.5zM475.999 562.001c-15.333 0 -28 5.16699 -38 15.5s-15 23.166 -15 38.499c0 14.667 5 27.167 15 37.5s22.667 15.5 38 15.5c14.667 0 27.167 -5 37.5 -15s15.5 -22.667 15.5 -38
s-5.16699 -28.166 -15.5 -38.499s-22.833 -15.5 -37.5 -15.5zM401.999 681.001c-14.667 0 -26.834 4.83203 -36.501 14.499s-14.5 21.834 -14.5 36.501s4.83301 27 14.5 37s21.834 15 36.501 15c14 0 25.833 -5 35.5 -15s14.5 -22.333 14.5 -37
c0 -14 -4.83301 -26 -14.5 -36s-21.5 -15 -35.5 -15z" />
    <glyph glyph-name="theh.init" unicode="&#x62b;" horiz-adv-x="326" arabic-form="initial" 
d="M176 681c-14.667 0 -26.834 4.83203 -36.501 14.499s-14.5 21.834 -14.5 36.501s4.83301 27 14.5 37s21.834 15 36.501 15c14 0 25.833 -5 35.5 -15s14.5 -22.333 14.5 -37c0 -14 -4.83301 -26 -14.5 -36s-21.5 -15 -35.5 -15zM250 561.999
c-15.333 0 -28 5.16699 -38 15.5s-15 23.166 -15 38.499c0 14.667 5 27.167 15 37.5s22.667 15.5 38 15.5c14.667 0 27.167 -5 37.5 -15s15.5 -22.667 15.5 -38s-5.16699 -28.166 -15.5 -38.499s-22.833 -15.5 -37.5 -15.5zM102 561.999c-15.333 0 -28 5.16699 -38 15.5
s-15 23.166 -15 38.499c0 14.667 5 27.167 15 37.5s22.667 15.5 38 15.5s28 -5 38 -15s15 -22.667 15 -38s-5 -28.166 -15 -38.499s-22.667 -15.5 -38 -15.5zM0 72.999h146v397h92v-470h-238v73z" />
    <glyph glyph-name="theh.medi" unicode="&#x62b;" horiz-adv-x="334" arabic-form="medial" 
d="M0 73h146v397h92v-397h111v-73h-349v73zM102 562c-15.333 0 -28 5.16699 -38 15.5s-15 23.166 -15 38.499c0 14.667 5 27.167 15 37.5s22.667 15.5 38 15.5s28 -5 38 -15s15 -22.667 15 -38s-5 -28.166 -15 -38.499s-22.667 -15.5 -38 -15.5zM250 562
c-15.333 0 -28 5.16699 -38 15.5s-15 23.166 -15 38.499c0 14.667 5 27.167 15 37.5s22.667 15.5 38 15.5c14.667 0 27.167 -5 37.5 -15s15.5 -22.667 15.5 -38s-5.16699 -28.166 -15.5 -38.499s-22.833 -15.5 -37.5 -15.5zM176 681
c-14.667 0 -26.834 4.83203 -36.501 14.499s-14.5 21.834 -14.5 36.501s4.83301 27 14.5 37s21.834 15 36.501 15c14 0 25.833 -5 35.5 -15s14.5 -22.333 14.5 -37c0 -14 -4.83301 -26 -14.5 -36s-21.5 -15 -35.5 -15z" />
    <glyph glyph-name="jeem.fina" unicode="&#x62c;" horiz-adv-x="588" arabic-form="final" 
d="M315 0c-42.667 0 -77.6689 -3.16992 -105.002 -9.50293s-49 -15.166 -65 -26.499s-27.167 -24.666 -33.5 -39.999s-9.5 -31.666 -9.5 -48.999c0 -16 3.83301 -31.333 11.5 -46s19.334 -27.667 35.001 -39s35.167 -20.333 58.5 -27s51 -10 83 -10l-6 -73
c-46 0 -86.167 4.83301 -120.5 14.5s-62.666 23 -84.999 40s-39.166 37 -50.499 60s-17 47.5 -17 73.5c0 29.333 5.5 56.5 16.5 81.5s28.667 46.667 53 65s56.166 32.666 95.499 42.999s87.333 15.5 144 15.5h98c2.66699 17.333 4.5 34.666 5.5 51.999s1.5 34.333 1.5 51
c0 38 -3.66699 71 -11 99s-19.666 51.333 -36.999 70s-40 32.667 -68 42s-62.333 14 -103 14c-19.333 0 -37.833 -0.5 -55.5 -1.5s-36.167 -2.83301 -55.5 -5.5v72c17.333 2.66699 36.166 4.66699 56.499 6s41.5 2 63.5 2c54.667 0 101.167 -6.33301 139.5 -19
s69.5 -31.167 93.5 -55.5s41.5 -54.666 52.5 -90.999s16.5 -78.166 16.5 -125.499c0 -31.333 -2 -68 -6 -110h92v-73h-288zM369.998 -204.003c-15.333 0 -28.166 5.16699 -38.499 15.5s-15.5 23.166 -15.5 38.499s5.16699 28.166 15.5 38.499s23.166 15.5 38.499 15.5
s28.333 -5.16699 39 -15.5s16 -23.166 16 -38.499s-5.33301 -28.166 -16 -38.499s-23.667 -15.5 -39 -15.5z" />
    <glyph glyph-name="jeem.init" unicode="&#x62c;" horiz-adv-x="578" arabic-form="initial" 
d="M236 -204c-15.333 0 -28.166 5.16699 -38.499 15.5s-15.5 23.166 -15.5 38.499s5.16699 28.166 15.5 38.499s23.166 15.5 38.499 15.5s28.333 -5.16699 39 -15.5s16 -23.166 16 -38.499s-5.33301 -28.166 -16 -38.499s-23.667 -15.5 -39 -15.5zM0 73l413 -0.000976562
c2 17.333 3.66699 34.666 5 51.999s2 34.333 2 51c0 38 -3.66699 71 -11 99s-19.666 51.333 -36.999 70s-40 32.667 -68 42s-62.333 14 -103 14c-20 0 -38.833 -0.5 -56.5 -1.5s-35.834 -2.83301 -54.501 -5.5v72c16.667 2.66699 35.167 4.66699 55.5 6s41.5 2 63.5 2
c54.667 0 101.167 -6.33301 139.5 -19s69.5 -31.167 93.5 -55.5s41.5 -54.666 52.5 -90.999s16.5 -78.166 16.5 -125.499c0 -24 -1.16699 -51.5 -3.5 -82.5s-6.5 -64.5 -12.5 -100.5h-495v73z" />
    <glyph glyph-name="jeem.medi" unicode="&#x62c;" horiz-adv-x="582" arabic-form="medial" 
d="M0 73l413 -0.000976562c2 17.333 3.66699 34.666 5 51.999s2 34.333 2 51c0 38 -3.66699 71 -11 99s-19.666 51.333 -36.999 70s-40 32.667 -68 42s-62.333 14 -103 14c-20 0 -38.833 -0.5 -56.5 -1.5s-35.834 -2.83301 -54.501 -5.5v72
c16.667 2.66699 35.167 4.66699 55.5 6s41.5 2 63.5 2c54.667 0 101.167 -6.33301 139.5 -19s69.5 -31.167 93.5 -55.5s41.5 -54.666 52.5 -90.999s16.5 -78.166 16.5 -125.499c0 -31.333 -2 -68 -6 -110h92v-73h-597v73zM236 -204.001
c-15.333 0 -28.166 5.16699 -38.499 15.5s-15.5 23.166 -15.5 38.499s5.16699 28.166 15.5 38.499s23.166 15.5 38.499 15.5s28.333 -5.16699 39 -15.5s16 -23.166 16 -38.499s-5.33301 -28.166 -16 -38.499s-23.667 -15.5 -39 -15.5z" />
    <glyph glyph-name="hah.fina" unicode="&#x62d;" horiz-adv-x="592" arabic-form="final" 
d="M325 0c-42.667 0 -77.668 -3.16602 -105.001 -9.49902s-49 -15.166 -65 -26.499s-27.167 -24.5 -33.5 -39.5s-9.5 -31.167 -9.5 -48.5c0 -34.667 15.5 -63.834 46.5 -87.501s78.833 -35.5 143.5 -35.5c54.667 0 114.667 7 180 21l7 -72
c-65.333 -14.667 -130.333 -22 -195 -22c-46 0 -86.167 4.66699 -120.5 14s-62.666 22.333 -84.999 39s-39.166 36.667 -50.499 60s-17 48.666 -17 75.999c0 28.667 5.5 55.5 16.5 80.5s28.667 46.667 53 65s56.166 32.666 95.499 42.999s87.333 15.5 144 15.5h93
c2 17.333 3.66699 34.666 5 51.999s2 34.333 2 51c0 38 -3.66699 71 -11 99s-19.666 51.333 -36.999 70s-40 32.667 -68 42s-62.333 14 -103 14c-20 0 -38.833 -0.5 -56.5 -1.5s-35.834 -2.83301 -54.501 -5.5v72c16.667 2.66699 35.167 4.66699 55.5 6s41.5 2 63.5 2
c54.667 0 101.167 -6.33301 139.5 -19s69.5 -31.167 93.5 -55.5s41.5 -54.666 52.5 -90.999s16.5 -78.166 16.5 -125.499c0 -31.333 -2 -68 -6 -110h92v-73h-282v0z" />
    <glyph glyph-name="hah.init" unicode="&#x62d;" horiz-adv-x="578" arabic-form="initial" 
d="M0 73l413 -0.000976562c2 17.333 3.66699 34.666 5 51.999s2 34.333 2 51c0 38 -3.66699 71 -11 99s-19.666 51.333 -36.999 70s-40 32.667 -68 42s-62.333 14 -103 14c-20 0 -38.833 -0.5 -56.5 -1.5s-35.834 -2.83301 -54.501 -5.5v72
c16.667 2.66699 35.167 4.66699 55.5 6s41.5 2 63.5 2c54.667 0 101.167 -6.33301 139.5 -19s69.5 -31.167 93.5 -55.5s41.5 -54.666 52.5 -90.999s16.5 -78.166 16.5 -125.499c0 -24 -1.16699 -51.5 -3.5 -82.5s-6.5 -64.5 -12.5 -100.5h-495v73z" />
    <glyph glyph-name="hah.medi" unicode="&#x62d;" horiz-adv-x="582" arabic-form="medial" 
d="M0 73l413 -0.000976562c2 17.333 3.66699 34.666 5 51.999s2 34.333 2 51c0 38 -3.66699 71 -11 99s-19.666 51.333 -36.999 70s-40 32.667 -68 42s-62.333 14 -103 14c-20 0 -38.833 -0.5 -56.5 -1.5s-35.834 -2.83301 -54.501 -5.5v72
c16.667 2.66699 35.167 4.66699 55.5 6s41.5 2 63.5 2c54.667 0 101.167 -6.33301 139.5 -19s69.5 -31.167 93.5 -55.5s41.5 -54.666 52.5 -90.999s16.5 -78.166 16.5 -125.499c0 -31.333 -2 -68 -6 -110h92v-73h-597v73z" />
    <glyph glyph-name="khah.fina" unicode="&#x62e;" horiz-adv-x="592" arabic-form="final" 
d="M325 0c-42.667 0 -77.668 -3.16602 -105.001 -9.49902s-49 -15.166 -65 -26.499s-27.167 -24.5 -33.5 -39.5s-9.5 -31.167 -9.5 -48.5c0 -34.667 15.5 -63.834 46.5 -87.501s78.833 -35.5 143.5 -35.5c54.667 0 114.667 7 180 21l7 -72
c-65.333 -14.667 -130.333 -22 -195 -22c-46 0 -86.167 4.66699 -120.5 14s-62.666 22.333 -84.999 39s-39.166 36.667 -50.499 60s-17 48.666 -17 75.999c0 28.667 5.5 55.5 16.5 80.5s28.667 46.667 53 65s56.166 32.666 95.499 42.999s87.333 15.5 144 15.5h93
c2 17.333 3.66699 34.666 5 51.999s2 34.333 2 51c0 38 -3.66699 71 -11 99s-19.666 51.333 -36.999 70s-40 32.667 -68 42s-62.333 14 -103 14c-20 0 -38.833 -0.5 -56.5 -1.5s-35.834 -2.83301 -54.501 -5.5v72c16.667 2.66699 35.167 4.66699 55.5 6s41.5 2 63.5 2
c54.667 0 101.167 -6.33301 139.5 -19s69.5 -31.167 93.5 -55.5s41.5 -54.666 52.5 -90.999s16.5 -78.166 16.5 -125.499c0 -31.333 -2 -68 -6 -110h92v-73h-282zM245.999 577.001c-15.333 0 -28.166 5.16699 -38.499 15.5s-15.5 23.166 -15.5 38.499
s5.16699 28.333 15.5 39s23.166 16 38.499 16s28.333 -5.33301 39 -16s16 -23.667 16 -39s-5.33301 -28.166 -16 -38.499s-23.667 -15.5 -39 -15.5z" />
    <glyph glyph-name="khah.init" unicode="&#x62e;" horiz-adv-x="578" arabic-form="initial" 
d="M236 577c-15.333 0 -28.166 5.16699 -38.499 15.5s-15.5 23.166 -15.5 38.499s5.16699 28.333 15.5 39s23.166 16 38.499 16s28.333 -5.33301 39 -16s16 -23.667 16 -39s-5.33301 -28.166 -16 -38.499s-23.667 -15.5 -39 -15.5zM0 73l413 -0.000976562
c2 17.333 3.66699 34.666 5 51.999s2 34.333 2 51c0 38 -3.66699 71 -11 99s-19.666 51.333 -36.999 70s-40 32.667 -68 42s-62.333 14 -103 14c-20 0 -38.833 -0.5 -56.5 -1.5s-35.834 -2.83301 -54.501 -5.5v72c16.667 2.66699 35.167 4.66699 55.5 6s41.5 2 63.5 2
c54.667 0 101.167 -6.33301 139.5 -19s69.5 -31.167 93.5 -55.5s41.5 -54.666 52.5 -90.999s16.5 -78.166 16.5 -125.499c0 -24 -1.16699 -51.5 -3.5 -82.5s-6.5 -64.5 -12.5 -100.5h-495v73z" />
    <glyph glyph-name="khah.medi" unicode="&#x62e;" horiz-adv-x="582" arabic-form="medial" 
d="M0 73l413 -0.000976562c2 17.333 3.66699 34.666 5 51.999s2 34.333 2 51c0 38 -3.66699 71 -11 99s-19.666 51.333 -36.999 70s-40 32.667 -68 42s-62.333 14 -103 14c-20 0 -38.833 -0.5 -56.5 -1.5s-35.834 -2.83301 -54.501 -5.5v72
c16.667 2.66699 35.167 4.66699 55.5 6s41.5 2 63.5 2c54.667 0 101.167 -6.33301 139.5 -19s69.5 -31.167 93.5 -55.5s41.5 -54.666 52.5 -90.999s16.5 -78.166 16.5 -125.499c0 -31.333 -2 -68 -6 -110h92v-73h-597v73zM236 576.999
c-15.333 0 -28.166 5.16699 -38.499 15.5s-15.5 23.166 -15.5 38.499s5.16699 28.333 15.5 39s23.166 16 38.499 16s28.333 -5.33301 39 -16s16 -23.667 16 -39s-5.33301 -28.166 -16 -38.499s-23.667 -15.5 -39 -15.5z" />
    <glyph glyph-name="dal.fina" unicode="&#x62f;" horiz-adv-x="527" arabic-form="final" 
d="M52 73l321.002 0.000976562c-0.666992 46 -5.83398 87 -15.501 123s-24.667 67.667 -45 95s-46.333 51 -78 71s-69.5 36.667 -113.5 50l23 78c52.667 -16 98.667 -35.833 138 -59.5s72.166 -52.167 98.499 -85.5s46.5 -72.333 60.5 -117s21.667 -96.334 23 -155.001h77
v-73h-489v73z" />
    <glyph glyph-name="thal.fina" unicode="&#x630;" horiz-adv-x="527" arabic-form="final" 
d="M52 73l321.002 0.000976562c-0.666992 46 -5.83398 87 -15.501 123s-24.667 67.667 -45 95s-46.333 51 -78 71s-69.5 36.667 -113.5 50l23 78c52.667 -16 98.667 -35.833 138 -59.5s72.166 -52.167 98.499 -85.5s46.5 -72.333 60.5 -117s21.667 -96.334 23 -155.001h77
v-73h-489v73zM197.002 577.001c-15.333 0 -28.166 5.16699 -38.499 15.5s-15.5 23.166 -15.5 38.499s5.16699 28.333 15.5 39s23.166 16 38.499 16s28.333 -5.33301 39 -16s16 -23.667 16 -39s-5.33301 -28.166 -16 -38.499s-23.667 -15.5 -39 -15.5z" />
    <glyph glyph-name="reh.fina" unicode="&#x631;" horiz-adv-x="418" arabic-form="final" 
d="M90 -257c-18.667 0 -36.833 1.33398 -54.5 4.00098s-34.167 6 -49.5 10l11 76c30.667 -11.333 64 -17 100 -17c20.667 0 39.167 2.83301 55.5 8.5s30.333 15 42 28s20.5 30.5 26.5 52.5s9 49.333 9 82v483h92v-397h110v-73h-110v-5c0 -35.333 -3.66699 -68.333 -11 -99
s-19.833 -57.334 -37.5 -80.001s-41.5 -40.5 -71.5 -53.5s-67.333 -19.5 -112 -19.5z" />
    <glyph glyph-name="zain.fina" unicode="&#x632;" horiz-adv-x="418" arabic-form="final" 
d="M90 -257c-18.667 0 -36.833 1.33398 -54.5 4.00098s-34.167 6 -49.5 10l11 76c30.667 -11.333 64 -17 100 -17c20.667 0 39.167 2.83301 55.5 8.5s30.333 15 42 28s20.5 30.5 26.5 52.5s9 49.333 9 82v483h92v-397h110v-73h-110v-5c0 -35.333 -3.66699 -68.333 -11 -99
s-19.833 -57.334 -37.5 -80.001s-41.5 -40.5 -71.5 -53.5s-67.333 -19.5 -112 -19.5zM274.001 577.001c-15.333 0 -28.166 5.16699 -38.499 15.5s-15.5 23.166 -15.5 38.499s5.16699 28.333 15.5 39s23.166 16 38.499 16s28.333 -5.33301 39 -16s16 -23.667 16 -39
s-5.33301 -28.166 -16 -38.499s-23.667 -15.5 -39 -15.5z" />
    <glyph glyph-name="seen.fina" unicode="&#x633;" horiz-adv-x="1215" arabic-form="final" 
d="M307 -231c-34.667 0 -67.1699 5.00098 -97.5029 15.001s-56.666 26 -78.999 48s-40 50.667 -53 86s-19.5 78.666 -19.5 129.999c0 32.667 2.16699 65 6.5 97s10.5 63 18.5 93l95 18c-9.33301 -33.333 -16.333 -66.666 -21 -99.999s-7 -66.333 -7 -99
c0 -42.667 5 -77.834 15 -105.501s22.833 -49.667 38.5 -66s33.334 -27.666 53.001 -33.999s39.5 -9.5 59.5 -9.5c24 0 45.833 3.33301 65.5 10s36.834 18 51.501 34s26 37 34 63s12 58 12 96v365h92v-205c0 -21.333 1.5 -40.5 4.5 -57.5s8 -31.5 15 -43.5
s16.5 -21.333 28.5 -28s27.333 -10 46 -10c36 0 60.5 12.5 73.5 37.5s19.5 58.833 19.5 101.5v245h89v-241c0 -26 1.83301 -47.667 5.5 -65s10.5 -31.333 20.5 -42s23.5 -18.167 40.5 -22.5s38.833 -6.5 65.5 -6.5h46c1.33301 10.667 2.5 22.167 3.5 34.5
s1.83301 24.833 2.5 37.5s1.16699 24.667 1.5 36s0.5 21.666 0.5 30.999c0 54.667 -3.16699 105.167 -9.5 151.5s-14.166 87.833 -23.499 124.5l90 16c10 -38 18.5 -81.167 25.5 -129.5s10.5 -99.833 10.5 -154.5c0 -22.667 -0.666992 -46.667 -2 -72
s-3.33301 -50.333 -6 -75h111v-73h-269c-48 -0 -85.333 6.33301 -112 19s-45.334 33 -56.001 61c-8.66699 -28 -24.5 -49.5 -47.5 -64.5s-49.5 -22.5 -79.5 -22.5c-25.333 0 -46.333 4 -63 12s-29.667 19 -39 33c2 -7.33301 3 -16.333 3 -27
c0 -12.667 -1.16699 -27.5 -3.5 -44.5s-6.83301 -34.5 -13.5 -52.5s-16 -35.667 -28 -53s-27.5 -32.833 -46.5 -46.5s-42.333 -24.667 -70 -33s-60.167 -12.5 -97.5 -12.5z" />
    <glyph glyph-name="seen.init" unicode="&#x633;" horiz-adv-x="865" arabic-form="initial" 
d="M0 73h35c35.333 0 61.333 9.83301 78 29.5s25 56.5 25 110.5v197h92v-205c0 -21.333 1.5 -40.666 4.5 -57.999s8 -32 15 -44s16.5 -21.167 28.5 -27.5s27.333 -9.5 46 -9.5c36 0 60.5 12.5 73.5 37.5s19.5 58.833 19.5 101.5v245h89v-241c0 -26 1.83301 -47.667 5.5 -65
s10.5 -31.333 20.5 -42s23.5 -18.167 40.5 -22.5s38.833 -6.5 65.5 -6.5h46c1.33301 10.667 2.5 22.167 3.5 34.5s1.83301 24.666 2.5 36.999s1.16699 24.333 1.5 36s0.5 22.167 0.5 31.5c0 54.667 -3.16699 105.167 -9.5 151.5s-14.166 87.833 -23.499 124.5l90 16
c10 -38 18.333 -81.167 25 -129.5s10 -99.833 10 -154.5c0 -34 -1.33301 -70.667 -4 -110s-6.66699 -76 -12 -110h-149c-48 -0 -85.333 6.33301 -112 19s-45.334 33 -56.001 61c-10 -28.667 -27.833 -50.5 -53.5 -65.5s-54.834 -22.5 -87.501 -22.5
c-40 0 -71.667 8.16699 -95 24.5s-38.666 37.5 -45.999 63.5c-9.33301 -25.333 -24.5 -45 -45.5 -59s-50.833 -21 -89.5 -21h-34v73z" />
    <glyph glyph-name="seen.medi" unicode="&#x633;" horiz-adv-x="874" arabic-form="medial" 
d="M619 0c-48 0 -85.333 6.33301 -112 19s-45.334 33 -56.001 61c-10 -28.667 -27.833 -50.5 -53.5 -65.5s-54.834 -22.5 -87.501 -22.5c-40 0 -71.667 8.16699 -95 24.5s-38.666 37.5 -45.999 63.5c-9.33301 -25.333 -24.5 -45 -45.5 -59s-50.833 -21 -89.5 -21h-34v73h35
c35.333 0 61.333 9.83301 78 29.5s25 56.5 25 110.5v197h92v-205c0 -21.333 1.5 -40.666 4.5 -57.999s8 -32 15 -44s16.5 -21.167 28.5 -27.5s27.333 -9.5 46 -9.5c36 0 60.5 12.5 73.5 37.5s19.5 58.833 19.5 101.5v245h89v-241c0 -26 1.83301 -47.667 5.5 -65
s10.5 -31.333 20.5 -42s23.5 -18.167 40.5 -22.5s38.833 -6.5 65.5 -6.5h46c1.33301 10.667 2.5 22.167 3.5 34.5s1.83301 24.666 2.5 36.999s1.16699 24.333 1.5 36s0.5 22.167 0.5 31.5c0 54.667 -3.16699 105.167 -9.5 151.5s-14.166 87.833 -23.499 124.5l90 16
c10 -38 18.333 -81.167 25 -129.5s10 -99.833 10 -154.5c0 -22.667 -0.666992 -46.667 -2 -72s-3 -50.333 -5 -75h111v-73h-269v0z" />
    <glyph glyph-name="sheen.fina" unicode="&#x634;" horiz-adv-x="1215" arabic-form="final" 
d="M307 -231c-34.667 0 -67.1699 5.00098 -97.5029 15.001s-56.666 26 -78.999 48s-40 50.667 -53 86s-19.5 78.666 -19.5 129.999c0 32.667 2.16699 65 6.5 97s10.5 63 18.5 93l95 18c-9.33301 -33.333 -16.333 -66.666 -21 -99.999s-7 -66.333 -7 -99
c0 -42.667 5 -77.834 15 -105.501s22.833 -49.667 38.5 -66s33.334 -27.666 53.001 -33.999s39.5 -9.5 59.5 -9.5c24 0 45.833 3.33301 65.5 10s36.834 18 51.501 34s26 37 34 63s12 58 12 96v365h92v-205c0 -21.333 1.5 -40.5 4.5 -57.5s8 -31.5 15 -43.5
s16.5 -21.333 28.5 -28s27.333 -10 46 -10c36 0 60.5 12.5 73.5 37.5s19.5 58.833 19.5 101.5v245h89v-241c0 -26 1.83301 -47.667 5.5 -65s10.5 -31.333 20.5 -42s23.5 -18.167 40.5 -22.5s38.833 -6.5 65.5 -6.5h46c1.33301 10.667 2.5 22.167 3.5 34.5
s1.83301 24.833 2.5 37.5s1.16699 24.667 1.5 36s0.5 21.666 0.5 30.999c0 54.667 -3.16699 105.167 -9.5 151.5s-14.166 87.833 -23.499 124.5l90 16c10 -38 18.5 -81.167 25.5 -129.5s10.5 -99.833 10.5 -154.5c0 -22.667 -0.666992 -46.667 -2 -72
s-3.33301 -50.333 -6 -75h111v-73h-269c-48 -0 -85.333 6.33301 -112 19s-45.334 33 -56.001 61c-8.66699 -28 -24.5 -49.5 -47.5 -64.5s-49.5 -22.5 -79.5 -22.5c-25.333 0 -46.333 4 -63 12s-29.667 19 -39 33c2 -7.33301 3 -16.333 3 -27
c0 -12.667 -1.16699 -27.5 -3.5 -44.5s-6.83301 -34.5 -13.5 -52.5s-16 -35.667 -28 -53s-27.5 -32.833 -46.5 -46.5s-42.333 -24.667 -70 -33s-60.167 -12.5 -97.5 -12.5zM724.997 562.001c-15.333 0 -28 5.16699 -38 15.5s-15 23.166 -15 38.499
c0 14.667 5 27.167 15 37.5s22.667 15.5 38 15.5s28 -5 38 -15s15 -22.667 15 -38s-5 -28.166 -15 -38.499s-22.667 -15.5 -38 -15.5zM872.997 562.001c-15.333 0 -28 5.16699 -38 15.5s-15 23.166 -15 38.499c0 14.667 5 27.167 15 37.5s22.667 15.5 38 15.5
c14.667 0 27.167 -5 37.5 -15s15.5 -22.667 15.5 -38s-5.16699 -28.166 -15.5 -38.499s-22.833 -15.5 -37.5 -15.5zM798.997 681.001c-14.667 0 -26.834 4.83203 -36.501 14.499s-14.5 21.834 -14.5 36.501s4.83301 27 14.5 37s21.834 15 36.501 15c14 0 25.833 -5 35.5 -15
s14.5 -22.333 14.5 -37c0 -14 -4.83301 -26 -14.5 -36s-21.5 -15 -35.5 -15z" />
    <glyph glyph-name="sheen.init" unicode="&#x634;" horiz-adv-x="865" arabic-form="initial" 
d="M457 681c-14.667 0 -26.834 4.83203 -36.501 14.499s-14.5 21.834 -14.5 36.501s4.83301 27 14.5 37s21.834 15 36.501 15c14 0 25.833 -5 35.5 -15s14.5 -22.333 14.5 -37c0 -14 -4.83301 -26 -14.5 -36s-21.5 -15 -35.5 -15zM531 561.999
c-15.333 0 -28 5.16699 -38 15.5s-15 23.166 -15 38.499c0 14.667 5 27.167 15 37.5s22.667 15.5 38 15.5c14.667 0 27.167 -5 37.5 -15s15.5 -22.667 15.5 -38s-5.16699 -28.166 -15.5 -38.499s-22.833 -15.5 -37.5 -15.5zM383 561.999c-15.333 0 -28 5.16699 -38 15.5
s-15 23.166 -15 38.499c0 14.667 5 27.167 15 37.5s22.667 15.5 38 15.5s28 -5 38 -15s15 -22.667 15 -38s-5 -28.166 -15 -38.499s-22.667 -15.5 -38 -15.5zM0 72.999h35c35.333 0 61.333 9.83301 78 29.5s25 56.5 25 110.5v197h92v-205c0 -21.333 1.5 -40.666 4.5 -57.999
s8 -32 15 -44s16.5 -21.167 28.5 -27.5s27.333 -9.5 46 -9.5c36 0 60.5 12.5 73.5 37.5s19.5 58.833 19.5 101.5v245h89v-241c0 -26 1.83301 -47.667 5.5 -65s10.5 -31.333 20.5 -42s23.5 -18.167 40.5 -22.5s38.833 -6.5 65.5 -6.5h46c1.33301 10.667 2.5 22.167 3.5 34.5
s1.83301 24.666 2.5 36.999s1.16699 24.333 1.5 36s0.5 22.167 0.5 31.5c0 54.667 -3.16699 105.167 -9.5 151.5s-14.166 87.833 -23.499 124.5l90 16c10 -38 18.333 -81.167 25 -129.5s10 -99.833 10 -154.5c0 -34 -1.33301 -70.667 -4 -110s-6.66699 -76 -12 -110h-149
c-48 0 -85.333 6.33301 -112 19s-45.334 33 -56.001 61c-10 -28.667 -27.833 -50.5 -53.5 -65.5s-54.834 -22.5 -87.501 -22.5c-40 0 -71.667 8.16699 -95 24.5s-38.666 37.5 -45.999 63.5c-9.33301 -25.333 -24.5 -45 -45.5 -59s-50.833 -21 -89.5 -21h-34v73z" />
    <glyph glyph-name="sheen.medi" unicode="&#x634;" horiz-adv-x="874" arabic-form="medial" 
d="M0 73h35c35.333 0 61.333 9.83301 78 29.5s25 56.5 25 110.5v197h92v-205c0 -21.333 1.5 -40.666 4.5 -57.999s8 -32 15 -44s16.5 -21.167 28.5 -27.5s27.333 -9.5 46 -9.5c36 0 60.5 12.5 73.5 37.5s19.5 58.833 19.5 101.5v245h89v-241c0 -26 1.83301 -47.667 5.5 -65
s10.5 -31.333 20.5 -42s23.5 -18.167 40.5 -22.5s38.833 -6.5 65.5 -6.5h46c1.33301 10.667 2.5 22.167 3.5 34.5s1.83301 24.666 2.5 36.999s1.16699 24.333 1.5 36s0.5 22.167 0.5 31.5c0 54.667 -3.16699 105.167 -9.5 151.5s-14.166 87.833 -23.499 124.5l90 16
c10 -38 18.333 -81.167 25 -129.5s10 -99.833 10 -154.5c0 -22.667 -0.666992 -46.667 -2 -72s-3 -50.333 -5 -75h111v-73h-269c-48 -0 -85.333 6.33301 -112 19s-45.334 33 -56.001 61c-10 -28.667 -27.833 -50.5 -53.5 -65.5s-54.834 -22.5 -87.501 -22.5
c-40 0 -71.667 8.16699 -95 24.5s-38.666 37.5 -45.999 63.5c-9.33301 -25.333 -24.5 -45 -45.5 -59s-50.833 -21 -89.5 -21h-34v73zM383 562c-15.333 0 -28 5.16699 -38 15.5s-15 23.166 -15 38.499c0 14.667 5 27.167 15 37.5s22.667 15.5 38 15.5s28 -5 38 -15
s15 -22.667 15 -38s-5 -28.166 -15 -38.499s-22.667 -15.5 -38 -15.5zM531 562c-15.333 0 -28 5.16699 -38 15.5s-15 23.166 -15 38.499c0 14.667 5 27.167 15 37.5s22.667 15.5 38 15.5c14.667 0 27.167 -5 37.5 -15s15.5 -22.667 15.5 -38s-5.16699 -28.166 -15.5 -38.499
s-22.833 -15.5 -37.5 -15.5zM457 681c-14.667 0 -26.834 4.83203 -36.501 14.499s-14.5 21.834 -14.5 36.501s4.83301 27 14.5 37s21.834 15 36.501 15c14 0 25.833 -5 35.5 -15s14.5 -22.333 14.5 -37c0 -14 -4.83301 -26 -14.5 -36s-21.5 -15 -35.5 -15z" />
    <glyph glyph-name="sad.fina" unicode="&#x635;" horiz-adv-x="1114" arabic-form="final" 
d="M307 -231c-34.667 0 -67.1699 5.00293 -97.5029 15.0029s-56.666 26 -78.999 48s-40 50.667 -53 86s-19.5 78.666 -19.5 129.999c0 32.667 2.16699 65 6.5 97s10.5 63 18.5 93l95 18c-9.33301 -33.333 -16.333 -66.666 -21 -99.999s-7 -66.333 -7 -99
c0 -42.667 5 -77.834 15 -105.501s22.833 -49.667 38.5 -66s33.334 -27.666 53.001 -33.999s39.5 -9.5 59.5 -9.5c24 0 45.833 3.33301 65.5 10s36.834 18 51.501 34s26 37 34 63s12 58 12 96v425h92v-39c0 -27.333 -0.833008 -57 -2.5 -89s-4.5 -62 -8.5 -90h1
c12 36.667 27.667 69.167 47 97.5s41 52.166 65 71.499s49.833 34.166 77.5 44.499s55.5 15.5 83.5 15.5c66 0 115 -22 147 -66s48 -104.333 48 -181c0 -54.667 -2 -108.334 -6 -161.001h106v-73h-562c-6.66699 -80 -33.167 -138.5 -79.5 -175.5s-106.5 -55.5 -180.5 -55.5z
M927.997 73.0029c2 24.667 3.50098 50.001 4.50098 76.001s1.5 51 1.5 75c0 28 -2 53.167 -6 75.5s-10.5 41.5 -19.5 57.5s-21 28.333 -36 37s-33.167 13 -54.5 13c-33.333 0 -64.166 -9.83301 -92.499 -29.5s-53.333 -45.334 -75 -77.001s-39.334 -67.5 -53.001 -107.5
s-22.834 -80 -27.501 -120h358z" />
    <glyph glyph-name="sad.init" unicode="&#x635;" horiz-adv-x="765" arabic-form="initial" 
d="M688 234c0 -38.667 -1.16699 -77.8311 -3.5 -117.498s-5.5 -78.5 -9.5 -116.5h-675v73h138v397h92v-39c0 -27.333 -0.833008 -57 -2.5 -89s-4.5 -62 -8.5 -90h1c12 36.667 27.667 69.167 47 97.5s41 52.166 65 71.499s49.833 34.166 77.5 44.499s55.5 15.5 83.5 15.5
c66 0 115 -22 147 -66s48 -104.333 48 -181zM593 224.003c0 28 -1.99902 53.168 -5.99902 75.501s-10.5 41.5 -19.5 57.5s-21 28.333 -36 37s-33.167 13 -54.5 13c-33.333 0 -64.166 -9.83301 -92.499 -29.5s-53.333 -45.334 -75 -77.001s-39.334 -67.5 -53.001 -107.5
s-22.834 -80 -27.501 -120h358c2 24.667 3.5 50 4.5 76s1.5 51 1.5 75z" />
    <glyph glyph-name="sad.medi" unicode="&#x635;" horiz-adv-x="773" arabic-form="medial" 
d="M688 234c0 -54.667 -2 -108.331 -6 -160.998h106v-73h-788v73h138v397h92v-39c0 -27.333 -0.833008 -57 -2.5 -89s-4.5 -62 -8.5 -90h1c12 36.667 27.667 69.167 47 97.5s41 52.166 65 71.499s49.833 34.166 77.5 44.499s55.5 15.5 83.5 15.5c66 0 115 -22 147 -66
s48 -104.333 48 -181zM593 224.003c0 28 -1.99902 53.168 -5.99902 75.501s-10.5 41.5 -19.5 57.5s-21 28.333 -36 37s-33.167 13 -54.5 13c-33.333 0 -64.166 -9.83301 -92.499 -29.5s-53.333 -45.334 -75 -77.001s-39.334 -67.5 -53.001 -107.5s-22.834 -80 -27.501 -120
h358c2 24.667 3.5 50 4.5 76s1.5 51 1.5 75z" />
    <glyph glyph-name="dad.fina" unicode="&#x636;" horiz-adv-x="1114" arabic-form="final" 
d="M567 0c-6.66699 -80 -33.1699 -138.497 -79.5029 -175.497s-106.5 -55.5 -180.5 -55.5c-34.667 0 -67.167 5 -97.5 15s-56.666 26 -78.999 48s-40 50.667 -53 86s-19.5 78.666 -19.5 129.999c0 32.667 2.16699 65 6.5 97s10.5 63 18.5 93l95 18
c-9.33301 -33.333 -16.333 -66.666 -21 -99.999s-7 -66.333 -7 -99c0 -42.667 5 -77.834 15 -105.501s22.833 -49.667 38.5 -66s33.334 -27.666 53.001 -33.999s39.5 -9.5 59.5 -9.5c24 0 45.833 3.33301 65.5 10s36.834 18 51.501 34s26 37 34 63s12 58 12 96v425h92v-39
c0 -27.333 -0.833008 -57 -2.5 -89s-4.5 -62 -8.5 -90h1c12 36.667 27.667 69.167 47 97.5s41 52.166 65 71.499s49.833 34.166 77.5 44.499s55.5 15.5 83.5 15.5c66 0 115 -22 147 -66s48 -104.333 48 -181c0 -54.667 -2 -108.334 -6 -161.001h106v-73h-562z
M927.997 73.0029c2 24.667 3.50098 50.001 4.50098 76.001s1.5 51 1.5 75c0 28 -2 53.167 -6 75.5s-10.5 41.5 -19.5 57.5s-21 28.333 -36 37s-33.167 13 -54.5 13c-33.333 0 -64.166 -9.83301 -92.499 -29.5s-53.333 -45.334 -75 -77.001s-39.334 -67.5 -53.001 -107.5
s-22.834 -80 -27.501 -120h358zM821.998 577.004c-15.333 0 -28.166 5.16699 -38.499 15.5s-15.5 23.166 -15.5 38.499s5.16699 28.333 15.5 39s23.166 16 38.499 16s28.333 -5.33301 39 -16s16 -23.667 16 -39s-5.33301 -28.166 -16 -38.499s-23.667 -15.5 -39 -15.5z" />
    <glyph glyph-name="dad.init" unicode="&#x636;" horiz-adv-x="765" arabic-form="initial" 
d="M481 577c-15.333 0 -28.166 5.16699 -38.499 15.5s-15.5 23.166 -15.5 38.499s5.16699 28.333 15.5 39s23.166 16 38.499 16s28.333 -5.33301 39 -16s16 -23.667 16 -39s-5.33301 -28.166 -16 -38.499s-23.667 -15.5 -39 -15.5zM688 234
c0 -38.667 -1.16699 -77.8311 -3.5 -117.498s-5.5 -78.5 -9.5 -116.5h-675v73h138v397h92v-39c0 -27.333 -0.833008 -57 -2.5 -89s-4.5 -62 -8.5 -90h1c12 36.667 27.667 69.167 47 97.5s41 52.166 65 71.499s49.833 34.166 77.5 44.499s55.5 15.5 83.5 15.5
c66 0 115 -22 147 -66s48 -104.333 48 -181zM593 224.003c0 28 -1.99902 53.168 -5.99902 75.501s-10.5 41.5 -19.5 57.5s-21 28.333 -36 37s-33.167 13 -54.5 13c-33.333 0 -64.166 -9.83301 -92.499 -29.5s-53.333 -45.334 -75 -77.001s-39.334 -67.5 -53.001 -107.5
s-22.834 -80 -27.501 -120h358c2 24.667 3.5 50 4.5 76s1.5 51 1.5 75z" />
    <glyph glyph-name="dad.medi" unicode="&#x636;" horiz-adv-x="773" arabic-form="medial" 
d="M0 73l138 0.00292969v397h92v-39c0 -27.333 -0.833008 -57 -2.5 -89s-4.5 -62 -8.5 -90h1c12 36.667 27.667 69.167 47 97.5s41 52.166 65 71.499s49.833 34.166 77.5 44.499s55.5 15.5 83.5 15.5c66 0 115 -22 147 -66s48 -104.333 48 -181
c0 -54.667 -2 -108.334 -6 -161.001h106v-73h-788v73zM593 224.003c0 28 -1.99902 53.168 -5.99902 75.501s-10.5 41.5 -19.5 57.5s-21 28.333 -36 37s-33.167 13 -54.5 13c-33.333 0 -64.166 -9.83301 -92.499 -29.5s-53.333 -45.334 -75 -77.001
s-39.334 -67.5 -53.001 -107.5s-22.834 -80 -27.501 -120h358c2 24.667 3.5 50 4.5 76s1.5 51 1.5 75zM481.001 577.004c-15.333 0 -28.166 5.16699 -38.499 15.5s-15.5 23.166 -15.5 38.499s5.16699 28.333 15.5 39s23.166 16 38.499 16s28.333 -5.33301 39 -16
s16 -23.667 16 -39s-5.33301 -28.166 -16 -38.499s-23.667 -15.5 -39 -15.5z" />
    <glyph glyph-name="tah.fina" unicode="&#x637;" horiz-adv-x="773" arabic-form="final" 
d="M0 73l138 0.00292969v632h92v-274c0 -27.333 -0.833008 -57 -2.5 -89s-4.5 -62 -8.5 -90h1c12 36.667 27.667 69.167 47 97.5s41 52.166 65 71.499s49.833 34.166 77.5 44.499s55.5 15.5 83.5 15.5c66 0 115 -22 147 -66s48 -104.333 48 -181
c0 -54.667 -2 -108.334 -6 -161.001h106v-73h-788v73zM587 73.0029c2 24.667 3.50098 50.001 4.50098 76.001s1.5 51 1.5 75c0 28 -2 53.167 -6 75.5s-10.5 41.5 -19.5 57.5s-21 28.333 -36 37s-33.167 13 -54.5 13c-33.333 0 -64.166 -9.83301 -92.499 -29.5
s-53.333 -45.334 -75 -77.001s-39.334 -67.5 -53.001 -107.5s-22.834 -80 -27.501 -120h358z" />
    <glyph glyph-name="tah.init" unicode="&#x637;" horiz-adv-x="765" arabic-form="initial" 
d="M0 73l138 0.000976562v632h92v-274c0 -27.333 -0.833008 -57 -2.5 -89s-4.5 -62 -8.5 -90h1c12 36.667 27.667 69.167 47 97.5s41 52.166 65 71.499s49.833 34.166 77.5 44.499s55.5 15.5 83.5 15.5c66 0 115 -22 147 -66s48 -104.333 48 -181
c0 -39.333 -1.16699 -78.666 -3.5 -117.999s-5.5 -78 -9.5 -116h-675v73zM587 73.001c2 24.667 3.50098 50.001 4.50098 76.001s1.5 51 1.5 75c0 28 -2 53.167 -6 75.5s-10.5 41.5 -19.5 57.5s-21 28.333 -36 37s-33.167 13 -54.5 13
c-33.333 0 -64.166 -9.83301 -92.499 -29.5s-53.333 -45.334 -75 -77.001s-39.334 -67.5 -53.001 -107.5s-22.834 -80 -27.501 -120h358z" />
    <glyph glyph-name="tah.medi" unicode="&#x637;" horiz-adv-x="773" arabic-form="medial" 
d="M0 73l138 0.00292969v632h92v-274c0 -27.333 -0.833008 -57 -2.5 -89s-4.5 -62 -8.5 -90h1c12 36.667 27.667 69.167 47 97.5s41 52.166 65 71.499s49.833 34.166 77.5 44.499s55.5 15.5 83.5 15.5c66 0 115 -22 147 -66s48 -104.333 48 -181
c0 -54.667 -2 -108.334 -6 -161.001h105v-73h-787v73zM587 73.0029c2 24.667 3.50098 50.001 4.50098 76.001s1.5 51 1.5 75c0 28 -2 53.167 -6 75.5s-10.5 41.5 -19.5 57.5s-21 28.333 -36 37s-33.167 13 -54.5 13c-33.333 0 -64.166 -9.83301 -92.499 -29.5
s-53.333 -45.334 -75 -77.001s-39.334 -67.5 -53.001 -107.5s-22.834 -80 -27.501 -120h358z" />
    <glyph glyph-name="zah.fina" unicode="&#x638;" horiz-adv-x="773" arabic-form="final" 
d="M0 73l138 0.00292969v632h92v-274c0 -27.333 -0.833008 -57 -2.5 -89s-4.5 -62 -8.5 -90h1c12 36.667 27.667 69.167 47 97.5s41 52.166 65 71.499s49.833 34.166 77.5 44.499s55.5 15.5 83.5 15.5c66 0 115 -22 147 -66s48 -104.333 48 -181
c0 -54.667 -2 -108.334 -6 -161.001h106v-73h-788v73zM587 73.0029c2 24.667 3.50098 50.001 4.50098 76.001s1.5 51 1.5 75c0 28 -2 53.167 -6 75.5s-10.5 41.5 -19.5 57.5s-21 28.333 -36 37s-33.167 13 -54.5 13c-33.333 0 -64.166 -9.83301 -92.499 -29.5
s-53.333 -45.334 -75 -77.001s-39.334 -67.5 -53.001 -107.5s-22.834 -80 -27.501 -120h358zM481.001 577.004c-15.333 0 -28.166 5.16699 -38.499 15.5s-15.5 23.166 -15.5 38.499s5.16699 28.333 15.5 39s23.166 16 38.499 16s28.333 -5.33301 39 -16s16 -23.667 16 -39
s-5.33301 -28.166 -16 -38.499s-23.667 -15.5 -39 -15.5z" />
    <glyph glyph-name="zah.init" unicode="&#x638;" horiz-adv-x="765" arabic-form="initial" 
d="M481 577c-15.333 0 -28.166 5.16699 -38.499 15.5s-15.5 23.166 -15.5 38.499s5.16699 28.333 15.5 39s23.166 16 38.499 16s28.333 -5.33301 39 -16s16 -23.667 16 -39s-5.33301 -28.166 -16 -38.499s-23.667 -15.5 -39 -15.5zM0 73l138 0.000976562v632h92v-274
c0 -27.333 -0.833008 -57 -2.5 -89s-4.5 -62 -8.5 -90h1c12 36.667 27.667 69.167 47 97.5s41 52.166 65 71.499s49.833 34.166 77.5 44.499s55.5 15.5 83.5 15.5c66 0 115 -22 147 -66s48 -104.333 48 -181c0 -39.333 -1.16699 -78.666 -3.5 -117.999s-5.5 -78 -9.5 -116
h-675v73zM587 73.001c2 24.667 3.50098 50.001 4.50098 76.001s1.5 51 1.5 75c0 28 -2 53.167 -6 75.5s-10.5 41.5 -19.5 57.5s-21 28.333 -36 37s-33.167 13 -54.5 13c-33.333 0 -64.166 -9.83301 -92.499 -29.5s-53.333 -45.334 -75 -77.001s-39.334 -67.5 -53.001 -107.5
s-22.834 -80 -27.501 -120h358z" />
    <glyph glyph-name="zah.medi" unicode="&#x638;" horiz-adv-x="773" arabic-form="medial" 
d="M0 73l138 0.00292969v632h92v-274c0 -27.333 -0.833008 -57 -2.5 -89s-4.5 -62 -8.5 -90h1c12 36.667 27.667 69.167 47 97.5s41 52.166 65 71.499s49.833 34.166 77.5 44.499s55.5 15.5 83.5 15.5c66 0 115 -22 147 -66s48 -104.333 48 -181
c0 -54.667 -2 -108.334 -6 -161.001h106v-73h-788v73zM587 73.0029c2 24.667 3.50098 50.001 4.50098 76.001s1.5 51 1.5 75c0 28 -2 53.167 -6 75.5s-10.5 41.5 -19.5 57.5s-21 28.333 -36 37s-33.167 13 -54.5 13c-33.333 0 -64.166 -9.83301 -92.499 -29.5
s-53.333 -45.334 -75 -77.001s-39.334 -67.5 -53.001 -107.5s-22.834 -80 -27.501 -120h358zM481.001 577.004c-15.333 0 -28.166 5.16699 -38.499 15.5s-15.5 23.166 -15.5 38.499s5.16699 28.333 15.5 39s23.166 16 38.499 16s28.333 -5.33301 39 -16s16 -23.667 16 -39
s-5.33301 -28.166 -16 -38.499s-23.667 -15.5 -39 -15.5z" />
    <glyph glyph-name="ain.fina" unicode="&#x639;" horiz-adv-x="626" arabic-form="final" 
d="M311 -258c-48.667 0 -90.165 4.66504 -124.498 13.998s-62.5 21.833 -84.5 37.5s-38.167 33.834 -48.5 54.501s-15.5 42.667 -15.5 66c0 30 7.5 56.333 22.5 79s34.167 43 57.5 61s49.666 34.167 78.999 48.5l88 42.5c-31.333 30.667 -64.166 60.167 -98.499 88.5
s-74.5 50.166 -120.5 65.499l8 64c19.333 14.667 40.666 29.167 63.999 43.5s47.5 27.166 72.5 38.499s50.333 20.5 76 27.5s51.167 10.5 76.5 10.5c34 0 63.167 -4.33301 87.5 -13s44.333 -20.167 60 -34.5s27.167 -30.833 34.5 -49.5s11 -38 11 -58
c0 -22.667 -3.66699 -43.5 -11 -62.5s-17.166 -36.333 -29.499 -52s-27 -30 -44 -43s-34.833 -25.167 -53.5 -36.5c23.333 -18 48.166 -32.667 74.499 -44s55.5 -17 87.5 -17h61v-73h-74c-48.667 0 -90.834 8.83301 -126.501 26.5s-68.834 39.834 -99.501 66.501l-77 -38
c-25.333 -12 -47.666 -24.667 -66.999 -38s-35 -27.666 -47 -42.999s-18 -32.666 -18 -51.999c0 -15.333 3.5 -29.5 10.5 -42.5s18 -24.167 33 -33.5s34.5 -16.833 58.5 -22.5s53.333 -8.5 88 -8.5c19.333 0 38.166 0.666992 56.499 2s35.166 3 50.499 5
c17.333 2 34 4.33301 50 7l5 -70c-17.333 -3.33301 -35.666 -6.33301 -54.999 -9c-16.667 -2 -35.167 -3.83301 -55.5 -5.5s-41.166 -2.5 -62.499 -2.5zM160.002 333.998c20 -8 38.6699 -17.668 56.0029 -29.001s34.166 -23.666 50.499 -36.999s32.166 -27.333 47.499 -42
l46 -43c30 17.333 54.833 36.5 74.5 57.5s29.5 46.167 29.5 75.5c0 27.333 -8.83301 50.5 -26.5 69.5s-45.834 28.5 -84.501 28.5c-17.333 0 -35 -2.66699 -53 -8s-35.5 -12 -52.5 -20s-33.167 -16.667 -48.5 -26s-28.333 -18 -39 -26z" />
    <glyph glyph-name="ain.init" unicode="&#x639;" horiz-adv-x="573" arabic-form="initial" 
d="M0 73l193 0.00195312c-30 13.333 -55.333 35.666 -76 66.999s-31 68 -31 110c0 30.667 5 60 15 88s25.333 52.667 46 74s46.5 38.166 77.5 50.499s67.167 18.5 108.5 18.5c17.333 0 33.833 -1.16699 49.5 -3.5s29.5 -4.83301 41.5 -7.5c14 -3.33301 27 -7 39 -11l-17 -74
c-11.333 4.66699 -23.333 8.66699 -36 12c-11.333 3.33301 -24 6.16602 -38 8.49902s-29 3.5 -45 3.5c-44 0 -79.833 -13.667 -107.5 -41s-41.5 -65.333 -41.5 -114c0 -25.333 5.16699 -49 15.5 -71s26.166 -41.167 47.499 -57.5s48.833 -29.166 82.5 -38.499
s73.834 -14 120.501 -14h82v-73h-526v73z" />
    <glyph glyph-name="ain.medi" unicode="&#x639;" horiz-adv-x="626" arabic-form="medial" 
d="M0 73l33.002 0.00195312c56 0 106.667 4.66699 152 14s85.666 22 120.999 38l-53.5 50.5c-17.667 17 -36 33.333 -55 49s-39.333 30 -61 43s-45.167 23.5 -70.5 31.5l8 64c19.333 14.667 40.666 29.167 63.999 43.5s47.5 27.166 72.5 38.499s50.333 20.5 76 27.5
s51.167 10.5 76.5 10.5c34 0 63.167 -4.33301 87.5 -13s44.333 -20.167 60 -34.5s27.167 -30.833 34.5 -49.5s11 -38 11 -58c0 -35.333 -10 -71 -30 -107s-50 -69.333 -90 -100c21.333 -14.667 43.666 -26.334 66.999 -35.001s49 -13 77 -13h61v-73h-74
c-42.667 0 -80.167 7 -112.5 21s-62.5 31.667 -90.5 53c-43.333 -22.667 -93.166 -40.667 -149.499 -54s-119.5 -20 -189.5 -20h-25v73zM160.002 334.002c22 -8 42.499 -18.333 61.499 -31s37.167 -26.5 54.5 -41.5s34.333 -30.667 51 -47s33.334 -31.833 50.001 -46.5
c28.667 21.333 50.334 44.833 65.001 70.5s22 51.5 22 77.5c0 27.333 -8.83301 50.5 -26.5 69.5s-45.834 28.5 -84.501 28.5c-17.333 0 -35 -2.66699 -53 -8s-35.5 -12 -52.5 -20s-33.167 -16.667 -48.5 -26s-28.333 -18 -39 -26z" />
    <glyph glyph-name="ghain.fina" unicode="&#x63a;" horiz-adv-x="626" arabic-form="final" 
d="M311 -258c-48.667 0 -90.165 4.66504 -124.498 13.998s-62.5 21.833 -84.5 37.5s-38.167 33.834 -48.5 54.501s-15.5 42.667 -15.5 66c0 30 7.5 56.333 22.5 79s34.167 43 57.5 61s49.666 34.167 78.999 48.5l88 42.5c-31.333 30.667 -64.166 60.167 -98.499 88.5
s-74.5 50.166 -120.5 65.499l8 64c19.333 14.667 40.666 29.167 63.999 43.5s47.5 27.166 72.5 38.499s50.333 20.5 76 27.5s51.167 10.5 76.5 10.5c34 0 63.167 -4.33301 87.5 -13s44.333 -20.167 60 -34.5s27.167 -30.833 34.5 -49.5s11 -38 11 -58
c0 -22.667 -3.66699 -43.5 -11 -62.5s-17.166 -36.333 -29.499 -52s-27 -30 -44 -43s-34.833 -25.167 -53.5 -36.5c23.333 -18 48.166 -32.667 74.499 -44s55.5 -17 87.5 -17h61v-73h-74c-48.667 0 -90.834 8.83301 -126.501 26.5s-68.834 39.834 -99.501 66.501l-77 -38
c-25.333 -12 -47.666 -24.667 -66.999 -38s-35 -27.666 -47 -42.999s-18 -32.666 -18 -51.999c0 -15.333 3.5 -29.5 10.5 -42.5s18 -24.167 33 -33.5s34.5 -16.833 58.5 -22.5s53.333 -8.5 88 -8.5c19.333 0 38.166 0.666992 56.499 2s35.166 3 50.499 5
c17.333 2 34 4.33301 50 7l5 -70c-17.333 -3.33301 -35.666 -6.33301 -54.999 -9c-16.667 -2 -35.167 -3.83301 -55.5 -5.5s-41.166 -2.5 -62.499 -2.5zM160.002 333.998c20 -8 38.6699 -17.668 56.0029 -29.001s34.166 -23.666 50.499 -36.999s32.166 -27.333 47.499 -42
l46 -43c30 17.333 54.833 36.5 74.5 57.5s29.5 46.167 29.5 75.5c0 27.333 -8.83301 50.5 -26.5 69.5s-45.834 28.5 -84.501 28.5c-17.333 0 -35 -2.66699 -53 -8s-35.5 -12 -52.5 -20s-33.167 -16.667 -48.5 -26s-28.333 -18 -39 -26zM344.005 579.997
c-15.333 0 -28.166 5.16699 -38.499 15.5s-15.5 23.166 -15.5 38.499s5.16699 28.333 15.5 39s23.166 16 38.499 16s28.333 -5.33301 39 -16s16 -23.667 16 -39s-5.33301 -28.166 -16 -38.499s-23.667 -15.5 -39 -15.5z" />
    <glyph glyph-name="ghain.init" unicode="&#x63a;" horiz-adv-x="573" arabic-form="initial" 
d="M310 577c-15.333 0 -28.166 5.16699 -38.499 15.5s-15.5 23.166 -15.5 38.499s5.16699 28.333 15.5 39s23.166 16 38.499 16s28.333 -5.33301 39 -16s16 -23.667 16 -39s-5.33301 -28.166 -16 -38.499s-23.667 -15.5 -39 -15.5zM0 73l193 0.00195312
c-30 13.333 -55.333 35.666 -76 66.999s-31 68 -31 110c0 30.667 5 60 15 88s25.333 52.667 46 74s46.5 38.166 77.5 50.499s67.167 18.5 108.5 18.5c17.333 0 33.833 -1.16699 49.5 -3.5s29.5 -4.83301 41.5 -7.5c14 -3.33301 27 -7 39 -11l-17 -74
c-11.333 4.66699 -23.333 8.66699 -36 12c-11.333 3.33301 -24 6.16602 -38 8.49902s-29 3.5 -45 3.5c-44 0 -79.833 -13.667 -107.5 -41s-41.5 -65.333 -41.5 -114c0 -25.333 5.16699 -49 15.5 -71s26.166 -41.167 47.499 -57.5s48.833 -29.166 82.5 -38.499
s73.834 -14 120.501 -14h82v-73h-526v73z" />
    <glyph glyph-name="ghain.medi" unicode="&#x63a;" horiz-adv-x="626" arabic-form="medial" 
d="M0 73l33.002 0.00195312c56 0 106.667 4.66699 152 14s85.666 22 120.999 38l-53.5 50.5c-17.667 17 -36 33.333 -55 49s-39.333 30 -61 43s-45.167 23.5 -70.5 31.5l8 64c19.333 14.667 40.666 29.167 63.999 43.5s47.5 27.166 72.5 38.499s50.333 20.5 76 27.5
s51.167 10.5 76.5 10.5c34 0 63.167 -4.33301 87.5 -13s44.333 -20.167 60 -34.5s27.167 -30.833 34.5 -49.5s11 -38 11 -58c0 -35.333 -10 -71 -30 -107s-50 -69.333 -90 -100c21.333 -14.667 43.666 -26.334 66.999 -35.001s49 -13 77 -13h61v-73h-74
c-42.667 0 -80.167 7 -112.5 21s-62.5 31.667 -90.5 53c-43.333 -22.667 -93.166 -40.667 -149.499 -54s-119.5 -20 -189.5 -20h-25v73zM160.002 334.002c22 -8 42.499 -18.333 61.499 -31s37.167 -26.5 54.5 -41.5s34.333 -30.667 51 -47s33.334 -31.833 50.001 -46.5
c28.667 21.333 50.334 44.833 65.001 70.5s22 51.5 22 77.5c0 27.333 -8.83301 50.5 -26.5 69.5s-45.834 28.5 -84.501 28.5c-17.333 0 -35 -2.66699 -53 -8s-35.5 -12 -52.5 -20s-33.167 -16.667 -48.5 -26s-28.333 -18 -39 -26zM344.001 580.002
c-15.333 0 -28.166 5.16699 -38.499 15.5s-15.5 23.166 -15.5 38.499s5.16699 28.333 15.5 39s23.166 16 38.499 16s28.333 -5.33301 39 -16s16 -23.667 16 -39s-5.33301 -28.166 -16 -38.499s-23.667 -15.5 -39 -15.5z" />
    <glyph glyph-name="feh.fina" unicode="&#x641;" horiz-adv-x="932" arabic-form="final" 
d="M640 579c-15.333 0 -28.166 5.16699 -38.499 15.5s-15.5 23.166 -15.5 38.499s5.16699 28.333 15.5 39s23.166 16 38.499 16s28.333 -5.33301 39 -16s16 -23.667 16 -39s-5.33301 -28.166 -16 -38.499s-23.667 -15.5 -39 -15.5zM947 0h-534.001
c-63.333 0 -117.166 6.16699 -161.499 18.5s-80.5 30.833 -108.5 55.5s-48.5 55.167 -61.5 91.5s-19.5 78.166 -19.5 125.499c0 30 3.16699 60.333 9.5 91s14.166 55.667 23.499 75l98 17c-11.333 -23.333 -20.5 -50.833 -27.5 -82.5s-10.5 -61.5 -10.5 -89.5
c0 -38 4.16699 -71.333 12.5 -100s22.5 -52.5 42.5 -71.5s46.5 -33.333 79.5 -43s74.167 -14.5 123.5 -14.5h55c-21.333 15.333 -37.333 37 -48 65s-16 61 -16 99c0 34 5.5 65.833 16.5 95.5s27 55.5 48 77.5s46.5 39.333 76.5 52s63.667 19 101 19
c32 0 61.5 -4.33301 88.5 -13s50.5 -22.167 70.5 -40.5s35.667 -42.166 47 -71.499s17 -65 17 -107c0 -36 -6.66699 -70.167 -20 -102.5s-32.666 -57.833 -57.999 -76.5c10 0 20 0.333008 30 1c8.66699 0.666992 18 1.16699 28 1.5s19.667 0.5 29 0.5h69v-73zM775.999 243
c0 52.667 -11.5 93.3359 -34.5 122.003s-57.5 43 -103.5 43c-18 0 -35.5 -3.16699 -52.5 -9.5s-32 -16.333 -45 -30s-23.5 -30.834 -31.5 -51.501s-12 -45.334 -12 -74.001c0 -55.333 12 -97.5 36 -126.5s58.667 -43.5 104 -43.5c18.667 0 36.5 3.33301 53.5 10
s31.833 17 44.5 31s22.667 31.667 30 53s11 46.666 11 75.999z" />
    <glyph glyph-name="feh.init" unicode="&#x641;" horiz-adv-x="612" arabic-form="initial" 
d="M302 579c-15.333 0 -28.166 5.16699 -38.499 15.5s-15.5 23.166 -15.5 38.499s5.16699 28.333 15.5 39s23.166 16 38.499 16s28.333 -5.33301 39 -16s16 -23.667 16 -39s-5.33301 -28.166 -16 -38.499s-23.667 -15.5 -39 -15.5zM0 0l0.000976562 73.0049h79
c8.66699 0 16.5 -0.333008 23.5 -1s13.167 -1.33398 18.5 -2.00098c6 -0.666992 11.333 -1.33398 16 -2.00098c-24.667 15.333 -43.167 36.666 -55.5 63.999s-18.5 62.333 -18.5 105c0 32.667 5.16699 63.667 15.5 93s26 55.166 47 77.499s47.167 40.166 78.5 53.499
s67.666 20 108.999 20c72 0 125.667 -19.5 161 -58.5s53 -94.167 53 -165.5v-257h-527zM437.001 241.005c0 60 -11.668 102.833 -35.001 128.5s-55.666 38.5 -96.999 38.5c-46.667 0 -83.167 -15.167 -109.5 -45.5s-39.5 -70.5 -39.5 -120.5
c0 -57.333 14.167 -99.833 42.5 -127.5s74.833 -41.5 139.5 -41.5h99v168z" />
    <glyph glyph-name="feh.medi" unicode="&#x641;" horiz-adv-x="591" arabic-form="medial" 
d="M299 579c-15.333 0 -28.166 5.16699 -38.499 15.5s-15.5 23.166 -15.5 38.499s5.16699 28.333 15.5 39s23.166 16 38.499 16s28.333 -5.33301 39 -16s16 -23.667 16 -39s-5.33301 -28.166 -16 -38.499s-23.667 -15.5 -39 -15.5zM0 73l57.998 -0.000976562
c8.66699 0 17 -0.166992 25 -0.5s15.667 -0.833008 23 -1.5s15 -1 23 -1c-21.333 15.333 -37.666 37 -48.999 65s-17 62 -17 102c0 34 5.5 65.833 16.5 95.5s27 55.5 48 77.5s46.5 39.333 76.5 52s63.667 19 101 19c32 0 61.5 -4.33301 88.5 -13s50.5 -22.167 70.5 -40.5
s35.667 -42.166 47 -71.499s17 -65 17 -107c0 -36 -6.66699 -70.167 -20 -102.5s-32.666 -57.833 -57.999 -76.5c10 0 20 0.333008 30 1c8.66699 0.666992 18 1.16699 28 1.5s19.667 0.5 29 0.5h69v-73h-606v73zM295.998 72.999c18.667 0 36.5 3.33301 53.5 10
s31.833 17 44.5 31s22.667 31.667 30 53s11 46.666 11 75.999c0 52.667 -11.5 93.334 -34.5 122.001s-57.5 43 -103.5 43c-18 0 -35.5 -3.16699 -52.5 -9.5s-32 -16.166 -45 -29.499s-23.5 -30.333 -31.5 -51s-12 -45.334 -12 -74.001c0 -56 12 -98.5 36 -127.5
s58.667 -43.5 104 -43.5z" />
    <glyph glyph-name="qaf.fina" unicode="&#x642;" horiz-adv-x="890" arabic-form="final" 
d="M794 73l109.998 -0.00390625v-73h-110v-238c-32 -2.66699 -65 -5 -99 -7c-29.333 -1.33301 -61.833 -2.66602 -97.5 -3.99902s-70.834 -2 -105.501 -2c-77.333 0 -143.333 5.83301 -198 17.5s-99.5 29.834 -134.5 54.501s-60.667 56.167 -77 94.5
s-24.5 83.833 -24.5 136.5c0 30.667 2.16699 61.834 6.5 93.501s10.5 62.5 18.5 92.5l95 18c-9.33301 -33.333 -16.333 -66.5 -21 -99.5s-7 -64.5 -7 -94.5c0 -43.333 6.33301 -80.166 19 -110.499s33 -55.166 61 -74.499s64.5 -33.333 109.5 -42s99.833 -13 164.5 -13
c24.667 0 48.834 0.333008 72.501 1s45.167 1.66699 64.5 3l63 4v170h-101c-48 0 -88.667 5.5 -122 16.5s-60.333 26.667 -81 47s-35.667 44.833 -45 73.5s-14 60.667 -14 96c0 32.667 5.16699 64 15.5 94s25.833 56.5 46.5 79.5s46.834 41.167 78.501 54.5
s68.834 20 111.501 20c28 0 54 -1.83301 78 -5.5s45.333 -7.83398 64 -12.501c21.333 -5.33301 41 -11 59 -17v-373zM703.998 384.996c-10.667 4 -21.999 7.66797 -33.999 11.001c-10.667 3.33301 -23.334 6.16602 -38.001 8.49902s-31 3.5 -49 3.5
c-46 0 -82.333 -15 -109 -45s-40 -70 -40 -120c0 -57.333 14.167 -100 42.5 -128s74.833 -42 139.5 -42h88v312zM510.999 561.997c-15.333 0 -28 5.16699 -38 15.5s-15 23.166 -15 38.499c0 14.667 5 27.167 15 37.5s22.667 15.5 38 15.5c14.667 0 27.167 -5 37.5 -15
s15.5 -22.667 15.5 -38s-5.16699 -28.166 -15.5 -38.499s-22.833 -15.5 -37.5 -15.5zM658.999 561.997c-15.333 0 -28.166 5.16699 -38.499 15.5s-15.5 23.166 -15.5 38.499c0 14.667 5.16699 27.167 15.5 37.5s23.166 15.5 38.499 15.5c14.667 0 27 -5 37 -15
s15 -22.667 15 -38s-5 -28.166 -15 -38.499s-22.333 -15.5 -37 -15.5z" />
    <glyph glyph-name="qaf.init" unicode="&#x642;" horiz-adv-x="612" arabic-form="initial" 
d="M377 562c-15.333 0 -28.166 5.16699 -38.499 15.5s-15.5 23.166 -15.5 38.499c0 14.667 5.16699 27.167 15.5 37.5s23.166 15.5 38.499 15.5c14.667 0 27 -5 37 -15s15 -22.667 15 -38s-5 -28.166 -15 -38.499s-22.333 -15.5 -37 -15.5zM229 562
c-15.333 0 -28 5.16699 -38 15.5s-15 23.166 -15 38.499c0 14.667 5 27.167 15 37.5s22.667 15.5 38 15.5c14.667 0 27.167 -5 37.5 -15s15.5 -22.667 15.5 -38s-5.16699 -28.166 -15.5 -38.499s-22.833 -15.5 -37.5 -15.5zM0 0l0.000976562 73.0049h79
c8.66699 0 16.5 -0.333008 23.5 -1s13.167 -1.33398 18.5 -2.00098c6 -0.666992 11.333 -1.33398 16 -2.00098c-24.667 15.333 -43.167 36.666 -55.5 63.999s-18.5 62.333 -18.5 105c0 32.667 5.16699 63.667 15.5 93s26 55.166 47 77.499s47.167 40.166 78.5 53.499
s67.666 20 108.999 20c72 0 125.667 -19.5 161 -58.5s53 -94.167 53 -165.5v-257h-527zM437.001 241.005c0 60 -11.668 102.833 -35.001 128.5s-55.666 38.5 -96.999 38.5c-46.667 0 -83.167 -15.167 -109.5 -45.5s-39.5 -70.5 -39.5 -120.5
c0 -57.333 14.167 -99.833 42.5 -127.5s74.833 -41.5 139.5 -41.5h99v168z" />
    <glyph glyph-name="qaf.medi" unicode="&#x642;" horiz-adv-x="591" arabic-form="medial" 
d="M374 562c-15.333 0 -28.166 5.16699 -38.499 15.5s-15.5 23.166 -15.5 38.499c0 14.667 5.16699 27.167 15.5 37.5s23.166 15.5 38.499 15.5c14.667 0 27 -5 37 -15s15 -22.667 15 -38s-5 -28.166 -15 -38.499s-22.333 -15.5 -37 -15.5zM226 562
c-15.333 0 -28 5.16699 -38 15.5s-15 23.166 -15 38.499c0 14.667 5 27.167 15 37.5s22.667 15.5 38 15.5c14.667 0 27.167 -5 37.5 -15s15.5 -22.667 15.5 -38s-5.16699 -28.166 -15.5 -38.499s-22.833 -15.5 -37.5 -15.5zM0 73l57.998 -0.000976562
c8.66699 0 17 -0.166992 25 -0.5s15.667 -0.833008 23 -1.5s15 -1 23 -1c-21.333 15.333 -37.666 37 -48.999 65s-17 62 -17 102c0 34 5.5 65.833 16.5 95.5s27 55.5 48 77.5s46.5 39.333 76.5 52s63.667 19 101 19c32 0 61.5 -4.33301 88.5 -13s50.5 -22.167 70.5 -40.5
s35.667 -42.166 47 -71.499s17 -65 17 -107c0 -36 -6.66699 -70.167 -20 -102.5s-32.666 -57.833 -57.999 -76.5c10 0 20 0.333008 30 1c8.66699 0.666992 18 1.16699 28 1.5s19.667 0.5 29 0.5h69v-73h-606v73zM295.998 72.999c18.667 0 36.5 3.33301 53.5 10
s31.833 17 44.5 31s22.667 31.667 30 53s11 46.666 11 75.999c0 52.667 -11.5 93.334 -34.5 122.001s-57.5 43 -103.5 43c-18 0 -35.5 -3.16699 -52.5 -9.5s-32 -16.166 -45 -29.499s-23.5 -30.333 -31.5 -51s-12 -45.334 -12 -74.001c0 -56 12 -98.5 36 -127.5
s58.667 -43.5 104 -43.5z" />
    <glyph glyph-name="kaf.fina" unicode="&#x643;" horiz-adv-x="851" arabic-form="final" 
d="M413 0c-63.333 0 -117.167 6.16797 -161.5 18.501s-80.5 30.833 -108.5 55.5s-48.5 55.167 -61.5 91.5s-19.5 78.166 -19.5 125.499c0 30 3.16699 60.333 9.5 91s14.166 55.667 23.499 75l98 17c-11.333 -23.333 -20.5 -50.833 -27.5 -82.5s-10.5 -61.5 -10.5 -89.5
c0 -38 4.16699 -71.333 12.5 -100s22.833 -52.5 43.5 -71.5s48.334 -33.333 83.001 -43s78 -14.5 130 -14.5h240v632h92v-632h110v-73h-453zM310.999 465.001c13.333 0 26.165 -0.5 38.498 -1.5s22.5 -2.16699 30.5 -3.5c-9.33301 4 -16.166 10.667 -20.499 20
s-6.5 18.666 -6.5 27.999c0 12 2.33301 24 7 36s12 22.667 22 32s23 16.833 39 22.5s35.667 8.5 59 8.5c11.333 0 21.833 -0.333008 31.5 -1s17.167 -1.66699 22.5 -3l-9 -56c-4.66699 0.666992 -11.5 1.5 -20.5 2.5s-18.167 1.5 -27.5 1.5
c-18.667 0 -32.667 -3.66699 -42 -11s-14 -17.333 -14 -30c0 -13.333 5.83301 -24.166 17.5 -32.499s31.834 -12.5 60.501 -12.5h54v-57h-242v57z" />
    <glyph glyph-name="kaf.init" unicode="&#x643;" horiz-adv-x="489" arabic-form="initial" 
d="M0 73l320.999 0.000976562c-0.666992 48.667 -6.5 91.667 -17.5 129s-27.333 69.666 -49 96.999s-48.667 50.333 -81 69s-70.5 34.334 -114.5 47.001v68l379 238v-93l-272 -167c38.667 -16 73.334 -35.333 104.001 -58s56.5 -50.334 77.5 -83.001s37 -71 48 -115
s16.5 -95.333 16.5 -154v-51h-412v73z" />
    <glyph glyph-name="kaf.medi" unicode="&#x643;" horiz-adv-x="489" arabic-form="medial" 
d="M0 73l321 0.000976562c-0.666992 48.667 -6.5 91.667 -17.5 129s-27.333 69.666 -49 96.999s-48.667 50.333 -81 69s-70.5 34.334 -114.5 47.001v68l379 238v-93l-272 -167c38 -15.333 71.833 -33.833 101.5 -55.5s55 -48 76 -79s37.333 -67.333 49 -109
s18.167 -89.834 19.5 -144.501h92v-73h-504v73z" />
    <glyph glyph-name="lam.fina" unicode="&#x644;" horiz-adv-x="643" arabic-form="final" 
d="M459 705h92.001v-632h107v-73h-110c-4.66699 -40.667 -14 -75.5 -28 -104.5s-31.667 -52.833 -53 -71.5s-45.833 -32.5 -73.5 -41.5s-57.5 -13.5 -89.5 -13.5c-34.667 0 -67 5 -97 15s-56 26 -78 48s-39.333 50.667 -52 86s-19 78.666 -19 129.999
c0 32.667 2.16699 65 6.5 97s10.5 63 18.5 93l95 18c-9.33301 -33.333 -16.333 -66.666 -21 -99.999s-7 -66.333 -7 -99c0 -42.667 4.83301 -77.834 14.5 -105.501s22.167 -49.667 37.5 -66s32.666 -27.666 51.999 -33.999s39 -9.5 59 -9.5s38.833 3.5 56.5 10.5
s33.167 18.5 46.5 34.5s23.833 37.333 31.5 64s11.5 60 11.5 100v654z" />
    <glyph glyph-name="lam.init" unicode="&#x644;" horiz-adv-x="327" arabic-form="initial" 
d="M0 73h140v632h92v-705h-232v73z" />
    <glyph glyph-name="lam.medi" unicode="&#x644;" horiz-adv-x="327" arabic-form="medial" 
d="M0 73h140v632h92v-632h110v-73h-342v73z" />
    <glyph glyph-name="meem.fina" unicode="&#x645;" horiz-adv-x="799" arabic-form="final" 
d="M512 0c-45.333 0 -84.1699 4.83203 -116.503 14.499s-59 23.667 -80 42s-36.667 40.5 -47 66.5s-16.5 55.333 -18.5 88h-28c-36 0 -60.167 -11.333 -72.5 -34s-14.166 -59.667 -5.49902 -111l52 -326h-90l-51 318c-5.33301 34 -6.16602 64.833 -2.49902 92.5
s12.5 51.334 26.5 71.001s33 35 57 46s54 16.5 90 16.5h28c4.66699 27.333 13.334 53 26.001 77s29.167 44.833 49.5 62.5s44.833 31.667 73.5 42s61 15.5 97 15.5c72 0 125.667 -19.5 161 -58.5s53 -94.167 53 -165.5v-184h100v-73h-302zM623.996 240.999
c0 60 -11.668 102.833 -35.001 128.5s-55.666 38.5 -96.999 38.5c-46.667 0 -83.167 -15.167 -109.5 -45.5s-39.5 -70.5 -39.5 -120.5c0 -57.333 14.167 -99.833 42.5 -127.5s74.833 -41.5 139.5 -41.5h99v168z" />
    <glyph glyph-name="meem.init" unicode="&#x645;" horiz-adv-x="656" arabic-form="initial" 
d="M356 0c-58 0 -103.333 7.33203 -136 21.999s-56.667 35.667 -72 63c-11.333 -28 -28.333 -49.167 -51 -63.5s-50 -21.5 -82 -21.5h-15v73h19c12.667 0 24.334 2.16699 35.001 6.5s20 12 28 23s14.167 26 18.5 45s6.5 43.167 6.5 72.5c0 36.667 5.33301 70.834 16 102.501
s26.167 59.334 46.5 83.001s45.666 42.167 75.999 55.5s65.5 20 105.5 20c75.333 0 130.833 -20.333 166.5 -61s53.5 -99.334 53.5 -176.001v-244h-215zM481 228.999c0 64.667 -11.667 110.666 -35 137.999s-57.333 41 -102 41s-80 -15.667 -106 -47s-39 -75.333 -39 -132
c0 -53.333 13 -92.666 39 -117.999s69.333 -38 130 -38h113v156z" />
    <glyph glyph-name="meem.medi" unicode="&#x645;" horiz-adv-x="656" arabic-form="medial" 
d="M356 0c-58 0 -103.333 7.33203 -136 21.999s-56.667 35.667 -72 63c-11.333 -28 -28.333 -49.167 -51 -63.5s-50 -21.5 -82 -21.5h-15v73h19c12.667 0 24.334 2.16699 35.001 6.5s20 12 28 23s14.167 26 18.5 45s6.5 43.167 6.5 72.5c0 36.667 5.33301 70.834 16 102.501
s26.167 59.334 46.5 83.001s45.666 42.167 75.999 55.5s65.5 20 105.5 20c75.333 0 130.833 -20.333 166.5 -61s53.5 -99.334 53.5 -176.001v-171h100v-73h-315zM481 228.999c0 64.667 -11.667 110.666 -35 137.999s-57.333 41 -102 41s-80 -15.667 -106 -47
s-39 -75.333 -39 -132c0 -53.333 13 -92.666 39 -117.999s69.333 -38 130 -38h113v156z" />
    <glyph glyph-name="noon.fina" unicode="&#x646;" horiz-adv-x="667" arabic-form="final" 
d="M571 73h110.997v-73h-114c-15.333 -154 -102.333 -231 -261 -231c-34.667 0 -67.167 5 -97.5 15s-56.666 26 -78.999 48s-40 50.667 -53 86s-19.5 78.666 -19.5 129.999c0 32.667 2.16699 65 6.5 97s10.5 63 18.5 93l95 18c-9.33301 -33.333 -16.333 -66.666 -21 -99.999
s-7 -66.333 -7 -99c0 -42.667 5 -77.834 15 -105.501s22.833 -49.667 38.5 -66s33.334 -27.666 53.001 -33.999s39.5 -9.5 59.5 -9.5c24 0 45.833 3.33301 65.5 10s36.834 18 51.501 34s26 37 34 63s12 58 12 96v425h92v-397zM312.997 373
c-15.333 0 -28.166 5.16699 -38.499 15.5s-15.5 23.166 -15.5 38.499s5.16699 28.333 15.5 39s23.166 16 38.499 16s28.333 -5.33301 39 -16s16 -23.667 16 -39s-5.33301 -28.166 -16 -38.499s-23.667 -15.5 -39 -15.5z" />
    <glyph glyph-name="noon.init" unicode="&#x646;" horiz-adv-x="326" arabic-form="initial" 
d="M192 577c-15.333 0 -28.166 5.16699 -38.499 15.5s-15.5 23.166 -15.5 38.499s5.16699 28.333 15.5 39s23.166 16 38.499 16s28.333 -5.33301 39 -16s16 -23.667 16 -39s-5.33301 -28.166 -16 -38.499s-23.667 -15.5 -39 -15.5zM0 73h146v397h92v-470h-238v73z" />
    <glyph glyph-name="noon.medi" unicode="&#x646;" horiz-adv-x="334" arabic-form="medial" 
d="M0 73h146v397h92v-397h111v-73h-349v73zM192 577c-15.333 0 -28.166 5.16699 -38.499 15.5s-15.5 23.166 -15.5 38.499s5.16699 28.333 15.5 39s23.166 16 38.499 16s28.333 -5.33301 39 -16s16 -23.667 16 -39s-5.33301 -28.166 -16 -38.499s-23.667 -15.5 -39 -15.5z
" />
    <glyph glyph-name="heh.fina" unicode="&#x647;" horiz-adv-x="594" arabic-form="final" 
d="M307 0c-48 0 -88.6689 5.50098 -122.002 16.501s-60.333 26.667 -81 47s-35.667 44.833 -45 73.5s-14 60.667 -14 96c0 32.667 5.16699 64 15.5 94s25.833 56.5 46.5 79.5s46.834 41.167 78.501 54.5s68.834 20 111.501 20c28 0 54 -1.83301 78 -5.5
s45.333 -7.83398 64 -12.501c21.333 -5.33301 41 -11 59 -17v-373h111v-73h-302zM407.998 385.001c-10.667 4 -21.999 7.66797 -33.999 11.001c-10.667 3.33301 -23.334 6.16602 -38.001 8.49902s-31 3.5 -49 3.5c-46.667 0 -83.167 -15 -109.5 -45s-39.5 -70 -39.5 -120
c0 -57.333 14.167 -100 42.5 -128s74.833 -42 139.5 -42h88v312z" />
    <glyph glyph-name="heh.init" unicode="&#x647;" horiz-adv-x="765" arabic-form="initial" 
d="M0 0v73.0039h118c5.33301 0 10.333 -0.166992 15 -0.5s8.66699 -0.833008 12 -1.5c4 -0.666992 8 -1 12 -1c-8 6.66699 -15 14.334 -21 23.001c-5.33301 7.33301 -10 16.666 -14 27.999s-6 24.666 -6 39.999c0 24 4.16699 46.167 12.5 66.5s20.333 37.833 36 52.5
s34.5 26.167 56.5 34.5s47 12.5 75 12.5c30 0 55.833 -5 77.5 -15s39.834 -24.167 54.501 -42.5s25.5 -40.333 32.5 -66s10.5 -54.5 10.5 -86.5v-44h132v20c0 62 -6 115.167 -18 159.5s-30.333 80.666 -55 108.999s-55.834 49.166 -93.501 62.499s-82.167 20 -133.5 20
c-32.667 0 -68.167 -3.16699 -106.5 -9.5s-73.5 -14.833 -105.5 -25.5l-10 67c34 10.667 71.667 19.5 113 26.5s82 10.5 122 10.5c60 0 113.333 -7.83301 160 -23.5s86 -40.334 118 -74.001s56.333 -77.167 73 -130.5s25 -117.333 25 -192v-93h-692zM391 114.004
c0 21.333 -1.83301 41.167 -5.5 59.5s-9.66699 34.166 -18 47.499s-18.833 23.833 -31.5 31.5s-28 11.5 -46 11.5c-32 0 -55.5 -9.16699 -70.5 -27.5s-22.5 -40.166 -22.5 -65.499c0 -32.667 10.667 -57.5 32 -74.5s48 -25.5 80 -25.5h82v43z" />
    <glyph glyph-name="heh.medi" unicode="&#x647;" horiz-adv-x="765" arabic-form="medial" 
d="M0 0v73.0029h118c10 0 18.667 -0.5 26 -1.5s11.333 -1.5 12 -1.5c-0.666992 0 -3 2 -7 6s-8.5 9.83301 -13.5 17.5s-9.5 17.167 -13.5 28.5s-6 24.333 -6 39c0 24 4.16699 46.167 12.5 66.5s20.333 37.833 36 52.5s34.5 26.167 56.5 34.5s47 12.5 75 12.5
c30 0 55.833 -5 77.5 -15s39.834 -24.167 54.501 -42.5s25.5 -40.333 32.5 -66s10.5 -54.5 10.5 -86.5v-44h132v20c0 62 -6 115.167 -18 159.5s-30.333 80.666 -55 108.999s-55.834 49.166 -93.501 62.499s-82.167 20 -133.5 20c-32.667 0 -68.167 -3.16699 -106.5 -9.5
s-73.5 -14.833 -105.5 -25.5l-10 67c34 10.667 71.667 19.5 113 26.5s82 10.5 122 10.5c60 0 113.333 -7.83301 160 -23.5s86 -40.334 118 -74.001s56.333 -77.167 73 -130.5s25 -117.333 25 -192v-20h88v-73h-780zM391 114.003c0 21.333 -1.83301 41.167 -5.5 59.5
s-9.66699 34.166 -18 47.499s-18.833 23.833 -31.5 31.5s-28 11.5 -46 11.5c-32 0 -55.5 -9.16699 -70.5 -27.5s-22.5 -40.166 -22.5 -65.499c0 -32.667 10.667 -57.5 32 -74.5s48 -25.5 80 -25.5h82v43z" />
    <glyph glyph-name="waw.fina" unicode="&#x648;" horiz-adv-x="594" arabic-form="final" 
d="M207 -253c-19.333 0 -38.334 0.668945 -57.001 2.00195s-35.334 3 -50.001 5c-17.333 2.66699 -33.666 5.33398 -48.999 8.00098l6 77c16 -4 33 -7.33301 51 -10c15.333 -2.66699 32.5 -4.83398 51.5 -6.50098s38.167 -2.5 57.5 -2.5c27.333 0 52.666 2.66699 75.999 8
s43.5 14.166 60.5 26.499s30.333 28.5 40 48.5s14.5 44.333 14.5 73v24h-101c-48 0 -88.667 5.5 -122 16.5s-60.333 26.667 -81 47s-35.667 44.833 -45 73.5s-14 60.667 -14 96c0 32.667 5.16699 64 15.5 94s25.833 56.5 46.5 79.5s46.834 41.167 78.501 54.5
s68.834 20 111.501 20c28 0 54 -1.83301 78 -5.5s45.333 -7.83398 64 -12.501c21.333 -5.33301 41 -11 59 -17v-373h111v-73h-111v-19c0 -29.333 -5 -58 -15 -86s-26.5 -53 -49.5 -75s-53 -39.667 -90 -53s-82.5 -20 -136.5 -20zM407.999 385.002
c-10.667 4 -21.999 7.66797 -33.999 11.001c-10.667 3.33301 -23.334 6.16602 -38.001 8.49902s-31 3.5 -49 3.5c-46.667 0 -83.167 -15 -109.5 -45s-39.5 -70 -39.5 -120c0 -57.333 14.167 -100 42.5 -128s74.833 -42 139.5 -42h88v312z" />
    <glyph glyph-name="alefmaksura.fina" unicode="&#x649;" horiz-adv-x="1000" arabic-form="final" 
d="M413 0c-63.333 0 -117.165 6.16797 -161.498 18.501s-80.5 30.833 -108.5 55.5s-48.5 55.167 -61.5 91.5s-19.5 78.166 -19.5 125.499c0 30 3.16699 60.333 9.5 91s14.166 55.667 23.499 75l98 17c-11.333 -23.333 -20.5 -50.833 -27.5 -82.5s-10.5 -61.5 -10.5 -89.5
c0 -38 4.16699 -71.333 12.5 -100s22.833 -52.5 43.5 -71.5s48.334 -33.333 83.001 -43s78 -14.5 130 -14.5h85v389c17.333 3.33301 36 6.33301 56 9c17.333 2.66699 36.833 5 58.5 7s44.5 3 68.5 3c42 0 77.167 -5 105.5 -15s51.166 -24.333 68.499 -43
s29.833 -41.667 37.5 -69s11.5 -58 11.5 -92v-189h100v-73h-190v250c0 57.333 -11 98 -33 122s-58.333 36 -109 36c-10.667 0 -20.834 -0.333008 -30.501 -1s-18.5 -1.66699 -26.5 -3l-27 -4v-400h-186z" />
    <glyph glyph-name="yeh.fina" unicode="&#x64a;" horiz-adv-x="1000" arabic-form="final" 
d="M413 0c-63.333 0 -117.165 6.16797 -161.498 18.501s-80.5 30.833 -108.5 55.5s-48.5 55.167 -61.5 91.5s-19.5 78.166 -19.5 125.499c0 30 3.16699 60.333 9.5 91s14.166 55.667 23.499 75l98 17c-11.333 -23.333 -20.5 -50.833 -27.5 -82.5s-10.5 -61.5 -10.5 -89.5
c0 -38 4.16699 -71.333 12.5 -100s22.833 -52.5 43.5 -71.5s48.334 -33.333 83.001 -43s78 -14.5 130 -14.5h85v389c17.333 3.33301 36 6.33301 56 9c17.333 2.66699 36.833 5 58.5 7s44.5 3 68.5 3c42 0 77.167 -5 105.5 -15s51.166 -24.333 68.499 -43
s29.833 -41.667 37.5 -69s11.5 -58 11.5 -92v-189h100v-73h-190v250c0 57.333 -11 98 -33 122s-58.333 36 -109 36c-10.667 0 -20.834 -0.333008 -30.501 -1s-18.5 -1.66699 -26.5 -3l-27 -4v-400h-186zM376.001 -148.999c0 -15.333 -5.16699 -28.166 -15.5 -38.499
s-22.833 -15.5 -37.5 -15.5c-15.333 0 -28 5.16699 -38 15.5s-15 23.166 -15 38.499c0 14.667 5 27.167 15 37.5s22.667 15.5 38 15.5c14.667 0 27.167 -5 37.5 -15s15.5 -22.667 15.5 -38zM523.001 -148.999c0 -15.333 -5 -28.166 -15 -38.499s-22.333 -15.5 -37 -15.5
c-15.333 0 -28.166 5.16699 -38.499 15.5s-15.5 23.166 -15.5 38.499c0 14.667 5.16699 27.167 15.5 37.5s23.166 15.5 38.499 15.5c14.667 0 27 -5 37 -15s15 -22.667 15 -38z" />
    <glyph glyph-name="yeh.init" unicode="&#x64a;" horiz-adv-x="380" arabic-form="initial" 
d="M285 -149c0 -15.333 -5 -28.166 -15 -38.499s-22.333 -15.5 -37 -15.5c-15.333 0 -28.166 5.16699 -38.499 15.5s-15.5 23.166 -15.5 38.499c0 14.667 5.16699 27.167 15.5 37.5s23.166 15.5 38.499 15.5c14.667 0 27 -5 37 -15s15 -22.667 15 -38zM138 -149
c0 -15.333 -5.16699 -28.166 -15.5 -38.499s-22.833 -15.5 -37.5 -15.5c-15.333 0 -28 5.16699 -38 15.5s-15 23.166 -15 38.499c0 14.667 5 27.167 15 37.5s22.667 15.5 38 15.5c14.667 0 27.167 -5 37.5 -15s15.5 -22.667 15.5 -38zM0 73h201v397h92v-470h-293v73z" />
    <glyph glyph-name="yeh.medi" unicode="&#x64a;" horiz-adv-x="389" arabic-form="medial" 
d="M0 73h201v397h92v-397h110v-73h-403v73zM138 -149c0 -15.333 -5.16699 -28.166 -15.5 -38.499s-22.833 -15.5 -37.5 -15.5c-15.333 0 -28 5.16699 -38 15.5s-15 23.166 -15 38.499c0 14.667 5 27.167 15 37.5s22.667 15.5 38 15.5c14.667 0 27.167 -5 37.5 -15
s15.5 -22.667 15.5 -38zM285 -149c0 -15.333 -5 -28.166 -15 -38.499s-22.333 -15.5 -37 -15.5c-15.333 0 -28.166 5.16699 -38.499 15.5s-15.5 23.166 -15.5 38.499c0 14.667 5.16699 27.167 15.5 37.5s23.166 15.5 38.499 15.5c14.667 0 27 -5 37 -15s15 -22.667 15 -38z
" />
    <glyph glyph-name=".notdef" 
d="M150 150v250h50v-200h100v-50h-150zM50 50v450h450v-450h-450zM250 350v50h150v-250h-50v100h-100v50h100v50h-100zM450 100v350h-350v-350h350z" />
    <glyph glyph-name="space" unicode=" " horiz-adv-x="244" 
 />
    <glyph glyph-name="exclam" unicode="!" horiz-adv-x="320" 
d="M207 168h-75l-16 535h106zM229 50c0 -16.667 -5.66699 -30.667 -17 -42s-25.666 -17 -42.999 -17s-31.833 5.66699 -43.5 17s-17.5 25.333 -17.5 42s5.83301 30.667 17.5 42s26.167 17 43.5 17s31.666 -5.66699 42.999 -17s17 -25.333 17 -42z" />
    <glyph glyph-name="quotedbl" unicode="&#x22;" horiz-adv-x="366" 
d="M300 469h-67l-14 230h95zM133 469h-67l-14 230h95z" />
    <glyph glyph-name="numbersign" unicode="#" horiz-adv-x="577" 
d="M448 429l-19 -177h91v-62h-98l-20 -190h-72l19 190h-153l-20 -190h-72l20 190h-92v62h98l20 177h-93v62h98l20 184h73l-20 -184h153l20 184h73l-20 -184h90v-62h-96zM222 429l-19 -177h153l19 177h-153z" />
    <glyph glyph-name="dollar" unicode="$" horiz-adv-x="489" 
d="M435 178c0 -46 -14.668 -85.5 -44.001 -118.5s-70.666 -54.5 -123.999 -64.5v-130h-67v126c-23.333 0.666992 -45 2 -65 4s-39.667 5.66699 -59 11l6 84c18 -7.33301 39.333 -13 64 -17s46.667 -6 66 -6c18 0 35 1.83301 51 5.5s29.667 9.5 41 17.5s20.333 18.333 27 31
s10 27.667 10 45c0 22.667 -7 40.667 -21 54s-31.5 25 -52.5 35s-43.667 19.667 -68 29s-47 20.833 -68 34.5s-38.5 30.834 -52.5 51.501s-21 48 -21 82c0 22 3.83301 42.333 11.5 61s18.5 35.334 32.5 50.001s30.833 26.834 50.5 36.501s41.5 16.5 65.5 20.5v105h67v-101
c40 -1.33301 75.333 -5.33301 106 -12l-6 -80c-18.667 5.33301 -37.834 9.66602 -57.501 12.999s-38.167 5 -55.5 5c-23.333 0 -42.833 -2.5 -58.5 -7.5s-28.167 -11.5 -37.5 -19.5s-16.166 -17.333 -20.499 -28s-6.5 -21.334 -6.5 -32.001c0 -21.333 7 -38.833 21 -52.5
s31.667 -25.5 53 -35.5s44.333 -19.833 69 -29.5s47.667 -21.334 69 -35.001s39 -31 53 -52s21 -47.833 21 -80.5z" />
    <glyph glyph-name="percent" unicode="%" horiz-adv-x="750" 
d="M706 153c0 -24 -3.66602 -45.832 -10.999 -65.499s-17.5 -36.834 -30.5 -51.501s-28.667 -26 -47 -34s-38.833 -12 -61.5 -12c-48.667 0 -84.334 13.5 -107.001 40.5s-34 64.5 -34 112.5c0 22.667 3.5 43.834 10.5 63.501s17 36.667 30 51s28.833 25.5 47.5 33.5
s39.334 12 62.001 12c47.333 0 82.666 -12.833 105.999 -38.5s35 -62.834 35 -111.501zM154.001 -20.999l-58 42l497 673l58 -41zM335.001 534.001c0 -24 -3.66602 -45.834 -10.999 -65.501s-17.5 -36.667 -30.5 -51s-28.667 -25.5 -47 -33.5s-38.833 -12 -61.5 -12
c-48.667 0 -84.334 13.5 -107.001 40.5s-34 64.5 -34 112.5c0 22.667 3.5 43.834 10.5 63.501s17 36.667 30 51s28.833 25.5 47.5 33.5s39.334 12 62.001 12c47.333 0 82.666 -12.833 105.999 -38.5s35 -63.167 35 -112.5zM632.002 146
c0 33.333 -5.66797 57.833 -17.001 73.5s-29.666 23.5 -54.999 23.5c-21.333 0 -38.5 -8.5 -51.5 -25.5s-19.5 -39.833 -19.5 -68.5c0 -65.333 24.667 -98 74 -98c20 0 36.5 8.5 49.5 25.5s19.5 40.167 19.5 69.5zM261.001 528c0 33.333 -5.66797 57.834 -17.001 73.501
s-29.666 23.5 -54.999 23.5c-21.333 0 -38.5 -8.5 -51.5 -25.5s-19.5 -39.833 -19.5 -68.5c0 -66 24.667 -99 74 -99c20 0 36.5 8.66699 49.5 26s19.5 40.666 19.5 69.999z" />
    <glyph glyph-name="ampersand" unicode="&#x26;" horiz-adv-x="795" 
d="M681 -19l-74.501 53.501c-25.667 19 -48.167 36.5 -67.5 52.5c-32.667 -28.667 -71 -52 -115 -70s-93.667 -27 -149 -27c-36 0 -67.667 5 -95 15s-50.166 23.833 -68.499 41.5s-32.166 38.5 -41.499 62.5s-14 49.667 -14 77c0 45.333 12.833 84.833 38.5 118.5
s59.167 66.5 100.5 98.5c-17.333 20 -32 38.167 -44 54.5s-21.667 31.666 -29 45.999s-12.5 28 -15.5 41s-4.5 26.5 -4.5 40.5c0 20 3.83301 39.167 11.5 57.5s19 34.5 34 48.5s33.667 25 56 33s47.833 12 76.5 12c52 0 91.667 -12.667 119 -38s41 -57.666 41 -96.999
c0 -34 -9.5 -66.5 -28.5 -97.5s-51.167 -64.167 -96.5 -99.5l48.5 -48.5l55 -52l58.5 -53c20 -17.667 39.667 -34.167 59 -49.5v-1c22 31.333 39.5 68 52.5 110s18.167 88 15.5 138h90c1.33301 -56.667 -5.83398 -110.334 -21.501 -161.001s-39.167 -96 -70.5 -136l74 -55.5
l63 -45.5zM349.999 592.001c0 20.667 -6.00098 38.3311 -18.001 52.998s-32 22 -60 22c-23.333 0 -42.666 -7.16699 -57.999 -21.5s-23 -33.166 -23 -56.499c0 -16.667 5.33301 -35.167 16 -55.5s29.667 -46.166 57 -77.499c28 23.333 49.333 45.5 64 66.5
s22 44.167 22 69.5zM475.998 135.998l-63.001 52.999l-62 56.5l-56.5 55c-17.667 17.667 -33.5 34.167 -47.5 49.5c-35.333 -28 -60.666 -54 -75.999 -78s-23 -49 -23 -75c0 -17.333 3.33301 -33.833 10 -49.5s16.167 -29.5 28.5 -41.5s27.333 -21.5 45 -28.5
s37.5 -10.5 59.5 -10.5c40 0 75.5 6.83301 106.5 20.5s57.167 29.834 78.5 48.501z" />
    <glyph glyph-name="quotesingle" unicode="'" horiz-adv-x="199" 
d="M133 469h-67l-14 230h95z" />
    <glyph glyph-name="parenleft" unicode="(" horiz-adv-x="303" 
d="M216 -209c-29.333 46.667 -53.5 91.666 -72.5 134.999s-34 85.5 -45 126.5s-18.5 80.667 -22.5 119s-6 75.833 -6 112.5s2.33301 74.667 7 114s12.667 80 24 122s26.5 84.833 45.5 128.5s42.5 87.834 70.5 132.501l65 -31c-40.667 -70 -71.5 -143.833 -92.5 -221.5
s-31.5 -157.5 -31.5 -239.5c0 -170 41.667 -325 125 -465z" />
    <glyph glyph-name="parenright" unicode=")" horiz-adv-x="303" 
d="M238 289c0 -36.667 -2.33203 -74.667 -6.99902 -114s-12.667 -80 -24 -122s-26.333 -85 -45 -129s-42.334 -88.333 -71.001 -133l-65 32c41.333 70 72.333 143.833 93 221.5s31 157.167 31 238.5c0 170 -41.667 325.333 -125 466l68 32
c29.333 -46.667 53.333 -91.667 72 -135s33.5 -85.333 44.5 -126s18.5 -80.167 22.5 -118.5s6 -75.833 6 -112.5z" />
    <glyph glyph-name="asterisk" unicode="*" horiz-adv-x="374" 
d="M296 477l-90 66l11 -112h-67l11 112l-90 -66l-33 58l103 45l-103 46l34 58l90 -66l-11 112h67l-12 -112l91 66l33 -58l-103 -45l103 -46z" />
    <glyph glyph-name="plus" unicode="+" 
d="M317 260v-201h-85v201h-190v75h190v200h85v-200h191v-75h-191z" />
    <glyph glyph-name="comma" unicode="," horiz-adv-x="228" 
d="M112 113c18.667 0 33.834 -7.33496 45.501 -22.002s17 -34.167 16 -58.5s-9.83301 -52.666 -26.5 -84.999s-44.334 -66.166 -83.001 -101.499l-38 34c32 34.667 50 63.667 54 87s0.333008 42.333 -11 57c-7.33301 8.66699 -11.333 18.167 -12 28.5s1 20 5 29
s10.333 16.5 19 22.5s19 9 31 9z" />
    <glyph glyph-name="hyphen" unicode="-" horiz-adv-x="330" 
d="M47 250v74h236v-74h-236z" />
    <glyph glyph-name="hyphen" unicode="&#xad;" horiz-adv-x="330" 
d="M47 250v74h236v-74h-236z" />
    <glyph glyph-name="period" unicode="." horiz-adv-x="228" 
d="M176 53c0 -17.333 -6 -32 -18 -44s-26.667 -18 -44 -18s-32 6 -44 18s-18 26.667 -18 44s6 32 18 44s26.667 18 44 18s32 -6 44 -18s18 -26.667 18 -44z" />
    <glyph glyph-name="slash" unicode="/" horiz-adv-x="438" 
d="M89 -161h-86l350 918h86z" />
    <glyph glyph-name="zero" unicode="0" horiz-adv-x="585" 
d="M537 344c0 -60 -6.66895 -112.166 -20.002 -156.499s-31.333 -81 -54 -110s-49.334 -50.667 -80.001 -65s-63.334 -21.5 -98.001 -21.5c-36 0 -68.667 6.16699 -98 18.5s-54.166 32.166 -74.499 59.499s-36.166 62.5 -47.499 105.5s-17 95.167 -17 156.5
c0 60 6.66699 112.167 20 156.5s31.333 81 54 110s49.334 50.5 80.001 64.5s63.334 21 98.001 21c36 0 68.667 -6.16699 98 -18.5s54.333 -32 75 -59s36.5 -62 47.5 -105s16.5 -95.167 16.5 -156.5zM440.998 336.001c0 94 -12.334 162.832 -37.001 206.499
s-61.334 65.5 -110.001 65.5c-21.333 0 -41.166 -4.83301 -59.499 -14.5s-34.166 -25.167 -47.499 -46.5s-23.833 -49.166 -31.5 -83.499s-11.5 -75.833 -11.5 -124.5c0 -94 12.5 -162.833 37.5 -206.5s61.833 -65.5 110.5 -65.5c21.333 0 41 4.83301 59 14.5
s33.667 25.167 47 46.5s23.833 49 31.5 83s11.5 75.667 11.5 125z" />
    <glyph glyph-name="one" unicode="1" horiz-adv-x="352" 
d="M168 0v583l-127 -50l-15 84l162 58h73v-675h-93z" />
    <glyph glyph-name="two" unicode="2" horiz-adv-x="501" 
d="M60 0v74l127 146c28.667 32.667 52.167 61.667 70.5 87s32.833 48.5 43.5 69.5s18.167 40.333 22.5 58s6.5 35.5 6.5 53.5c0 32 -9.66699 59.333 -29 82s-49 34 -89 34c-22 0 -44.667 -3.83301 -68 -11.5s-44.666 -17.5 -63.999 -29.5l-13 82
c23.333 11.333 48.666 20.666 75.999 27.999s58.333 11 93 11c31.333 0 59 -4.66699 83 -14s44 -22.166 60 -38.499s28.167 -35.5 36.5 -57.5s12.5 -46 12.5 -72c0 -23.333 -2.83301 -46.5 -8.5 -69.5s-15 -47 -28 -72s-30 -51.667 -51 -80s-46.5 -59.5 -76.5 -93.5
l-89 -104v-1c30 1.33301 69.5 2.33301 118.5 3s102.167 1 159.5 1v-86h-393z" />
    <glyph glyph-name="three" unicode="3" horiz-adv-x="489" 
d="M429 203c0 -30.667 -6.49902 -59.001 -19.499 -85.001s-31.167 -48.333 -54.5 -67s-51 -33.167 -83 -43.5s-67 -15.5 -105 -15.5c-20.667 0 -40.667 1 -60 3s-35.666 4.66699 -48.999 8l10 81c13.333 -4.66699 29.166 -8.16699 47.499 -10.5s37.166 -3.5 56.499 -3.5
c50 0 89.167 12.333 117.5 37s42.5 55 42.5 91c0 35.333 -14.667 63.833 -44 85.5s-73.333 32.5 -132 32.5c-11.333 0 -22.166 -0.333008 -32.499 -1s-20.166 -1.66699 -29.499 -3v73c76 -2 130.5 8.33301 163.5 31s49.5 54 49.5 94c0 30.667 -9.5 54.667 -28.5 72
s-46.5 26 -82.5 26c-21.333 0 -41.833 -2.66699 -61.5 -8s-38.167 -12.666 -55.5 -21.999l-8 77c21.333 9.33301 44.333 16.5 69 21.5s50 7.5 76 7.5c32 0 59.667 -4.16699 83 -12.5s42.666 -19.5 57.999 -33.5s26.666 -30.5 33.999 -49.5s11 -39.5 11 -61.5
c0 -38.667 -10.167 -72 -30.5 -100s-47.833 -48.333 -82.5 -61l-1 -2c42 -9.33301 76 -28 102 -56s39 -63 39 -105z" />
    <glyph glyph-name="four" unicode="4" horiz-adv-x="544" 
d="M411 158v-158h-89v158h-299l-6 70l273 447h121v-435h113v-82h-113zM323 590h-1l-217 -353c14.667 0.666992 32.5 1.16699 53.5 1.5s42.167 0.5 63.5 0.5h59.5h41.5v351z" />
    <glyph glyph-name="five" unicode="5" horiz-adv-x="462" 
d="M426 223c0 -34.667 -6.66602 -66.1709 -19.999 -94.5039s-32 -52.666 -56 -72.999s-52.5 -36 -85.5 -47s-69.167 -16.5 -108.5 -16.5c-18 0 -36 1 -54 3s-33.333 4.33301 -46 7l10 82c12.667 -4 27.667 -7.16699 45 -9.5s34.666 -3.5 51.999 -3.5
c52 0 93 12.833 123 38.5s45 59.834 45 102.501c0 41.333 -15.5 72.5 -46.5 93.5s-80.5 31.5 -148.5 31.5h-28c-10 0 -19.667 -0.666992 -29 -2v340h311v-86h-226v-178c89.333 0.666992 155.333 -15.666 198 -48.999s64 -79.666 64 -138.999z" />
    <glyph glyph-name="six" unicode="6" horiz-adv-x="576" 
d="M528 225c0 -33.333 -5.66602 -64.335 -16.999 -93.002s-27.333 -53.5 -48 -74.5s-45.667 -37.5 -75 -49.5s-61.666 -18 -96.999 -18c-46 0 -83.667 9.33301 -113 28s-52.333 42.334 -69 71.001s-28 60.167 -34 94.5s-9 66.833 -9 97.5c0 70 8.83301 130.333 26.5 181
s42 92.334 73 125.001s67.167 56.834 108.5 72.501s85.666 23.5 132.999 23.5c12 0 23.333 -0.166992 34 -0.5s19.334 -1.16602 26.001 -2.49902v-80c-10.667 2 -21.5 3.33301 -32.5 4s-22.167 1 -33.5 1c-63.333 0 -114.333 -16.833 -153 -50.5s-65 -86.5 -79 -158.5
l-8 -42l1 -1c15.333 20 36.666 37.167 63.999 51.5s60 21.5 98 21.5c31.333 0 59.666 -4.83301 84.999 -14.5s46.833 -23.334 64.5 -41.001s31.167 -38.834 40.5 -63.501s14 -52 14 -82zM434.001 210.998c0 42 -11.167 75.833 -33.5 101.5s-55.166 38.5 -98.499 38.5
c-20.667 0 -39.334 -3.5 -56.001 -10.5s-31 -16.5 -43 -28.5s-21.167 -26 -27.5 -42s-9.5 -32.667 -9.5 -50c0 -46 11.667 -83 35 -111s56 -42 98 -42c40 0 72.5 13 97.5 39s37.5 61 37.5 105z" />
    <glyph glyph-name="seven" unicode="7" horiz-adv-x="455" 
d="M426 597c-20 -43.333 -39.667 -90 -59 -140s-37.833 -101.167 -55.5 -153.5s-33.667 -104.333 -48 -156s-26.5 -100.834 -36.5 -147.501h-102c12.667 53.333 27.5 108 44.5 164s34.5 110 52.5 162s36 100.833 54 146.5s34.333 84.5 49 116.5
c-5.33301 0 -15 -0.166992 -29 -0.5s-30.5 -0.666016 -49.5 -0.999023s-39.333 -0.5 -61 -0.5h-63.5h-56.5h-40.5v88h401v-78v0z" />
    <glyph glyph-name="eight" unicode="8" horiz-adv-x="551" 
d="M493 173c0 -29.333 -6 -55.332 -18 -77.999s-28.333 -41.834 -49 -57.501s-44.834 -27.5 -72.501 -35.5s-57.167 -12 -88.5 -12c-34 0 -64 4.16699 -90 12.5s-47.833 20 -65.5 35s-31 32.833 -40 53.5s-13.5 43.334 -13.5 68.001c0 20.667 3.83301 39.834 11.5 57.501
s17.667 34 30 49s26.666 28.833 42.999 41.5s33.5 24.667 51.5 36c-40 23.333 -70.833 48 -92.5 74s-32.5 57 -32.5 93c0 26.667 5.16699 51 15.5 73s25 40.667 44 56s41.833 27.333 68.5 36s56.334 13 89.001 13c30 0 57.167 -4 81.5 -12s44.833 -19.167 61.5 -33.5
s29.5 -31.333 38.5 -51s13.5 -40.834 13.5 -63.501c0 -20 -3.66699 -38.167 -11 -54.5s-17 -31.5 -29 -45.5s-25.833 -27 -41.5 -39s-31.834 -23.667 -48.501 -35c20.667 -11.333 39.834 -23.333 57.501 -36s32.834 -26.334 45.501 -41.001s22.667 -30.5 30 -47.5
s11 -35.833 11 -56.5zM385 520.001c0 26 -9 48.3311 -27 66.998s-45.667 28 -83 28c-36 0 -64.333 -8.83301 -85 -26.5s-31 -40.5 -31 -68.5c0 -27.333 10.5 -50.666 31.5 -69.999s49.5 -38.666 85.5 -57.999c38.667 24 66.5 45.5 83.5 64.5s25.5 40.167 25.5 63.5z
M398 163.999c0 16.667 -3.66699 31.668 -11 45.001s-17.166 25.666 -29.499 36.999s-26.5 21.666 -42.5 30.999l-50 28c-15.333 -9.33301 -29.833 -18.833 -43.5 -28.5s-25.834 -20 -36.501 -31s-19 -22.833 -25 -35.5s-9 -26.667 -9 -42c0 -31.333 11 -56.166 33 -74.499
s52.333 -27.5 91 -27.5c34 0 63 8.33301 87 25s36 41 36 73z" />
    <glyph glyph-name="nine" unicode="9" horiz-adv-x="582" 
d="M516 394c0 -68 -8.16992 -127.335 -24.5029 -178.002s-39.5 -92.667 -69.5 -126s-66 -58.166 -108 -74.499s-88.667 -24.5 -140 -24.5c-13.333 0 -27.333 0.5 -42 1.5s-27.667 2.5 -39 4.5v84c14.667 -4 30.167 -6.83301 46.5 -8.5s31.166 -2.5 44.499 -2.5
c61.333 0 110.333 16.167 147 48.5s61.667 82.5 75 150.5c2.66699 9.33301 4.83398 18.5 6.50098 27.5s3.16699 16.167 4.5 21.5l-1 1c-14 -20 -34.5 -37.167 -61.5 -51.5s-59.5 -21.5 -97.5 -21.5c-31.333 0 -59.5 4.83301 -84.5 14.5s-46.333 23.334 -64 41.001
s-31.167 39 -40.5 64s-14 52.833 -14 83.5c0 32.667 5.66699 63.334 17 92.001s27.333 53.667 48 75s45.334 38 74.001 50s60.667 18 96 18c46.667 0 84.834 -9.33301 114.501 -28s52.834 -42.334 69.501 -71.001s28 -60 34 -94s9 -66.333 9 -97zM413.997 453.998
c0 47.333 -11.6689 84.833 -35.002 112.5s-56 41.5 -98 41.5c-19.333 0 -37 -3.5 -53 -10.5s-30 -16.667 -42 -29s-21.333 -27.5 -28 -45.5s-10 -38 -10 -60c0 -41.333 11 -75 33 -101s54.667 -39 98 -39c20.667 0 39.334 3.66699 56.001 11s30.834 17.166 42.501 29.499
s20.667 26.333 27 42s9.5 31.834 9.5 48.501z" />
    <glyph glyph-name="colon" unicode=":" horiz-adv-x="286" 
d="M220 346c0 -17.333 -6 -32 -18 -44s-26.667 -18 -44 -18s-32 6 -44 18s-18 26.667 -18 44s6 32 18 44s26.667 18 44 18s32 -6 44 -18s18 -26.667 18 -44zM220 53c0 -17.333 -6 -32 -18 -44s-26.667 -18 -44 -18s-32 6 -44 18s-18 26.667 -18 44s6 32 18 44
s26.667 18 44 18s32 -6 44 -18s18 -26.667 18 -44z" />
    <glyph glyph-name="semicolon" unicode=";" horiz-adv-x="286" 
d="M220 346c0 -17.333 -6 -32 -18 -44s-26.667 -18 -44 -18s-32 6 -44 18s-18 26.667 -18 44s6 32 18 44s26.667 18 44 18s32 -6 44 -18s18 -26.667 18 -44zM157 113c18.667 0 33.834 -7.33496 45.501 -22.002s17 -34.167 16 -58.5s-9.83301 -52.666 -26.5 -84.999
s-44.334 -66.166 -83.001 -101.499l-38 34c32 34.667 50 63.667 54 87s0.333008 42.333 -11 57c-7.33301 8.66699 -11.333 18.167 -12 28.5s1 20 5 29s10.333 16.5 19 22.5s19 9 31 9z" />
    <glyph glyph-name="semicolon" unicode="&#x37e;" horiz-adv-x="286" 
d="M220 346c0 -17.333 -6 -32 -18 -44s-26.667 -18 -44 -18s-32 6 -44 18s-18 26.667 -18 44s6 32 18 44s26.667 18 44 18s32 -6 44 -18s18 -26.667 18 -44zM157 113c18.667 0 33.834 -7.33496 45.501 -22.002s17 -34.167 16 -58.5s-9.83301 -52.666 -26.5 -84.999
s-44.334 -66.166 -83.001 -101.499l-38 34c32 34.667 50 63.667 54 87s0.333008 42.333 -11 57c-7.33301 8.66699 -11.333 18.167 -12 28.5s1 20 5 29s10.333 16.5 19 22.5s19 9 31 9z" />
    <glyph glyph-name="less" unicode="&#x3c;" 
d="M388 19l-316 283l316 284l58 -58l-259 -225l259 -222z" />
    <glyph glyph-name="equal" unicode="=" 
d="M56 345v75h438v-75h-438zM56 175v74h438v-74h-438z" />
    <glyph glyph-name="greater" unicode="&#x3e;" 
d="M162 19l-58 58l259 225l-259 222l58 62l316 -283z" />
    <glyph glyph-name="question" unicode="?" horiz-adv-x="445" 
d="M385 516c0 -27.333 -5.00098 -50.6641 -15.001 -69.9971s-22 -36.833 -36 -52.5s-28.833 -30.5 -44.5 -44.5s-29 -29.333 -40 -46s-18.5 -35.667 -22.5 -57s-1.33301 -47.333 8 -78h-88c-10.667 32.667 -14.667 61.167 -12 85.5s9.16699 45.666 19.5 63.999
s23 34.833 38 49.5l43.5 43c14 14 25.833 28.667 35.5 44s14.5 33 14.5 53c0 33.333 -18 61.166 -54 83.499s-85.333 34.833 -148 37.5l11 82c46.667 -1.33301 88 -7.66602 124 -18.999s66.333 -25.833 91 -43.5s43.334 -37.834 56.001 -60.501s19 -46.334 19 -71.001z
M251.999 50.002c0 -16.667 -5.83301 -30.667 -17.5 -42s-26.167 -17 -43.5 -17s-31.666 5.66699 -42.999 17s-17 25.333 -17 42s5.66699 30.667 17 42s25.666 17 42.999 17s31.833 -5.66699 43.5 -17s17.5 -25.333 17.5 -42z" />
    <glyph glyph-name="at" unicode="@" horiz-adv-x="978" 
d="M883 406c0 -44.667 -5.84082 -84.167 -17.5078 -118.5s-27.667 -63.333 -48 -87s-44.333 -41.5 -72 -53.5s-57.5 -18 -89.5 -18c-20.667 0 -38.167 3.16699 -52.5 9.5s-25.666 14.5 -33.999 24.5s-14 21.5 -17 34.5s-3.5 26.5 -1.5 40.5h-3
c-4 -10 -10.667 -21.333 -20 -34s-20.666 -24.5 -33.999 -35.5s-28.166 -20.333 -44.499 -28s-33.5 -11.5 -51.5 -11.5c-32.667 0 -57.167 11.5 -73.5 34.5s-24.5 56.5 -24.5 100.5c0 36.667 4.66699 71.334 14 104.001s23.5 61.167 42.5 85.5s42.667 43.5 71 57.5
s61.5 21 99.5 21c22.667 0 44.834 -1.33301 66.501 -4s40.167 -6 55.5 -10l-38 -213c-6.66699 -36 -4.83398 -62 5.49902 -78s28.166 -24 53.499 -24c18.667 0 36 4.16699 52 12.5s29.833 20.666 41.5 36.999s20.834 36.833 27.501 61.5s10 53.667 10 87
c0 32.667 -5.16699 64.5 -15.5 95.5s-26.666 58.667 -48.999 83s-51.5 44 -87.5 59s-79.333 22.5 -130 22.5c-48.667 0 -94.334 -9 -137.001 -27s-79.667 -43.333 -111 -76s-56.166 -71.5 -74.499 -116.5s-27.5 -94.5 -27.5 -148.5c0 -46.667 6.5 -88.834 19.5 -126.501
s32.5 -69.667 58.5 -96s58.333 -46.5 97 -60.5s83.334 -21 134.001 -21c30 0 58.5 2.16699 85.5 6.5s54.5 10.833 82.5 19.5l13 -73c-30 -9.33301 -62.167 -16.333 -96.5 -21s-66.166 -7 -95.499 -7c-60.667 0 -114.667 8.66699 -162 26s-87.166 41.833 -119.499 73.5
s-57 70.167 -74 115.5s-25.5 96 -25.5 152c0 66 11.667 126.667 35 182s54.833 103 94.5 143s86 71.167 139 93.5s109.5 33.5 169.5 33.5c60.667 0 113.5 -9 158.5 -27s82.333 -42 112 -72s51.834 -64.667 66.501 -104s22 -80.666 22 -123.999zM565.992 463
c-16 4 -35.332 6.00195 -57.999 6.00195c-23.333 0 -43.166 -6.33301 -59.499 -19s-30 -28.334 -41 -47.001s-19 -39.167 -24 -61.5s-7.5 -42.833 -7.5 -61.5c0 -51.333 14.333 -77 43 -77c12 0 24.667 4.16699 38 12.5s26.166 21.166 38.499 38.499
s23.666 38.833 33.999 64.5s18.833 56.167 25.5 91.5z" />
    <glyph glyph-name="A" unicode="A" horiz-adv-x="615" 
d="M503 0l-56 158h-287l-56 -158h-94l245 675h104l247 -675h-103zM333 484c-6 16.667 -11.333 32.5 -16 47.5s-9 29.833 -13 44.5h-2c-4 -14.667 -8.33301 -29.5 -13 -44.5s-9.66699 -30.167 -15 -45.5l-91 -255h240z" />
    <glyph glyph-name="B" unicode="B" horiz-adv-x="570" 
d="M519 202c0 -23.333 -4.33496 -47.001 -13.002 -71.001s-23 -46 -43 -66s-46.833 -36.333 -80.5 -49s-75.5 -19 -125.5 -19c-24.667 0 -51.167 0.333008 -79.5 1s-59.166 1.33398 -92.499 2.00098v675c24.667 0.666992 53.5 1.33398 86.5 2.00098s69.833 1 110.5 1
c72.667 0 126.834 -14.333 162.501 -43s53.5 -68.334 53.5 -119.001c0 -36 -10 -68 -30 -96s-48.667 -48.333 -86 -61v-2c41.333 -5.33301 74.5 -22 99.5 -50s37.5 -63 37.5 -105zM401.998 500.999c0 14.667 -2.16797 28.5 -6.50098 41.5s-11.833 24 -22.5 33
s-24.5 16.167 -41.5 21.5s-38.5 8 -64.5 8c-16 0 -31.667 -0.166992 -47 -0.5s-29.666 -0.833008 -42.999 -1.5v-219c9.33301 -0.666992 18.833 -1 28.5 -1h32.5c56 0 97.333 10.333 124 31s40 49.667 40 87zM421.997 196.999c0 21.333 -4.33496 39.3359 -13.002 54.0029
s-21 26.667 -37 36s-35.167 16.166 -57.5 20.499s-47.166 6.5 -74.499 6.5h-12h-17.5c-6.33301 0 -12.5 -0.166992 -18.5 -0.5s-11 -0.5 -15 -0.5v-237c9.33301 -1.33301 22.333 -2.5 39 -3.5s32.334 -1.5 47.001 -1.5c27.333 0 51 3.16699 71 9.5s36.5 15.166 49.5 26.499
s22.667 24.666 29 39.999s9.5 32 9.5 50z" />
    <glyph glyph-name="C" unicode="C" horiz-adv-x="583" 
d="M538 28c-25.333 -10.667 -53.9971 -19.333 -85.9971 -26s-65 -10 -99 -10c-54 0 -100.5 8.16699 -139.5 24.5s-70.833 39.166 -95.5 68.499s-42.834 64 -54.501 104s-17.5 84 -17.5 132c0 51.333 6.5 99 19.5 143s33 82 60 114s61.167 57.167 102.5 75.5
s90.666 27.5 147.999 27.5c26 0 52.333 -1.66699 79 -5s52 -8.66602 76 -15.999l-15 -84c-23.333 8 -47.833 14.333 -73.5 19s-51.167 7 -76.5 7c-38.667 0 -71.834 -7 -99.501 -21s-50.5 -33 -68.5 -57s-31.167 -52.167 -39.5 -84.5s-12.5 -66.833 -12.5 -103.5
c0 -83.333 18.5 -147.833 55.5 -193.5s94.833 -68.5 173.5 -68.5c24.667 0 50.5 3.16699 77.5 9.5s50.5 14.5 70.5 24.5l15 -80v0z" />
    <glyph glyph-name="D" unicode="D" horiz-adv-x="678" 
d="M632 345c0 -58 -9.1709 -108.668 -27.5039 -152.001s-44.166 -79.666 -77.499 -108.999s-73 -51.333 -119 -66s-96.667 -22 -152 -22c-34 0 -64.667 0.666992 -92 2s-53.666 2 -78.999 2v674c26 0.666992 56.833 1.5 92.5 2.5s72.167 1.5 109.5 1.5
c54 0 102.333 -6.5 145 -19.5s78.834 -33 108.501 -60s52.334 -61.5 68.001 -103.5s23.5 -92 23.5 -150zM534.996 338.999c0 86.667 -20.833 152.334 -62.5 197.001s-106.5 67 -194.5 67c-17.333 0 -35.333 -0.333008 -54 -1s-34.334 -1.33398 -47.001 -2.00098v-520
c12.667 -2 27.334 -3.5 44.001 -4.5s31.667 -1.5 45 -1.5c39.333 0 75.5 5.16699 108.5 15.5s61.333 26.333 85 48s42.167 49.167 55.5 82.5s20 73 20 119z" />
    <glyph glyph-name="E" unicode="E" horiz-adv-x="501" 
d="M85 0v675h347v-76h-255v-214h243v-74h-243v-234h255v-77h-347z" />
    <glyph glyph-name="F" unicode="F" horiz-adv-x="469" 
d="M177 599v-219h239v-74h-239v-306h-92v675h344v-76h-252z" />
    <glyph glyph-name="G" unicode="G" horiz-adv-x="682" 
d="M601 30c-34 -12.667 -70.3311 -22.3311 -108.998 -28.998s-76.667 -10 -114 -10c-52.667 0 -99.834 7.5 -141.501 22.5s-76.834 36.667 -105.501 65s-50.5 63 -65.5 104s-22.5 87.167 -22.5 138.5c0 52.667 7.66699 101.167 23 145.5s38.333 82.666 69 114.999
s68.5 57.5 113.5 75.5s97.5 27 157.5 27c33.333 0 65.5 -2.5 96.5 -7.5s61.167 -12.167 90.5 -21.5l-20 -83c-28 10.667 -56.667 18.834 -86 24.501s-59.333 8.5 -90 8.5c-45.333 0 -84.166 -7.33301 -116.499 -22s-58.833 -34.5 -79.5 -59.5s-35.834 -53.833 -45.501 -86.5
s-14.5 -66.667 -14.5 -102c0 -84.667 22 -149.834 66 -195.501s105.333 -68.5 184 -68.5c22.667 0 43.667 1.66699 63 5s38 7.66602 56 12.999v255h91v-314v0z" />
    <glyph glyph-name="H" unicode="H" horiz-adv-x="698" 
d="M521 0v311h-344v-311h-92v675h92v-286h344v286h92v-675h-92z" />
    <glyph glyph-name="I" unicode="I" horiz-adv-x="262" 
d="M85 0v675h92v-675h-92z" />
    <glyph glyph-name="J" unicode="J" horiz-adv-x="329" 
d="M245 176c0 -56 -12.832 -100.498 -38.499 -133.498s-69.167 -49.5 -130.5 -49.5c-27.333 0 -52.333 2.66699 -75 8v80c9.33301 -3.33301 20 -6 32 -8s24.333 -3 37 -3c13.333 0 25.166 1.66699 35.499 5s19 9.16602 26 17.499s12.333 19.666 16 33.999
s5.5 32.833 5.5 55.5v493h92v-499v0z" />
    <glyph glyph-name="K" unicode="K" horiz-adv-x="584" 
d="M444 0l-267 334v-334h-92v675h92v-318l268 318h114l-286 -326l296 -349h-125z" />
    <glyph glyph-name="L" unicode="L" horiz-adv-x="426" 
d="M85 0v675h92v-596h242v-79h-334z" />
    <glyph glyph-name="M" unicode="M" horiz-adv-x="889" 
d="M745 0l-57.001 391c-5.33301 36.667 -9.66602 69.334 -12.999 98.001s-6 53 -8 73h-2c-4 -16.667 -8.83301 -35.834 -14.5 -57.501s-12.5 -44.834 -20.5 -69.501l-144 -435h-98l-137 407c-18.667 55.333 -33 107 -43 155h-2c-1.33301 -28 -3.5 -56.5 -6.5 -85.5
s-6.83301 -60.167 -11.5 -93.5l-46 -383h-94l99 675h112l143 -426c6 -17.333 12.5 -38.166 19.5 -62.499s13.5 -48.166 19.5 -71.499h1l18 67c6 21.333 12.333 41.666 19 60.999l146 432h114l102 -675h-96z" />
    <glyph glyph-name="N" unicode="N" horiz-adv-x="707" 
d="M500 0l-261.998 433.004c-14.667 24 -27.834 46.833 -39.501 68.5s-22.167 43.167 -31.5 64.5c0.666992 -18 1.5 -42.333 2.5 -73s1.83301 -63.834 2.5 -99.501s1.16699 -71.667 1.5 -108s0.5 -68.833 0.5 -97.5v-188h-89v675h122l259 -425
c13.333 -22 26.166 -44.667 38.499 -68l35.5 -69l-2.5 79.5c-1 32.333 -1.83301 66.666 -2.5 102.999s-1.16699 72.666 -1.5 108.999s-0.5 69.166 -0.5 98.499v172h89v-675h-122z" />
    <glyph glyph-name="O" unicode="O" horiz-adv-x="705" 
d="M663 346c0 -56.667 -8.5 -107 -25.5 -151s-40 -81.167 -69 -111.5s-62.833 -53.5 -101.5 -69.5s-80 -24 -124 -24c-50.667 0 -94.834 8.16699 -132.501 24.5s-69 39.166 -94 68.499s-43.667 64.833 -56 106.5s-18.5 88.167 -18.5 139.5c0 56.667 8.33301 107 25 151
s39.5 81.167 68.5 111.5s63 53.5 102 69.5s80.5 24 124.5 24c50.667 0 94.834 -8.16699 132.501 -24.5s69 -39.166 94 -68.499s43.667 -65 56 -107s18.5 -88.333 18.5 -139zM565 332c0 40.667 -4.33203 77.667 -12.999 111s-21.834 62 -39.501 86s-39.834 42.5 -66.501 55.5
s-57.667 19.5 -93 19.5c-29.333 0 -56.833 -5.83301 -82.5 -17.5s-48.167 -28.5 -67.5 -50.5s-34.666 -49.167 -45.999 -81.5s-17 -69.5 -17 -111.5c0 -40.667 4.33301 -77.667 13 -111s21.834 -61.833 39.501 -85.5s39.667 -42 66 -55s57.5 -19.5 93.5 -19.5
c29.333 0 56.833 5.66699 82.5 17s48.167 28 67.5 50s34.666 49.167 45.999 81.5s17 69.5 17 111.5z" />
    <glyph glyph-name="P" unicode="P" horiz-adv-x="528" 
d="M495 482c0 -33.333 -5.83398 -64.002 -17.501 -92.002s-28.5 -52.167 -50.5 -72.5s-48.833 -36.166 -80.5 -47.499s-67.5 -17 -107.5 -17h-24c-7.33301 0 -13.666 0.333008 -18.999 1c-6.66699 0.666992 -13 1.33398 -19 2.00098v-256h-92v675l54 2
c16 0.666992 34.167 1.16699 54.5 1.5s40.5 0.5 60.5 0.5c78.667 0 138.5 -17.667 179.5 -53s61.5 -83.333 61.5 -144zM399.999 469.998c0 43.333 -12.668 76.332 -38.001 98.999s-64.666 34 -117.999 34c-9.33301 0 -18 -0.166992 -26 -0.5s-15 -0.5 -21 -0.5
c-7.33301 -0.666992 -14 -1 -20 -1v-266c6.66699 -1.33301 13.667 -2.33301 21 -3c12.667 -2 29 -3 49 -3c52 0 90.5 12.833 115.5 38.5s37.5 59.834 37.5 102.501z" />
    <glyph glyph-name="Q" unicode="Q" horiz-adv-x="704" 
d="M704 -67c-28 -3.33301 -52.499 -4.33301 -73.499 -3s-39.833 4.16602 -56.5 8.49902s-32.334 9.33301 -47.001 15l-45 17c-15.333 5.66699 -32 10.334 -50 14.001s-39 5.5 -63 5.5h-26c-50.667 0 -94.834 8.16699 -132.501 24.5s-69 39.166 -94 68.499
s-43.667 64.833 -56 106.5s-18.5 88.167 -18.5 139.5c0 56.667 8.33301 107 25 151s39.5 81.167 68.5 111.5s63 53.5 102 69.5s80.5 24 124.5 24c50.667 0 94.834 -8.16699 132.501 -24.5s69 -39.166 94 -68.499s43.667 -65 56 -107s18.5 -88.333 18.5 -139
c0 -71.333 -14 -133.833 -42 -187.5s-68.667 -92.167 -122 -115.5c16.667 0 32.167 -2 46.5 -6l45 -12.5c15.667 -4.33301 32.5 -7.83301 50.5 -10.5s39 -2.66699 63 0v-81zM565.001 332c0 40.667 -4.33203 77.668 -12.999 111.001s-21.834 62 -39.501 86
s-39.834 42.5 -66.501 55.5s-57.667 19.5 -93 19.5c-29.333 0 -56.833 -5.83301 -82.5 -17.5s-48.167 -28.5 -67.5 -50.5s-34.666 -49.167 -45.999 -81.5s-17 -69.5 -17 -111.5c0 -40.667 4.33301 -77.667 13 -111s21.834 -61.833 39.501 -85.5s39.667 -42 66 -55
s57.5 -19.5 93.5 -19.5c28.667 0 56 5.83301 82 17.5s48.667 28.5 68 50.5s34.666 49.167 45.999 81.5s17 69.166 17 110.499z" />
    <glyph glyph-name="R" unicode="R" horiz-adv-x="553" 
d="M410 0l-220.999 302.001h-12v-302h-92v675c23.333 1.33301 48 2.33301 74 3s57.667 1 95 1c33.333 0 64 -3.16699 92 -9.5s52.167 -16.5 72.5 -30.5s36.166 -32.167 47.499 -54.5s17 -49.5 17 -81.5c0 -28.667 -5.33301 -54.334 -16 -77.001s-25 -42 -43 -58
s-39 -28.667 -63 -38s-49.333 -15 -76 -17l30 -36.5l28 -35.5l184 -241h-117zM387.001 491.001c0 40.667 -12.501 69.667 -37.501 87s-62.167 26 -111.5 26c-11.333 0 -22 -0.166992 -32 -0.5s-19.667 -0.833008 -29 -1.5v-230c5.33301 -0.666992 12.833 -1.16699 22.5 -1.5
s21.167 -0.5 34.5 -0.5c48.667 0 86.334 11.167 113.001 33.5s40 51.5 40 87.5z" />
    <glyph glyph-name="S" unicode="S" horiz-adv-x="503" 
d="M455 198c0 -30 -5.99707 -57.666 -17.9971 -82.999s-28.833 -47.166 -50.5 -65.499s-47.834 -32.666 -78.501 -42.999s-65 -15.5 -103 -15.5c-28 0 -54.333 1.66699 -79 5s-47.667 8 -69 14l11 88c21.333 -8.66699 44 -15.334 68 -20.001s48.667 -7 74 -7
c19.333 0 37.833 2.16699 55.5 6.5s33.167 11 46.5 20s24 20.833 32 35.5s12 32.334 12 53.001c0 25.333 -7.5 45.5 -22.5 60.5s-33.833 28 -56.5 39s-47.167 21.167 -73.5 30.5s-50.833 21.166 -73.5 35.499s-41.5 32.5 -56.5 54.5s-22.5 51 -22.5 87
c0 28 5.16699 53.667 15.5 77s25.5 43.5 45.5 60.5s44.667 30.167 74 39.5s63 14 101 14c19.333 0 39.666 -1 60.999 -3s41.666 -5.33301 60.999 -10l-11 -81c-18 5.33301 -37 9.66602 -57 12.999s-39.667 5 -59 5c-46 0 -80.167 -9.5 -102.5 -28.5s-33.5 -44.5 -33.5 -76.5
c0 -24 7.66699 -43.333 23 -58s34.333 -27.5 57 -38.5s47.5 -21.333 74.5 -31s51.833 -21.834 74.5 -36.501s41.667 -33 57 -55s23 -50.667 23 -86z" />
    <glyph glyph-name="T" unicode="T" horiz-adv-x="516" 
d="M304 598v-598h-92v598h-194v77h481v-77h-195z" />
    <glyph glyph-name="U" unicode="U" horiz-adv-x="693" 
d="M607 258c0 -89.333 -22.667 -156.333 -68 -201s-112.333 -67 -201 -67c-52.667 0 -95.5 6.66699 -128.5 20s-58.667 31.166 -77 53.499s-30.833 47.666 -37.5 75.999s-10 57.5 -10 87.5v448h92v-441c0 -23.333 2.33301 -45.166 7 -65.499s13.167 -38.166 25.5 -53.499
s29.333 -27.333 51 -36s49.5 -13 83.5 -13c58.667 0 102.167 13.833 130.5 41.5s42.5 75.5 42.5 143.5v424h90v-417v0z" />
    <glyph glyph-name="V" unicode="V" horiz-adv-x="618" 
d="M357 0h-103l-243 675h102l151 -434l22 -66c8 -24.667 15 -48.667 21 -72h2c6 23.333 13 47.333 21 72s16.667 49 26 73l155 427h95z" />
    <glyph glyph-name="W" unicode="W" horiz-adv-x="952" 
d="M740 0h-113l-129 454c-5.33301 19.333 -10 38.833 -14 58.5s-7.66699 39.167 -11 58.5h-1c-2.66699 -19.333 -6 -38.666 -10 -57.999s-8.66699 -39 -14 -59l-126 -454h-110l-178 675h98l114 -440c6 -22.667 11.167 -44.5 15.5 -65.5s8.16602 -42.5 11.499 -64.5h1
c7.33301 44 16.333 85.667 27 125l125 445h104l129 -448c5.33301 -18 10.333 -37.333 15 -58s8.66699 -41.334 12 -62.001h1c3.33301 20 6.83301 38.833 10.5 56.5s7.83398 35.5 12.501 53.5l117 458h91z" />
    <glyph glyph-name="X" unicode="X" horiz-adv-x="599" 
d="M467 0l-172 279l-171 -279h-107l222 348l-208 327h106l160 -258l157 258h104l-205 -324l229 -351h-115z" />
    <glyph glyph-name="Y" unicode="Y" horiz-adv-x="537" 
d="M312 243v-243.001h-92v243l-211 432h101l107 -228c18.667 -40 35.667 -79 51 -117h1c8 20.667 17 41.834 27 63.501l31 65.5l104 216h96z" />
    <glyph glyph-name="Z" unicode="Z" horiz-adv-x="539" 
d="M46 0l-0.000976562 68l283 446l27 41.5c8.66699 13 18 26.167 28 39.5c-16 -0.666992 -35.833 -1.16699 -59.5 -1.5s-53.167 -0.5 -88.5 -0.5h-180v82h435v-70l-298 -464l-40 -59c10.667 1.33301 30.334 2 59.001 2h109h174v-84h-449z" />
    <glyph glyph-name="bracketleft" unicode="[" horiz-adv-x="322" 
d="M86 -199v970h198v-69h-114v-830h114v-71h-198z" />
    <glyph glyph-name="backslash" unicode="\" horiz-adv-x="442" 
d="M361 -161l-350 918h87l350 -918h-87z" />
    <glyph glyph-name="bracketright" unicode="]" horiz-adv-x="322" 
d="M38 -199v71h114v830h-114v69h198v-970h-198z" />
    <glyph glyph-name="asciicircum" unicode="^" 
d="M408 343l-144 265l-138 -265l-62 33l165 299h73l172 -298z" />
    <glyph glyph-name="underscore" unicode="_" 
d="M0 -249v71h550v-71h-550z" />
    <glyph glyph-name="grave" unicode="`" horiz-adv-x="369" 
d="M232 570l-151 114l49 60l140 -125z" />
    <glyph glyph-name="a" unicode="a" horiz-adv-x="521" 
d="M350 0c0 17.333 0.166992 34.667 0.5 52s1.83301 33 4.5 47h-2c-12 -30.667 -32.833 -56.334 -62.5 -77.001s-65.167 -31 -106.5 -31s-74.666 12.333 -99.999 37s-38 57 -38 97c0 54 26 96 78 126s125.667 45 221 45v23c0 40 -7.66699 69.5 -23 88.5
s-42.666 28.5 -81.999 28.5c-23.333 0 -48.833 -3.5 -76.5 -10.5s-52.167 -15.5 -73.5 -25.5l-17 71c24 10 51.667 18.5 83 25.5s63.333 10.5 96 10.5c34.667 0 63.667 -4 87 -12s42.166 -19.5 56.499 -34.5s24.5 -33.333 30.5 -55s9 -45.834 9 -72.501v-190
c0 -23.333 0.166992 -47.666 0.5 -72.999s1.16602 -48.666 2.49902 -69.999h-88zM345 233.001c-40.667 0 -74.5 -2.66699 -101.5 -8s-48.5 -12.333 -64.5 -21s-27.333 -18.667 -34 -30s-10 -23.333 -10 -36c0 -21.333 6.83301 -39.333 20.5 -54s32.167 -22 55.5 -22
c20 0 38.167 4.5 54.5 13.5s30.5 21 42.5 36s21.167 32 27.5 51s9.5 38.167 9.5 57.5v13z" />
    <glyph glyph-name="b" unicode="b" horiz-adv-x="558" 
d="M515 272c0 -43.333 -6.00195 -82.3311 -18.002 -116.998s-29.167 -64 -51.5 -88s-49.5 -42.333 -81.5 -55s-68 -19 -108 -19c-34.667 0 -65.167 1.5 -91.5 4.5s-52.833 8.16699 -79.5 15.5v717h90v-241c0 -14.667 -0.666992 -30.667 -2 -48
s-3.66602 -32.333 -6.99902 -45l2 -1c13.333 35.333 34.5 62.666 63.5 81.999s62.5 29 100.5 29c58.667 0 103.834 -19.833 135.501 -59.5s47.5 -97.834 47.5 -174.501zM420.998 264.002c0 54 -8.83203 95.5 -26.499 124.5s-45.5 43.5 -83.5 43.5
c-22.667 0 -42.5 -6 -59.5 -18s-31.167 -27.167 -42.5 -45.5s-19.833 -38.833 -25.5 -61.5s-8.5 -44.667 -8.5 -66v-165c13.333 -4 27 -7 41 -9s29.667 -3 47 -3c23.333 0 44.666 3.66699 63.999 11s36 19 50 35s24.833 36.667 32.5 62s11.5 56 11.5 92z" />
    <glyph glyph-name="c" unicode="c" horiz-adv-x="435" 
d="M407 19c-21.333 -8.66699 -44.998 -15.3291 -70.998 -19.9961s-51.667 -7 -77 -7c-30 0 -58.167 4 -84.5 12s-49.333 21.167 -69 39.5s-35.334 42.833 -47.001 73.5s-17.5 69 -17.5 115c0 40 5.16699 76.667 15.5 110s25.5 62.166 45.5 86.499s45.167 43.166 75.5 56.499
s65.5 20 105.5 20c22.667 0 44.334 -1.83301 65.001 -5.5s39.667 -8.83398 57 -15.501l-17 -77c-15.333 6.66699 -32.833 12.167 -52.5 16.5s-39.834 6.5 -60.501 6.5c-22.667 0 -42.667 -4.5 -60 -13.5s-31.833 -21.833 -43.5 -38.5s-20.5 -36.334 -26.5 -59.001
s-9 -47.667 -9 -75c0 -24 2.16699 -46.667 6.5 -68s11.833 -39.833 22.5 -55.5s25.167 -28 43.5 -37s41.166 -13.5 68.499 -13.5c43.333 0 82 8 116 24l14 -75v0z" />
    <glyph glyph-name="d" unicode="d" horiz-adv-x="557" 
d="M385 0c0 14 0.499023 30.666 1.49902 49.999s3.16699 36.333 6.5 51l-2 1c-14 -34 -35.5 -61 -64.5 -81s-63.167 -30 -102.5 -30c-61.333 0 -107.166 20.833 -137.499 62.5s-45.5 98.834 -45.5 171.501c0 43.333 6 82.333 18 117s29.167 64 51.5 88s49.333 42.333 81 55
s67.167 19 106.5 19c13.333 0 26.833 -0.5 40.5 -1.5s28.167 -2.16699 43.5 -3.5v231h90v-730h-87zM381.999 421.999c-31.333 7.33301 -60.666 11 -87.999 11c-24 0 -45.667 -3.66699 -65 -11s-35.833 -19 -49.5 -35s-24.334 -36.667 -32.001 -62s-11.5 -56 -11.5 -92
c0 -54 8.83301 -95.5 26.5 -124.5s45.5 -43.5 83.5 -43.5c22.667 0 42.5 6 59.5 18s31.167 27.167 42.5 45.5s19.833 38.833 25.5 61.5s8.5 45 8.5 67v165z" />
    <glyph glyph-name="e" unicode="e" horiz-adv-x="508" 
d="M462 302c0 -6 -0.167969 -14.333 -0.500977 -25s-1.16602 -21 -2.49902 -31h-325c-1.33301 -62.667 11 -108.667 37 -138s66 -44 120 -44c24 0 48.167 2.5 72.5 7.5s47.5 12.167 69.5 21.5l13 -71c-25.333 -10 -52.5 -17.667 -81.5 -23s-59.167 -8 -90.5 -8
c-76 0 -133.833 20.5 -173.5 61.5s-59.5 105.5 -59.5 193.5c0 36.667 5 71 15 103s24.667 59.5 44 82.5s42.833 41.167 70.5 54.5s59.167 20 94.5 20c34.667 0 64.5 -5.5 89.5 -16.5s45.5 -25.667 61.5 -44s27.667 -39.833 35 -64.5s11 -51 11 -79zM369.999 310
c1.33301 40.667 -8 72.167 -28 94.5s-47.667 33.5 -83 33.5c-32.667 0 -60 -11.167 -82 -33.5s-35.667 -53.833 -41 -94.5h234z" />
    <glyph glyph-name="f" unicode="f" horiz-adv-x="350" 
d="M374 652c-11.333 4 -23.332 6.83301 -35.999 8.5s-25 2.5 -37 2.5c-36 0 -62 -10.333 -78 -31s-24 -53 -24 -97v-38h138v-70h-138v-427h-90v427h-102v70h102v37c0 68.667 16.167 119.5 48.5 152.5s79.833 49.5 142.5 49.5c27.333 0 54.666 -3 81.999 -9z" />
    <glyph glyph-name="g" unicode="g" horiz-adv-x="541" 
d="M512 -67c0 -26 -6.33398 -50.5049 -19.001 -73.5049s-30.667 -43 -54 -60s-51.166 -30.5 -83.499 -40.5s-67.833 -15 -106.5 -15c-64.667 0 -115.667 12.833 -153 38.5s-56 62.5 -56 110.5c0 29.333 8.16699 55.5 24.5 78.5s35.833 40.833 58.5 53.5
c-15.333 6.66699 -27.333 16.5 -36 29.5s-13 27.833 -13 44.5c0 17.333 5 33.666 15 48.999s23.333 27 40 35c-22.667 13.333 -40.5 31.333 -53.5 54s-19.5 50.334 -19.5 83.001c0 24.667 4.66699 48.334 14 71.001s22.833 42.5 40.5 59.5s39.667 30.5 66 40.5
s56.5 15 90.5 15c13.333 0 25.166 -0.666992 35.499 -2s21.833 -3.66602 34.5 -6.99902h169v-71h-82c12.667 -10 22.5 -23 29.5 -39s10.5 -33.667 10.5 -53c0 -25.333 -4.33301 -49 -13 -71s-21.667 -41 -39 -57s-39.166 -28.667 -65.499 -38s-57.166 -14 -92.499 -14
c-18.667 0 -36.334 2.33301 -53.001 7c-10.667 -5.33301 -18.667 -11.666 -24 -18.999s-8 -15 -8 -23c0 -14 6.66699 -23.667 20 -29s35 -8.66602 65 -9.99902l91 -3c54 -2 95.333 -15.167 124 -39.5s43 -59.166 43 -104.499zM374.999 327.995c0 34 -9.66699 61 -29 81
s-47 30 -83 30c-38 0 -67.167 -10.5 -87.5 -31.5s-30.5 -47.5 -30.5 -79.5c0 -34.667 9.83301 -61.5 29.5 -80.5s48.167 -28.5 85.5 -28.5c36 0 64.167 9.5 84.5 28.5s30.5 45.833 30.5 80.5zM420.999 -78.0049c0 24 -8.16797 42.998 -24.501 56.998
s-42.166 21.667 -77.499 23l-96 4h-15c-5.33301 0 -10 0.333008 -14 1c-19.333 -13.333 -34.833 -28.166 -46.5 -44.499s-17.5 -34.166 -17.5 -53.499c0 -30 12.5 -53.167 37.5 -69.5s57.167 -24.5 96.5 -24.5c50.667 0 89.5 10.167 116.5 30.5s40.5 45.833 40.5 76.5z" />
    <glyph glyph-name="h" unicode="h" horiz-adv-x="575" 
d="M401 0l-0.00195312 319.997c0 35.333 -5.83301 62.833 -17.5 82.5s-34.167 29.5 -67.5 29.5c-20.667 0 -39.667 -5 -57 -15s-32.166 -23.667 -44.499 -41s-22 -37.833 -29 -61.5s-10.5 -49.167 -10.5 -76.5v-238h-90v730h90v-236c0 -16 -0.666992 -33.167 -2 -51.5
s-3.66602 -34.166 -6.99902 -47.499l2 -1c14.667 34 36.667 61.167 66 81.5s65 30.5 107 30.5c28.667 0 52.5 -4.16699 71.5 -12.5s34.333 -19.666 46 -33.999s20 -31.166 25 -50.499s7.5 -40 7.5 -62v-347h-90z" />
    <glyph glyph-name="i" unicode="i" horiz-adv-x="260" 
d="M190 654c0 -16 -5.83301 -29.667 -17.5 -41s-25.834 -17 -42.501 -17s-30.834 5.5 -42.501 16.5s-17.5 24.833 -17.5 41.5s5.83301 30.667 17.5 42s25.834 17 42.501 17s30.834 -5.66699 42.501 -17s17.5 -25.333 17.5 -42zM85 0v497h90v-497h-90z" />
    <glyph glyph-name="j" unicode="j" horiz-adv-x="266" 
d="M196 654c0 -16 -5.83301 -29.667 -17.5 -41s-25.5 -17 -41.5 -17c-16.667 0 -30.834 5.5 -42.501 16.5s-17.5 24.833 -17.5 41.5s5.83301 30.667 17.5 42s25.834 17 42.501 17c16 0 29.833 -5.66699 41.5 -17s17.5 -25.333 17.5 -42zM181 -55
c0 -33.333 -2.83203 -62.502 -8.49902 -87.502s-15.167 -45.667 -28.5 -62s-30.833 -28.666 -52.5 -36.999s-48.834 -12.5 -81.501 -12.5c-11.333 0 -23.166 0.666992 -35.499 2s-23.5 3.66602 -33.5 6.99902l8 79c9.33301 -3.33301 19.5 -6.16602 30.5 -8.49902
s21.833 -3.5 32.5 -3.5c15.333 0 28.166 1.83301 38.499 5.5s18.5 9.83398 24.5 18.501s10.333 20.5 13 35.5s4 33.5 4 55.5v560h89v-552z" />
    <glyph glyph-name="k" unicode="k" horiz-adv-x="493" 
d="M359 0l-184 256v-256h-90v730h90v-451l175 218h109l-191 -227l206 -270h-115z" />
    <glyph glyph-name="l" unicode="l" horiz-adv-x="260" 
d="M85 0v730h90v-730h-90z" />
    <glyph glyph-name="m" unicode="m" horiz-adv-x="879" 
d="M704 0l0.00683594 319c0 34 -5.33301 61.333 -16 82s-32.334 31 -65.001 31c-18 0 -35.333 -4.5 -52 -13.5s-31.5 -22 -44.5 -39s-23.333 -37.667 -31 -62s-11.5 -51.5 -11.5 -81.5v-236h-89v319c0 16 -1 30.833 -3 44.5s-6 25.5 -12 35.5s-14.333 18 -25 24
s-24.334 9 -41.001 9c-19.333 0 -37.333 -4.83301 -54 -14.5s-31.334 -23.167 -44.001 -40.5s-22.667 -38 -30 -62s-11 -50.333 -11 -79v-236h-90v497h87c0 -15.333 -0.5 -32.833 -1.5 -52.5s-2.83301 -37.167 -5.5 -52.5l1 -1c14.667 35.333 37.167 63.333 67.5 84
s65.5 31 105.5 31c26 0 47.667 -4 65 -12s31.166 -17.667 41.499 -29s17.666 -23.666 21.999 -36.999s7.16602 -25 8.49902 -35c5.33301 12 12.666 24.5 21.999 37.5s21 25.167 35 36.5s30.333 20.666 49 27.999s40 11 64 11c47.333 0 83.833 -13 109.5 -39
s38.5 -67.333 38.5 -124v-343h-90z" />
    <glyph glyph-name="n" unicode="n" horiz-adv-x="575" 
d="M401 0l-0.00292969 319.998c0 35.333 -5.83301 62.833 -17.5 82.5s-34.167 29.5 -67.5 29.5c-20.667 0 -39.667 -5 -57 -15s-32.166 -23.667 -44.499 -41s-22 -37.833 -29 -61.5s-10.5 -49.167 -10.5 -76.5v-238h-90v497h87c0 -15.333 -0.5 -32.833 -1.5 -52.5
s-3.16699 -37.167 -6.5 -52.5h2c14.667 34 36.834 61.5 66.501 82.5s65.834 31.5 108.501 31.5c28.667 0 52.5 -4.16699 71.5 -12.5s34.333 -19.666 46 -33.999s20 -31.166 25 -50.499s7.5 -40 7.5 -62v-347h-90z" />
    <glyph glyph-name="o" unicode="o" horiz-adv-x="545" 
d="M505 257c0 -37.333 -5.66699 -72.1689 -17 -104.502s-27.5 -60.5 -48.5 -84.5s-46.5 -42.833 -76.5 -56.5s-63.333 -20.5 -100 -20.5c-68 0 -122.167 20.333 -162.5 61s-60.5 104.667 -60.5 192c0 36.667 5.5 70.834 16.5 102.501s27 59.334 48 83.001
s46.5 42.334 76.5 56.001s63.667 20.5 101 20.5c32 0 61.5 -4.5 88.5 -13.5s50.5 -23.5 70.5 -43.5s35.667 -45.833 47 -77.5s17 -69.834 17 -114.501zM412 251.997c0 56.667 -11.502 100.669 -34.502 132.002s-57.5 47 -103.5 47c-18 0 -35.5 -3.5 -52.5 -10.5
s-32 -17.833 -45 -32.5s-23.5 -33.167 -31.5 -55.5s-12 -48.833 -12 -79.5c0 -60.667 12 -106.834 36 -138.501s59 -47.5 105 -47.5c18.667 0 36.334 3.66699 53.001 11s31.334 18.666 44.001 33.999s22.667 34.5 30 57.5s11 50.5 11 82.5z" />
    <glyph glyph-name="p" unicode="p" horiz-adv-x="558" 
d="M515 272c0 -89.333 -22.5 -158.001 -67.5 -206.001s-107.833 -72 -188.5 -72c-15.333 0 -29.5 0.333008 -42.5 1s-26.833 2.33398 -41.5 5.00098v-247h-90v744h87c0 -14 -0.5 -30.833 -1.5 -50.5s-3.16699 -36.5 -6.5 -50.5l2 -1c14 34.667 35.333 61.834 64 81.501
s63 29.5 103 29.5c58.667 0 103.667 -19.833 135 -59.5s47 -97.834 47 -174.501zM421 263.999c0 54 -8.83203 95.5 -26.499 124.5s-45.5 43.5 -83.5 43.5c-22.667 0 -42.5 -6 -59.5 -18s-31.167 -27.167 -42.5 -45.5s-19.833 -38.833 -25.5 -61.5s-8.5 -45 -8.5 -67v-164
c26 -8 55.333 -12 88 -12c23.333 0 44.666 3.66699 63.999 11s36 19 50 35s24.833 36.667 32.5 62s11.5 56 11.5 92z" />
    <glyph glyph-name="q" unicode="q" horiz-adv-x="558" 
d="M384 -247l0.000976562 258.002c0 11.333 0.333008 25.166 1 41.499s2.66699 32.166 6 47.499l-2 1c-13.333 -34 -34.333 -60.833 -63 -80.5s-61.667 -29.5 -99 -29.5c-58.667 0 -104 19.333 -136 58s-48 97 -48 175c0 88 23 156.833 69 206.5s110.333 74.5 193 74.5
c30 0 59.167 -1.33301 87.5 -4s55.166 -6 80.499 -10v-738h-89zM384.001 423.002c-28.667 6.66699 -58.333 10 -89 10c-47.333 0 -85.333 -15.5 -114 -46.5s-43 -82.167 -43 -153.5c0 -54 8.66699 -95.5 26 -124.5s45 -43.5 83 -43.5c22.667 0 42.5 6 59.5 18
s31.167 27.167 42.5 45.5s20 39 26 62s9 45.5 9 67.5v165z" />
    <glyph glyph-name="r" unicode="r" horiz-adv-x="355" 
d="M330 417c-52.667 9.33301 -91.667 -4.5 -117 -41.5s-38 -95.5 -38 -175.5v-200h-90v497h87c0 -15.333 -0.833008 -33.666 -2.5 -54.999s-4.5 -42.333 -8.5 -63h2c5.33301 17.333 12.5 34.166 21.5 50.499s20.5 30.5 34.5 42.5s30.5 21.333 49.5 28s40.833 8.66699 65.5 6
z" />
    </font>
</defs>
</svg>
