<svg xmlns="http://www.w3.org/2000/svg" width="21" height="21" viewBox="0 0 21 21">
  <path fill="#CC3947" d="M30.5,21 C36.2989899,21 41,25.7010101 41,31.5 C41,37.2989899 36.2989899,42 30.5,42 C24.7010101,42 20,37.2989899 20,31.5 C20,25.7010101 24.7010101,21 30.5,21 Z M30.5,22 C25.2532949,22 21,26.2532949 21,31.5 C21,36.7467051 25.2532949,41 30.5,41 C35.7467051,41 40,36.7467051 40,31.5 C40,26.2532949 35.7467051,22 30.5,22 Z M27.7843055,28.0885912 L27.8535534,28.1464466 L30.5,30.793 L33.1464466,28.1464466 C33.3417088,27.9511845 33.6582912,27.9511845 33.8535534,28.1464466 C34.0271197,28.320013 34.0464049,28.5894374 33.9114088,28.7843055 L33.8535534,28.8535534 L31.207,31.5 L33.8535534,34.1464466 C34.0488155,34.3417088 34.0488155,34.6582912 33.8535534,34.8535534 C33.679987,35.0271197 33.4105626,35.0464049 33.2156945,34.9114088 L33.1464466,34.8535534 L30.5,32.207 L27.8535534,34.8535534 C27.6582912,35.0488155 27.3417088,35.0488155 27.1464466,34.8535534 C26.9728803,34.679987 26.9535951,34.4105626 27.0885912,34.2156945 L27.1464466,34.1464466 L29.793,31.5 L27.1464466,28.8535534 C26.9511845,28.6582912 26.9511845,28.3417088 27.1464466,28.1464466 C27.320013,27.9728803 27.5894374,27.9535951 27.7843055,28.0885912 Z" transform="translate(-20 -21)"/>
</svg>
