<svg xmlns="http://www.w3.org/2000/svg" width="60" height="60" viewBox="0 0 60 60">
  <path fill="#44495A" d="M210,0 C226.568542,0 240,13.4314575 240,30 C240,46.5685425 226.568542,60 210,60 C193.431458,60 180,46.5685425 180,30 C180,13.4314575 193.431458,0 210,0 Z M189.823335,11.8437476 C185.492794,16.6530674 182.857143,23.018739 182.857143,30 C182.857143,44.9905861 195.009414,57.1428571 210,57.1428571 C216.981261,57.1428571 223.346933,54.5072057 228.156252,50.1766653 Z M210,2.85714286 C203.018739,2.85714286 196.653067,5.49279429 191.843748,9.82333471 L230.176665,48.1562524 C234.507206,43.3469326 237.142857,36.981261 237.142857,30 C237.142857,15.0094139 224.990586,2.85714286 210,2.85714286 Z" transform="translate(-180)"/>
</svg>
