<svg xmlns="http://www.w3.org/2000/svg" width="8" height="8" viewBox="0 0 8 8">
  <path fill="#005157" d="M1,11 C1.51283584,11 1.93550716,11.3860402 1.99327227,11.8833789 L2,12 L2,15.584 L6.29289322,11.2928932 C6.68341751,10.9023689 7.31658249,10.9023689 7.70710678,11.2928932 C8.06759074,11.6533772 8.09532028,12.2206082 7.79029539,12.6128994 L7.70710678,12.7071068 L3.414,17 L7,17 C7.51283584,17 7.93550716,17.3860402 7.99327227,17.8833789 L8,18 C8,18.5128358 7.61395981,18.9355072 7.11662113,18.9932723 L7,19 L1,19 L0.967745384,18.9994829 C0.949733631,18.9989053 0.931734513,18.9978436 0.913769205,18.9962979 L1,19 C0.949379716,19 0.899637905,18.9962388 0.851038784,18.9889807 C0.83405099,18.9863719 0.816624737,18.9832978 0.799274239,18.9797599 C0.777253921,18.9753602 0.755563524,18.9701664 0.734160388,18.964279 C0.718536724,18.9599023 0.703148659,18.9552713 0.687857476,18.9502619 C0.668202324,18.9438775 0.648420797,18.9366843 0.628941476,18.928896 C0.611204351,18.9218036 0.593901505,18.914321 0.576778453,18.9063266 C0.556108604,18.8966234 0.535706055,18.8862061 0.515723049,18.8751242 C0.503605559,18.8685012 0.491386894,18.8613931 0.479291247,18.8540045 C0.453725048,18.8382813 0.428869307,18.8215099 0.404840697,18.8036865 C0.397396959,18.7982466 0.390157595,18.7927155 0.382977653,18.7870723 C0.319818245,18.7374483 0.262551711,18.6801818 0.212785965,18.6167501 L0.292893219,18.7071068 C0.257499166,18.6717127 0.225312953,18.6343256 0.196334578,18.5953066 C0.178490093,18.5711307 0.1617187,18.546275 0.146067433,18.5206602 C0.138606922,18.5086131 0.131498828,18.4963944 0.124671174,18.4840621 C0.11379392,18.4642939 0.103376643,18.4438914 0.0936537803,18.4230991 C0.0856790475,18.4060985 0.0781964242,18.3887956 0.0712254916,18.371336 C0.0633157362,18.3515792 0.0561224864,18.3317977 0.0495466818,18.3117364 C0.0447287157,18.2968513 0.0400977346,18.2814633 0.0358451423,18.265993 C0.0298336259,18.2444365 0.0246397952,18.2227461 0.0201651536,18.2007941 C0.0167021706,18.1833753 0.0136280806,18.165949 0.0110178009,18.1484669 C0.00941754284,18.1382359 0.00798605907,18.1274549 0.00672773133,18.1166211 L0.00396640833,18.0892501 C0.00189498016,18.0659949 0.000634893312,18.042681 0.000186147798,18.0193545 L0,18 L0,12 C0,11.4477153 0.44771525,11 1,11 Z" transform="translate(0 -11)"/>
</svg>
