<svg xmlns="http://www.w3.org/2000/svg" width="22" height="20" viewBox="0 0 22 20">
  <path fill="#005157" d="M17.208836,0.309236515 C17.5666925,-0.0653618732 18.1443674,-0.100463712 18.5432563,0.208485881 L18.6390231,0.292893654 L21.6390231,3.29289365 C21.9995071,3.65337762 22.0272366,4.22060867 21.7222117,4.61289988 L21.6390231,4.70710722 L18.1390231,8.20710722 C17.7785392,8.56759118 17.2113081,8.59532071 16.8190169,8.29029582 L16.7248096,8.20710722 L14.5269163,6.01000044 L11.8169163,8.84700044 L11.8800491,8.93838437 C12.7924987,10.3173187 13.1493511,12.0019038 12.8618874,13.6446173 L12.804452,13.9340025 L12.7412335,14.1933551 C12.1425452,16.4478188 10.3817347,18.2086293 8.12727105,18.8073176 C5.87280738,19.4060059 3.47039836,18.7507669 1.82462813,17.0827122 C-0.638691227,14.5322495 -0.603462295,10.4781612 1.90380739,7.97089149 C4.10181804,5.77288085 7.48859602,5.47469306 10.008964,7.09418705 L10.2549163,7.26100044 L13.7248096,3.79289365 C13.8361197,3.6815835 13.9671422,3.6019998 14.1066398,3.55414255 L17.208836,0.309236515 Z M9.62620455,9.33028864 C7.86049955,7.6249137 5.05382305,7.64930296 3.31802096,9.38510505 C1.58221886,11.1209071 1.5578296,13.9275836 3.255745,15.6856473 C4.38996009,16.8351641 6.05316633,17.2887912 7.61394887,16.8743147 C9.17473141,16.4598382 10.3937541,15.2408155 10.8082306,13.680033 C11.1837416,12.2659817 10.8471525,10.7639752 9.91973196,9.64864125 L9.759712,9.46641394 L9.69891634,9.39200044 L9.62620455,9.33028864 Z M17.9479163,2.43100044 L15.9099163,4.56300044 L17.4319163,6.08500044 L19.5169163,4.00000044 L17.9479163,2.43100044 Z"/>
</svg>
